G04 #@! TF.FileFunction,Copper,L1,Top,Signal*
%FSLAX46Y46*%
G04 Gerber Fmt 4.6, Leading zero omitted, Abs format (unit mm)*
G04 Created by KiCad (PCBNEW 4.0.5) date Fri Apr 14 16:53:27 2017*
%MOMM*%
%LPD*%
G01*
G04 APERTURE LIST*
%ADD10C,0.100000*%
%ADD11R,0.600000X0.500000*%
%ADD12R,1.000000X0.350000*%
%ADD13R,0.500000X0.300000*%
%ADD14R,0.670000X0.300000*%
%ADD15R,1.000000X3.500000*%
%ADD16C,1.371600*%
%ADD17R,0.500000X0.600000*%
%ADD18R,0.150000X1.000000*%
%ADD19R,0.381000X1.000000*%
%ADD20R,0.254000X1.000000*%
%ADD21R,19.400000X0.250000*%
%ADD22R,1.524000X1.200000*%
%ADD23R,6.000000X1.917700*%
%ADD24R,0.600000X0.400000*%
%ADD25R,0.750000X0.800000*%
%ADD26R,0.500000X0.900000*%
%ADD27R,0.400000X0.600000*%
%ADD28R,0.900000X0.500000*%
%ADD29R,1.600000X1.000000*%
%ADD30C,2.540000*%
%ADD31R,0.350000X1.000000*%
%ADD32R,0.300000X0.500000*%
%ADD33R,0.300000X0.670000*%
%ADD34C,0.355600*%
%ADD35C,0.508000*%
%ADD36C,0.254000*%
%ADD37C,0.381000*%
%ADD38C,0.127000*%
%ADD39C,0.150000*%
%ADD40C,0.508000*%
%ADD41C,0.762000*%
G04 APERTURE END LIST*
D10*
D11*
X143346080Y-104693720D03*
X144446080Y-104693720D03*
D12*
X176112520Y-97457340D03*
D13*
X178912520Y-99332340D03*
D14*
X175847520Y-99632340D03*
X175847520Y-98432340D03*
D13*
X178912520Y-98732340D03*
D14*
X175847520Y-99032340D03*
X175847520Y-100232340D03*
X175847520Y-100832340D03*
X175847520Y-101432340D03*
X175847520Y-102032340D03*
X175847520Y-102632340D03*
X175847520Y-103232340D03*
X175847520Y-103832340D03*
X175847520Y-104432340D03*
X175847520Y-105032340D03*
X175847520Y-105632340D03*
X175847520Y-106232340D03*
X175847520Y-106832340D03*
X175847520Y-107432340D03*
X175847520Y-108032340D03*
D13*
X178912520Y-99932340D03*
X178912520Y-100532340D03*
X178912520Y-101132340D03*
X178912520Y-101732340D03*
X178912520Y-102332340D03*
X178912520Y-102932340D03*
X178912520Y-103532340D03*
X178912520Y-104132340D03*
X178912520Y-104732340D03*
X178912520Y-105332340D03*
X178912520Y-105932340D03*
X178912520Y-106532340D03*
X178912520Y-107132340D03*
X178912520Y-107732340D03*
D12*
X176112520Y-109002340D03*
D15*
X189923420Y-98201480D03*
D16*
X189923420Y-95623380D03*
D15*
X187393580Y-98201480D03*
D16*
X187393580Y-95623380D03*
D15*
X182620920Y-98201480D03*
D16*
X182620920Y-95623380D03*
D15*
X187396120Y-89397840D03*
D16*
X187396120Y-86819740D03*
D15*
X185361580Y-89397840D03*
D16*
X185361580Y-86819740D03*
D15*
X182819040Y-89397840D03*
D16*
X182819040Y-86819740D03*
D15*
X180792120Y-89397840D03*
D16*
X180792120Y-86819740D03*
D15*
X184655460Y-98201480D03*
D16*
X184655460Y-95623380D03*
D15*
X187393580Y-107731560D03*
D16*
X187393580Y-105153460D03*
D15*
X180835300Y-115994180D03*
D16*
X180835300Y-113416080D03*
D15*
X189923420Y-107731560D03*
D16*
X189923420Y-105153460D03*
D15*
X185359040Y-115994180D03*
D16*
X185359040Y-113416080D03*
D15*
X184655460Y-107731560D03*
D16*
X184655460Y-105153460D03*
D15*
X187393580Y-115994180D03*
D16*
X187393580Y-113416080D03*
D15*
X182559960Y-107731560D03*
D16*
X182559960Y-105153460D03*
D15*
X182869840Y-115994180D03*
D16*
X182869840Y-113416080D03*
D17*
X115148360Y-116640700D03*
X115148360Y-115540700D03*
D18*
X150380160Y-86166440D03*
D19*
X149963600Y-86166440D03*
D20*
X149449160Y-86166440D03*
D18*
X149111200Y-86166440D03*
X148834200Y-86166440D03*
X148557200Y-86166440D03*
X148280200Y-86166440D03*
X147480160Y-86166440D03*
X147203160Y-86166440D03*
X145680160Y-86166440D03*
X145126160Y-86166440D03*
X139260160Y-86166440D03*
X138983160Y-86166440D03*
X138680160Y-86166440D03*
X138403160Y-86166440D03*
X138126160Y-86166440D03*
X137849160Y-86166440D03*
X137080160Y-86166440D03*
X136803160Y-86166440D03*
D20*
X134749000Y-86166440D03*
D18*
X134370000Y-86166440D03*
D19*
X133553160Y-86166440D03*
D18*
X131380160Y-86166440D03*
D21*
X140923740Y-84977720D03*
X140923740Y-84591640D03*
X140923740Y-85359520D03*
D22*
X142153100Y-86080080D03*
D23*
X148539200Y-100296980D03*
X148539200Y-97637600D03*
X113179860Y-100296980D03*
X113179860Y-97637600D03*
D17*
X150611840Y-90849360D03*
X150611840Y-91949360D03*
D24*
X130081020Y-113794960D03*
X130081020Y-112894960D03*
D17*
X133974840Y-116638160D03*
X133974840Y-115538160D03*
X111031020Y-109884300D03*
X111031020Y-108784300D03*
X120208040Y-116643240D03*
X120208040Y-115543240D03*
X113654840Y-116640700D03*
X113654840Y-115540700D03*
D11*
X138987440Y-105135680D03*
X140087440Y-105135680D03*
D17*
X140675360Y-100011320D03*
X140675360Y-98911320D03*
D11*
X138987440Y-103926640D03*
X140087440Y-103926640D03*
X124115920Y-104693720D03*
X123015920Y-104693720D03*
X124105760Y-103352600D03*
X123005760Y-103352600D03*
X120666600Y-105135680D03*
X119566600Y-105135680D03*
X120666600Y-103926640D03*
X119566600Y-103926640D03*
X143346080Y-103352600D03*
X144446080Y-103352600D03*
D17*
X139456160Y-100041800D03*
X139456160Y-98941800D03*
X137993120Y-99477920D03*
X137993120Y-98377920D03*
X136834880Y-99493160D03*
X136834880Y-98393160D03*
D25*
X136489440Y-96381000D03*
X136489440Y-94881000D03*
D17*
X110733840Y-92261600D03*
X110733840Y-93361600D03*
X110947200Y-88883400D03*
X110947200Y-89983400D03*
X128313180Y-92828020D03*
X128313180Y-93928020D03*
X113344960Y-92312400D03*
X113344960Y-93412400D03*
X127802640Y-87991860D03*
X127802640Y-89091860D03*
X125536960Y-90849360D03*
X125536960Y-91949360D03*
X126438660Y-87989320D03*
X126438660Y-89089320D03*
X124063760Y-87989320D03*
X124063760Y-89089320D03*
X122814080Y-87994400D03*
X122814080Y-89094400D03*
X121127520Y-87994400D03*
X121127520Y-89094400D03*
X119913400Y-87994400D03*
X119913400Y-89094400D03*
X130738880Y-90849360D03*
X130738880Y-91949360D03*
X112247680Y-88024880D03*
X112247680Y-89124880D03*
X150985220Y-93234420D03*
X150985220Y-94334420D03*
X133563360Y-91728200D03*
X133563360Y-92828200D03*
X147665440Y-93226800D03*
X147665440Y-94326800D03*
X147675600Y-88014720D03*
X147675600Y-89114720D03*
X145729960Y-90905240D03*
X145729960Y-92005240D03*
X146342100Y-88014720D03*
X146342100Y-89114720D03*
X144353280Y-88009640D03*
X144353280Y-89109640D03*
X143108680Y-88009640D03*
X143108680Y-89109640D03*
X141368780Y-88009640D03*
X141368780Y-89109640D03*
X140136880Y-88009640D03*
X140136880Y-89109640D03*
X150393400Y-88375400D03*
X150393400Y-89475400D03*
X131381500Y-87961380D03*
X131381500Y-89061380D03*
X110756700Y-107130940D03*
X110756700Y-106030940D03*
X113431320Y-110750440D03*
X113431320Y-109650440D03*
X128016000Y-113783200D03*
X128016000Y-112683200D03*
X115443000Y-114054980D03*
X115443000Y-112954980D03*
X117358160Y-116643240D03*
X117358160Y-115543240D03*
X118607840Y-116643240D03*
X118607840Y-115543240D03*
X121462800Y-116643240D03*
X121462800Y-115543240D03*
X112186720Y-110749080D03*
X112186720Y-109649080D03*
X129306320Y-116643240D03*
X129306320Y-115543240D03*
X151213820Y-113254880D03*
X151213820Y-112154880D03*
X150952200Y-116014500D03*
X150952200Y-114914500D03*
X133700520Y-111558160D03*
X133700520Y-110458160D03*
X148272500Y-113097400D03*
X148272500Y-111997400D03*
X135595360Y-114054980D03*
X135595360Y-112954980D03*
X135280400Y-116640700D03*
X135280400Y-115540700D03*
X137642600Y-116648320D03*
X137642600Y-115548320D03*
X138897360Y-116643240D03*
X138897360Y-115543240D03*
X140522960Y-116643240D03*
X140522960Y-115543240D03*
X141787880Y-116643240D03*
X141787880Y-115543240D03*
X132486400Y-111558160D03*
X132486400Y-110458160D03*
X149661880Y-116998840D03*
X149661880Y-115898840D03*
D25*
X120817640Y-96838200D03*
X120817640Y-95338200D03*
X141620240Y-96497840D03*
X141620240Y-94997840D03*
X121330720Y-109404720D03*
X121330720Y-110904720D03*
X141097000Y-109719680D03*
X141097000Y-111219680D03*
D26*
X128276920Y-99522280D03*
X129776920Y-99522280D03*
D24*
X149707600Y-112819600D03*
X149707600Y-111919600D03*
X149057360Y-93191760D03*
X149057360Y-94091760D03*
X129753360Y-92844200D03*
X129753360Y-93744200D03*
D27*
X140581800Y-101297740D03*
X139681800Y-101297740D03*
X137864000Y-100774500D03*
X136964000Y-100774500D03*
X142440240Y-114122200D03*
X143340240Y-114122200D03*
X143258120Y-112085120D03*
X144158120Y-112085120D03*
D28*
X122438160Y-95488060D03*
X122438160Y-96988060D03*
D24*
X128320800Y-90746160D03*
X128320800Y-91646160D03*
X114508280Y-90670800D03*
X114508280Y-89770800D03*
D28*
X143195040Y-95160400D03*
X143195040Y-96660400D03*
D24*
X147660000Y-90940000D03*
X147660000Y-91840000D03*
X134686040Y-90254240D03*
X134686040Y-89354240D03*
D28*
X119603520Y-110965680D03*
X119603520Y-109465680D03*
D24*
X113466880Y-114061660D03*
X113466880Y-113161660D03*
X126913640Y-115643240D03*
X126913640Y-116543240D03*
D28*
X139496800Y-111367000D03*
X139496800Y-109867000D03*
D24*
X133725920Y-114010860D03*
X133725920Y-113110860D03*
X147142200Y-115643240D03*
X147142200Y-116543240D03*
D29*
X146984720Y-109526200D03*
X146984720Y-106526200D03*
D27*
X149222040Y-109562900D03*
X150122040Y-109562900D03*
D26*
X146625000Y-104100000D03*
X148125000Y-104100000D03*
D28*
X135102600Y-100892040D03*
X135102600Y-99392040D03*
D30*
X149783800Y-106258360D03*
D31*
X125938360Y-105451560D03*
D32*
X127813360Y-102651560D03*
D33*
X128113360Y-105716560D03*
X126913360Y-105716560D03*
D32*
X127213360Y-102651560D03*
D33*
X127513360Y-105716560D03*
X128713360Y-105716560D03*
X129313360Y-105716560D03*
X129913360Y-105716560D03*
X130513360Y-105716560D03*
X131113360Y-105716560D03*
X131713360Y-105716560D03*
X132313360Y-105716560D03*
X132913360Y-105716560D03*
X133513360Y-105716560D03*
X134113360Y-105716560D03*
X134713360Y-105716560D03*
X135313360Y-105716560D03*
X135913360Y-105716560D03*
X136513360Y-105716560D03*
D32*
X128413360Y-102651560D03*
X129013360Y-102651560D03*
X129613360Y-102651560D03*
X130213360Y-102651560D03*
X130813360Y-102651560D03*
X131413360Y-102651560D03*
X132013360Y-102651560D03*
X132613360Y-102651560D03*
X133213360Y-102651560D03*
X133813360Y-102651560D03*
X134413360Y-102651560D03*
X135013360Y-102651560D03*
X135613360Y-102651560D03*
X136213360Y-102651560D03*
D31*
X137483360Y-105451560D03*
D12*
X155325160Y-97457340D03*
D13*
X158125160Y-99332340D03*
D14*
X155060160Y-99632340D03*
X155060160Y-98432340D03*
D13*
X158125160Y-98732340D03*
D14*
X155060160Y-99032340D03*
X155060160Y-100232340D03*
X155060160Y-100832340D03*
X155060160Y-101432340D03*
X155060160Y-102032340D03*
X155060160Y-102632340D03*
X155060160Y-103232340D03*
X155060160Y-103832340D03*
X155060160Y-104432340D03*
X155060160Y-105032340D03*
X155060160Y-105632340D03*
X155060160Y-106232340D03*
X155060160Y-106832340D03*
X155060160Y-107432340D03*
X155060160Y-108032340D03*
D13*
X158125160Y-99932340D03*
X158125160Y-100532340D03*
X158125160Y-101132340D03*
X158125160Y-101732340D03*
X158125160Y-102332340D03*
X158125160Y-102932340D03*
X158125160Y-103532340D03*
X158125160Y-104132340D03*
X158125160Y-104732340D03*
X158125160Y-105332340D03*
X158125160Y-105932340D03*
X158125160Y-106532340D03*
X158125160Y-107132340D03*
X158125160Y-107732340D03*
D12*
X155325160Y-109002340D03*
D18*
X130150160Y-86166440D03*
D19*
X129733600Y-86166440D03*
D20*
X129219160Y-86166440D03*
D18*
X128881200Y-86166440D03*
X128604200Y-86166440D03*
X128327200Y-86166440D03*
X128050200Y-86166440D03*
X127250160Y-86166440D03*
X126973160Y-86166440D03*
X125450160Y-86166440D03*
X124896160Y-86166440D03*
X119030160Y-86166440D03*
X118753160Y-86166440D03*
X118450160Y-86166440D03*
X118173160Y-86166440D03*
X117896160Y-86166440D03*
X117619160Y-86166440D03*
X116850160Y-86166440D03*
X116573160Y-86166440D03*
D20*
X114519000Y-86166440D03*
D18*
X114140000Y-86166440D03*
D19*
X113323160Y-86166440D03*
D18*
X111150160Y-86166440D03*
D21*
X120693740Y-84977720D03*
X120693740Y-84591640D03*
X120693740Y-85359520D03*
D22*
X121923100Y-86080080D03*
D18*
X131469840Y-118503560D03*
D19*
X131886400Y-118503560D03*
D20*
X132400840Y-118503560D03*
D18*
X132738800Y-118503560D03*
X133015800Y-118503560D03*
X133292800Y-118503560D03*
X133569800Y-118503560D03*
X134369840Y-118503560D03*
X134646840Y-118503560D03*
X136169840Y-118503560D03*
X136723840Y-118503560D03*
X142589840Y-118503560D03*
X142866840Y-118503560D03*
X143169840Y-118503560D03*
X143446840Y-118503560D03*
X143723840Y-118503560D03*
X144000840Y-118503560D03*
X144769840Y-118503560D03*
X145046840Y-118503560D03*
D20*
X147101000Y-118503560D03*
D18*
X147480000Y-118503560D03*
D19*
X148296840Y-118503560D03*
D18*
X150469840Y-118503560D03*
D21*
X140926260Y-119692280D03*
X140926260Y-120078360D03*
X140926260Y-119310480D03*
D22*
X139696900Y-118589920D03*
D18*
X111229840Y-118503560D03*
D19*
X111646400Y-118503560D03*
D20*
X112160840Y-118503560D03*
D18*
X112498800Y-118503560D03*
X112775800Y-118503560D03*
X113052800Y-118503560D03*
X113329800Y-118503560D03*
X114129840Y-118503560D03*
X114406840Y-118503560D03*
X115929840Y-118503560D03*
X116483840Y-118503560D03*
X122349840Y-118503560D03*
X122626840Y-118503560D03*
X122929840Y-118503560D03*
X123206840Y-118503560D03*
X123483840Y-118503560D03*
X123760840Y-118503560D03*
X124529840Y-118503560D03*
X124806840Y-118503560D03*
D20*
X126861000Y-118503560D03*
D18*
X127240000Y-118503560D03*
D19*
X128056840Y-118503560D03*
D18*
X130229840Y-118503560D03*
D21*
X120686260Y-119692280D03*
X120686260Y-120078360D03*
X120686260Y-119310480D03*
D22*
X119456900Y-118589920D03*
D15*
X160004760Y-89397840D03*
D16*
X160004760Y-86819740D03*
D15*
X162031680Y-89397840D03*
D16*
X162031680Y-86819740D03*
D15*
X164574220Y-89397840D03*
D16*
X164574220Y-86819740D03*
D15*
X166608760Y-89397840D03*
D16*
X166608760Y-86819740D03*
D15*
X161833560Y-98201480D03*
D16*
X161833560Y-95623380D03*
D15*
X163868100Y-98201480D03*
D16*
X163868100Y-95623380D03*
D15*
X166606220Y-98201480D03*
D16*
X166606220Y-95623380D03*
D15*
X169136060Y-98201480D03*
D16*
X169136060Y-95623380D03*
D15*
X161772600Y-107731560D03*
D16*
X161772600Y-105153460D03*
D15*
X166606220Y-115994180D03*
D16*
X166606220Y-113416080D03*
D15*
X162082480Y-115994180D03*
D16*
X162082480Y-113416080D03*
D15*
X163868100Y-107731560D03*
D16*
X163868100Y-105153460D03*
D15*
X164571680Y-115994180D03*
D16*
X164571680Y-113416080D03*
D15*
X160047940Y-115994180D03*
D16*
X160047940Y-113416080D03*
D15*
X169136060Y-107731560D03*
D16*
X169136060Y-105153460D03*
D15*
X166606220Y-107731560D03*
D16*
X166606220Y-105153460D03*
D34*
X144370000Y-105700000D03*
X144400000Y-102230000D03*
X141690000Y-98570000D03*
X135630920Y-98602800D03*
X117300032Y-96663157D03*
X117756940Y-108473240D03*
X117294660Y-94607380D03*
X118851680Y-108473240D03*
X122547380Y-112039400D03*
X122549920Y-113080800D03*
X138689080Y-90561160D03*
X138696700Y-89047320D03*
X135544560Y-103596440D03*
X133461760Y-103822500D03*
X122880962Y-109617938D03*
X133428740Y-103238300D03*
X134868920Y-103273860D03*
X117782633Y-96662240D03*
X117795040Y-94617540D03*
X138690000Y-91720000D03*
X119298720Y-90769440D03*
X118846600Y-107990640D03*
X120200000Y-91610000D03*
X138260000Y-90160000D03*
X138318240Y-90967560D03*
X138287760Y-88630760D03*
X122910601Y-110713519D03*
X123068080Y-112044480D03*
X123073160Y-113080800D03*
X117751860Y-107990640D03*
X133037580Y-104460040D03*
X118366501Y-95755499D03*
X118259860Y-97805240D03*
X132979160Y-101785420D03*
X137855960Y-89753440D03*
X123545600Y-113370360D03*
X137977880Y-88209120D03*
X118110000Y-90835480D03*
X124252378Y-110007146D03*
X124226320Y-111633000D03*
X124249180Y-112580420D03*
X137822940Y-92029280D03*
X137800080Y-90954860D03*
X119288560Y-92080080D03*
X117751860Y-107289600D03*
X118826280Y-107304840D03*
X130477260Y-104548940D03*
X131363720Y-104531160D03*
X131714240Y-104134920D03*
X132654040Y-104056180D03*
X117765769Y-91173725D03*
X119296180Y-92829380D03*
X118848671Y-95775907D03*
X118742452Y-97802186D03*
X132463540Y-101770180D03*
X124701300Y-112933480D03*
X137410000Y-92860000D03*
X137276840Y-90965020D03*
X124720000Y-111630000D03*
X124630000Y-109670000D03*
X123860560Y-113756440D03*
X137551160Y-87939880D03*
X137459720Y-89372440D03*
X117759480Y-106786680D03*
X118811040Y-106794300D03*
X130469640Y-104051100D03*
D35*
X141825980Y-111229140D03*
D34*
X150558500Y-109562900D03*
X121460260Y-115001040D03*
X120202960Y-114995960D03*
X118597680Y-114995960D03*
X117355620Y-115001040D03*
X113647220Y-115001040D03*
X115145820Y-115008660D03*
X115440460Y-112422940D03*
X135282940Y-115013740D03*
X133974840Y-115008660D03*
X135597900Y-112420400D03*
X141785340Y-115008660D03*
X140517880Y-115008660D03*
X138894820Y-115013740D03*
X137642600Y-115013740D03*
X127802640Y-89621360D03*
X126438660Y-89613740D03*
X145735040Y-92542360D03*
X150609300Y-92491560D03*
X150398480Y-90007440D03*
X147675600Y-89644220D03*
X146344640Y-89641680D03*
X144350740Y-89644220D03*
X143113760Y-89639140D03*
X141371320Y-89639140D03*
X140141960Y-89639140D03*
X130738880Y-92478860D03*
X131386580Y-89590880D03*
X125534420Y-92483940D03*
X113350040Y-93944440D03*
X110736380Y-93891100D03*
X110947200Y-90517980D03*
X112255300Y-89654380D03*
X124068840Y-89623900D03*
X122824240Y-89626440D03*
X121132600Y-89628980D03*
X119910860Y-89634060D03*
X133568440Y-93370400D03*
X128310640Y-94503240D03*
X129306320Y-115018820D03*
X128018540Y-112135920D03*
X151213820Y-111612680D03*
X110759240Y-105491280D03*
X111033560Y-108247180D03*
X150962360Y-114335560D03*
D35*
X138130280Y-93289120D03*
D34*
X118872000Y-118943120D03*
X119456200Y-118592600D03*
X120030240Y-118943120D03*
X120030240Y-118170960D03*
X118872000Y-118165880D03*
X121920000Y-86080600D03*
X122499120Y-86492080D03*
X121366280Y-86497160D03*
X122499120Y-85664040D03*
X121371360Y-85664040D03*
X142722600Y-86481920D03*
X141589760Y-86497160D03*
X142717520Y-85658960D03*
X142153640Y-86080600D03*
X141579600Y-85664040D03*
X140274040Y-119004080D03*
X139120880Y-118999000D03*
X140258800Y-118170960D03*
X139705080Y-118607840D03*
X139136120Y-118181120D03*
X116078000Y-101600000D03*
X116078000Y-102108000D03*
X116078000Y-102616000D03*
X115316000Y-102616000D03*
X115316000Y-101600000D03*
X111506000Y-101600000D03*
X112268000Y-101600000D03*
X111506000Y-102108000D03*
X112268000Y-102108000D03*
X111506000Y-102616000D03*
X112268000Y-102616000D03*
X113030000Y-101600000D03*
X113030000Y-102108000D03*
X113030000Y-102616000D03*
X113792000Y-101600000D03*
X113792000Y-102108000D03*
X113792000Y-102616000D03*
X114554000Y-101600000D03*
X114554000Y-102108000D03*
X114554000Y-102616000D03*
X115316000Y-102108000D03*
X150985220Y-95079820D03*
X147670520Y-95041720D03*
D35*
X141615160Y-93141800D03*
X120830340Y-94302580D03*
D34*
X133700520Y-109717840D03*
X132486400Y-109702600D03*
X113446560Y-108849160D03*
X112186720Y-108889800D03*
X148275040Y-111201200D03*
D35*
X121345960Y-111815880D03*
D34*
X149669500Y-115295680D03*
X116794280Y-99862640D03*
X118988840Y-102138480D03*
X121462800Y-102153720D03*
X122814080Y-102148640D03*
X126400000Y-102100000D03*
X129006600Y-101965760D03*
X122803920Y-101569520D03*
X116352320Y-95300800D03*
X111160560Y-87579200D03*
X111810800Y-90246200D03*
X118993920Y-101508560D03*
X121396760Y-101589840D03*
X127187960Y-101589840D03*
X128498600Y-101427280D03*
X114035840Y-86982300D03*
X121881900Y-87388700D03*
X130901440Y-100797360D03*
X131700000Y-100040000D03*
X135509000Y-95973900D03*
X149545040Y-95732600D03*
X135483600Y-95427800D03*
X149052280Y-95412560D03*
X142125700Y-87243920D03*
X134264400Y-87000080D03*
X115468400Y-105867200D03*
X118927880Y-105836720D03*
X118938368Y-106319208D03*
X115458240Y-106359960D03*
X119501920Y-117066060D03*
X127353060Y-117541040D03*
X145849340Y-111836200D03*
X147380960Y-114386360D03*
X149197060Y-114208560D03*
X135242300Y-110802420D03*
X135188960Y-109529880D03*
X132902960Y-106842560D03*
X145816320Y-112402620D03*
X134419340Y-109550200D03*
X134485380Y-110797340D03*
X147360640Y-114927380D03*
X150279100Y-115989100D03*
X132313680Y-106842560D03*
X139880340Y-117088920D03*
X147594320Y-117480080D03*
X127360680Y-104830880D03*
X126532640Y-104830880D03*
X126527560Y-104302560D03*
X127345440Y-104282240D03*
X133939280Y-104368600D03*
X134990840Y-104101900D03*
X135341360Y-104495600D03*
X134134860Y-104871520D03*
X129677160Y-111495840D03*
X127655320Y-109468920D03*
X127518160Y-107574080D03*
X127523240Y-106441240D03*
X131478020Y-98635820D03*
X131953000Y-104962960D03*
X145404840Y-106558080D03*
X136458960Y-106466640D03*
X129755900Y-94388940D03*
X127375920Y-97383600D03*
X133974840Y-100914200D03*
X134622540Y-102052120D03*
X144332960Y-95542100D03*
X148950680Y-94833440D03*
X144327880Y-96672400D03*
X133497320Y-100360480D03*
X133428740Y-102049580D03*
X135524240Y-96494600D03*
D35*
X124368560Y-95509080D03*
X115735100Y-93116400D03*
X127109220Y-91620340D03*
X134690000Y-92100000D03*
X144002760Y-94122240D03*
X146697700Y-91744800D03*
X117368320Y-110738920D03*
X119443500Y-113469420D03*
X121942860Y-113949480D03*
X125509020Y-115633500D03*
X119451120Y-111897160D03*
X147353020Y-113078260D03*
X141185900Y-113931700D03*
D34*
X145465800Y-110627160D03*
X138333480Y-110599220D03*
X134137400Y-106837480D03*
X136113520Y-109524800D03*
X150114000Y-101600000D03*
X150114000Y-102108000D03*
X146304000Y-101600000D03*
X146304000Y-102108000D03*
X146304000Y-102616000D03*
X147066000Y-102616000D03*
X147066000Y-102108000D03*
X147066000Y-101600000D03*
X147828000Y-101600000D03*
X147828000Y-102108000D03*
X147828000Y-102616000D03*
X148590000Y-102616000D03*
X148590000Y-102108000D03*
X148590000Y-101600000D03*
X149352000Y-101600000D03*
X149352000Y-102108000D03*
X149352000Y-102616000D03*
X150114000Y-102616000D03*
X150876000Y-102616000D03*
X150876000Y-102108000D03*
X150876000Y-101600000D03*
D35*
X136489440Y-97282000D03*
X122448320Y-97810320D03*
X143195040Y-97505520D03*
X141099540Y-108229400D03*
X121320560Y-108417360D03*
D34*
X178008280Y-97083880D03*
X178041300Y-99181920D03*
X157576520Y-99240340D03*
X157543500Y-97142300D03*
X177500280Y-97094040D03*
X177492660Y-99169220D03*
X157027880Y-99227640D03*
X157035500Y-97152460D03*
X179697380Y-99534980D03*
X176954180Y-100540820D03*
X156489400Y-100599240D03*
X159232600Y-99593400D03*
X179646580Y-104762300D03*
X176944020Y-103827580D03*
X156479240Y-103886000D03*
X159181800Y-104820720D03*
X176603660Y-105463340D03*
X176463960Y-106888280D03*
X155999180Y-106946700D03*
X156138880Y-105521760D03*
X179918360Y-99984560D03*
X177530760Y-100510340D03*
X157065980Y-100568760D03*
X159453580Y-100042980D03*
X179910740Y-104305100D03*
X177426486Y-103839067D03*
X156961706Y-103897487D03*
X159445960Y-104363520D03*
X177269140Y-105572560D03*
X177010060Y-106895900D03*
X156545280Y-106954320D03*
X156804360Y-105630980D03*
X178127660Y-111363760D03*
X175277780Y-110357920D03*
X154813000Y-110416340D03*
X157662880Y-111422180D03*
X180050440Y-101772720D03*
X176484280Y-103184960D03*
X156019500Y-103243380D03*
X159585660Y-101831140D03*
D36*
X146984720Y-109526200D02*
X149185340Y-109526200D01*
X149185340Y-109526200D02*
X149222040Y-109562900D01*
X145540000Y-107980000D02*
X145540000Y-108381480D01*
X145540000Y-108381480D02*
X146684720Y-109526200D01*
X146684720Y-109526200D02*
X146984720Y-109526200D01*
X144370000Y-106810000D02*
X145540000Y-107980000D01*
X144370000Y-105700000D02*
X144370000Y-106810000D01*
X141690000Y-98570000D02*
X144400000Y-101280000D01*
X144400000Y-101280000D02*
X144400000Y-102230000D01*
X135102600Y-99131120D02*
X135630920Y-98602800D01*
X135102600Y-99392040D02*
X135102600Y-99131120D01*
D37*
X147579920Y-105050000D02*
X148006000Y-105050000D01*
X148006000Y-105050000D02*
X148125000Y-104931000D01*
X148125000Y-104931000D02*
X148125000Y-104100000D01*
X146984720Y-106526200D02*
X146984720Y-105645200D01*
X146984720Y-105645200D02*
X147579920Y-105050000D01*
X146984720Y-106526200D02*
X149073740Y-106526200D01*
X147284720Y-106526200D02*
X146984720Y-106526200D01*
D38*
X121729500Y-99639354D02*
X116850160Y-94760014D01*
X123005760Y-103352600D02*
X122492779Y-103865581D01*
X122492779Y-103865581D02*
X122158661Y-103865581D01*
X122158661Y-103865581D02*
X122085111Y-103792031D01*
X122085111Y-103792031D02*
X122085111Y-99994965D01*
X122085111Y-99994965D02*
X121729500Y-99639354D01*
X116850160Y-94760014D02*
X116850160Y-86166440D01*
X116573160Y-86166440D02*
X116573160Y-86756100D01*
X121965630Y-104119590D02*
X122420291Y-104119591D01*
X116573160Y-86756100D02*
X116573300Y-86756240D01*
X116573300Y-90451940D02*
X116570760Y-90454480D01*
X116570760Y-90454480D02*
X116570760Y-94839838D01*
X121831101Y-100100179D02*
X121831101Y-103985061D01*
X116573300Y-86756240D02*
X116573300Y-90451940D01*
X116570760Y-94839838D02*
X121831101Y-100100179D01*
X121831101Y-103985061D02*
X121965630Y-104119590D01*
X122420291Y-104119591D02*
X122994420Y-104693720D01*
X122994420Y-104693720D02*
X123015920Y-104693720D01*
X119082820Y-104360980D02*
X118404874Y-104360980D01*
X118404874Y-104360980D02*
X118135300Y-104630554D01*
X119517160Y-103926640D02*
X119082820Y-104360980D01*
X119566600Y-103926640D02*
X119517160Y-103926640D01*
X124529840Y-118503560D02*
X124529840Y-113787946D01*
X124529840Y-113787946D02*
X123446874Y-112704980D01*
X118570074Y-112704980D02*
X123446874Y-112704980D01*
X118135300Y-112270206D02*
X118570074Y-112704980D01*
X119566600Y-103779320D02*
X119516600Y-103779320D01*
X118135300Y-104630554D02*
X118135300Y-112270206D01*
X119547640Y-105135680D02*
X119026950Y-104614990D01*
X119026950Y-104614990D02*
X118510088Y-104614990D01*
X119566600Y-105135680D02*
X119547640Y-105135680D01*
X118389310Y-104735768D02*
X118510088Y-104614990D01*
X124806840Y-113705722D02*
X123552088Y-112450970D01*
X124806840Y-118503560D02*
X124806840Y-113705722D01*
X123552088Y-112450970D02*
X118686581Y-112450971D01*
X118389310Y-112153700D02*
X118389310Y-104735768D01*
X118686581Y-112450971D02*
X118389310Y-112153700D01*
X119566600Y-105044240D02*
X119516600Y-105044240D01*
X140690446Y-91607540D02*
X137185346Y-88102440D01*
X137080160Y-87997254D02*
X137185346Y-88102440D01*
X137185346Y-88102440D02*
X137108159Y-88025253D01*
X137080160Y-86166440D02*
X137080160Y-87997254D01*
X144446080Y-104693720D02*
X144531280Y-104693720D01*
X145603060Y-103881164D02*
X145603060Y-102070234D01*
X144531280Y-104693720D02*
X145020990Y-104204010D01*
X145020990Y-104204010D02*
X145280215Y-104204009D01*
X145280215Y-104204009D02*
X145603060Y-103881164D01*
X145603060Y-102070234D02*
X145074740Y-101541914D01*
X145074740Y-101541914D02*
X145074740Y-92733194D01*
X145074740Y-92733194D02*
X143949086Y-91607540D01*
X143949086Y-91607540D02*
X140690446Y-91607540D01*
X144475760Y-104678480D02*
X144425760Y-104678480D01*
X144425760Y-104678480D02*
X144465040Y-104678480D01*
X144446080Y-103352600D02*
X144477600Y-103352600D01*
X144477600Y-103352600D02*
X145075000Y-103950000D01*
X145075000Y-103950000D02*
X145175000Y-103950000D01*
X145175000Y-103950000D02*
X145298060Y-103826940D01*
X145298060Y-103826940D02*
X145298060Y-102196566D01*
X145298060Y-102196566D02*
X144769740Y-101668246D01*
X143822754Y-91912540D02*
X140564114Y-91912540D01*
X144769740Y-101668246D02*
X144769740Y-92859526D01*
X144769740Y-92859526D02*
X143822754Y-91912540D01*
X140564114Y-91912540D02*
X136803160Y-88151586D01*
X136803160Y-88151586D02*
X136803160Y-86166440D01*
X144475760Y-103337360D02*
X144425760Y-103337360D01*
X144425760Y-103337360D02*
X144475200Y-103337360D01*
X142343617Y-106023923D02*
X144669694Y-108350000D01*
X144669694Y-108350000D02*
X144756009Y-108436315D01*
X144769840Y-118503560D02*
X144769840Y-108450146D01*
X144769840Y-108450146D02*
X144669694Y-108350000D01*
X140589460Y-104683660D02*
X141021506Y-104683660D01*
X141021506Y-104683660D02*
X141199506Y-104861660D01*
X141199506Y-104861660D02*
X142093870Y-104861660D01*
X142343617Y-105111407D02*
X142343617Y-106023923D01*
X142093870Y-104861660D02*
X142343617Y-105111407D01*
X140087440Y-105135680D02*
X140137440Y-105135680D01*
X140137440Y-105135680D02*
X140589460Y-104683660D01*
X140137440Y-103926640D02*
X140525500Y-104314700D01*
X140525500Y-104314700D02*
X140589460Y-104378660D01*
X145046840Y-118503560D02*
X145046840Y-108367922D01*
X140640451Y-104429651D02*
X140525500Y-104314700D01*
X145046840Y-108367922D02*
X142597627Y-105918709D01*
X142597627Y-105918709D02*
X142597626Y-105006192D01*
X142597626Y-105006192D02*
X142199084Y-104607650D01*
X142199084Y-104607650D02*
X141304720Y-104607650D01*
X141304720Y-104607650D02*
X141126721Y-104429651D01*
X141126721Y-104429651D02*
X140640451Y-104429651D01*
X140087440Y-103926640D02*
X140137440Y-103926640D01*
X122542300Y-111683800D02*
X122547380Y-111688880D01*
X122547380Y-111688880D02*
X122547380Y-112039400D01*
X122542300Y-110573820D02*
X122542300Y-111683800D01*
X122547380Y-112039400D02*
X122552450Y-112034330D01*
X122448320Y-109969300D02*
X122448320Y-110479840D01*
X122448320Y-110479840D02*
X122542300Y-110573820D01*
X122711468Y-109969300D02*
X122448320Y-109969300D01*
X141328474Y-107564020D02*
X140562924Y-107564020D01*
X122448320Y-109969300D02*
X122448320Y-109644180D01*
X142737740Y-113296366D02*
X142346580Y-112905206D01*
X142346580Y-112905206D02*
X142346580Y-108582126D01*
X142346580Y-108582126D02*
X141328474Y-107564020D01*
X138983044Y-109143900D02*
X131066206Y-109143900D01*
X123994268Y-111252100D02*
X122711468Y-109969300D01*
X140562924Y-107564020D02*
X138983044Y-109143900D01*
X131066206Y-109143900D02*
X128958006Y-111252100D01*
X128958006Y-111252100D02*
X123994268Y-111252100D01*
X122448320Y-109706152D02*
X122448320Y-109644180D01*
X122448320Y-109644180D02*
X122448320Y-108331000D01*
X122742960Y-116154200D02*
X122742960Y-113273840D01*
X122742960Y-113273840D02*
X122549920Y-113080800D01*
X122929840Y-116341080D02*
X122742960Y-116154200D01*
X122929840Y-118503560D02*
X122929840Y-116341080D01*
X133461760Y-103822500D02*
X133283961Y-103644701D01*
X133283961Y-103644701D02*
X131664453Y-103644701D01*
X131664453Y-103644701D02*
X131317663Y-103991491D01*
X131317663Y-103991491D02*
X131017631Y-103991491D01*
X131017631Y-103991491D02*
X130918301Y-104090821D01*
X130918301Y-104090821D02*
X130918301Y-105059501D01*
X130918301Y-105059501D02*
X131113360Y-105254560D01*
X131113360Y-105254560D02*
X131113360Y-105716560D01*
X117408950Y-92565384D02*
X117632480Y-92341854D01*
X117632480Y-92341854D02*
X118746834Y-91227500D01*
X117408950Y-94498170D02*
X117408950Y-92565384D01*
X117309900Y-94607380D02*
X117309900Y-94597220D01*
X117309900Y-94597220D02*
X117408950Y-94498170D01*
X119059960Y-108315760D02*
X119374920Y-108315760D01*
X119374920Y-108315760D02*
X119856411Y-107834269D01*
X118902480Y-108473240D02*
X119059960Y-108315760D01*
X118851680Y-108473240D02*
X118902480Y-108473240D01*
X117300032Y-96663157D02*
X117300032Y-96724725D01*
X117300032Y-96724725D02*
X117429280Y-96853973D01*
X117429280Y-96853973D02*
X117429280Y-102542574D01*
X117429280Y-102542574D02*
X115986460Y-103985394D01*
X115986460Y-103985394D02*
X115986461Y-107829065D01*
X115986461Y-107829065D02*
X116529046Y-108371650D01*
X116529046Y-108371650D02*
X117655350Y-108371650D01*
X117655350Y-108371650D02*
X117756940Y-108473240D01*
X120363166Y-91227500D02*
X120425666Y-91290000D01*
X118746834Y-91227500D02*
X120363166Y-91227500D01*
X122328975Y-108079575D02*
X122369580Y-108120180D01*
X122369580Y-108120180D02*
X122448320Y-108198920D01*
X119856411Y-107834269D02*
X122083669Y-107834269D01*
X122083669Y-107834269D02*
X122369580Y-108120180D01*
X142440240Y-114034760D02*
X142737740Y-113737260D01*
X142737740Y-113737260D02*
X142737740Y-113296366D01*
X142440240Y-114122200D02*
X142440240Y-114034760D01*
X140233499Y-98469459D02*
X140675360Y-98911320D01*
X142737740Y-113374700D02*
X142737740Y-113296366D01*
X142440240Y-114122200D02*
X142440240Y-114222200D01*
X142440240Y-114222200D02*
X142737740Y-114519700D01*
X142737740Y-114519700D02*
X142737740Y-115193980D01*
X142737740Y-115193980D02*
X143169840Y-115626080D01*
X143169840Y-115626080D02*
X143169840Y-118503560D01*
X122448320Y-108331000D02*
X122448320Y-108257105D01*
X122448320Y-108198920D02*
X122448320Y-108331000D01*
X140581800Y-101297740D02*
X140581800Y-101261800D01*
X140581800Y-101261800D02*
X140240000Y-100920000D01*
X140240000Y-100920000D02*
X140240000Y-100496680D01*
X140240000Y-100496680D02*
X140675360Y-100061320D01*
X140675360Y-100061320D02*
X140675360Y-100011320D01*
X120425666Y-91290000D02*
X122333246Y-93197580D01*
X118450160Y-86166440D02*
X118450160Y-89314494D01*
X118450160Y-89314494D02*
X120425666Y-91290000D01*
X125783006Y-93197580D02*
X127807067Y-95221641D01*
X122333246Y-93197580D02*
X125783006Y-93197580D01*
X127807067Y-95221641D02*
X132954413Y-95221641D01*
X132954413Y-95221641D02*
X136832674Y-91343380D01*
X136832674Y-91343380D02*
X139041806Y-91343380D01*
X140581800Y-101297740D02*
X140581800Y-101397740D01*
X139896336Y-102338471D02*
X138087195Y-102338471D01*
X140581800Y-101397740D02*
X140284300Y-101695240D01*
X137543430Y-103305532D02*
X137293162Y-103555800D01*
X140284300Y-101695240D02*
X140284300Y-101950507D01*
X140284300Y-101950507D02*
X139896336Y-102338471D01*
X138087195Y-102338471D02*
X137543430Y-102882236D01*
X137543430Y-102882236D02*
X137543430Y-103305532D01*
X139034420Y-91343380D02*
X138689080Y-90998040D01*
X138689080Y-90998040D02*
X138689080Y-90812607D01*
X139041806Y-91343380D02*
X139034420Y-91343380D01*
X138689080Y-90561160D02*
X138689080Y-90812607D01*
X138680160Y-88880920D02*
X138680160Y-89119680D01*
X138680160Y-89119680D02*
X138689080Y-89128600D01*
X140233499Y-92535073D02*
X140233499Y-98469459D01*
X139041806Y-91343380D02*
X140233499Y-92535073D01*
X143169840Y-117658080D02*
X143169840Y-117988080D01*
X143169840Y-117988080D02*
X143169840Y-118503560D01*
X135544560Y-103555800D02*
X137293162Y-103555800D01*
X138680160Y-87468680D02*
X138680160Y-88880920D01*
X138680160Y-86166440D02*
X138680160Y-87468680D01*
X123068080Y-112044480D02*
X123068080Y-112015014D01*
X123068080Y-112015014D02*
X122806460Y-111753394D01*
X122806460Y-111753394D02*
X122806460Y-110944660D01*
X122806460Y-110944660D02*
X122910601Y-110840519D01*
X122910601Y-110840519D02*
X122910601Y-110713519D01*
X123073160Y-113080800D02*
X123073160Y-113092434D01*
X123206840Y-116258856D02*
X123206840Y-118503560D01*
X123073160Y-113092434D02*
X122996970Y-113168626D01*
X122996970Y-113168626D02*
X122996970Y-116048986D01*
X122996970Y-116048986D02*
X123206840Y-116258856D01*
X143042740Y-113250000D02*
X143042740Y-113170034D01*
X143042740Y-113170034D02*
X142651580Y-112778874D01*
X142651580Y-112778874D02*
X142651580Y-108455794D01*
X142651580Y-108455794D02*
X141454806Y-107259020D01*
X140436592Y-107259020D02*
X138856712Y-108838900D01*
X141454806Y-107259020D02*
X140436592Y-107259020D01*
X138856712Y-108838900D02*
X130939874Y-108838900D01*
X130939874Y-108838900D02*
X128831674Y-110947100D01*
X124048492Y-110947100D02*
X122913140Y-109811748D01*
X128831674Y-110947100D02*
X124048492Y-110947100D01*
X122913140Y-109811748D02*
X122913140Y-109650116D01*
X122913140Y-109650116D02*
X122880962Y-109617938D01*
X122702330Y-108093706D02*
X122702330Y-109439306D01*
X122702330Y-109439306D02*
X122880962Y-109617938D01*
X134868920Y-103273860D02*
X135322054Y-103273860D01*
X135322054Y-103273860D02*
X135367775Y-103228139D01*
X135367775Y-103228139D02*
X135721345Y-103228139D01*
X137187948Y-103301790D02*
X137289420Y-103200318D01*
X140022580Y-101853003D02*
X140022580Y-101738520D01*
X135721345Y-103228139D02*
X135794996Y-103301790D01*
X135794996Y-103301790D02*
X137187948Y-103301790D01*
X137289420Y-103200318D02*
X137289420Y-102777022D01*
X137289420Y-102777022D02*
X137981980Y-102084462D01*
X137981980Y-102084462D02*
X139791122Y-102084461D01*
X139791122Y-102084461D02*
X140022580Y-101853003D01*
X140022580Y-101738520D02*
X139681800Y-101397740D01*
X139681800Y-101397740D02*
X139681800Y-101297740D01*
X133466840Y-103245920D02*
X133446037Y-103266723D01*
X134842851Y-103226269D02*
X134833360Y-103235760D01*
X131414520Y-103503701D02*
X131180740Y-103737481D01*
X133151880Y-103390700D02*
X131527521Y-103390700D01*
X131527521Y-103390700D02*
X131414520Y-103503701D01*
X133151888Y-103390692D02*
X133151880Y-103390700D01*
X133428740Y-103238300D02*
X133377940Y-103238300D01*
X133377940Y-103238300D02*
X133225548Y-103390692D01*
X133225548Y-103390692D02*
X133151888Y-103390692D01*
X120200000Y-91610000D02*
X120386442Y-91610000D01*
X122228032Y-93451590D02*
X125677792Y-93451590D01*
X120386442Y-91610000D02*
X122228032Y-93451590D01*
X138567390Y-91597390D02*
X138690000Y-91720000D01*
X125677792Y-93451590D02*
X127701853Y-95475651D01*
X127701853Y-95475651D02*
X133059628Y-95475650D01*
X133059628Y-95475650D02*
X136937888Y-91597390D01*
X136937888Y-91597390D02*
X138567390Y-91597390D01*
X118173160Y-86166440D02*
X118173160Y-89396718D01*
X119344440Y-90723720D02*
X119298720Y-90769440D01*
X118173160Y-89396718D02*
X119344440Y-90567998D01*
X119344440Y-90567998D02*
X119344440Y-90723720D01*
X118846600Y-107990640D02*
X118917711Y-108061751D01*
X119269706Y-108061750D02*
X119751197Y-107580259D01*
X118917711Y-108061751D02*
X118954746Y-108061750D01*
X118954746Y-108061750D02*
X119269706Y-108061750D01*
X119751197Y-107580259D02*
X122188884Y-107580260D01*
X122188884Y-107580260D02*
X122702330Y-108093706D01*
X117782633Y-96662240D02*
X117683290Y-96761583D01*
X117683290Y-96761583D02*
X117683290Y-102647788D01*
X117683290Y-102647788D02*
X116240470Y-104090608D01*
X117596920Y-108117640D02*
X117723920Y-107990640D01*
X116240470Y-104090608D02*
X116240470Y-107723850D01*
X116240470Y-107723850D02*
X116634260Y-108117640D01*
X116634260Y-108117640D02*
X117596920Y-108117640D01*
X117723920Y-107990640D02*
X117751860Y-107990640D01*
X117662960Y-92750640D02*
X117662960Y-94503912D01*
X117662960Y-94503912D02*
X117774652Y-94615604D01*
X117830600Y-92583000D02*
X117662960Y-92750640D01*
X117830600Y-92577920D02*
X117830600Y-92583000D01*
X143042740Y-113250000D02*
X143042740Y-113374700D01*
X143340240Y-114065240D02*
X143042740Y-113767740D01*
X143042740Y-113767740D02*
X143042740Y-113250000D01*
X143340240Y-114122200D02*
X143340240Y-114065240D01*
X138618380Y-91648380D02*
X138690000Y-91720000D01*
X138915474Y-91648380D02*
X138761620Y-91648380D01*
X138761620Y-91648380D02*
X138690000Y-91720000D01*
X139928501Y-92661407D02*
X139928501Y-98469459D01*
X138915474Y-91648380D02*
X139928501Y-92661407D01*
X139928501Y-98469459D02*
X139456160Y-98941800D01*
X143446840Y-118503560D02*
X143446840Y-115489060D01*
X143446840Y-115489060D02*
X143042740Y-115084960D01*
X143042740Y-115084960D02*
X143042740Y-114519700D01*
X143042740Y-114519700D02*
X143340240Y-114222200D01*
X143340240Y-114222200D02*
X143340240Y-114122200D01*
X118656888Y-91751632D02*
X117830600Y-92577920D01*
X118656888Y-91748778D02*
X118656888Y-91751632D01*
X139940000Y-100920000D02*
X139940000Y-100575640D01*
X139940000Y-100575640D02*
X139456160Y-100091800D01*
X139456160Y-100091800D02*
X139456160Y-100041800D01*
X139681800Y-101178200D02*
X139940000Y-100920000D01*
X139681800Y-101297740D02*
X139681800Y-101178200D01*
X120236834Y-91532500D02*
X120236834Y-91573166D01*
X120236834Y-91573166D02*
X120200000Y-91610000D01*
X118656888Y-91748778D02*
X118873166Y-91532500D01*
X118873166Y-91532500D02*
X120236834Y-91532500D01*
X138318240Y-90967560D02*
X138318240Y-90218240D01*
X138318240Y-90218240D02*
X138260000Y-90160000D01*
X138403160Y-88469640D02*
X138403160Y-88515360D01*
X138403160Y-88515360D02*
X138287760Y-88630760D01*
X138403160Y-87481240D02*
X138403160Y-88469640D01*
X138403160Y-86166440D02*
X138403160Y-87481240D01*
X138403160Y-86166440D02*
X138403160Y-86194440D01*
X130890081Y-103737481D02*
X130813360Y-103660760D01*
X131180740Y-103737481D02*
X130890081Y-103737481D01*
X130813360Y-103660760D02*
X130813360Y-102651560D01*
X137800080Y-90954860D02*
X137800080Y-90873580D01*
X137800080Y-90873580D02*
X137741669Y-90815169D01*
X137741669Y-90815169D02*
X137741669Y-89867731D01*
X137741669Y-89867731D02*
X137855960Y-89753440D01*
X138584606Y-92481300D02*
X137822940Y-92481300D01*
X137822940Y-92029280D02*
X137822940Y-92280727D01*
X137822940Y-92481300D02*
X137203514Y-92481300D01*
X137822940Y-92280727D02*
X137822940Y-92481300D01*
X119296180Y-92425519D02*
X119288560Y-92417899D01*
X119288560Y-92417899D02*
X119288560Y-92080080D01*
X120244917Y-92425519D02*
X119296180Y-92425519D01*
X119296180Y-92425519D02*
X118655017Y-92425519D01*
X137203514Y-92481300D02*
X133134434Y-96550380D01*
X133134434Y-96550380D02*
X127261286Y-96550380D01*
X118439098Y-95637182D02*
X118366501Y-95709779D01*
X127261286Y-96550380D02*
X125112636Y-94401730D01*
X125112636Y-94401730D02*
X122221128Y-94401730D01*
X122221128Y-94401730D02*
X120244917Y-92425519D01*
X118655017Y-92425519D02*
X118439099Y-92641437D01*
X118439099Y-92641437D02*
X118439098Y-95637182D01*
X118366501Y-95709779D02*
X118366501Y-95755499D01*
X118313101Y-102761113D02*
X118313101Y-97858481D01*
X118313101Y-97858481D02*
X118259860Y-97805240D01*
X117299974Y-103774240D02*
X118313101Y-102761113D01*
X116926450Y-106794699D02*
X116926450Y-104147764D01*
X116926450Y-104147764D02*
X117299974Y-103774240D01*
X117751860Y-107289600D02*
X117751860Y-107266740D01*
X117286732Y-107154981D02*
X116926450Y-106794699D01*
X117751860Y-107266740D02*
X117640101Y-107154981D01*
X117640101Y-107154981D02*
X117286732Y-107154981D01*
X137566500Y-101172000D02*
X137864000Y-100874500D01*
X137566500Y-101645620D02*
X137566500Y-101172000D01*
X136234332Y-101639532D02*
X136448800Y-101854000D01*
X136448800Y-101854000D02*
X137358120Y-101854000D01*
X133638237Y-101556833D02*
X133720936Y-101639532D01*
X133720936Y-101639532D02*
X136234332Y-101639532D01*
X133141707Y-101556833D02*
X133638237Y-101556833D01*
X137358120Y-101854000D02*
X137566500Y-101645620D01*
X133002020Y-101696520D02*
X133141707Y-101556833D01*
X123483840Y-118503560D02*
X123483840Y-113432120D01*
X123483840Y-113432120D02*
X123545600Y-113370360D01*
X143555620Y-108439886D02*
X143555620Y-111250000D01*
X143555620Y-111250000D02*
X143555620Y-111337620D01*
X143258120Y-111991880D02*
X143555620Y-111694380D01*
X143555620Y-111694380D02*
X143555620Y-111250000D01*
X143258120Y-112085120D02*
X143258120Y-111991880D01*
X143258120Y-112085120D02*
X143258120Y-112183120D01*
X143258120Y-112183120D02*
X143555620Y-112480620D01*
X143555620Y-112480620D02*
X143555620Y-112976326D01*
X143555620Y-112976326D02*
X143987420Y-113408126D01*
X143987420Y-113408126D02*
X143987420Y-116969874D01*
X143987420Y-116969874D02*
X143721373Y-117235921D01*
X143721373Y-117235921D02*
X143723840Y-117238388D01*
X143723840Y-117238388D02*
X143723840Y-118503560D01*
X137864000Y-100874500D02*
X137864000Y-100774500D01*
X137864000Y-100774500D02*
X137864000Y-100674000D01*
X137864000Y-100674000D02*
X137550000Y-100360000D01*
X137550000Y-100360000D02*
X137550000Y-99971040D01*
X137550000Y-99971040D02*
X137993120Y-99527920D01*
X137993120Y-99527920D02*
X137993120Y-99477920D01*
X118846800Y-107304840D02*
X118961101Y-107190539D01*
X118961101Y-107190539D02*
X123025431Y-107199259D01*
X123025431Y-107199259D02*
X124252378Y-108426206D01*
X124252378Y-108426206D02*
X124252378Y-109599378D01*
X124252378Y-109599378D02*
X124252378Y-110007146D01*
X137855960Y-90967560D02*
X137850880Y-90972640D01*
X123489720Y-113426240D02*
X123545600Y-113370360D01*
X138126160Y-88047500D02*
X138126160Y-88060840D01*
X138126160Y-88060840D02*
X137977880Y-88209120D01*
X117896160Y-90620800D02*
X117896160Y-90621640D01*
X117896160Y-90621640D02*
X118110000Y-90835480D01*
X124252378Y-110007146D02*
X124511237Y-110185100D01*
D39*
X124249867Y-112666093D02*
X124249867Y-111656547D01*
X124249867Y-111656547D02*
X124226320Y-111633000D01*
D38*
X137820400Y-91973400D02*
X137759440Y-92034360D01*
X137203514Y-92481300D02*
X137210900Y-92481300D01*
X137854093Y-90969427D02*
X137850880Y-90972640D01*
X117896160Y-90543134D02*
X117896160Y-90620800D01*
X117896160Y-86166440D02*
X117896160Y-86194440D01*
X117896160Y-86194440D02*
X117896160Y-90543134D01*
X139151460Y-93048154D02*
X138584606Y-92481300D01*
X139151460Y-95638286D02*
X139151460Y-93048154D01*
X137574119Y-97215627D02*
X139151460Y-95638286D01*
X137574119Y-97958919D02*
X137574119Y-97215627D01*
X137574119Y-97958919D02*
X137993120Y-98377920D01*
X123483840Y-118503560D02*
X123483840Y-118475560D01*
X130294246Y-108076900D02*
X138732126Y-108076900D01*
X128186046Y-110185100D02*
X130294246Y-108076900D01*
X142181914Y-107066180D02*
X143555620Y-108439886D01*
X142173640Y-107066180D02*
X142181914Y-107066180D01*
X124511237Y-110185100D02*
X128186046Y-110185100D01*
X138732126Y-108076900D02*
X140194966Y-106614060D01*
X140194966Y-106614060D02*
X141721520Y-106614060D01*
X141721520Y-106614060D02*
X142173640Y-107066180D01*
X138126160Y-86166440D02*
X138126160Y-88047500D01*
X131363720Y-104531160D02*
X132933440Y-104531160D01*
X129913360Y-105046640D02*
X130410000Y-104550000D01*
X130410000Y-104550000D02*
X130550000Y-104550000D01*
X129913360Y-105069673D02*
X129913360Y-105046640D01*
X129913360Y-105069673D02*
X129913360Y-105254560D01*
X129913360Y-105254560D02*
X129913360Y-105716560D01*
X132654040Y-104056180D02*
X132654040Y-104086658D01*
X131856478Y-104277158D02*
X131714240Y-104134920D01*
X132463540Y-104277158D02*
X131856478Y-104277158D01*
X132654040Y-104086658D02*
X132463540Y-104277158D01*
X137459720Y-89372440D02*
X137487659Y-89400379D01*
X137487659Y-89400379D02*
X137487659Y-90754201D01*
X137487659Y-90754201D02*
X137276840Y-90965020D01*
X117619780Y-86794060D02*
X117619780Y-91027736D01*
X117619780Y-91027736D02*
X117765769Y-91173725D01*
X117619160Y-86166440D02*
X117619160Y-86793440D01*
X117619160Y-86793440D02*
X117619780Y-86794060D01*
X119251982Y-92793819D02*
X119316501Y-92793819D01*
X119316501Y-92793819D02*
X119430791Y-92679529D01*
X119430791Y-92679529D02*
X120136929Y-92679529D01*
X118831360Y-92694760D02*
X119152923Y-92694760D01*
X119152923Y-92694760D02*
X119251982Y-92793819D01*
X118745000Y-92694760D02*
X118831360Y-92694760D01*
X136860000Y-93280000D02*
X133284620Y-96855380D01*
X133284620Y-96855380D02*
X127134954Y-96855380D01*
X127134954Y-96855380D02*
X124935314Y-94655740D01*
X124935314Y-94655740D02*
X122115914Y-94655740D01*
X122115914Y-94655740D02*
X120165094Y-92704920D01*
X120165094Y-92704920D02*
X120162320Y-92704920D01*
X120162320Y-92704920D02*
X120136929Y-92679529D01*
X118745000Y-92694760D02*
X118694200Y-92745560D01*
X118693108Y-95537020D02*
X118693108Y-92746652D01*
X118693108Y-92746652D02*
X118694200Y-92745560D01*
X118848671Y-95775907D02*
X118848671Y-95692583D01*
X118848671Y-95692583D02*
X118693108Y-95537020D01*
X118567111Y-102866327D02*
X118567111Y-98043075D01*
X118567111Y-98043075D02*
X118742452Y-97867734D01*
X118742452Y-97867734D02*
X118742452Y-97802186D01*
X117759480Y-106786680D02*
X117645189Y-106900971D01*
X117180460Y-104252978D02*
X118567111Y-102866327D01*
X117180460Y-106689485D02*
X117180460Y-104252978D01*
X117277655Y-106786680D02*
X117180460Y-106689485D01*
X117281960Y-106786680D02*
X117277655Y-106786680D01*
X117396251Y-106900971D02*
X117281960Y-106786680D01*
X117645189Y-106900971D02*
X117396251Y-106900971D01*
X136964000Y-100774500D02*
X136964000Y-100874500D01*
X136964000Y-100874500D02*
X137261500Y-101172000D01*
X137261500Y-101172000D02*
X137261500Y-101460400D01*
X137261500Y-101460400D02*
X137144760Y-101577140D01*
X136531164Y-101577140D02*
X136286565Y-101332541D01*
X137144760Y-101577140D02*
X136531164Y-101577140D01*
X136286565Y-101332541D02*
X133773169Y-101332541D01*
X133773169Y-101332541D02*
X133743451Y-101302823D01*
X133743451Y-101302823D02*
X132930897Y-101302823D01*
X132930897Y-101302823D02*
X132641339Y-101592381D01*
X132641339Y-101592381D02*
X132463540Y-101770180D01*
X123760840Y-118503560D02*
X123760840Y-113856160D01*
X123760840Y-113856160D02*
X123860560Y-113756440D01*
X144158120Y-112085120D02*
X144158120Y-111983120D01*
X144158120Y-111983120D02*
X143860620Y-111685620D01*
X142308246Y-106761180D02*
X142299972Y-106761180D01*
X143860620Y-111685620D02*
X143860620Y-108313554D01*
X143860620Y-108313554D02*
X142308246Y-106761180D01*
X140068634Y-106309060D02*
X138605794Y-107771900D01*
X138605794Y-107771900D02*
X130167914Y-107771900D01*
X142299972Y-106761180D02*
X141847852Y-106309060D01*
X130167914Y-107771900D02*
X128059714Y-109880100D01*
X141847852Y-106309060D02*
X140068634Y-106309060D01*
X128059714Y-109880100D02*
X124840100Y-109880100D01*
X124840100Y-109880100D02*
X124630000Y-109670000D01*
X143860620Y-112849994D02*
X143975000Y-112964374D01*
X143975000Y-112964374D02*
X144292420Y-113281794D01*
X144158120Y-112191880D02*
X143825000Y-112525000D01*
X143825000Y-112525000D02*
X143825000Y-112814374D01*
X143825000Y-112814374D02*
X143975000Y-112964374D01*
X144158120Y-112085120D02*
X144158120Y-112191880D01*
X136964000Y-100774500D02*
X136964000Y-100655540D01*
X136964000Y-100655540D02*
X137259060Y-100360480D01*
X137259060Y-100360480D02*
X137259060Y-99967340D01*
X137259060Y-99967340D02*
X136834880Y-99543160D01*
X136834880Y-99543160D02*
X136834880Y-99493160D01*
X118811040Y-106794300D02*
X118925341Y-106908601D01*
X118925341Y-106908601D02*
X123152593Y-106892261D01*
X123152593Y-106892261D02*
X124559377Y-108299045D01*
X124559377Y-108299045D02*
X124559377Y-109599377D01*
X124559377Y-109599377D02*
X124630000Y-109670000D01*
X137280000Y-92860000D02*
X137102201Y-93037799D01*
X137410000Y-92860000D02*
X137280000Y-92860000D01*
X136860000Y-93280000D02*
X136930000Y-93210000D01*
X137102201Y-93037799D02*
X136860000Y-93280000D01*
X138458274Y-92786300D02*
X137483700Y-92786300D01*
X137483700Y-92786300D02*
X137410000Y-92860000D01*
X124632720Y-112984280D02*
X124632720Y-111717280D01*
X124632720Y-111717280D02*
X124720000Y-111630000D01*
X123788839Y-113828161D02*
X123860560Y-113756440D01*
X137849160Y-87535200D02*
X137849160Y-87641880D01*
X137849160Y-87641880D02*
X137551160Y-87939880D01*
X138846460Y-93174486D02*
X138458274Y-92786300D01*
X138846460Y-95511954D02*
X138846460Y-93174486D01*
X137269121Y-97089293D02*
X138846460Y-95511954D01*
X137269121Y-97958919D02*
X137269121Y-97089293D01*
X137269121Y-97958919D02*
X136834880Y-98393160D01*
X144292420Y-113281794D02*
X144292420Y-117096206D01*
X144292420Y-117096206D02*
X144026373Y-117362253D01*
X137849160Y-86166440D02*
X137849160Y-87535200D01*
X117759480Y-106786680D02*
X117655215Y-106786680D01*
X144026373Y-117362253D02*
X144000840Y-117387786D01*
X144000840Y-117387786D02*
X144000840Y-118503560D01*
X144000840Y-118462982D02*
X144000840Y-118503560D01*
X130394571Y-104090331D02*
X130213360Y-103909120D01*
X130213360Y-103909120D02*
X130213360Y-102651560D01*
D40*
X141097000Y-111219680D02*
X141816520Y-111219680D01*
X141816520Y-111219680D02*
X141825980Y-111229140D01*
X141097000Y-111219680D02*
X141283120Y-111219680D01*
X141097000Y-111219680D02*
X141298360Y-111219680D01*
D36*
X150122040Y-109562900D02*
X150558500Y-109562900D01*
D38*
X121462800Y-115543240D02*
X121462800Y-115003580D01*
X121462800Y-115003580D02*
X121460260Y-115001040D01*
X120208040Y-115543240D02*
X120208040Y-115001040D01*
X120208040Y-115001040D02*
X120202960Y-114995960D01*
X118607840Y-115543240D02*
X118607840Y-115006120D01*
X118607840Y-115006120D02*
X118597680Y-114995960D01*
X117358160Y-115543240D02*
X117358160Y-115003580D01*
X117358160Y-115003580D02*
X117355620Y-115001040D01*
X113654840Y-115540700D02*
X113654840Y-115008660D01*
X113654840Y-115008660D02*
X113647220Y-115001040D01*
X115148360Y-115540700D02*
X115148360Y-115011200D01*
X115148360Y-115011200D02*
X115145820Y-115008660D01*
X115443000Y-112954980D02*
X115443000Y-112425480D01*
X115443000Y-112425480D02*
X115440460Y-112422940D01*
X135280400Y-115540700D02*
X135280400Y-115016280D01*
X135280400Y-115016280D02*
X135282940Y-115013740D01*
X133974840Y-115538160D02*
X133974840Y-115008660D01*
X135595360Y-112954980D02*
X135595360Y-112422940D01*
X135595360Y-112422940D02*
X135597900Y-112420400D01*
X141787880Y-115543240D02*
X141787880Y-115011200D01*
X141787880Y-115011200D02*
X141785340Y-115008660D01*
X140522960Y-115543240D02*
X140522960Y-115013740D01*
X140522960Y-115013740D02*
X140517880Y-115008660D01*
X138897360Y-115543240D02*
X138897360Y-115016280D01*
X138897360Y-115016280D02*
X138894820Y-115013740D01*
X137642600Y-115548320D02*
X137642600Y-115013740D01*
X127802640Y-89091860D02*
X127802640Y-89621360D01*
X126438660Y-89089320D02*
X126438660Y-89613740D01*
X145729960Y-92005240D02*
X145729960Y-92537280D01*
X145729960Y-92537280D02*
X145735040Y-92542360D01*
X150611840Y-91949360D02*
X150611840Y-92489020D01*
X150611840Y-92489020D02*
X150609300Y-92491560D01*
X150393400Y-89475400D02*
X150393400Y-90002360D01*
X150393400Y-90002360D02*
X150398480Y-90007440D01*
X147675600Y-89114720D02*
X147675600Y-89644220D01*
X146342100Y-89114720D02*
X146342100Y-89639140D01*
X146342100Y-89639140D02*
X146344640Y-89641680D01*
X144353280Y-89109640D02*
X144353280Y-89641680D01*
X144353280Y-89641680D02*
X144350740Y-89644220D01*
X143108680Y-89109640D02*
X143108680Y-89634060D01*
X143108680Y-89634060D02*
X143113760Y-89639140D01*
X141368780Y-89109640D02*
X141368780Y-89636600D01*
X141368780Y-89636600D02*
X141371320Y-89639140D01*
X140136880Y-89109640D02*
X140136880Y-89634060D01*
X140136880Y-89634060D02*
X140141960Y-89639140D01*
X130738880Y-91949360D02*
X130738880Y-92478860D01*
X131381500Y-89061380D02*
X131381500Y-89585800D01*
X131381500Y-89585800D02*
X131386580Y-89590880D01*
X125536960Y-91949360D02*
X125536960Y-92481400D01*
X125536960Y-92481400D02*
X125534420Y-92483940D01*
D36*
X113344960Y-93412400D02*
X113344960Y-93939360D01*
X113344960Y-93939360D02*
X113350040Y-93944440D01*
X110733840Y-93361600D02*
X110733840Y-93888560D01*
X110733840Y-93888560D02*
X110736380Y-93891100D01*
X110947200Y-89983400D02*
X110947200Y-90517980D01*
X112247680Y-89124880D02*
X112247680Y-89646760D01*
X112247680Y-89646760D02*
X112255300Y-89654380D01*
D38*
X124063760Y-89089320D02*
X124063760Y-89618820D01*
X124063760Y-89618820D02*
X124068840Y-89623900D01*
X122814080Y-89094400D02*
X122814080Y-89616280D01*
X122814080Y-89616280D02*
X122824240Y-89626440D01*
X121127520Y-89094400D02*
X121127520Y-89623900D01*
X121127520Y-89623900D02*
X121132600Y-89628980D01*
X119913400Y-89094400D02*
X119913400Y-89631520D01*
X119913400Y-89631520D02*
X119910860Y-89634060D01*
D36*
X133563360Y-92828200D02*
X133563360Y-93365320D01*
X133563360Y-93365320D02*
X133568440Y-93370400D01*
D37*
X128313180Y-93928020D02*
X128313180Y-94500700D01*
X128313180Y-94500700D02*
X128310640Y-94503240D01*
D38*
X129306320Y-115543240D02*
X129306320Y-115018820D01*
D36*
X128016000Y-112683200D02*
X128016000Y-112138460D01*
X128016000Y-112138460D02*
X128018540Y-112135920D01*
X151213820Y-112154880D02*
X151213820Y-111612680D01*
X110756700Y-106030940D02*
X110756700Y-105493820D01*
X110756700Y-105493820D02*
X110759240Y-105491280D01*
X111031020Y-108784300D02*
X111031020Y-108249720D01*
X111031020Y-108249720D02*
X111033560Y-108247180D01*
D38*
X149661880Y-115898840D02*
X149661880Y-115303300D01*
X149661880Y-115303300D02*
X149669500Y-115295680D01*
D36*
X150952200Y-114914500D02*
X150952200Y-114345720D01*
X150952200Y-114345720D02*
X150962360Y-114335560D01*
D37*
X138130280Y-93289120D02*
X138130280Y-93301120D01*
X138130280Y-93301120D02*
X136489440Y-94881000D01*
D40*
X141620240Y-93985080D02*
X141615160Y-93980000D01*
X141615160Y-93980000D02*
X141615160Y-93141800D01*
X141627860Y-93720920D02*
X141627860Y-94990220D01*
X141627860Y-94990220D02*
X141620240Y-94997840D01*
D38*
X120686260Y-119310480D02*
X120177460Y-119310480D01*
X120177460Y-119310480D02*
X119456900Y-118589920D01*
X140923740Y-85359520D02*
X141432540Y-85359520D01*
X141432540Y-85359520D02*
X142153100Y-86080080D01*
X120693740Y-85359520D02*
X121202540Y-85359520D01*
X121202540Y-85359520D02*
X121923100Y-86080080D01*
X121920000Y-86080600D02*
X121920520Y-86080080D01*
X121920520Y-86080080D02*
X121923100Y-86080080D01*
X122499120Y-86492080D02*
X122087120Y-86080080D01*
X122087120Y-86080080D02*
X121923100Y-86080080D01*
X121366280Y-86497160D02*
X121783360Y-86080080D01*
X121783360Y-86080080D02*
X121923100Y-86080080D01*
X122499120Y-85664040D02*
X122083080Y-86080080D01*
X122083080Y-86080080D02*
X121923100Y-86080080D01*
X121371360Y-85664040D02*
X121787400Y-86080080D01*
X121787400Y-86080080D02*
X121923100Y-86080080D01*
X142722600Y-86481920D02*
X142320760Y-86080080D01*
X142320760Y-86080080D02*
X142153100Y-86080080D01*
X141589760Y-86497160D02*
X142006840Y-86080080D01*
X142006840Y-86080080D02*
X142153100Y-86080080D01*
X142717520Y-85658960D02*
X142296400Y-86080080D01*
X142296400Y-86080080D02*
X142153100Y-86080080D01*
X142153640Y-86080600D02*
X142153120Y-86080080D01*
X142153120Y-86080080D02*
X142153100Y-86080080D01*
X141579600Y-85664040D02*
X141995640Y-86080080D01*
X141995640Y-86080080D02*
X142153100Y-86080080D01*
X140926260Y-119310480D02*
X140417460Y-119310480D01*
X140417460Y-119310480D02*
X139696900Y-118589920D01*
X116078000Y-102616000D02*
X116078000Y-102108000D01*
X113179860Y-100296980D02*
X113687860Y-101495860D01*
X113687860Y-101495860D02*
X113792000Y-101600000D01*
X116078000Y-101600000D02*
X116078000Y-102108000D01*
X116078000Y-102616000D02*
X115316000Y-102616000D01*
X111506000Y-102108000D02*
X111508540Y-101602540D01*
X111508540Y-101602540D02*
X111506000Y-101600000D01*
X112268000Y-102108000D02*
X112273080Y-101605080D01*
X112273080Y-101605080D02*
X112268000Y-101600000D01*
X111506000Y-102616000D02*
X111506000Y-102108000D01*
X112268000Y-102616000D02*
X112262920Y-102113080D01*
X112262920Y-102113080D02*
X112268000Y-102108000D01*
X112268000Y-102616000D02*
X111506000Y-102616000D01*
X113030000Y-102616000D02*
X112273080Y-102621080D01*
X112273080Y-102621080D02*
X112268000Y-102616000D01*
X113030000Y-102108000D02*
X113030000Y-101600000D01*
X113030000Y-102616000D02*
X113040160Y-102118160D01*
X113040160Y-102118160D02*
X113030000Y-102108000D01*
X113792000Y-102616000D02*
X113030000Y-102616000D01*
X113794540Y-101602540D02*
X113792000Y-101600000D01*
X113792000Y-102108000D02*
X113794540Y-101602540D01*
X113792000Y-102616000D02*
X113802160Y-102118160D01*
X113802160Y-102118160D02*
X113792000Y-102108000D01*
X114554000Y-102616000D02*
X113797080Y-102621080D01*
X113797080Y-102621080D02*
X113792000Y-102616000D01*
X114554000Y-102108000D02*
X114554000Y-101600000D01*
X114554000Y-102616000D02*
X114561620Y-102115620D01*
X114561620Y-102115620D02*
X114554000Y-102108000D01*
X115316000Y-102616000D02*
X114556540Y-102618540D01*
X114556540Y-102618540D02*
X114554000Y-102616000D01*
X115316000Y-102108000D02*
X115331240Y-101615240D01*
X115331240Y-101615240D02*
X115316000Y-101600000D01*
X115316000Y-102616000D02*
X115316000Y-102108000D01*
D36*
X150985220Y-94334420D02*
X150985220Y-95079820D01*
D38*
X147665440Y-94326800D02*
X147665440Y-95036640D01*
X147665440Y-95036640D02*
X147670520Y-95041720D01*
X113179860Y-100296980D02*
X113179860Y-101043740D01*
X113179860Y-100296980D02*
X113179860Y-100713540D01*
X113179860Y-100296980D02*
X113179860Y-101216460D01*
X113179860Y-100296980D02*
X113352580Y-100296980D01*
X113179860Y-100296980D02*
X113179860Y-100632260D01*
X113179860Y-100296980D02*
X113809780Y-100296980D01*
X113179860Y-100296980D02*
X114343180Y-100296980D01*
D40*
X141620240Y-94997840D02*
X141620240Y-93985080D01*
X120817640Y-95338200D02*
X120817640Y-94396560D01*
X120817640Y-94396560D02*
X120832880Y-94381320D01*
D38*
X133700520Y-110458160D02*
X133700520Y-109717840D01*
X132486400Y-110458160D02*
X132486400Y-109702600D01*
D36*
X113431320Y-109650440D02*
X113431320Y-108864400D01*
X113431320Y-108864400D02*
X113446560Y-108849160D01*
X112186720Y-109649080D02*
X112186720Y-108889800D01*
X148272500Y-111997400D02*
X148272500Y-111203740D01*
X148272500Y-111203740D02*
X148275040Y-111201200D01*
D40*
X121330720Y-110904720D02*
X121330720Y-111800640D01*
X121330720Y-111800640D02*
X121345960Y-111815880D01*
D38*
X113323160Y-93265960D02*
X113385600Y-93328400D01*
X122814080Y-102148640D02*
X126351360Y-102148640D01*
X126351360Y-102148640D02*
X126400000Y-102100000D01*
D36*
X120693740Y-84591640D02*
X110531160Y-84591640D01*
X110208060Y-91735820D02*
X110733840Y-92261600D01*
X110208060Y-84914740D02*
X110208060Y-91735820D01*
X110531160Y-84591640D02*
X110208060Y-84914740D01*
D38*
X111673640Y-93201400D02*
X110733840Y-92261600D01*
X111673640Y-94472760D02*
X111673640Y-93201400D01*
X112892840Y-95691960D02*
X111673640Y-94472760D01*
X116514880Y-95691960D02*
X112892840Y-95691960D01*
X116677440Y-95854520D02*
X116514880Y-95691960D01*
X116677440Y-99745800D02*
X116677440Y-95854520D01*
X116794280Y-99862640D02*
X116677440Y-99745800D01*
X121447560Y-102138480D02*
X118963440Y-102138480D01*
X121462800Y-102153720D02*
X121447560Y-102138480D01*
X129013360Y-102084280D02*
X129001520Y-102072440D01*
X129013360Y-102651560D02*
X129013360Y-102084280D01*
D36*
X110642400Y-87249000D02*
X110642400Y-87604600D01*
X110642400Y-87604600D02*
X110642400Y-88578600D01*
D38*
X111160560Y-87579200D02*
X110667800Y-87579200D01*
X110667800Y-87579200D02*
X110642400Y-87604600D01*
X122803920Y-101569520D02*
X127032006Y-101569520D01*
D36*
X120693740Y-84977720D02*
X110863900Y-84977720D01*
X110642400Y-85199220D02*
X110642400Y-87249000D01*
X110863900Y-84977720D02*
X110642400Y-85199220D01*
D38*
X111810800Y-90246200D02*
X112273080Y-90708480D01*
X112273080Y-90708480D02*
X112273080Y-94376240D01*
X112273080Y-94376240D02*
X113197640Y-95300800D01*
X113197640Y-95300800D02*
X116352320Y-95300800D01*
X110642400Y-87312487D02*
X110642400Y-87249000D01*
X121396760Y-101589840D02*
X119075200Y-101589840D01*
X119075200Y-101589840D02*
X118993920Y-101508560D01*
D36*
X110642400Y-88578600D02*
X110947200Y-88883400D01*
D38*
X128498600Y-101427280D02*
X129199640Y-101427280D01*
X129199640Y-101427280D02*
X129611120Y-101838760D01*
X129611120Y-101838760D02*
X129611120Y-102549320D01*
X129611120Y-102549320D02*
X129613360Y-102551560D01*
X129613360Y-102551560D02*
X129613360Y-102651560D01*
X128798320Y-86885780D02*
X128605280Y-86885780D01*
X128605280Y-86885780D02*
X128327200Y-86885780D01*
X128604200Y-86166440D02*
X128604200Y-86793440D01*
X128604200Y-86793440D02*
X128605280Y-86794520D01*
X128605280Y-86794520D02*
X128605280Y-86885780D01*
X128327200Y-87422940D02*
X128327200Y-86885780D01*
X128327200Y-86885780D02*
X128327200Y-86807040D01*
X128879600Y-86804500D02*
X128798320Y-86885780D01*
X128879600Y-86795040D02*
X128879600Y-86804500D01*
X128881200Y-86166440D02*
X128881200Y-86793440D01*
X128881200Y-86793440D02*
X128879600Y-86795040D01*
X128881200Y-86166440D02*
X128881200Y-86591440D01*
X128881200Y-86591440D02*
X128879600Y-86593040D01*
X128327200Y-86807040D02*
X128327200Y-86166440D01*
X127802640Y-87947500D02*
X128327200Y-87422940D01*
X127802640Y-87991860D02*
X127802640Y-87947500D01*
X127187960Y-87655680D02*
X127187960Y-90342040D01*
X127187960Y-90342040D02*
X126680640Y-90849360D01*
X128050200Y-86166440D02*
X128050200Y-86793440D01*
X128050200Y-86793440D02*
X127187960Y-87655680D01*
X114140000Y-86166440D02*
X114140000Y-86878140D01*
X114140000Y-86878140D02*
X114035840Y-86982300D01*
X121881900Y-90248740D02*
X122482520Y-90849360D01*
X122482520Y-90849360D02*
X125536960Y-90849360D01*
X121881900Y-87388700D02*
X121881900Y-90248740D01*
X126680640Y-90849360D02*
X125536960Y-90849360D01*
X126973160Y-86888320D02*
X127155280Y-86888320D01*
X127155280Y-86888320D02*
X127250160Y-86793440D01*
X126973160Y-86799420D02*
X126973160Y-86888320D01*
X126973160Y-86888320D02*
X126973160Y-87407920D01*
X127250160Y-86166440D02*
X127250160Y-86793440D01*
X126970060Y-87407920D02*
X126438660Y-87939320D01*
X126438660Y-87939320D02*
X126438660Y-87989320D01*
X126973160Y-86166440D02*
X126973160Y-86799420D01*
X125450160Y-86166440D02*
X125450160Y-86858280D01*
X125450160Y-86858280D02*
X124861320Y-87447120D01*
X124861320Y-87447120D02*
X124221240Y-87447120D01*
X124221240Y-87447120D02*
X124063760Y-87604600D01*
X124063760Y-87604600D02*
X124063760Y-87989320D01*
X124896160Y-86166440D02*
X124896160Y-86741720D01*
X124896160Y-86741720D02*
X124541280Y-87096600D01*
X124541280Y-87096600D02*
X123123960Y-87096600D01*
X123123960Y-87096600D02*
X122814080Y-87406480D01*
X122814080Y-87406480D02*
X122814080Y-87994400D01*
X119030160Y-86166440D02*
X119030160Y-86736600D01*
X119030160Y-86736600D02*
X119415560Y-87122000D01*
X119415560Y-87122000D02*
X120853200Y-87122000D01*
X120853200Y-87122000D02*
X121127520Y-87396320D01*
X121127520Y-87396320D02*
X121127520Y-87994400D01*
X118753160Y-86166440D02*
X118753160Y-86876160D01*
X118753160Y-86876160D02*
X119339360Y-87462360D01*
X119339360Y-87462360D02*
X119862600Y-87462360D01*
X119862600Y-87462360D02*
X119913400Y-87513160D01*
X119913400Y-87513160D02*
X119913400Y-87994400D01*
X130150160Y-86166440D02*
X130150160Y-86962368D01*
X130738880Y-87551088D02*
X130738880Y-90849360D01*
X130150160Y-86962368D02*
X130738880Y-87551088D01*
X111150160Y-86166440D02*
X111150160Y-86720440D01*
X111150160Y-86720440D02*
X112334040Y-87904320D01*
X112334040Y-87904320D02*
X112334040Y-87994400D01*
X132013360Y-102651560D02*
X132013360Y-102353780D01*
X132011420Y-102351840D02*
X132011420Y-102308844D01*
X132013360Y-102353780D02*
X132011420Y-102351840D01*
X150230840Y-95046800D02*
X150230840Y-93634560D01*
X149545040Y-95732600D02*
X150230840Y-95046800D01*
X150608220Y-93257180D02*
X150230840Y-93634560D01*
X150608220Y-93257180D02*
X150962460Y-93257180D01*
X130901440Y-101198864D02*
X132011420Y-102308844D01*
X130901440Y-100797360D02*
X130901440Y-101198864D01*
X131877799Y-99610754D02*
X131877799Y-99605101D01*
X131700000Y-100040000D02*
X131700000Y-99788553D01*
X131700000Y-99788553D02*
X131877799Y-99610754D01*
X131877799Y-99605101D02*
X135509000Y-95973900D01*
D36*
X151460200Y-84830920D02*
X151460200Y-92759440D01*
X151460200Y-92759440D02*
X151251920Y-92967720D01*
D38*
X150962460Y-93257180D02*
X150985220Y-93234420D01*
D36*
X151251920Y-92967720D02*
X150985220Y-93234420D01*
X140923740Y-84591640D02*
X151220920Y-84591640D01*
X151220920Y-84591640D02*
X151460200Y-84830920D01*
D38*
X132013360Y-102651560D02*
X132013360Y-102551560D01*
X131312920Y-101251120D02*
X131312920Y-99921060D01*
X131312920Y-99921060D02*
X131312920Y-99627946D01*
X135483600Y-95427800D02*
X135140699Y-95770701D01*
X135140699Y-95770701D02*
X135135619Y-95770701D01*
X135135619Y-95770701D02*
X131312920Y-99593400D01*
X131312920Y-99593400D02*
X131312920Y-99921060D01*
X135519160Y-95509080D02*
X135490920Y-95509080D01*
X132613360Y-102551560D02*
X131312920Y-101251120D01*
D36*
X140923740Y-84977720D02*
X150728160Y-84977720D01*
X150936960Y-90524240D02*
X150611840Y-90849360D01*
X150936960Y-85186520D02*
X150936960Y-90524240D01*
X150728160Y-84977720D02*
X150936960Y-85186520D01*
D38*
X149936200Y-91148000D02*
X149936200Y-94528640D01*
X149936200Y-94528640D02*
X149524720Y-94940120D01*
X150611840Y-90849360D02*
X150234840Y-90849360D01*
X150234840Y-90849360D02*
X149936200Y-91148000D01*
X149524720Y-94940120D02*
X149052280Y-95412560D01*
D36*
X150611840Y-90899360D02*
X150611840Y-90849360D01*
D38*
X132613360Y-102651560D02*
X132613360Y-102551560D01*
X148834200Y-86166440D02*
X148834200Y-86862560D01*
X148557200Y-86870540D02*
X148823680Y-86870540D01*
X149034100Y-86870540D02*
X148823680Y-86870540D01*
X149034100Y-86870540D02*
X149111200Y-86793440D01*
X149111200Y-86793440D02*
X149111200Y-86166440D01*
X148557200Y-86870540D02*
X148557200Y-87133120D01*
X148557200Y-86801960D02*
X148557200Y-86870540D01*
X148557200Y-86166440D02*
X148557200Y-86801960D01*
X148557200Y-87133120D02*
X148130320Y-87560000D01*
X148130320Y-87560000D02*
X147675600Y-88014720D01*
X134370000Y-86166440D02*
X134370000Y-86894480D01*
X134370000Y-86894480D02*
X134264400Y-87000080D01*
X142123160Y-90421460D02*
X142606940Y-90905240D01*
X142606940Y-90905240D02*
X145352960Y-90905240D01*
X142123160Y-87497907D02*
X142123160Y-90421460D01*
X142125700Y-87243920D02*
X142125700Y-87495367D01*
X142125700Y-87495367D02*
X142123160Y-87497907D01*
X147060000Y-87740000D02*
X147060000Y-90100000D01*
X146254760Y-90905240D02*
X145729960Y-90905240D01*
X147060000Y-90100000D02*
X146254760Y-90905240D01*
X148280200Y-86166440D02*
X148280200Y-86979800D01*
X147320000Y-87480000D02*
X147060000Y-87740000D01*
X147780000Y-87480000D02*
X147320000Y-87480000D01*
X148280200Y-86979800D02*
X147780000Y-87480000D01*
X145729960Y-90905240D02*
X145352960Y-90905240D01*
X145729960Y-90855240D02*
X145729960Y-90905240D01*
X147203160Y-86799420D02*
X147203160Y-86870540D01*
X147403060Y-86870540D02*
X147203160Y-86870540D01*
X147203160Y-86870540D02*
X147203160Y-87103660D01*
X147480160Y-86166440D02*
X147480160Y-86793440D01*
X147480160Y-86793440D02*
X147403060Y-86870540D01*
X147203160Y-86166440D02*
X147203160Y-86799420D01*
X147203160Y-87103660D02*
X146342100Y-87964720D01*
X146342100Y-87964720D02*
X146342100Y-88014720D01*
X147203160Y-86166440D02*
X147203160Y-86591440D01*
X145680160Y-86166440D02*
X145680160Y-86938120D01*
X145680160Y-86938120D02*
X145186400Y-87431880D01*
X145186400Y-87431880D02*
X144531080Y-87431880D01*
X144531080Y-87431880D02*
X144353280Y-87609680D01*
X144353280Y-87609680D02*
X144353280Y-88009640D01*
X145126160Y-86166440D02*
X145126160Y-86745360D01*
X145126160Y-86745360D02*
X144759680Y-87111840D01*
X144759680Y-87111840D02*
X143398240Y-87111840D01*
X143398240Y-87111840D02*
X143108680Y-87401400D01*
X143108680Y-87401400D02*
X143108680Y-88009640D01*
X139260160Y-86166440D02*
X139260160Y-86707560D01*
X139260160Y-86707560D02*
X139720320Y-87167720D01*
X139720320Y-87167720D02*
X141061440Y-87167720D01*
X141061440Y-87167720D02*
X141368780Y-87475060D01*
X141368780Y-87475060D02*
X141368780Y-88009640D01*
X139872720Y-87457280D02*
X139943840Y-87457280D01*
X140136880Y-87650320D02*
X139948920Y-87462360D01*
X140136880Y-88009640D02*
X140136880Y-87650320D01*
X139537440Y-87457280D02*
X139872720Y-87457280D01*
X138983160Y-86903000D02*
X139537440Y-87457280D01*
X138983160Y-86903000D02*
X138983160Y-86166440D01*
X139943840Y-87457280D02*
X139948920Y-87462360D01*
X150380160Y-86166440D02*
X150380160Y-88362160D01*
X150380160Y-88362160D02*
X150393400Y-88375400D01*
X131380160Y-86166440D02*
X131380160Y-87960040D01*
X131380160Y-87960040D02*
X131381500Y-87961380D01*
D36*
X110289340Y-119814340D02*
X110289340Y-108152300D01*
X110289340Y-108152300D02*
X110756700Y-107684940D01*
X110756700Y-107684940D02*
X110756700Y-107130940D01*
D38*
X110756700Y-107130940D02*
X111133700Y-107130940D01*
X111133700Y-107130940D02*
X112397440Y-105867200D01*
X112397440Y-105867200D02*
X115216953Y-105867200D01*
X115216953Y-105867200D02*
X115468400Y-105867200D01*
D36*
X120686260Y-120078360D02*
X110553360Y-120078360D01*
X110553360Y-120078360D02*
X110289340Y-119814340D01*
D38*
X118927880Y-105836720D02*
X119943880Y-105836720D01*
X119943880Y-105836720D02*
X120289320Y-106182160D01*
X128214120Y-106822240D02*
X128713360Y-106323000D01*
X120289320Y-106182160D02*
X123977400Y-106182160D01*
X123977400Y-106182160D02*
X124617480Y-106822240D01*
X124617480Y-106822240D02*
X128214120Y-106822240D01*
X128713360Y-106323000D02*
X128713360Y-105716560D01*
X128713360Y-105901560D02*
X128713360Y-105716560D01*
X128751800Y-105755000D02*
X128713360Y-105716560D01*
X111569500Y-109722820D02*
X111569500Y-108961934D01*
X114171474Y-106359960D02*
X115206793Y-106359960D01*
X111569500Y-108961934D02*
X114171474Y-106359960D01*
X115206793Y-106359960D02*
X115458240Y-106359960D01*
X111031020Y-109884300D02*
X111408020Y-109884300D01*
X111408020Y-109884300D02*
X111569500Y-109722820D01*
D36*
X110766720Y-119692280D02*
X110703360Y-119628920D01*
X110703360Y-110765960D02*
X111031020Y-110438300D01*
X110703360Y-119628920D02*
X110703360Y-110765960D01*
X111031020Y-110438300D02*
X111031020Y-109884300D01*
X120686260Y-119692280D02*
X110766720Y-119692280D01*
D38*
X118938368Y-106319208D02*
X119720472Y-106319208D01*
X119720472Y-106319208D02*
X119878064Y-106476800D01*
X119878064Y-106476800D02*
X123764040Y-106476800D01*
X123764040Y-106476800D02*
X124378720Y-107091480D01*
X129313360Y-106281800D02*
X129313360Y-105716560D01*
X124378720Y-107091480D02*
X128503680Y-107091480D01*
X128503680Y-107091480D02*
X129313360Y-106281800D01*
X112593020Y-117782340D02*
X112776000Y-117782340D01*
X112776000Y-117782340D02*
X113052800Y-117782340D01*
X112775800Y-118503560D02*
X112775800Y-117876560D01*
X112776000Y-117876360D02*
X112776000Y-117782340D01*
X112775800Y-117876560D02*
X112776000Y-117876360D01*
X113052800Y-118503560D02*
X113052800Y-117782340D01*
X113052800Y-117782340D02*
X113052800Y-117292740D01*
X112498800Y-118503560D02*
X112498800Y-117876560D01*
X112498800Y-117876560D02*
X112593020Y-117782340D01*
X113052800Y-117292740D02*
X113654840Y-116690700D01*
X113654840Y-116690700D02*
X113654840Y-116640700D01*
X119501920Y-117066060D02*
X119501920Y-115146834D01*
X119501920Y-115146834D02*
X118410066Y-114054980D01*
X115443000Y-114054980D02*
X118410066Y-114054980D01*
X114510820Y-116695540D02*
X114510820Y-115037160D01*
X114510820Y-115037160D02*
X115443000Y-114104980D01*
X115443000Y-114104980D02*
X115443000Y-114054980D01*
X113329800Y-118503560D02*
X113329800Y-117876560D01*
X113329800Y-117876560D02*
X114510820Y-116695540D01*
X127240000Y-118503560D02*
X127240000Y-117650000D01*
X127240000Y-117650000D02*
X127280000Y-117610000D01*
X114406680Y-118078400D02*
X114406680Y-117795040D01*
X114406680Y-117795040D02*
X114406680Y-117432380D01*
X114129840Y-118503560D02*
X114129840Y-117876560D01*
X114129840Y-117876560D02*
X114211360Y-117795040D01*
X114211360Y-117795040D02*
X114406680Y-117795040D01*
X114406840Y-118503560D02*
X114406840Y-118078560D01*
X114406840Y-118078560D02*
X114406680Y-118078400D01*
X114406680Y-117432380D02*
X115148360Y-116690700D01*
X115148360Y-116690700D02*
X115148360Y-116640700D01*
X117202000Y-117348000D02*
X117358160Y-117191840D01*
X117358160Y-117191840D02*
X117358160Y-116643240D01*
X116458400Y-117348000D02*
X117202000Y-117348000D01*
X115929840Y-118503560D02*
X115929840Y-117876560D01*
X115929840Y-117876560D02*
X116458400Y-117348000D01*
X115915440Y-118489160D02*
X115929840Y-118503560D01*
X118242400Y-117703280D02*
X118607840Y-117337840D01*
X118607840Y-117337840D02*
X118607840Y-116643240D01*
X116657120Y-117703280D02*
X118242400Y-117703280D01*
X116483840Y-118503560D02*
X116483840Y-117876560D01*
X116483840Y-117876560D02*
X116657120Y-117703280D01*
X120208040Y-116643240D02*
X120208040Y-117332760D01*
X122349840Y-117869280D02*
X122349840Y-118503560D01*
X122234960Y-117754400D02*
X122349840Y-117869280D01*
X120629680Y-117754400D02*
X122234960Y-117754400D01*
X120208040Y-117332760D02*
X120629680Y-117754400D01*
X121462800Y-116643240D02*
X121462800Y-117190520D01*
X122626840Y-117653520D02*
X122626840Y-118503560D01*
X122336560Y-117363240D02*
X122626840Y-117653520D01*
X121635520Y-117363240D02*
X122336560Y-117363240D01*
X121462800Y-117190520D02*
X121635520Y-117363240D01*
X111229840Y-118503560D02*
X111229840Y-112400160D01*
X112186720Y-111443280D02*
X112186720Y-110749080D01*
X111229840Y-112400160D02*
X111226600Y-112403400D01*
X111226600Y-112403400D02*
X112186720Y-111443280D01*
X130229840Y-118503560D02*
X130229840Y-117839720D01*
X130229840Y-117839720D02*
X129306320Y-116916200D01*
X129306320Y-116916200D02*
X129306320Y-116643240D01*
X145849340Y-111836200D02*
X146504659Y-112491519D01*
X146504659Y-112491519D02*
X146504659Y-113510059D01*
X146504659Y-113510059D02*
X147380960Y-114386360D01*
X135188960Y-109529880D02*
X135209280Y-110685580D01*
X135209280Y-110685580D02*
X135209280Y-110794800D01*
D36*
X151213820Y-113254880D02*
X151213820Y-113685320D01*
X151213820Y-113685320D02*
X151213820Y-113808880D01*
D38*
X149197060Y-114208560D02*
X150310140Y-114208560D01*
X150310140Y-114208560D02*
X150833380Y-113685320D01*
X150833380Y-113685320D02*
X151213820Y-113685320D01*
D36*
X151213820Y-113808880D02*
X151505920Y-114100980D01*
X150929480Y-120078360D02*
X151244300Y-119763540D01*
X151244300Y-119763540D02*
X151470360Y-119537480D01*
X151505920Y-114100980D02*
X151505920Y-119501920D01*
X151505920Y-119501920D02*
X151244300Y-119763540D01*
X140926260Y-120078360D02*
X150929480Y-120078360D01*
D38*
X132902960Y-106842560D02*
X132902960Y-105726960D01*
X132902960Y-105726960D02*
X132913360Y-105716560D01*
X147360640Y-114927380D02*
X146047459Y-113614199D01*
X146047459Y-113614199D02*
X146047459Y-112633759D01*
X146047459Y-112633759D02*
X145816320Y-112402620D01*
X134419340Y-109550200D02*
X134419340Y-110731300D01*
X134419340Y-110731300D02*
X134485380Y-110797340D01*
D36*
X140926260Y-119692280D02*
X150772000Y-119692280D01*
X150772000Y-119692280D02*
X150952200Y-119512080D01*
X150952200Y-119512080D02*
X150952200Y-116014500D01*
D38*
X150876000Y-116023480D02*
X150313480Y-116023480D01*
X150313480Y-116023480D02*
X150279100Y-115989100D01*
X132313680Y-106842560D02*
X132313680Y-105716880D01*
X132313680Y-105716880D02*
X132313360Y-105716560D01*
X132796280Y-117762020D02*
X133019800Y-117762020D01*
X133019800Y-117762020D02*
X133292800Y-117762020D01*
X133015800Y-118503560D02*
X133015800Y-117766020D01*
X133015800Y-117766020D02*
X133019800Y-117762020D01*
X133292800Y-118503560D02*
X133292800Y-117762020D01*
X133292800Y-117762020D02*
X133292800Y-117370200D01*
X132740400Y-117817900D02*
X132796280Y-117762020D01*
X132740400Y-117974720D02*
X132740400Y-117817900D01*
X132738800Y-118503560D02*
X132738800Y-117976320D01*
X132738800Y-117976320D02*
X132740400Y-117974720D01*
X133292800Y-117370200D02*
X133974840Y-116688160D01*
X133974840Y-116688160D02*
X133974840Y-116638160D01*
X134630160Y-116816200D02*
X134630160Y-115070180D01*
X134630160Y-115070180D02*
X135595360Y-114104980D01*
X135595360Y-114104980D02*
X135595360Y-114054980D01*
X133569800Y-118503560D02*
X133569800Y-117876560D01*
X133569800Y-117876560D02*
X134630160Y-116816200D01*
X135595360Y-114054980D02*
X139597220Y-114054980D01*
X139597220Y-114054980D02*
X139880340Y-114338100D01*
X139880340Y-117088920D02*
X139880340Y-114338100D01*
X139880340Y-114338100D02*
X139867640Y-114325400D01*
X147480000Y-118503560D02*
X147480000Y-117629960D01*
X147480000Y-117629960D02*
X147622260Y-117487700D01*
X147622260Y-117487700D02*
X147622260Y-117543580D01*
X135595360Y-113874640D02*
X135495360Y-113874640D01*
X134386320Y-117769640D02*
X134369840Y-117786120D01*
X134369840Y-117786120D02*
X134369840Y-118503560D01*
X134646840Y-117769640D02*
X134646840Y-117324260D01*
X134646840Y-118503560D02*
X134646840Y-117769640D01*
X134646840Y-117769640D02*
X134386320Y-117769640D01*
X134646840Y-117324260D02*
X135280400Y-116690700D01*
X135280400Y-116690700D02*
X135280400Y-116640700D01*
X136169840Y-118503560D02*
X136169840Y-117809840D01*
X137642600Y-117281960D02*
X137642600Y-116648320D01*
X137485120Y-117439440D02*
X137642600Y-117281960D01*
X136540240Y-117439440D02*
X137485120Y-117439440D01*
X136169840Y-117809840D02*
X136540240Y-117439440D01*
X136723840Y-118503560D02*
X136723840Y-117916240D01*
X138897360Y-117403880D02*
X138897360Y-116643240D01*
X138572240Y-117729000D02*
X138897360Y-117403880D01*
X136911080Y-117729000D02*
X138572240Y-117729000D01*
X136723840Y-117916240D02*
X136911080Y-117729000D01*
X142589840Y-118503560D02*
X142589840Y-117921360D01*
X140522960Y-117398800D02*
X140522960Y-116643240D01*
X140863320Y-117739160D02*
X140522960Y-117398800D01*
X142407640Y-117739160D02*
X140863320Y-117739160D01*
X142589840Y-117921360D02*
X142407640Y-117739160D01*
X141787880Y-116643240D02*
X141787880Y-116693240D01*
X141787880Y-116693240D02*
X142866840Y-117772200D01*
X142866840Y-117772200D02*
X142866840Y-118503560D01*
X131469840Y-118503560D02*
X131469840Y-113230160D01*
X132486400Y-112213600D02*
X132486400Y-111558160D01*
X131469840Y-113230160D02*
X132486400Y-112213600D01*
X150469840Y-118503560D02*
X150469840Y-117806800D01*
X150469840Y-117806800D02*
X149661880Y-116998840D01*
D36*
X129219160Y-86166440D02*
X129219160Y-89698360D01*
X129219160Y-89698360D02*
X128320800Y-90596720D01*
X128320800Y-90596720D02*
X128320800Y-90746160D01*
X114519000Y-86166440D02*
X114519000Y-89760080D01*
X114519000Y-89760080D02*
X114508280Y-89770800D01*
X114450160Y-89712680D02*
X114508280Y-89770800D01*
X147660000Y-90940000D02*
X147760000Y-90940000D01*
X147760000Y-90940000D02*
X148422350Y-90277650D01*
X148422350Y-90277650D02*
X148422350Y-88087210D01*
X148422350Y-88087210D02*
X149449160Y-87060400D01*
X149449160Y-86166440D02*
X149449160Y-87060400D01*
X149449160Y-87060400D02*
X148818600Y-87690960D01*
X134749000Y-86166440D02*
X134749000Y-89291280D01*
X134749000Y-89291280D02*
X134686040Y-89354240D01*
X112160840Y-118503560D02*
X112160840Y-114829160D01*
X113037560Y-113952440D02*
X113461800Y-113952440D01*
X112160840Y-114829160D02*
X113037560Y-113952440D01*
X113361800Y-113952440D02*
X113461800Y-113952440D01*
X126861000Y-118503560D02*
X126861000Y-116595880D01*
X126861000Y-116595880D02*
X126913640Y-116543240D01*
X132400840Y-115691920D02*
X132400840Y-118503560D01*
X133725920Y-114010860D02*
X133625920Y-114010860D01*
X133625920Y-114010860D02*
X132400840Y-115235940D01*
X132400840Y-115235940D02*
X132400840Y-115691920D01*
X147101000Y-118503560D02*
X147101000Y-116584440D01*
X147101000Y-116584440D02*
X147142200Y-116543240D01*
D38*
X124156280Y-104693720D02*
X124956176Y-103893824D01*
X124956176Y-103893824D02*
X126774144Y-103893824D01*
X124115920Y-104693720D02*
X124156280Y-104693720D01*
X126774144Y-103893824D02*
X126913360Y-104033040D01*
X126837540Y-103957220D02*
X126913360Y-104033040D01*
X126913360Y-104033040D02*
X126913360Y-105716560D01*
X124105760Y-103352600D02*
X124152600Y-103352600D01*
X126987105Y-103639815D02*
X127213360Y-103413560D01*
X124152600Y-103352600D02*
X124439815Y-103639815D01*
X124439815Y-103639815D02*
X126987105Y-103639815D01*
X127213360Y-103413560D02*
X127213360Y-102651560D01*
X120666600Y-105135680D02*
X120718580Y-105135680D01*
X120718580Y-105135680D02*
X121246900Y-104607360D01*
X121246900Y-104607360D02*
X121653300Y-104607360D01*
X121653300Y-104607360D02*
X122021690Y-104975750D01*
X122335448Y-105791206D02*
X124776073Y-105791205D01*
X124776073Y-105791205D02*
X125084750Y-105482528D01*
X122021690Y-104975750D02*
X122021691Y-105477449D01*
X125327214Y-104597210D02*
X126298970Y-104597210D01*
X122021691Y-105477449D02*
X122335448Y-105791206D01*
X126298970Y-104597210D02*
X126532640Y-104830880D01*
X125084750Y-105482528D02*
X125084750Y-104839674D01*
X125084750Y-104839674D02*
X125327214Y-104597210D01*
X127360680Y-104830880D02*
X127739140Y-104830880D01*
X127739140Y-104830880D02*
X128113360Y-105205100D01*
X128113360Y-105205100D02*
X128113360Y-105716560D01*
X120666600Y-105044240D02*
X120716600Y-105044240D01*
X122275700Y-105097580D02*
X122275700Y-105372234D01*
X120713500Y-103926640D02*
X121140210Y-104353350D01*
X121140210Y-104353350D02*
X121758514Y-104353350D01*
X121758514Y-104353350D02*
X122275700Y-104870536D01*
X122275700Y-104870536D02*
X122275700Y-105097580D01*
X120666600Y-103926640D02*
X120713500Y-103926640D01*
X127622300Y-104282240D02*
X127813360Y-104091180D01*
X127813360Y-104091180D02*
X127813360Y-103550160D01*
X127345440Y-104282240D02*
X127622300Y-104282240D01*
X122275700Y-105372234D02*
X122440662Y-105537196D01*
X120666600Y-103779320D02*
X120716600Y-103779320D01*
X124670858Y-105537196D02*
X124830740Y-105377314D01*
X122440662Y-105537196D02*
X124670858Y-105537196D01*
X125222000Y-104343200D02*
X124830740Y-104734460D01*
X124830740Y-104734460D02*
X124830740Y-105377314D01*
X126532640Y-104343200D02*
X125222000Y-104343200D01*
X126378860Y-104338220D02*
X126527660Y-104338220D01*
X126527660Y-104338220D02*
X126532640Y-104343200D01*
X127813360Y-103550160D02*
X127813360Y-102651560D01*
X127813360Y-103028560D02*
X127813360Y-102651560D01*
X133813360Y-103028560D02*
X133939280Y-103154480D01*
X133939280Y-103154480D02*
X133939280Y-104368600D01*
X138001140Y-103532113D02*
X138001140Y-103844960D01*
X138001140Y-103844960D02*
X137855969Y-103990131D01*
X137855969Y-103990131D02*
X135161029Y-103990131D01*
X135161029Y-103990131D02*
X135049260Y-104101900D01*
X135049260Y-104101900D02*
X134990840Y-104101900D01*
X143346080Y-103352600D02*
X143322400Y-103352600D01*
X142804340Y-103870660D02*
X141358286Y-103870660D01*
X143322400Y-103352600D02*
X142804340Y-103870660D01*
X141358286Y-103870660D02*
X141142820Y-103655194D01*
X141142820Y-103655194D02*
X141142820Y-103131954D01*
X141142820Y-103131954D02*
X140873602Y-102862736D01*
X138001140Y-103200034D02*
X138001140Y-103532113D01*
X140873602Y-102862736D02*
X138338438Y-102862736D01*
X138338438Y-102862736D02*
X138001140Y-103200034D01*
X138001140Y-103532113D02*
X137996487Y-103532113D01*
X143325760Y-103337360D02*
X143325760Y-103384440D01*
X133813360Y-103028560D02*
X133813360Y-102651560D01*
X133939280Y-104368600D02*
X133939280Y-103671114D01*
X143346080Y-104693720D02*
X143299180Y-104693720D01*
X143299180Y-104693720D02*
X142730130Y-104124670D01*
X138255150Y-103305248D02*
X138255149Y-103950175D01*
X142730130Y-104124670D02*
X141253072Y-104124670D01*
X141253072Y-104124670D02*
X140888810Y-103760408D01*
X135585220Y-104251740D02*
X135341360Y-104495600D01*
X140888810Y-103760408D02*
X140888810Y-103237168D01*
X140888810Y-103237168D02*
X140768388Y-103116746D01*
X140768388Y-103116746D02*
X138443652Y-103116746D01*
X138443652Y-103116746D02*
X138255150Y-103305248D01*
X138255149Y-103950175D02*
X137953584Y-104251740D01*
X137953584Y-104251740D02*
X135585220Y-104251740D01*
X143346080Y-104693720D02*
X143318720Y-104693720D01*
X134134860Y-104871520D02*
X133513360Y-105493020D01*
X133513360Y-105493020D02*
X133513360Y-105716560D01*
X138308080Y-104505750D02*
X138175000Y-104505750D01*
X138987440Y-103926640D02*
X138937440Y-103926640D01*
X138175000Y-104505750D02*
X136955726Y-104505750D01*
X138937440Y-103926640D02*
X138358330Y-104505750D01*
X138358330Y-104505750D02*
X138175000Y-104505750D01*
X136524427Y-104937049D02*
X136841416Y-104620060D01*
X136955726Y-104505750D02*
X136841416Y-104620060D01*
X134413360Y-102651560D02*
X134413360Y-104143166D01*
X134413360Y-104143166D02*
X135207243Y-104937049D01*
X135207243Y-104937049D02*
X136524427Y-104937049D01*
X138935680Y-105135680D02*
X138561059Y-104761059D01*
X138561059Y-104761059D02*
X138126441Y-104761059D01*
X138987440Y-105135680D02*
X138935680Y-105135680D01*
X138987440Y-105135680D02*
X138987440Y-105114000D01*
X138127740Y-104759760D02*
X138126441Y-104761059D01*
X138126441Y-104761059D02*
X137059641Y-104761059D01*
X136629641Y-105191059D02*
X135053861Y-105191059D01*
X137059641Y-104761059D02*
X136629641Y-105191059D01*
X135053861Y-105191059D02*
X134713360Y-105531560D01*
X134713360Y-105531560D02*
X134713360Y-105716560D01*
X130083560Y-113004600D02*
X130083560Y-111902240D01*
X130083560Y-111902240D02*
X129677160Y-111495840D01*
X127655320Y-109468920D02*
X127655320Y-107711240D01*
X127655320Y-107711240D02*
X127518160Y-107574080D01*
D36*
X127523240Y-106492040D02*
X127513360Y-106482160D01*
D38*
X127523240Y-106492040D02*
X127523240Y-105726440D01*
X127523240Y-105726440D02*
X127513360Y-105716560D01*
D36*
X131713360Y-105716560D02*
X131713360Y-105202600D01*
X131478020Y-98635820D02*
X130463380Y-98635820D01*
X130463380Y-98635820D02*
X129776920Y-99322280D01*
X131713360Y-105202600D02*
X131953000Y-104962960D01*
X129776920Y-99322280D02*
X129776920Y-99522280D01*
D37*
X145404840Y-106558080D02*
X145404840Y-105520160D01*
X145404840Y-105520160D02*
X146625000Y-104300000D01*
X146625000Y-104300000D02*
X146625000Y-104100000D01*
X136513360Y-106412240D02*
X136458960Y-106466640D01*
X136513360Y-105716560D02*
X136513360Y-106412240D01*
X136513360Y-105716560D02*
X136513360Y-105916520D01*
D38*
X129753360Y-93744200D02*
X129753360Y-94386400D01*
X129753360Y-94386400D02*
X129755900Y-94388940D01*
X127375920Y-100919280D02*
X128413360Y-101956720D01*
X127375920Y-97383600D02*
X127375920Y-100919280D01*
D36*
X127375920Y-97383600D02*
X127391160Y-97398840D01*
D38*
X128413360Y-101956720D02*
X128413360Y-102651560D01*
D36*
X128276920Y-99722280D02*
X130340100Y-101785460D01*
X130340100Y-101785460D02*
X130804462Y-101785460D01*
X130804462Y-101785460D02*
X131413360Y-102394358D01*
X131413360Y-102394358D02*
X131413360Y-102651560D01*
X128276920Y-99722280D02*
X128276920Y-99522280D01*
X128275080Y-99724120D02*
X128276920Y-99722280D01*
X131413360Y-102551560D02*
X131413360Y-102651560D01*
X135102600Y-100892040D02*
X133986840Y-100892040D01*
X134622540Y-102052120D02*
X134962900Y-102052120D01*
X134965440Y-102054660D02*
X134805340Y-102054660D01*
X134962900Y-102052120D02*
X134965440Y-102054660D01*
X135520460Y-102054660D02*
X134965440Y-102054660D01*
X135613360Y-102651560D02*
X135613360Y-102147560D01*
X135613360Y-102147560D02*
X135520460Y-102054660D01*
X135613360Y-102551699D02*
X135613360Y-102651560D01*
D38*
X144332960Y-95542100D02*
X144332960Y-96667320D01*
X144332960Y-96667320D02*
X144327880Y-96672400D01*
X134015480Y-98003360D02*
X135524240Y-96494600D01*
X133497320Y-98521520D02*
X134015480Y-98003360D01*
X133497320Y-100360480D02*
X133497320Y-98521520D01*
X149057360Y-94091760D02*
X149057360Y-94726760D01*
X149057360Y-94726760D02*
X148950680Y-94833440D01*
X148950680Y-94198440D02*
X149057360Y-94091760D01*
X133213360Y-102249720D02*
X133213360Y-102242100D01*
X133213360Y-102242100D02*
X133449060Y-102006400D01*
X133213360Y-102651560D02*
X133213360Y-102249720D01*
X133213360Y-102651560D02*
X133213360Y-102441393D01*
D40*
X128313180Y-92828020D02*
X129737180Y-92828020D01*
X129737180Y-92828020D02*
X129753360Y-92844200D01*
D41*
X128320800Y-91646160D02*
X128320800Y-92820400D01*
X128320800Y-92820400D02*
X128313180Y-92828020D01*
X122438160Y-95488060D02*
X124347540Y-95488060D01*
X124347540Y-95488060D02*
X124368560Y-95509080D01*
X113323160Y-86166440D02*
X113323160Y-91048840D01*
X113323160Y-91048840D02*
X113323160Y-92290600D01*
X114508280Y-90670800D02*
X113446280Y-90670800D01*
X113446280Y-90670800D02*
X113323160Y-90793920D01*
X113323160Y-90793920D02*
X113323160Y-91048840D01*
X113323160Y-92290600D02*
X113344960Y-92312400D01*
D40*
X129740000Y-87180840D02*
X129740000Y-91168880D01*
D41*
X129262720Y-91646160D02*
X128320800Y-91646160D01*
D37*
X129733600Y-87174440D02*
X129740000Y-87180840D01*
X129733600Y-86166440D02*
X129733600Y-87174440D01*
D41*
X129740000Y-91168880D02*
X129262720Y-91646160D01*
X115334960Y-92312400D02*
X113344960Y-92312400D01*
X115735100Y-93116400D02*
X115334960Y-92312400D01*
X127149440Y-91646160D02*
X128320800Y-91646160D01*
D37*
X127035560Y-91760040D02*
X127149440Y-91646160D01*
D41*
X133553160Y-86166440D02*
X133553160Y-90248740D01*
X133553160Y-90248740D02*
X133553160Y-91718000D01*
X134686040Y-90254240D02*
X133558660Y-90254240D01*
X133558660Y-90254240D02*
X133553160Y-90248740D01*
X133553160Y-91718000D02*
X133563360Y-91728200D01*
D37*
X149963600Y-87384160D02*
X149674570Y-87733028D01*
X149674570Y-87733028D02*
X149651720Y-87696040D01*
D41*
X149057360Y-93191760D02*
X149057360Y-88350238D01*
X149057360Y-88350238D02*
X149081630Y-88325968D01*
X149081630Y-88325968D02*
X149674570Y-87733028D01*
D37*
X143195040Y-95160400D02*
X143195040Y-94929960D01*
D41*
X143195040Y-94929960D02*
X144002760Y-94122240D01*
D37*
X149963600Y-86166440D02*
X149963600Y-87384160D01*
D41*
X133563360Y-91824720D02*
X134414720Y-91824720D01*
X134414720Y-91824720D02*
X134690000Y-92100000D01*
X147665440Y-93226800D02*
X149022320Y-93226800D01*
D37*
X149022320Y-93226800D02*
X149057360Y-93191760D01*
D41*
X147675600Y-91725320D02*
X147675600Y-93216640D01*
D37*
X147675600Y-93216640D02*
X147665440Y-93226800D01*
D41*
X147675600Y-91725320D02*
X146745120Y-91725320D01*
D37*
X146745120Y-91725320D02*
X146608800Y-91861640D01*
X111674350Y-114625166D02*
X111646400Y-118503560D01*
X111646400Y-114625166D02*
X111674350Y-114625166D01*
D40*
X111674350Y-114158890D02*
X111674350Y-114625166D01*
X112780800Y-113052440D02*
X111674350Y-114158890D01*
D41*
X126913640Y-115643240D02*
X127975640Y-115643240D01*
X127975640Y-115643240D02*
X128016000Y-115602880D01*
X128016000Y-115602880D02*
X128016000Y-115221880D01*
X128016000Y-114868960D02*
X128016000Y-117188994D01*
X128016000Y-117188994D02*
X128056840Y-117229834D01*
X128056840Y-117229834D02*
X128056840Y-117241560D01*
X128056840Y-117241560D02*
X128056840Y-118503560D01*
X113431320Y-110750440D02*
X115474840Y-110750440D01*
X115474840Y-110750440D02*
X117288400Y-110750440D01*
X119443500Y-113469420D02*
X121462800Y-113469420D01*
X121462800Y-113469420D02*
X121942860Y-113949480D01*
X126913640Y-115643240D02*
X125481500Y-115643240D01*
D37*
X125481500Y-115643240D02*
X125338840Y-115785900D01*
D40*
X128016000Y-113783200D02*
X129962160Y-113783200D01*
D41*
X128016000Y-113783200D02*
X128016000Y-114868960D01*
X127594640Y-115643240D02*
X128016000Y-115221880D01*
D37*
X128016000Y-115221880D02*
X128016000Y-114868960D01*
X128016000Y-118462720D02*
X128056840Y-118503560D01*
X119603520Y-110965680D02*
X119603520Y-111744760D01*
X119603520Y-111744760D02*
X119451120Y-111897160D01*
D41*
X113461800Y-113052440D02*
X113461800Y-110780920D01*
D37*
X113461800Y-110780920D02*
X113431320Y-110750440D01*
D40*
X112780800Y-113052440D02*
X113461800Y-113052440D01*
D37*
X131886400Y-118503560D02*
X131886400Y-114142380D01*
X131886400Y-114142380D02*
X131914350Y-114114430D01*
D40*
X133725920Y-113110860D02*
X132917920Y-113110860D01*
X132917920Y-113110860D02*
X131914350Y-114114430D01*
X131914350Y-114114430D02*
X131914350Y-114668300D01*
D41*
X133710680Y-112981320D02*
X133710680Y-111568320D01*
X133710680Y-111568320D02*
X133700520Y-111558160D01*
X147142200Y-115643240D02*
X147886840Y-115643240D01*
X148296840Y-118503560D02*
X148296840Y-117241560D01*
X148296840Y-117241560D02*
X148296840Y-115233240D01*
X141180820Y-113051020D02*
X141185900Y-113056100D01*
X141185900Y-113056100D02*
X141185900Y-113931700D01*
X133700520Y-111558160D02*
X135657500Y-111558160D01*
X135848660Y-111367000D02*
X139496800Y-111367000D01*
X135657500Y-111558160D02*
X135848660Y-111367000D01*
X141091920Y-112962120D02*
X139496800Y-111367000D01*
D40*
X147372160Y-113097400D02*
X147353020Y-113078260D01*
D41*
X148272500Y-113097400D02*
X147372160Y-113097400D01*
D40*
X141180820Y-113051020D02*
X141091920Y-112962120D01*
D41*
X147886840Y-115643240D02*
X148296840Y-115233240D01*
D40*
X148272500Y-113097400D02*
X149429800Y-113097400D01*
X149429800Y-113097400D02*
X149707600Y-112819600D01*
D37*
X133732360Y-111526320D02*
X133700520Y-111558160D01*
D41*
X148296840Y-115233240D02*
X148296840Y-114173000D01*
D39*
X148296840Y-114173000D02*
X148272500Y-114173000D01*
X148272500Y-114173000D02*
X148296840Y-114173000D01*
X148272500Y-114173000D02*
X148296840Y-114173000D01*
D41*
X148296840Y-114173000D02*
X148296840Y-113121740D01*
D39*
X148296840Y-113121740D02*
X148272500Y-113097400D01*
D38*
X136113520Y-109524800D02*
X137165080Y-110545880D01*
X137165080Y-110545880D02*
X138348720Y-110545880D01*
X149707600Y-111109760D02*
X149225000Y-110627160D01*
X149225000Y-110627160D02*
X145465800Y-110627160D01*
X149707600Y-111262160D02*
X149707600Y-111109760D01*
X149707600Y-111919600D02*
X149707600Y-111262160D01*
X149707600Y-111919600D02*
X149707600Y-111836200D01*
X134137400Y-106837480D02*
X134137400Y-105740600D01*
X134137400Y-105740600D02*
X134113360Y-105716560D01*
X147828000Y-102616000D02*
X147066000Y-102616000D01*
X150114000Y-102616000D02*
X150876000Y-102616000D01*
X148590000Y-102616000D02*
X149352000Y-102616000D01*
X148539200Y-100296980D02*
X148539200Y-101423980D01*
X148539200Y-101423980D02*
X148617180Y-101600000D01*
X148617180Y-101600000D02*
X148590000Y-101600000D01*
X150114000Y-101600000D02*
X150114000Y-102082600D01*
X146304000Y-102108000D02*
X146304000Y-101600000D01*
X146304000Y-102616000D02*
X146304000Y-102108000D01*
X147066000Y-102616000D02*
X146304000Y-102616000D01*
X147066000Y-102108000D02*
X147066000Y-102616000D01*
X147066000Y-101600000D02*
X147066000Y-102108000D01*
X147828000Y-102108000D02*
X147828000Y-101600000D01*
X147828000Y-102616000D02*
X147828000Y-102108000D01*
X148590000Y-102616000D02*
X147828000Y-102616000D01*
X148590000Y-102108000D02*
X148590000Y-102616000D01*
X148590000Y-101600000D02*
X148590000Y-102108000D01*
X148615400Y-101625400D02*
X148590000Y-101600000D01*
X149352000Y-102108000D02*
X149352000Y-101600000D01*
X149352000Y-102616000D02*
X149352000Y-102108000D01*
X150114000Y-102616000D02*
X149352000Y-102616000D01*
X150114000Y-102108000D02*
X150114000Y-102616000D01*
X150876000Y-102108000D02*
X150876000Y-102616000D01*
X150876000Y-101600000D02*
X150876000Y-102108000D01*
D40*
X136489440Y-96381000D02*
X136489440Y-97282000D01*
X141620240Y-96497840D02*
X143032480Y-96497840D01*
X143032480Y-96497840D02*
X143195040Y-96660400D01*
X122438160Y-96988060D02*
X120967500Y-96988060D01*
X120967500Y-96988060D02*
X120817640Y-96838200D01*
X122438160Y-96988060D02*
X122438160Y-97800160D01*
X122438160Y-97800160D02*
X122448320Y-97810320D01*
X143195040Y-96660400D02*
X143195040Y-97505520D01*
X139496800Y-109867000D02*
X140949680Y-109867000D01*
X140949680Y-109867000D02*
X141097000Y-109719680D01*
D41*
X141097000Y-109719680D02*
X141097000Y-108259880D01*
D40*
X141097000Y-108259880D02*
X141086840Y-108249720D01*
X121330720Y-109404720D02*
X121330720Y-108473240D01*
X119603520Y-109465680D02*
X121269760Y-109465680D01*
X121269760Y-109465680D02*
X121330720Y-109404720D01*
X122463560Y-96962660D02*
X122438160Y-96988060D01*
D38*
X177812700Y-94255404D02*
X177812700Y-96888300D01*
X178041300Y-99181920D02*
X178623280Y-99181920D01*
X178623280Y-99181920D02*
X178706000Y-99264640D01*
X177947320Y-97022920D02*
X178008280Y-97083880D01*
X177812700Y-96888300D02*
X178008280Y-97083880D01*
X186194710Y-91481714D02*
X184966415Y-92710009D01*
X186194710Y-89555690D02*
X186194710Y-91481714D01*
X186428760Y-89321640D02*
X186194710Y-89555690D01*
D40*
X187055760Y-86738460D02*
X187043060Y-86725760D01*
D41*
X187055760Y-86738460D02*
X187043060Y-86725760D01*
X187055760Y-89321640D02*
X187055760Y-86738460D01*
D38*
X187055760Y-89321640D02*
X186428760Y-89321640D01*
X179358094Y-92710010D02*
X177812700Y-94255404D01*
X184966415Y-92710009D02*
X179358094Y-92710010D01*
X157576520Y-99240340D02*
X158158500Y-99240340D01*
X158158500Y-99240340D02*
X158241220Y-99323060D01*
X157347920Y-96946720D02*
X157543500Y-97142300D01*
X157482540Y-97081340D02*
X157543500Y-97142300D01*
D41*
X166590980Y-89380060D02*
X166590980Y-86796880D01*
X166590980Y-86796880D02*
X166578280Y-86784180D01*
D40*
X166590980Y-86796880D02*
X166578280Y-86784180D01*
D38*
X166590980Y-89380060D02*
X165963980Y-89380060D01*
X165963980Y-89380060D02*
X165729930Y-89614110D01*
X165729930Y-89614110D02*
X165729930Y-91540134D01*
X165729930Y-91540134D02*
X164501635Y-92768429D01*
X164501635Y-92768429D02*
X158893314Y-92768430D01*
X157347920Y-94313824D02*
X157347920Y-96946720D01*
X158893314Y-92768430D02*
X157347920Y-94313824D01*
X177500280Y-94973140D02*
X177500280Y-97094040D01*
X177500280Y-94838520D02*
X177500280Y-94973140D01*
X177492660Y-99169220D02*
X177492660Y-99420667D01*
X175664680Y-99588320D02*
X175641000Y-99564640D01*
X177325007Y-99588320D02*
X175664680Y-99588320D01*
X177492660Y-99420667D02*
X177325007Y-99588320D01*
X177500280Y-94208600D02*
X177500280Y-94973140D01*
X185940700Y-89614120D02*
X185940700Y-91376500D01*
X185940700Y-91376500D02*
X184861200Y-92456000D01*
X185648220Y-89321640D02*
X185940700Y-89614120D01*
D40*
X185021220Y-86738460D02*
X185008520Y-86725760D01*
D41*
X185021220Y-86738460D02*
X185008520Y-86725760D01*
X185021220Y-89321640D02*
X185021220Y-86738460D01*
D38*
X185021220Y-89321640D02*
X185648220Y-89321640D01*
X179252880Y-92456000D02*
X177500280Y-94208600D01*
X184861200Y-92456000D02*
X179252880Y-92456000D01*
D41*
X164556440Y-89380060D02*
X164556440Y-86796880D01*
X164556440Y-86796880D02*
X164543740Y-86784180D01*
D40*
X164556440Y-86796880D02*
X164543740Y-86784180D01*
D38*
X157035500Y-94896940D02*
X157035500Y-95031560D01*
X157035500Y-95031560D02*
X157035500Y-97152460D01*
X164556440Y-89380060D02*
X165183440Y-89380060D01*
X165183440Y-89380060D02*
X165475920Y-89672540D01*
X165475920Y-89672540D02*
X165475920Y-91434920D01*
X165475920Y-91434920D02*
X164396420Y-92514420D01*
X164396420Y-92514420D02*
X158788100Y-92514420D01*
X158788100Y-92514420D02*
X157035500Y-94267020D01*
X157035500Y-94267020D02*
X157035500Y-95031560D01*
X157027880Y-99227640D02*
X157027880Y-99479087D01*
X157027880Y-99479087D02*
X156860227Y-99646740D01*
X156860227Y-99646740D02*
X155199900Y-99646740D01*
X155199900Y-99646740D02*
X155176220Y-99623060D01*
X176668600Y-94150180D02*
X176668600Y-97799040D01*
X176668600Y-97799040D02*
X176103000Y-98364640D01*
X176103000Y-98364640D02*
X175641000Y-98364640D01*
X176668600Y-94084060D02*
X176668600Y-94150180D01*
X176668600Y-93892200D02*
X176668600Y-94150180D01*
D40*
X180497480Y-86766400D02*
X180484780Y-86753700D01*
D38*
X181124480Y-89349580D02*
X181399180Y-89624280D01*
D40*
X180497480Y-89349580D02*
X180497480Y-86766400D01*
D41*
X180484780Y-89336880D02*
X180497480Y-89349580D01*
X180484780Y-86753700D02*
X180484780Y-89336880D01*
D38*
X180497480Y-89349580D02*
X181124480Y-89349580D01*
X181399180Y-89624280D02*
X181399180Y-91325700D01*
X181399180Y-91325700D02*
X181119780Y-91605100D01*
X178955700Y-91605100D02*
X176668600Y-93892200D01*
X181119780Y-91605100D02*
X178955700Y-91605100D01*
D41*
X160020000Y-86812120D02*
X160020000Y-89395300D01*
X160020000Y-89395300D02*
X160032700Y-89408000D01*
D40*
X160032700Y-89408000D02*
X160032700Y-86824820D01*
X160032700Y-86824820D02*
X160020000Y-86812120D01*
D38*
X156203820Y-94142480D02*
X156203820Y-94208600D01*
X160934400Y-91384120D02*
X160655000Y-91663520D01*
X156203820Y-94208600D02*
X156203820Y-97857460D01*
X160934400Y-89682700D02*
X160934400Y-91384120D01*
X160032700Y-89408000D02*
X160659700Y-89408000D01*
X160659700Y-89408000D02*
X160934400Y-89682700D01*
X160655000Y-91663520D02*
X158490920Y-91663520D01*
X158490920Y-91663520D02*
X156203820Y-93950620D01*
X156203820Y-93950620D02*
X156203820Y-94208600D01*
X155638220Y-98423060D02*
X155176220Y-98423060D01*
X156203820Y-97857460D02*
X155638220Y-98423060D01*
X176975600Y-98268620D02*
X176975600Y-94348300D01*
X177371620Y-98664640D02*
X176975600Y-98268620D01*
X176975600Y-93944424D02*
X176975600Y-94348300D01*
X176975600Y-94348300D02*
X176975600Y-94211220D01*
X178706000Y-98664640D02*
X177371620Y-98664640D01*
X181905020Y-89339420D02*
X181653190Y-89591250D01*
X182532020Y-89339420D02*
X181905020Y-89339420D01*
D40*
X182532020Y-86756240D02*
X182519320Y-86743540D01*
X182532020Y-89339420D02*
X182532020Y-86756240D01*
D41*
X182519320Y-89326720D02*
X182532020Y-89339420D01*
X182519320Y-86743540D02*
X182519320Y-89326720D01*
D38*
X181653190Y-91430914D02*
X181224995Y-91859109D01*
X181653190Y-89591250D02*
X181653190Y-91430914D01*
X179060914Y-91859110D02*
X176975600Y-93944424D01*
X181224995Y-91859109D02*
X179060914Y-91859110D01*
D41*
X162054540Y-86801960D02*
X162054540Y-89385140D01*
X162054540Y-89385140D02*
X162067240Y-89397840D01*
D40*
X162067240Y-89397840D02*
X162067240Y-86814660D01*
X162067240Y-86814660D02*
X162054540Y-86801960D01*
D38*
X156510820Y-98327040D02*
X156510820Y-94406720D01*
X160760215Y-91917529D02*
X158596134Y-91917530D01*
X158596134Y-91917530D02*
X156510820Y-94002844D01*
X156510820Y-94406720D02*
X156510820Y-94269640D01*
X162067240Y-89397840D02*
X161440240Y-89397840D01*
X161440240Y-89397840D02*
X161188410Y-89649670D01*
X161188410Y-89649670D02*
X161188410Y-91489334D01*
X161188410Y-91489334D02*
X160760215Y-91917529D01*
X156510820Y-94002844D02*
X156510820Y-94406720D01*
X158241220Y-98723060D02*
X156906840Y-98723060D01*
X156906840Y-98723060D02*
X156510820Y-98327040D01*
X176954180Y-100540820D02*
X176969420Y-100556060D01*
X176969420Y-100556060D02*
X176969420Y-101180900D01*
X176969420Y-101180900D02*
X176785680Y-101364640D01*
X176785680Y-101364640D02*
X175641000Y-101364640D01*
D40*
X182280560Y-95559880D02*
X182267860Y-95547180D01*
D41*
X182280560Y-95559880D02*
X182267860Y-95547180D01*
X182280560Y-98143060D02*
X182280560Y-95559880D01*
D38*
X183248300Y-98397060D02*
X183248300Y-99921060D01*
X183248300Y-99921060D02*
X182953660Y-100215700D01*
X180418740Y-99534980D02*
X179697380Y-99534980D01*
X182953660Y-100215700D02*
X181099460Y-100215700D01*
X181099460Y-100215700D02*
X180418740Y-99534980D01*
X182280560Y-98143060D02*
X182994300Y-98143060D01*
X182994300Y-98143060D02*
X183248300Y-98397060D01*
D41*
X161815780Y-98201480D02*
X161815780Y-95618300D01*
X161815780Y-95618300D02*
X161803080Y-95605600D01*
D40*
X161815780Y-95618300D02*
X161803080Y-95605600D01*
D38*
X161815780Y-98201480D02*
X162529520Y-98201480D01*
X156320900Y-101423060D02*
X155176220Y-101423060D01*
X156504640Y-101239320D02*
X156320900Y-101423060D01*
X156504640Y-100614480D02*
X156504640Y-101239320D01*
X156489400Y-100599240D02*
X156504640Y-100614480D01*
X159953960Y-99593400D02*
X159232600Y-99593400D01*
X160634680Y-100274120D02*
X159953960Y-99593400D01*
X162488880Y-100274120D02*
X160634680Y-100274120D01*
X162783520Y-99979480D02*
X162488880Y-100274120D01*
X162783520Y-98455480D02*
X162783520Y-99979480D01*
X162529520Y-98201480D02*
X162783520Y-98455480D01*
X176923700Y-102831900D02*
X176656440Y-102564640D01*
X176656440Y-102564640D02*
X175641000Y-102564640D01*
X176944020Y-103827580D02*
X176923700Y-103807260D01*
X176923700Y-103807260D02*
X176923700Y-102831900D01*
X183154320Y-104566720D02*
X182656480Y-104068880D01*
X180972460Y-104904540D02*
X179788820Y-104904540D01*
X182656480Y-104068880D02*
X181808120Y-104068880D01*
X181808120Y-104068880D02*
X180972460Y-104904540D01*
X183154320Y-107426380D02*
X183154320Y-104566720D01*
X179788820Y-104904540D02*
X179646580Y-104762300D01*
D41*
X182280560Y-107673140D02*
X182280560Y-105089960D01*
D40*
X182280560Y-105089960D02*
X182267860Y-105077260D01*
D38*
X182280560Y-107673140D02*
X182907560Y-107673140D01*
D41*
X182280560Y-105089960D02*
X182267860Y-105077260D01*
D38*
X182907560Y-107673140D02*
X183154320Y-107426380D01*
D41*
X161815780Y-107731560D02*
X161815780Y-105148380D01*
X161815780Y-105148380D02*
X161803080Y-105135680D01*
D40*
X161815780Y-105148380D02*
X161803080Y-105135680D01*
D38*
X161343340Y-104127300D02*
X160507680Y-104962960D01*
X160507680Y-104962960D02*
X159324040Y-104962960D01*
X162191700Y-104127300D02*
X161343340Y-104127300D01*
X162689540Y-104625140D02*
X162191700Y-104127300D01*
X162689540Y-107484800D02*
X162689540Y-104625140D01*
X161815780Y-107731560D02*
X162442780Y-107731560D01*
X162442780Y-107731560D02*
X162689540Y-107484800D01*
X156191660Y-102623060D02*
X155176220Y-102623060D01*
X156458920Y-102890320D02*
X156191660Y-102623060D01*
X156458920Y-103865680D02*
X156458920Y-102890320D01*
X156479240Y-103886000D02*
X156458920Y-103865680D01*
X159324040Y-104962960D02*
X159181800Y-104820720D01*
X185073095Y-119219989D02*
X177419010Y-119219990D01*
X177419010Y-119219990D02*
X176618890Y-118419870D01*
X186192170Y-116187590D02*
X186192170Y-118100914D01*
X186192170Y-118100914D02*
X185073095Y-119219989D01*
D41*
X187053220Y-113370360D02*
X187040520Y-113357660D01*
D38*
X187053220Y-115953540D02*
X186426220Y-115953540D01*
D40*
X187053220Y-113370360D02*
X187040520Y-113357660D01*
D41*
X187053220Y-115953540D02*
X187053220Y-113370360D01*
D38*
X186426220Y-115953540D02*
X186192170Y-116187590D01*
X176618890Y-118419870D02*
X176618890Y-107294657D01*
X176463960Y-107139727D02*
X176463960Y-106888280D01*
X176618890Y-107294657D02*
X176463960Y-107139727D01*
X176104960Y-104964640D02*
X176603660Y-105463340D01*
X175641000Y-104964640D02*
X176104960Y-104964640D01*
D41*
X166588440Y-116011960D02*
X166588440Y-113428780D01*
X166588440Y-113428780D02*
X166575740Y-113416080D01*
D40*
X166588440Y-113428780D02*
X166575740Y-113416080D01*
D38*
X166588440Y-116011960D02*
X165961440Y-116011960D01*
X165961440Y-116011960D02*
X165727390Y-116246010D01*
X165727390Y-118159334D02*
X164608315Y-119278409D01*
X164608315Y-119278409D02*
X156954230Y-119278410D01*
X165727390Y-116246010D02*
X165727390Y-118159334D01*
X156954230Y-119278410D02*
X156154110Y-118478290D01*
X156154110Y-118478290D02*
X156154110Y-107353077D01*
X156154110Y-107353077D02*
X155999180Y-107198147D01*
X155999180Y-107198147D02*
X155999180Y-106946700D01*
X155176220Y-105023060D02*
X155640180Y-105023060D01*
X155640180Y-105023060D02*
X156138880Y-105521760D01*
D40*
X182529480Y-113314480D02*
X182516780Y-113301780D01*
D38*
X181902480Y-115897660D02*
X181709070Y-116091070D01*
X181709070Y-116091070D02*
X181709069Y-118055195D01*
X182529480Y-115897660D02*
X181902480Y-115897660D01*
X181351994Y-118412270D02*
X177924469Y-118412269D01*
X181709069Y-118055195D02*
X181351994Y-118412270D01*
X177404770Y-117259100D02*
X177404770Y-117367874D01*
X177404770Y-117892570D02*
X177404770Y-117259100D01*
X177924469Y-118412269D02*
X177404770Y-117892570D01*
D41*
X182529480Y-115897660D02*
X182529480Y-113314480D01*
X182529480Y-113314480D02*
X182516780Y-113301780D01*
D38*
X177404770Y-117367874D02*
X177404770Y-110361470D01*
X177404770Y-106334560D02*
X177404770Y-117259100D01*
X177234850Y-106164640D02*
X177404770Y-106334560D01*
X175641000Y-106164640D02*
X177234850Y-106164640D01*
D41*
X162064700Y-115956080D02*
X162064700Y-113372900D01*
X162064700Y-113372900D02*
X162052000Y-113360200D01*
D40*
X162064700Y-113372900D02*
X162052000Y-113360200D01*
D38*
X156939990Y-106392980D02*
X156939990Y-117317520D01*
X156939990Y-117317520D02*
X156939990Y-117426294D01*
X161437700Y-115956080D02*
X161244290Y-116149490D01*
X162064700Y-115956080D02*
X161437700Y-115956080D01*
X161244290Y-116149490D02*
X161244289Y-118113615D01*
X161244289Y-118113615D02*
X160887214Y-118470690D01*
X160887214Y-118470690D02*
X157459689Y-118470689D01*
X157459689Y-118470689D02*
X156939990Y-117950990D01*
X156939990Y-117950990D02*
X156939990Y-117317520D01*
X156770070Y-106223060D02*
X156939990Y-106392980D01*
X155176220Y-106223060D02*
X156770070Y-106223060D01*
X156939990Y-117426294D02*
X156939990Y-110419890D01*
X177530760Y-100510340D02*
X177335180Y-100705920D01*
X177335180Y-100705920D02*
X177335180Y-101252020D01*
X177335180Y-101252020D02*
X177747800Y-101664640D01*
X177747800Y-101664640D02*
X178706000Y-101664640D01*
X183515000Y-98379280D02*
X183515000Y-100015040D01*
X183515000Y-100015040D02*
X183060338Y-100469702D01*
X183060338Y-100469702D02*
X180994248Y-100469702D01*
X180994248Y-100469702D02*
X180509106Y-99984560D01*
X180509106Y-99984560D02*
X179918360Y-99984560D01*
X183751220Y-98143060D02*
X183515000Y-98379280D01*
X184315100Y-98143060D02*
X183751220Y-98143060D01*
D40*
X184315100Y-95559880D02*
X184302400Y-95547180D01*
D41*
X184302400Y-98130360D02*
X184315100Y-98143060D01*
X184302400Y-95547180D02*
X184302400Y-98130360D01*
D40*
X184315100Y-98143060D02*
X184315100Y-95559880D01*
D41*
X163837620Y-95605600D02*
X163837620Y-98188780D01*
X163837620Y-98188780D02*
X163850320Y-98201480D01*
D40*
X163850320Y-98201480D02*
X163850320Y-95618300D01*
X163850320Y-95618300D02*
X163837620Y-95605600D01*
D38*
X163850320Y-98201480D02*
X163286440Y-98201480D01*
X157283020Y-101723060D02*
X158241220Y-101723060D01*
X156870400Y-101310440D02*
X157283020Y-101723060D01*
X156870400Y-100764340D02*
X156870400Y-101310440D01*
X157065980Y-100568760D02*
X156870400Y-100764340D01*
X160044326Y-100042980D02*
X159453580Y-100042980D01*
X160529468Y-100528122D02*
X160044326Y-100042980D01*
X162595558Y-100528122D02*
X160529468Y-100528122D01*
X163050220Y-100073460D02*
X162595558Y-100528122D01*
X163050220Y-98437700D02*
X163050220Y-100073460D01*
X163286440Y-98201480D02*
X163050220Y-98437700D01*
X177426486Y-103587620D02*
X177424080Y-103585214D01*
X177424080Y-103585214D02*
X177424080Y-102697280D01*
X177424080Y-102697280D02*
X177856720Y-102264640D01*
X177426486Y-103839067D02*
X177426486Y-103587620D01*
X177856720Y-102264640D02*
X178706000Y-102264640D01*
X183408329Y-104461505D02*
X182761694Y-103814870D01*
X182761694Y-103814870D02*
X181702905Y-103814871D01*
X181212676Y-104305100D02*
X179910740Y-104305100D01*
X181702905Y-103814871D02*
X181212676Y-104305100D01*
X183408330Y-107525830D02*
X183408329Y-104461505D01*
X183555640Y-107673140D02*
X183408330Y-107525830D01*
X184315100Y-107673140D02*
X183555640Y-107673140D01*
D40*
X184315100Y-105089960D02*
X184302400Y-105077260D01*
D41*
X184315100Y-105089960D02*
X184302400Y-105077260D01*
X184315100Y-107673140D02*
X184315100Y-105089960D01*
X163850320Y-107731560D02*
X163850320Y-105148380D01*
X163850320Y-105148380D02*
X163837620Y-105135680D01*
D40*
X163850320Y-105148380D02*
X163837620Y-105135680D01*
D38*
X156959300Y-102755700D02*
X157391940Y-102323060D01*
X157391940Y-102323060D02*
X158241220Y-102323060D01*
X156959300Y-103643634D02*
X156959300Y-102755700D01*
X156961706Y-103897487D02*
X156961706Y-103646040D01*
X156961706Y-103646040D02*
X156959300Y-103643634D01*
X161238125Y-103873291D02*
X160747896Y-104363520D01*
X160747896Y-104363520D02*
X159445960Y-104363520D01*
X162943549Y-104519925D02*
X162296914Y-103873290D01*
X162296914Y-103873290D02*
X161238125Y-103873291D01*
X162943550Y-107584250D02*
X162943549Y-104519925D01*
X163850320Y-107731560D02*
X163090860Y-107731560D01*
X163090860Y-107731560D02*
X162943550Y-107584250D01*
D41*
X185018680Y-115953540D02*
X185018680Y-113370360D01*
D38*
X185018680Y-115953540D02*
X185645680Y-115953540D01*
D40*
X185018680Y-113370360D02*
X185005980Y-113357660D01*
D41*
X185018680Y-113370360D02*
X185005980Y-113357660D01*
D38*
X184967880Y-118965980D02*
X177525680Y-118965980D01*
X177525680Y-118965980D02*
X176872900Y-118313200D01*
X185938160Y-117995700D02*
X184967880Y-118965980D01*
X185645680Y-115953540D02*
X185938160Y-116246020D01*
X185938160Y-116246020D02*
X185938160Y-117995700D01*
X176872900Y-118313200D02*
X176872900Y-107355640D01*
X177036470Y-106922310D02*
X177010060Y-106895900D01*
X177036470Y-107192070D02*
X177036470Y-106922310D01*
X176872900Y-107355640D02*
X177036470Y-107192070D01*
X177577060Y-105264640D02*
X178706000Y-105264640D01*
X177269140Y-105572560D02*
X177577060Y-105264640D01*
D41*
X164553900Y-116011960D02*
X164553900Y-113428780D01*
X164553900Y-113428780D02*
X164541200Y-113416080D01*
D40*
X164553900Y-113428780D02*
X164541200Y-113416080D01*
D38*
X164553900Y-116011960D02*
X165180900Y-116011960D01*
X164503100Y-119024400D02*
X157060900Y-119024400D01*
X165180900Y-116011960D02*
X165473380Y-116304440D01*
X165473380Y-116304440D02*
X165473380Y-118054120D01*
X165473380Y-118054120D02*
X164503100Y-119024400D01*
X156408120Y-107414060D02*
X156571690Y-107250490D01*
X157060900Y-119024400D02*
X156408120Y-118371620D01*
X156408120Y-118371620D02*
X156408120Y-107414060D01*
X156571690Y-107250490D02*
X156571690Y-106980730D01*
X156571690Y-106980730D02*
X156545280Y-106954320D01*
X156804360Y-105630980D02*
X157112280Y-105323060D01*
X157112280Y-105323060D02*
X158241220Y-105323060D01*
X180494940Y-115935760D02*
X181274720Y-115935760D01*
D40*
X180494940Y-113352580D02*
X180482240Y-113339880D01*
D38*
X181274720Y-115935760D02*
X181455060Y-116116100D01*
X181455060Y-116116100D02*
X181455060Y-117949980D01*
X181246780Y-118158260D02*
X178089560Y-118158260D01*
X181455060Y-117949980D02*
X181246780Y-118158260D01*
X177658780Y-117727480D02*
X177658780Y-117068600D01*
X177658780Y-117262660D02*
X177658780Y-117068600D01*
X178089560Y-118158260D02*
X177658780Y-117727480D01*
D41*
X180494940Y-113352580D02*
X180482240Y-113339880D01*
X180494940Y-115935760D02*
X180494940Y-113352580D01*
D38*
X177658780Y-117068600D02*
X177658780Y-105985380D01*
X177658780Y-105985380D02*
X177779520Y-105864640D01*
X177779520Y-105864640D02*
X178706000Y-105864640D01*
D41*
X160030160Y-115994180D02*
X160030160Y-113411000D01*
X160030160Y-113411000D02*
X160017460Y-113398300D01*
D40*
X160030160Y-113411000D02*
X160017460Y-113398300D01*
D38*
X157194000Y-117321080D02*
X157194000Y-117127020D01*
X157194000Y-117127020D02*
X157194000Y-106043800D01*
X160990280Y-116174520D02*
X160990280Y-118008400D01*
X160030160Y-115994180D02*
X160809940Y-115994180D01*
X160809940Y-115994180D02*
X160990280Y-116174520D01*
X160990280Y-118008400D02*
X160782000Y-118216680D01*
X160782000Y-118216680D02*
X157624780Y-118216680D01*
X157624780Y-118216680D02*
X157194000Y-117785900D01*
X157194000Y-117785900D02*
X157194000Y-117127020D01*
X157314740Y-105923060D02*
X158241220Y-105923060D01*
X157194000Y-106043800D02*
X157314740Y-105923060D01*
X187383360Y-111749840D02*
X178513740Y-111749840D01*
X178513740Y-111749840D02*
X178127660Y-111363760D01*
X189583060Y-107673140D02*
X189583060Y-109550140D01*
D40*
X189583060Y-105089960D02*
X189570360Y-105077260D01*
D38*
X189583060Y-109550140D02*
X187383360Y-111749840D01*
D41*
X189583060Y-105089960D02*
X189570360Y-105077260D01*
X189583060Y-107673140D02*
X189583060Y-105089960D01*
D38*
X175277780Y-110357920D02*
X174670720Y-109750860D01*
X174670720Y-109750860D02*
X174670720Y-109211920D01*
X174673260Y-109209380D02*
X174673260Y-108110020D01*
X174818640Y-107964640D02*
X175641000Y-107964640D01*
X174673260Y-108110020D02*
X174818640Y-107964640D01*
X174670720Y-109211920D02*
X174673260Y-109209380D01*
D41*
X169118280Y-107731560D02*
X169118280Y-105148380D01*
X169118280Y-105148380D02*
X169105580Y-105135680D01*
D40*
X169118280Y-105148380D02*
X169105580Y-105135680D01*
D38*
X154208480Y-108168440D02*
X154353860Y-108023060D01*
X154353860Y-108023060D02*
X155176220Y-108023060D01*
X154208480Y-109267800D02*
X154208480Y-108168440D01*
X154205940Y-109809280D02*
X154205940Y-109270340D01*
X154205940Y-109270340D02*
X154208480Y-109267800D01*
X154813000Y-110416340D02*
X154205940Y-109809280D01*
X166918580Y-111808260D02*
X158048960Y-111808260D01*
X158048960Y-111808260D02*
X157662880Y-111422180D01*
X169118280Y-107731560D02*
X169118280Y-109608560D01*
X169118280Y-109608560D02*
X166918580Y-111808260D01*
X186115960Y-111104680D02*
X181797960Y-111104680D01*
X187053220Y-110167420D02*
X186115960Y-111104680D01*
X181797960Y-111104680D02*
X180063140Y-109369860D01*
X187053220Y-107673140D02*
X187053220Y-110167420D01*
D40*
X187053220Y-105089960D02*
X187040520Y-105077260D01*
D41*
X187053220Y-107673140D02*
X187053220Y-105089960D01*
X187053220Y-105089960D02*
X187040520Y-105077260D01*
D38*
X180063140Y-109369860D02*
X180063140Y-107701080D01*
X180063140Y-107701080D02*
X179426700Y-107064640D01*
X179426700Y-107064640D02*
X178706000Y-107064640D01*
D41*
X166588440Y-107731560D02*
X166588440Y-105148380D01*
X166588440Y-105148380D02*
X166575740Y-105135680D01*
D40*
X166588440Y-105148380D02*
X166575740Y-105135680D01*
D38*
X166588440Y-107731560D02*
X166588440Y-110225840D01*
X166588440Y-110225840D02*
X165651180Y-111163100D01*
X159598360Y-107759500D02*
X158961920Y-107123060D01*
X158961920Y-107123060D02*
X158241220Y-107123060D01*
X159598360Y-109428280D02*
X159598360Y-107759500D01*
X161333180Y-111163100D02*
X159598360Y-109428280D01*
X165651180Y-111163100D02*
X161333180Y-111163100D01*
X175661320Y-103184960D02*
X175641000Y-103164640D01*
X176484280Y-103184960D02*
X175661320Y-103184960D01*
X187053220Y-98143060D02*
X187053220Y-99393060D01*
X187053220Y-99393060D02*
X184673560Y-101772720D01*
D40*
X187053220Y-95559880D02*
X187040520Y-95547180D01*
D38*
X184673560Y-101772720D02*
X183423560Y-101772720D01*
X183423560Y-101772720D02*
X180050440Y-101772720D01*
D41*
X187053220Y-95559880D02*
X187040520Y-95547180D01*
X187053220Y-98143060D02*
X187053220Y-95559880D01*
X166588440Y-98201480D02*
X166588440Y-95618300D01*
X166588440Y-95618300D02*
X166575740Y-95605600D01*
D40*
X166588440Y-95618300D02*
X166575740Y-95605600D01*
D38*
X166588440Y-98201480D02*
X166588440Y-99451480D01*
X156019500Y-103243380D02*
X155196540Y-103243380D01*
X155196540Y-103243380D02*
X155176220Y-103223060D01*
X164208780Y-101831140D02*
X162958780Y-101831140D01*
X166588440Y-99451480D02*
X164208780Y-101831140D01*
X162958780Y-101831140D02*
X159585660Y-101831140D01*
X189583060Y-99393060D02*
X186111480Y-102864640D01*
X189583060Y-98143060D02*
X189583060Y-99393060D01*
X186111480Y-102864640D02*
X178706000Y-102864640D01*
D40*
X189583060Y-95559880D02*
X189570360Y-95547180D01*
D41*
X189583060Y-98143060D02*
X189583060Y-95559880D01*
X189583060Y-95559880D02*
X189570360Y-95547180D01*
X169118280Y-98201480D02*
X169118280Y-95618300D01*
X169118280Y-95618300D02*
X169105580Y-95605600D01*
D40*
X169118280Y-95618300D02*
X169105580Y-95605600D01*
D38*
X169118280Y-98201480D02*
X169118280Y-99451480D01*
X169118280Y-99451480D02*
X165646700Y-102923060D01*
X165646700Y-102923060D02*
X158241220Y-102923060D01*
D36*
G36*
X116216940Y-99745800D02*
X116219570Y-99759023D01*
X116219380Y-99976473D01*
X116276965Y-100115840D01*
X116256737Y-102844600D01*
X110211592Y-102844600D01*
X110262955Y-96245680D01*
X116216940Y-96245680D01*
X116216940Y-99745800D01*
X116216940Y-99745800D01*
G37*
X116216940Y-99745800D02*
X116219570Y-99759023D01*
X116219380Y-99976473D01*
X116276965Y-100115840D01*
X116256737Y-102844600D01*
X110211592Y-102844600D01*
X110262955Y-96245680D01*
X116216940Y-96245680D01*
X116216940Y-99745800D01*
G36*
X151460200Y-102793800D02*
X146063560Y-102793800D01*
X146063560Y-102070234D01*
X146028507Y-101894008D01*
X145928683Y-101744611D01*
X145928680Y-101744609D01*
X145535240Y-101351168D01*
X145535240Y-96596200D01*
X151460200Y-96596200D01*
X151460200Y-102793800D01*
X151460200Y-102793800D01*
G37*
X151460200Y-102793800D02*
X146063560Y-102793800D01*
X146063560Y-102070234D01*
X146028507Y-101894008D01*
X145928683Y-101744611D01*
X145928680Y-101744609D01*
X145535240Y-101351168D01*
X145535240Y-96596200D01*
X151460200Y-96596200D01*
X151460200Y-102793800D01*
M02*
