M48
;DRILL file {KiCad 4.0.5} date Fri Apr 14 16:53:29 2017
;FORMAT={-:-/ absolute / inch / decimal}
FMAT,2
INCH,TZ
T1C0.010
T2C0.016
T3C0.050
T4C0.070
%
G90
G05
M72
T1
X4.3597Y-3.6965
X4.3606Y-4.1532
X4.368Y-3.5637
X4.3714Y-4.2617
X4.3764Y-3.448
X4.39Y-4.
X4.39Y-4.02
X4.39Y-4.04
X4.402Y-3.553
X4.4168Y-4.287
X4.4195Y-3.5297
X4.42Y-4.
X4.42Y-4.02
X4.42Y-4.04
X4.45Y-4.
X4.45Y-4.02
X4.45Y-4.04
X4.4626Y-3.6986
X4.4664Y-4.2854
X4.4743Y-4.5276
X4.48Y-4.
X4.48Y-4.02
X4.48Y-4.04
X4.4896Y-3.4245
X4.51Y-4.
X4.51Y-4.02
X4.51Y-4.04
X4.5333Y-4.5279
X4.54Y-4.
X4.54Y-4.02
X4.54Y-4.04
X4.5449Y-4.4261
X4.5456Y-4.1874
X4.546Y-4.168
X4.57Y-4.
X4.57Y-4.02
X4.57Y-4.04
X4.5808Y-3.752
X4.5982Y-3.9316
X4.6179Y-3.7247
X4.6181Y-3.8056
X4.6203Y-4.5276
X4.6359Y-4.224
X4.6359Y-4.2516
X4.6361Y-4.2706
X4.6362Y-4.2042
X4.6364Y-3.5895
X4.6371Y-3.8056
X4.6376Y-3.7251
X4.65Y-3.5762
X4.6559Y-3.8506
X4.6601Y-3.7699
X4.6692Y-4.5274
X4.6749Y-3.8505
X4.6776Y-4.2045
X4.6782Y-4.2246
X4.679Y-4.2516
X4.6791Y-3.7707
X4.6792Y-4.2706
X4.68Y-4.6522
X4.68Y-4.6828
X4.6822Y-4.1668
X4.6826Y-4.1858
X4.6846Y-4.0212
X4.6848Y-3.9964
X4.6964Y-3.6252
X4.6967Y-3.6547
X4.6968Y-3.5736
X4.703Y-4.669
X4.7048Y-4.6089
X4.7209Y-3.5289
X4.7256Y-4.6524
X4.7256Y-4.6828
X4.7323Y-3.6067
X4.7324Y-4.5274
X4.769Y-3.5287
X4.7782Y-3.4054
X4.7784Y-3.3726
X4.7794Y-3.9996
X4.7819Y-4.5276
X4.782Y-4.0218
X4.7985Y-3.4405
X4.8Y-3.389
X4.8228Y-3.3726
X4.8228Y-3.4052
X4.8247Y-4.411
X4.8248Y-4.452
X4.8348Y-3.9988
X4.8352Y-4.0216
X4.8356Y-3.5286
X4.8378Y-4.3157
X4.839Y-4.3588
X4.8452Y-4.4112
X4.8454Y-4.452
X4.864Y-4.4634
X4.8764Y-4.4786
X4.8846Y-3.5285
X4.8908Y-4.395
X4.8917Y-4.4323
X4.8918Y-4.331
X4.9067Y-4.3177
X4.9095Y-4.4462
X4.9102Y-4.3949
X4.9423Y-3.6411
X4.9764Y-4.0197
X4.9779Y-3.5281
X4.9814Y-4.1064
X4.9816Y-4.1272
X5.0074Y-3.9996
X5.0136Y-4.1056
X5.0139Y-4.6276
X5.0142Y-4.1272
X5.0148Y-3.834
X5.0204Y-4.2352
X5.0206Y-4.1906
X5.0258Y-4.3098
X5.0316Y-3.5284
X5.0401Y-4.4148
X5.0516Y-3.7206
X5.059Y-3.9932
X5.079Y-4.0144
X5.0908Y-4.5283
X5.1054Y-4.3896
X5.1085Y-3.7161
X5.1366Y-4.0965
X5.1369Y-4.1161
X5.1472Y-3.6409
X5.1536Y-3.9684
X5.1718Y-4.1154
X5.1727Y-3.5272
X5.1763Y-3.8833
X5.185Y-3.9386
X5.1856Y-4.0998
X5.195Y-4.1324
X5.2092Y-4.2064
X5.2151Y-4.0067
X5.216Y-4.319
X5.2226Y-4.0967
X5.2324Y-4.2064
X5.2354Y-4.0073
X5.2377Y-4.1126
X5.2531Y-4.0177
X5.2531Y-4.0645
X5.2544Y-4.0875
X5.2558Y-3.9512
X5.2586Y-3.676
X5.2638Y-4.3196
X5.2732Y-4.109
X5.2746Y-3.973
X5.2746Y-4.5279
X5.2809Y-4.1288
X5.281Y-4.2062
X5.286Y-3.4252
X5.2921Y-4.313
X5.2947Y-4.3621
X5.3001Y-4.0178
X5.3098Y-4.0659
X5.3146Y-4.0985
X5.3224Y-4.3122
X5.3245Y-4.3623
X5.3261Y-4.5281
X5.3284Y-4.114
X5.334Y-3.757
X5.335Y-3.7785
X5.3356Y-3.799
X5.3364Y-4.0786
X5.3385Y-4.426
X5.3398Y-3.882
X5.3588Y-4.312
X5.3724Y-4.1916
X5.4046Y-3.5813
X5.4098Y-3.6559
X5.4118Y-3.5186
X5.4154Y-3.4622
X5.419Y-4.5281
X5.4252Y-3.5809
X5.4261Y-3.6232
X5.4274Y-3.5336
X5.4322Y-3.4728
X5.4433Y-3.5496
X5.4444Y-3.4894
X5.4456Y-3.5814
X5.4462Y-4.3543
X5.4602Y-3.5654
X5.4602Y-3.611
X5.4605Y-3.5058
X5.4683Y-4.5281
X5.4772Y-4.685
X5.4778Y-4.6528
X5.5002Y-4.6696
X5.5071Y-4.6098
X5.5174Y-3.5291
X5.522Y-4.6524
X5.5226Y-4.6852
X5.5322Y-4.5279
X5.5658Y-3.5291
X5.574Y-3.3726
X5.5744Y-3.4054
X5.5783Y-3.8807
X5.5821Y-4.5279
X5.5955Y-3.4348
X5.5966Y-3.389
X5.6188Y-3.3724
X5.619Y-3.4048
X5.6344Y-3.5291
X5.6822Y-3.806
X5.6824Y-3.7615
X5.6831Y-3.5293
X5.6839Y-4.1614
X5.685Y-4.0248
X5.7246Y-4.1952
X5.727Y-4.3554
X5.7376Y-3.6434
X5.7408Y-4.4253
X5.7421Y-4.403
X5.76Y-4.
X5.76Y-4.02
X5.76Y-4.04
X5.7616Y-3.5292
X5.79Y-4.
X5.79Y-4.02
X5.79Y-4.04
X5.8016Y-4.5247
X5.8024Y-4.5034
X5.8108Y-4.6252
X5.8138Y-3.7418
X5.814Y-3.5293
X5.82Y-4.
X5.82Y-4.02
X5.82Y-4.04
X5.8376Y-4.378
X5.85Y-4.
X5.85Y-4.02
X5.85Y-4.04
X5.8642Y-3.7336
X5.8682Y-3.7564
X5.8739Y-4.4964
X5.88Y-4.
X5.88Y-4.02
X5.88Y-4.04
X5.8876Y-3.769
X5.8925Y-4.5392
X5.91Y-4.
X5.91Y-4.02
X5.91Y-4.04
X5.9165Y-4.5665
X5.9212Y-3.5436
X5.9275Y-4.3135
X5.9295Y-3.6414
X5.94Y-4.
X5.94Y-4.02
X5.94Y-4.04
X5.9434Y-4.5014
X5.9443Y-3.7433
X5.9533Y-4.3942
X6.095Y-4.3471
X6.1417Y-4.2105
X6.1425Y-4.0647
X6.1472Y-4.1544
X6.1606Y-4.09
X6.161Y-3.9606
X6.1632Y-4.2108
X6.1734Y-4.1587
X6.1796Y-4.0905
X6.1822Y-3.9066
X6.1825Y-3.8249
X6.1837Y-3.9594
X6.2025Y-3.8245
X6.2038Y-3.9071
X6.2072Y-4.3867
X6.267Y-4.1268
X6.269Y-3.921
X6.2774Y-4.1088
X6.2777Y-3.9387
X6.2829Y-4.0091
X6.9007Y-4.3448
X6.9474Y-4.2082
X6.9482Y-4.0624
X6.9529Y-4.1521
X6.9663Y-4.0877
X6.9667Y-3.9583
X6.9689Y-4.2085
X6.9791Y-4.1564
X6.9853Y-4.0882
X6.9879Y-3.9043
X6.9882Y-3.8226
X6.9894Y-3.9571
X7.0082Y-3.8222
X7.0095Y-3.9048
X7.0129Y-4.3844
X7.0727Y-4.1245
X7.0747Y-3.9187
X7.0831Y-4.1065
X7.0834Y-3.9364
X7.0886Y-4.0068
T2
X4.5565Y-3.666
X4.6208Y-4.3598
X4.7025Y-4.4673
X4.7028Y-4.4054
X4.7571Y-3.7127
X4.7764Y-4.2684
X4.7774Y-4.4022
X4.8009Y-4.4862
X4.8208Y-3.8508
X4.8964Y-3.7602
X4.9413Y-4.5525
X5.0043Y-3.6071
X5.3028Y-3.626
X5.3736Y-3.83
X5.4382Y-3.6728
X5.5551Y-4.261
X5.5585Y-4.4855
X5.5754Y-3.667
X5.5837Y-4.3791
X5.6376Y-3.8388
X5.6694Y-3.7056
X5.7755Y-3.612
X5.8013Y-4.4519
T3
X6.2994Y-3.4181
X6.3011Y-4.4652
X6.369Y-4.1399
X6.3714Y-3.7647
X6.3792Y-3.4181
X6.3812Y-4.4652
X6.4515Y-3.7647
X6.4515Y-4.1399
X6.4792Y-4.4652
X6.4793Y-3.4181
X6.5593Y-3.7647
X6.5593Y-4.1399
X6.5593Y-4.4652
X6.5594Y-3.4181
X6.6589Y-3.7647
X6.6589Y-4.1399
X7.1178Y-3.4181
X7.1195Y-4.4652
X7.1874Y-4.1399
X7.1898Y-3.7647
X7.1976Y-3.4181
X7.1996Y-4.4652
X7.2699Y-3.7647
X7.2699Y-4.1399
X7.2976Y-4.4652
X7.2977Y-3.4181
X7.3777Y-3.7647
X7.3777Y-4.1399
X7.3777Y-4.4652
X7.3778Y-3.4181
X7.4773Y-3.7647
X7.4773Y-4.1399
T4
X5.897Y-4.1834
T0
M30
