G04 #@! TF.FileFunction,Copper,L2,Bot,Signal*
%FSLAX46Y46*%
G04 Gerber Fmt 4.6, Leading zero omitted, Abs format (unit mm)*
G04 Created by KiCad (PCBNEW 4.0.5) date Fri Apr 14 16:53:27 2017*
%MOMM*%
%LPD*%
G01*
G04 APERTURE LIST*
%ADD10C,0.100000*%
%ADD11C,1.371600*%
%ADD12C,2.540000*%
%ADD13C,0.355600*%
%ADD14C,0.508000*%
%ADD15C,0.254000*%
%ADD16C,0.127000*%
%ADD17C,0.150000*%
%ADD18C,0.762000*%
%ADD19C,0.508000*%
%ADD20C,0.381000*%
G04 APERTURE END LIST*
D10*
D11*
X189923420Y-95623380D03*
X187393580Y-95623380D03*
X182620920Y-95623380D03*
X187396120Y-86819740D03*
X185361580Y-86819740D03*
X182819040Y-86819740D03*
X180792120Y-86819740D03*
X184655460Y-95623380D03*
X187393580Y-105153460D03*
X180835300Y-113416080D03*
X189923420Y-105153460D03*
X185359040Y-113416080D03*
X184655460Y-105153460D03*
X187393580Y-113416080D03*
X182559960Y-105153460D03*
X182869840Y-113416080D03*
D12*
X149783800Y-106258360D03*
D11*
X160004760Y-86819740D03*
X162031680Y-86819740D03*
X164574220Y-86819740D03*
X166608760Y-86819740D03*
X161833560Y-95623380D03*
X163868100Y-95623380D03*
X166606220Y-95623380D03*
X169136060Y-95623380D03*
X161772600Y-105153460D03*
X166606220Y-113416080D03*
X162082480Y-113416080D03*
X163868100Y-105153460D03*
X164571680Y-113416080D03*
X160047940Y-113416080D03*
X169136060Y-105153460D03*
X166606220Y-105153460D03*
D13*
X144370000Y-105700000D03*
X144400000Y-102230000D03*
X141690000Y-98570000D03*
X135630920Y-98602800D03*
X117300032Y-96663157D03*
X117756940Y-108473240D03*
X117294660Y-94607380D03*
X118851680Y-108473240D03*
X122547380Y-112039400D03*
X122549920Y-113080800D03*
X138689080Y-90561160D03*
X138696700Y-89047320D03*
X135544560Y-103596440D03*
X133461760Y-103822500D03*
X122880962Y-109617938D03*
X133428740Y-103238300D03*
X134868920Y-103273860D03*
X117782633Y-96662240D03*
X117795040Y-94617540D03*
X138690000Y-91720000D03*
X119298720Y-90769440D03*
X118846600Y-107990640D03*
X120200000Y-91610000D03*
X138260000Y-90160000D03*
X138318240Y-90967560D03*
X138287760Y-88630760D03*
X122910601Y-110713519D03*
X123068080Y-112044480D03*
X123073160Y-113080800D03*
X117751860Y-107990640D03*
X133037580Y-104460040D03*
X118366501Y-95755499D03*
X118259860Y-97805240D03*
X132979160Y-101785420D03*
X137855960Y-89753440D03*
X123545600Y-113370360D03*
X137977880Y-88209120D03*
X118110000Y-90835480D03*
X124252378Y-110007146D03*
X124226320Y-111633000D03*
X124249180Y-112580420D03*
X137822940Y-92029280D03*
X137800080Y-90954860D03*
X119288560Y-92080080D03*
X117751860Y-107289600D03*
X118826280Y-107304840D03*
X130477260Y-104548940D03*
X131363720Y-104531160D03*
X131714240Y-104134920D03*
X132654040Y-104056180D03*
X117765769Y-91173725D03*
X119296180Y-92829380D03*
X118848671Y-95775907D03*
X118742452Y-97802186D03*
X132463540Y-101770180D03*
X124701300Y-112933480D03*
X137410000Y-92860000D03*
X137276840Y-90965020D03*
X124720000Y-111630000D03*
X124630000Y-109670000D03*
X123860560Y-113756440D03*
X137551160Y-87939880D03*
X137459720Y-89372440D03*
X117759480Y-106786680D03*
X118811040Y-106794300D03*
X130469640Y-104051100D03*
D14*
X141825980Y-111229140D03*
D13*
X150558500Y-109562900D03*
X121460260Y-115001040D03*
X120202960Y-114995960D03*
X118597680Y-114995960D03*
X117355620Y-115001040D03*
X113647220Y-115001040D03*
X115145820Y-115008660D03*
X115440460Y-112422940D03*
X135282940Y-115013740D03*
X133974840Y-115008660D03*
X135597900Y-112420400D03*
X141785340Y-115008660D03*
X140517880Y-115008660D03*
X138894820Y-115013740D03*
X137642600Y-115013740D03*
X127802640Y-89621360D03*
X126438660Y-89613740D03*
X145735040Y-92542360D03*
X150609300Y-92491560D03*
X150398480Y-90007440D03*
X147675600Y-89644220D03*
X146344640Y-89641680D03*
X144350740Y-89644220D03*
X143113760Y-89639140D03*
X141371320Y-89639140D03*
X140141960Y-89639140D03*
X130738880Y-92478860D03*
X131386580Y-89590880D03*
X125534420Y-92483940D03*
X113350040Y-93944440D03*
X110736380Y-93891100D03*
X110947200Y-90517980D03*
X112255300Y-89654380D03*
X124068840Y-89623900D03*
X122824240Y-89626440D03*
X121132600Y-89628980D03*
X119910860Y-89634060D03*
X133568440Y-93370400D03*
X128310640Y-94503240D03*
X129306320Y-115018820D03*
X128018540Y-112135920D03*
X151213820Y-111612680D03*
X110759240Y-105491280D03*
X111033560Y-108247180D03*
X150962360Y-114335560D03*
D14*
X138130280Y-93289120D03*
D13*
X118872000Y-118943120D03*
X119456200Y-118592600D03*
X120030240Y-118943120D03*
X120030240Y-118170960D03*
X118872000Y-118165880D03*
X121920000Y-86080600D03*
X122499120Y-86492080D03*
X121366280Y-86497160D03*
X122499120Y-85664040D03*
X121371360Y-85664040D03*
X142722600Y-86481920D03*
X141589760Y-86497160D03*
X142717520Y-85658960D03*
X142153640Y-86080600D03*
X141579600Y-85664040D03*
X140274040Y-119004080D03*
X139120880Y-118999000D03*
X140258800Y-118170960D03*
X139705080Y-118607840D03*
X139136120Y-118181120D03*
X116078000Y-101600000D03*
X116078000Y-102108000D03*
X116078000Y-102616000D03*
X115316000Y-102616000D03*
X115316000Y-101600000D03*
X111506000Y-101600000D03*
X112268000Y-101600000D03*
X111506000Y-102108000D03*
X112268000Y-102108000D03*
X111506000Y-102616000D03*
X112268000Y-102616000D03*
X113030000Y-101600000D03*
X113030000Y-102108000D03*
X113030000Y-102616000D03*
X113792000Y-101600000D03*
X113792000Y-102108000D03*
X113792000Y-102616000D03*
X114554000Y-101600000D03*
X114554000Y-102108000D03*
X114554000Y-102616000D03*
X115316000Y-102108000D03*
X150985220Y-95079820D03*
X147670520Y-95041720D03*
D14*
X141615160Y-93141800D03*
X120830340Y-94302580D03*
D13*
X133700520Y-109717840D03*
X132486400Y-109702600D03*
X113446560Y-108849160D03*
X112186720Y-108889800D03*
X148275040Y-111201200D03*
D14*
X121345960Y-111815880D03*
D13*
X149669500Y-115295680D03*
X116794280Y-99862640D03*
X118988840Y-102138480D03*
X121462800Y-102153720D03*
X122814080Y-102148640D03*
X126400000Y-102100000D03*
X129006600Y-101965760D03*
X122803920Y-101569520D03*
X116352320Y-95300800D03*
X111160560Y-87579200D03*
X111810800Y-90246200D03*
X118993920Y-101508560D03*
X121396760Y-101589840D03*
X127187960Y-101589840D03*
X128498600Y-101427280D03*
X114035840Y-86982300D03*
X121881900Y-87388700D03*
X130901440Y-100797360D03*
X131700000Y-100040000D03*
X135509000Y-95973900D03*
X149545040Y-95732600D03*
X135483600Y-95427800D03*
X149052280Y-95412560D03*
X142125700Y-87243920D03*
X134264400Y-87000080D03*
X115468400Y-105867200D03*
X118927880Y-105836720D03*
X118938368Y-106319208D03*
X115458240Y-106359960D03*
X119501920Y-117066060D03*
X127353060Y-117541040D03*
X145849340Y-111836200D03*
X147380960Y-114386360D03*
X149197060Y-114208560D03*
X135242300Y-110802420D03*
X135188960Y-109529880D03*
X132902960Y-106842560D03*
X145816320Y-112402620D03*
X134419340Y-109550200D03*
X134485380Y-110797340D03*
X147360640Y-114927380D03*
X150279100Y-115989100D03*
X132313680Y-106842560D03*
X139880340Y-117088920D03*
X147594320Y-117480080D03*
X127360680Y-104830880D03*
X126532640Y-104830880D03*
X126527560Y-104302560D03*
X127345440Y-104282240D03*
X133939280Y-104368600D03*
X134990840Y-104101900D03*
X135341360Y-104495600D03*
X134134860Y-104871520D03*
X129677160Y-111495840D03*
X127655320Y-109468920D03*
X127518160Y-107574080D03*
X127523240Y-106441240D03*
X131478020Y-98635820D03*
X131953000Y-104962960D03*
X145404840Y-106558080D03*
X136458960Y-106466640D03*
X129755900Y-94388940D03*
X127375920Y-97383600D03*
X133974840Y-100914200D03*
X134622540Y-102052120D03*
X144332960Y-95542100D03*
X148950680Y-94833440D03*
X144327880Y-96672400D03*
X133497320Y-100360480D03*
X133428740Y-102049580D03*
X135524240Y-96494600D03*
D14*
X124368560Y-95509080D03*
X115735100Y-93116400D03*
X127109220Y-91620340D03*
X134690000Y-92100000D03*
X144002760Y-94122240D03*
X146697700Y-91744800D03*
X117368320Y-110738920D03*
X119443500Y-113469420D03*
X121942860Y-113949480D03*
X125509020Y-115633500D03*
X119451120Y-111897160D03*
X147353020Y-113078260D03*
X141185900Y-113931700D03*
D13*
X145465800Y-110627160D03*
X138333480Y-110599220D03*
X134137400Y-106837480D03*
X136113520Y-109524800D03*
X150114000Y-101600000D03*
X150114000Y-102108000D03*
X146304000Y-101600000D03*
X146304000Y-102108000D03*
X146304000Y-102616000D03*
X147066000Y-102616000D03*
X147066000Y-102108000D03*
X147066000Y-101600000D03*
X147828000Y-101600000D03*
X147828000Y-102108000D03*
X147828000Y-102616000D03*
X148590000Y-102616000D03*
X148590000Y-102108000D03*
X148590000Y-101600000D03*
X149352000Y-101600000D03*
X149352000Y-102108000D03*
X149352000Y-102616000D03*
X150114000Y-102616000D03*
X150876000Y-102616000D03*
X150876000Y-102108000D03*
X150876000Y-101600000D03*
D14*
X136489440Y-97282000D03*
X122448320Y-97810320D03*
X143195040Y-97505520D03*
X141099540Y-108229400D03*
X121320560Y-108417360D03*
D13*
X178008280Y-97083880D03*
X178041300Y-99181920D03*
X157576520Y-99240340D03*
X157543500Y-97142300D03*
X177500280Y-97094040D03*
X177492660Y-99169220D03*
X157027880Y-99227640D03*
X157035500Y-97152460D03*
X179697380Y-99534980D03*
X176954180Y-100540820D03*
X156489400Y-100599240D03*
X159232600Y-99593400D03*
X179646580Y-104762300D03*
X176944020Y-103827580D03*
X156479240Y-103886000D03*
X159181800Y-104820720D03*
X176603660Y-105463340D03*
X176463960Y-106888280D03*
X155999180Y-106946700D03*
X156138880Y-105521760D03*
X179918360Y-99984560D03*
X177530760Y-100510340D03*
X157065980Y-100568760D03*
X159453580Y-100042980D03*
X179910740Y-104305100D03*
X177426486Y-103839067D03*
X156961706Y-103897487D03*
X159445960Y-104363520D03*
X177269140Y-105572560D03*
X177010060Y-106895900D03*
X156545280Y-106954320D03*
X156804360Y-105630980D03*
X178127660Y-111363760D03*
X175277780Y-110357920D03*
X154813000Y-110416340D03*
X157662880Y-111422180D03*
X180050440Y-101772720D03*
X176484280Y-103184960D03*
X156019500Y-103243380D03*
X159585660Y-101831140D03*
D15*
X144400000Y-102230000D02*
X144400000Y-105670000D01*
X144400000Y-105670000D02*
X144370000Y-105700000D01*
X141330680Y-98562160D02*
X141682160Y-98562160D01*
X141682160Y-98562160D02*
X141690000Y-98570000D01*
X135630920Y-98602800D02*
X135671560Y-98562160D01*
X135671560Y-98562160D02*
X141330680Y-98562160D01*
D16*
X138696700Y-89047320D02*
X138696700Y-90553540D01*
X138696700Y-90553540D02*
X138689080Y-90561160D01*
X138696700Y-89166700D02*
X138696700Y-89047320D01*
X117431820Y-96283780D02*
X117431820Y-96531369D01*
X117431820Y-96531369D02*
X117300032Y-96663157D01*
X117431820Y-94767400D02*
X117431820Y-96283780D01*
X117309900Y-94645480D02*
X117431820Y-94767400D01*
X117906791Y-108366569D02*
X118209060Y-108366569D01*
X118209060Y-108366569D02*
X118351291Y-108366569D01*
X118751094Y-108465620D02*
X118652043Y-108366569D01*
X118851680Y-108465620D02*
X118751094Y-108465620D01*
X118652043Y-108366569D02*
X118209060Y-108366569D01*
X117756940Y-108473240D02*
X117800120Y-108473240D01*
X117800120Y-108473240D02*
X117906791Y-108366569D01*
X135544560Y-103596440D02*
X135293113Y-103596440D01*
X135293113Y-103596440D02*
X135244852Y-103644701D01*
X135244852Y-103644701D02*
X133639559Y-103644701D01*
X133639559Y-103644701D02*
X133461760Y-103822500D01*
X122555000Y-113035080D02*
X122555000Y-112109680D01*
X122880962Y-109617938D02*
X122880962Y-110683880D01*
X122880962Y-110683880D02*
X122910601Y-110713519D01*
X133477000Y-103235760D02*
X133466840Y-103245920D01*
X134833360Y-103235760D02*
X133477000Y-103235760D01*
X138325860Y-89446100D02*
X138325860Y-89809320D01*
X138325860Y-89809320D02*
X138325860Y-89888060D01*
X138325860Y-89984580D02*
X138325860Y-89809320D01*
X138260000Y-90050440D02*
X138325860Y-89984580D01*
X138260000Y-90160000D02*
X138260000Y-90050440D01*
X138328399Y-89443561D02*
X138325860Y-89446100D01*
X138287760Y-88752680D02*
X138328399Y-88793319D01*
X138328399Y-88793319D02*
X138328399Y-89443561D01*
X138287760Y-88630760D02*
X138287760Y-88752680D01*
X120200000Y-91610000D02*
X120200000Y-91475140D01*
X120200000Y-91475140D02*
X119494300Y-90769440D01*
X119494300Y-90769440D02*
X119298720Y-90769440D01*
X117685830Y-96178566D02*
X117685830Y-96565437D01*
X117685830Y-96565437D02*
X117782633Y-96662240D01*
X117774652Y-94615604D02*
X117774652Y-94668408D01*
X117774652Y-94668408D02*
X117685830Y-94757230D01*
X117685830Y-94757230D02*
X117685830Y-96178566D01*
X117774652Y-94615604D02*
X117774652Y-94632848D01*
X118851680Y-108021120D02*
X118752619Y-108021120D01*
X118752619Y-108021120D02*
X118661180Y-108112559D01*
X118661180Y-108112559D02*
X117941346Y-108112560D01*
X117941346Y-108112560D02*
X117819426Y-107990640D01*
X117819426Y-107990640D02*
X117751860Y-107990640D01*
X117703600Y-107975400D02*
X117703600Y-108006608D01*
X138318240Y-91348240D02*
X138318240Y-91160000D01*
X138690000Y-91720000D02*
X138318240Y-91348240D01*
X138318240Y-91252040D02*
X138318240Y-91160000D01*
X138318240Y-91160000D02*
X138318240Y-90967560D01*
X138260000Y-88658520D02*
X138287760Y-88630760D01*
X123078240Y-113045240D02*
X123078240Y-112069880D01*
D17*
X123078240Y-112069880D02*
X123088400Y-112059720D01*
D16*
X132979160Y-101785420D02*
X132902969Y-101861611D01*
X132902969Y-101861611D02*
X132902969Y-103727003D01*
X132902969Y-103727003D02*
X133037580Y-103861614D01*
X133037580Y-103861614D02*
X133037580Y-104261933D01*
X133037580Y-104261933D02*
X133037580Y-104513380D01*
X137977880Y-88209120D02*
X137977880Y-88211660D01*
X137977880Y-88211660D02*
X137828020Y-88361520D01*
X137828020Y-88361520D02*
X137828021Y-89725501D01*
X137828021Y-89725501D02*
X137855960Y-89753440D01*
X119037113Y-91998800D02*
X119207280Y-91998800D01*
X119207280Y-91998800D02*
X119288560Y-92080080D01*
X118110000Y-90835480D02*
X118163340Y-90888820D01*
X118163340Y-90888820D02*
X118163340Y-91125027D01*
X119037113Y-91998800D02*
X118163340Y-91125027D01*
X118386851Y-97609669D02*
X118386851Y-95775849D01*
X118386851Y-95775849D02*
X118366501Y-95755499D01*
X118259860Y-97805240D02*
X118259860Y-97736660D01*
X118259860Y-97736660D02*
X118386851Y-97609669D01*
X118826280Y-107304840D02*
X118778020Y-107304840D01*
X118778020Y-107304840D02*
X118628160Y-107154980D01*
X117939820Y-107154980D02*
X117805200Y-107289600D01*
X118628160Y-107154980D02*
X117939820Y-107154980D01*
X117805200Y-107289600D02*
X117751860Y-107289600D01*
X133002020Y-101808280D02*
X132979160Y-101785420D01*
X137854093Y-89751573D02*
X137855960Y-89753440D01*
X124226320Y-111633000D02*
X124226320Y-110033204D01*
X124226320Y-110033204D02*
X124252378Y-110007146D01*
D17*
X123545600Y-113370360D02*
X124249867Y-112666093D01*
D16*
X137850880Y-90972640D02*
X137850880Y-91942920D01*
X137850880Y-91942920D02*
X137820400Y-91973400D01*
X130550000Y-104550000D02*
X131349960Y-104550000D01*
X131349960Y-104550000D02*
X131429760Y-104470200D01*
X132463540Y-101770180D02*
X132463540Y-101843840D01*
X132463540Y-101843840D02*
X132648960Y-102029260D01*
X132648960Y-102029260D02*
X132648960Y-104018080D01*
X137459720Y-89372440D02*
X137459720Y-88031320D01*
X137459720Y-88031320D02*
X137551160Y-87939880D01*
X117765769Y-91173725D02*
X119251982Y-92659938D01*
X119251982Y-92659938D02*
X119251982Y-92793819D01*
X118640860Y-96029780D02*
X118848671Y-95821969D01*
X118848671Y-95821969D02*
X118848671Y-95775907D01*
X118640860Y-97607120D02*
X118640860Y-96029780D01*
X118742452Y-97708712D02*
X118640860Y-97607120D01*
X118742452Y-97802186D02*
X118742452Y-97708712D01*
X117759480Y-106786680D02*
X117759480Y-106825846D01*
X117759480Y-106825846D02*
X117834606Y-106900970D01*
X117834606Y-106900970D02*
X118704370Y-106900970D01*
X118704370Y-106900970D02*
X118811040Y-106794300D01*
X118803420Y-106786680D02*
X118811040Y-106794300D01*
X137370000Y-90960000D02*
X137370000Y-92746146D01*
X124720000Y-111630000D02*
X124720000Y-109760000D01*
X124720000Y-109760000D02*
X124630000Y-109670000D01*
D17*
X123860560Y-113756440D02*
X124632720Y-112984280D01*
D16*
X137485120Y-89372440D02*
X137459720Y-89372440D01*
X131759960Y-104094280D02*
X130545840Y-104094280D01*
X130545840Y-104094280D02*
X130530600Y-104079040D01*
X118887240Y-118932960D02*
X118882160Y-118932960D01*
X118882160Y-118932960D02*
X118872000Y-118943120D01*
X120040400Y-118943120D02*
X120030240Y-118943120D01*
X120030240Y-118145560D02*
X120030240Y-118170960D01*
X140284200Y-119009160D02*
X140279120Y-119009160D01*
X140279120Y-119009160D02*
X140274040Y-119004080D01*
X139141200Y-119034560D02*
X139141200Y-119019320D01*
X139141200Y-119019320D02*
X139120880Y-118999000D01*
X126400000Y-102100000D02*
X128872360Y-102100000D01*
X128872360Y-102100000D02*
X129006600Y-101965760D01*
X116794280Y-99969320D02*
X116794280Y-99862640D01*
X118963440Y-102138480D02*
X116794280Y-99969320D01*
X122809000Y-102153720D02*
X121462800Y-102153720D01*
X122814080Y-102148640D02*
X122809000Y-102153720D01*
X122803920Y-101569520D02*
X121417080Y-101569520D01*
X121417080Y-101569520D02*
X121396760Y-101589840D01*
X116682520Y-98790760D02*
X116682520Y-95631000D01*
X116682520Y-95631000D02*
X116352320Y-95300800D01*
X118993920Y-101102160D02*
X116682520Y-98790760D01*
X118993920Y-101112994D02*
X118993920Y-101102160D01*
X111531400Y-89966800D02*
X111531400Y-87950040D01*
X111531400Y-87950040D02*
X111160560Y-87579200D01*
X111810800Y-90246200D02*
X111531400Y-89966800D01*
X118993920Y-101508560D02*
X118993920Y-101112994D01*
X127187960Y-101589840D02*
X128336040Y-101589840D01*
X128336040Y-101589840D02*
X128498600Y-101427280D01*
X114035840Y-86982300D02*
X121475500Y-86982300D01*
X121475500Y-86982300D02*
X121881900Y-87388700D01*
X121488200Y-86995000D02*
X121881900Y-87388700D01*
X121747280Y-87254080D02*
X121881900Y-87388700D01*
X149037050Y-96240590D02*
X149545040Y-95732600D01*
X135509000Y-95973900D02*
X135549640Y-95973900D01*
X135815316Y-96240590D02*
X149037050Y-96240590D01*
X135549640Y-95973900D02*
X135726425Y-96150685D01*
X135726425Y-96150685D02*
X135726425Y-96151699D01*
X135726425Y-96151699D02*
X135815316Y-96240590D01*
X131059480Y-100680520D02*
X131700000Y-100040000D01*
X130942640Y-100797360D02*
X131059480Y-100680520D01*
X130901440Y-100797360D02*
X130942640Y-100797360D01*
X135483600Y-95427800D02*
X135735047Y-95427800D01*
X135735047Y-95427800D02*
X135917940Y-95610693D01*
X135920493Y-95610693D02*
X136296380Y-95986580D01*
X135917940Y-95610693D02*
X135920493Y-95610693D01*
X136296380Y-95986580D02*
X148478260Y-95986580D01*
X148478260Y-95986580D02*
X149052280Y-95412560D01*
X149052280Y-95412560D02*
X148788120Y-95676720D01*
X134264400Y-87000080D02*
X134508240Y-87243920D01*
X134508240Y-87243920D02*
X142125700Y-87243920D01*
X118800880Y-105867200D02*
X115468400Y-105867200D01*
X115458240Y-106359960D02*
X118897616Y-106359960D01*
X118897616Y-106359960D02*
X118938368Y-106319208D01*
X124800000Y-117120000D02*
X119555860Y-117120000D01*
X119555860Y-117120000D02*
X119501920Y-117066060D01*
X127280000Y-117610000D02*
X126790000Y-117120000D01*
X126790000Y-117120000D02*
X124800000Y-117120000D01*
X147634947Y-114388900D02*
X149016720Y-114388900D01*
X149016720Y-114388900D02*
X149197060Y-114208560D01*
X147380960Y-114386360D02*
X147632407Y-114386360D01*
X147632407Y-114386360D02*
X147634947Y-114388900D01*
X137073640Y-111946137D02*
X135227894Y-110942149D01*
X137081569Y-111946137D02*
X137073640Y-111946137D01*
X145478500Y-111955593D02*
X137091025Y-111955593D01*
X137091025Y-111955593D02*
X137081569Y-111946137D01*
X145849340Y-111836200D02*
X145597893Y-111836200D01*
X145597893Y-111836200D02*
X145478500Y-111955593D01*
X135227894Y-110942149D02*
X135227894Y-110816826D01*
X135227894Y-110816826D02*
X135242300Y-110802420D01*
X149191980Y-114213640D02*
X149197060Y-114208560D01*
X132902960Y-106842560D02*
X132902960Y-107204080D01*
X132902960Y-107204080D02*
X135079740Y-109434200D01*
X150279100Y-115989100D02*
X149364700Y-115989100D01*
X149364700Y-115989100D02*
X148302980Y-114927380D01*
X148302980Y-114927380D02*
X147360640Y-114927380D01*
X145816320Y-112402620D02*
X145564873Y-112402620D01*
X145564873Y-112402620D02*
X145425183Y-112262930D01*
X145425183Y-112262930D02*
X137124450Y-112262930D01*
X132313680Y-106842560D02*
X132313680Y-107444540D01*
X132313680Y-107444540D02*
X134419340Y-109550200D01*
X134523480Y-110848140D02*
X137124450Y-112262930D01*
X132344160Y-106873040D02*
X132313680Y-106842560D01*
X142600694Y-117309901D02*
X140101321Y-117309901D01*
X140101321Y-117309901D02*
X139880340Y-117088920D01*
X147622260Y-117487700D02*
X147444461Y-117309901D01*
X147444461Y-117309901D02*
X142600694Y-117309901D01*
X126532640Y-104830880D02*
X127360680Y-104830880D01*
X126527560Y-104302560D02*
X127325120Y-104302560D01*
X127325120Y-104302560D02*
X127345440Y-104282240D01*
X134990840Y-104101900D02*
X134724140Y-104368600D01*
X134724140Y-104368600D02*
X134503160Y-104368600D01*
X133939280Y-104368600D02*
X134503160Y-104368600D01*
X134965440Y-104871520D02*
X135341360Y-104495600D01*
X134134860Y-104871520D02*
X134965440Y-104871520D01*
X129677160Y-111495840D02*
X127655320Y-109474000D01*
X127655320Y-109474000D02*
X127655320Y-109468920D01*
D15*
X129677160Y-111490760D02*
X129677160Y-111495840D01*
D16*
X127518160Y-107574080D02*
X127518160Y-106497120D01*
X127518160Y-106497120D02*
X127523240Y-106492040D01*
D15*
X127523240Y-107569000D02*
X127518160Y-107574080D01*
X131983480Y-103765094D02*
X132125719Y-103907333D01*
X132125719Y-103907333D02*
X132166360Y-103947974D01*
X132166360Y-100972620D02*
X131983480Y-101155500D01*
X131983480Y-101155500D02*
X131983480Y-103765094D01*
X131478020Y-98635820D02*
X132166360Y-99324160D01*
X132166360Y-99324160D02*
X132166360Y-100972620D01*
X132166360Y-104749600D02*
X132166360Y-103947974D01*
X131953000Y-104962960D02*
X132166360Y-104749600D01*
X138724640Y-109420660D02*
X142542260Y-109420660D01*
X142542260Y-109420660D02*
X145404840Y-106558080D01*
X138427461Y-109123481D02*
X138724640Y-109420660D01*
X138427461Y-109118401D02*
X138427461Y-109123481D01*
X138427461Y-109118401D02*
X138427461Y-109126021D01*
X136458960Y-107149900D02*
X138427461Y-109118401D01*
X136458960Y-106466640D02*
X136458960Y-107149900D01*
D16*
X129755900Y-94388940D02*
X129755900Y-95003620D01*
X129755900Y-95003620D02*
X127375920Y-97383600D01*
D15*
X133863080Y-101940360D02*
X133974840Y-102052120D01*
X133974840Y-102052120D02*
X134622540Y-102052120D01*
X133974840Y-100914200D02*
X133873240Y-101015800D01*
X133873240Y-101015800D02*
X133863080Y-101015800D01*
X133863080Y-101015800D02*
X133863080Y-101940360D01*
D16*
X144332960Y-95542100D02*
X144523430Y-95732570D01*
X144523430Y-95732570D02*
X148051550Y-95732570D01*
X148051550Y-95732570D02*
X148950680Y-94833440D01*
X135524240Y-96494600D02*
X144259300Y-96494600D01*
X144259300Y-96494600D02*
X144338040Y-96573340D01*
X148950680Y-94833440D02*
X148950680Y-94969074D01*
X148903219Y-94785979D02*
X148950680Y-94833440D01*
X133449060Y-102006400D02*
X133449060Y-100408740D01*
X133449060Y-100408740D02*
X133497320Y-100360480D01*
D18*
X124368560Y-95509080D02*
X120797320Y-95509080D01*
X117165120Y-93065600D02*
X118254780Y-93065600D01*
X115735100Y-93116400D02*
X117165120Y-93065600D01*
X118254780Y-93065600D02*
X120698260Y-95509080D01*
X120698260Y-95509080D02*
X120797320Y-95509080D01*
X127109220Y-91620340D02*
X127109220Y-92768420D01*
X127109220Y-92768420D02*
X124368560Y-95509080D01*
X144002760Y-94122240D02*
X136712240Y-94122240D01*
X136712240Y-94122240D02*
X136110000Y-93520000D01*
X146697700Y-91744800D02*
X146697700Y-93306900D01*
X146697700Y-93306900D02*
X145882360Y-94122240D01*
X145882360Y-94122240D02*
X144002760Y-94122240D01*
D19*
X136110000Y-93520000D02*
X136115800Y-93520000D01*
D18*
X134690000Y-92100000D02*
X136110000Y-93520000D01*
X121942860Y-113949480D02*
X123626880Y-115633500D01*
X123626880Y-115633500D02*
X125509020Y-115633500D01*
X119451120Y-111897160D02*
X118323360Y-110769400D01*
X118323360Y-110769400D02*
X117398800Y-110769400D01*
X117398800Y-110769400D02*
X117368320Y-110738920D01*
X119451120Y-111897160D02*
X119451120Y-113461800D01*
X119451120Y-113461800D02*
X119443500Y-113469420D01*
D20*
X119451120Y-111897160D02*
X119451120Y-112064800D01*
D19*
X118711979Y-111158019D02*
X119451120Y-111897160D01*
D18*
X141185900Y-113931700D02*
X146499580Y-113931700D01*
X146499580Y-113931700D02*
X147353020Y-113078260D01*
D16*
X138348720Y-110545880D02*
X145384520Y-110545880D01*
X145384520Y-110545880D02*
X145465800Y-110627160D01*
X136080500Y-109456220D02*
X134137400Y-107482640D01*
X134137400Y-107482640D02*
X134137400Y-106837480D01*
X134132320Y-106842560D02*
X134137400Y-106837480D01*
X178008280Y-99148900D02*
X178041300Y-99181920D01*
X178008280Y-97083880D02*
X178008280Y-99148900D01*
X157543500Y-97142300D02*
X157543500Y-99207320D01*
X157543500Y-99207320D02*
X157576520Y-99240340D01*
X177500280Y-97094040D02*
X177500280Y-99105720D01*
X177500280Y-99105720D02*
X177500280Y-99161600D01*
X177500280Y-99161600D02*
X177492660Y-99169220D01*
X157035500Y-99164140D02*
X157035500Y-99220020D01*
X157035500Y-99220020D02*
X157027880Y-99227640D01*
X157035500Y-97152460D02*
X157035500Y-99164140D01*
X176954180Y-100083620D02*
X176954180Y-100540820D01*
X179697380Y-99534980D02*
X179285900Y-99946460D01*
X179285900Y-99946460D02*
X177091340Y-99946460D01*
X177091340Y-99946460D02*
X176954180Y-100083620D01*
X156489400Y-100142040D02*
X156489400Y-100599240D01*
X156626560Y-100004880D02*
X156489400Y-100142040D01*
X158821120Y-100004880D02*
X156626560Y-100004880D01*
X159232600Y-99593400D02*
X158821120Y-100004880D01*
X177167540Y-104660700D02*
X176944020Y-104437180D01*
X176944020Y-104437180D02*
X176944020Y-103827580D01*
X179646580Y-104762300D02*
X179544980Y-104660700D01*
X179544980Y-104660700D02*
X177167540Y-104660700D01*
X156479240Y-104495600D02*
X156479240Y-103886000D01*
X156702760Y-104719120D02*
X156479240Y-104495600D01*
X159080200Y-104719120D02*
X156702760Y-104719120D01*
X159181800Y-104820720D02*
X159080200Y-104719120D01*
X176552752Y-106799488D02*
X176463960Y-106888280D01*
X176555007Y-106799488D02*
X176552752Y-106799488D01*
X176603660Y-106750835D02*
X176555007Y-106799488D01*
X176603660Y-105463340D02*
X176603660Y-106750835D01*
X156090227Y-106857908D02*
X156087972Y-106857908D01*
X156087972Y-106857908D02*
X155999180Y-106946700D01*
X156138880Y-105521760D02*
X156138880Y-106809255D01*
X156138880Y-106809255D02*
X156090227Y-106857908D01*
X177782220Y-100258880D02*
X177530760Y-100510340D01*
X179918360Y-99984560D02*
X179644040Y-100258880D01*
X179644040Y-100258880D02*
X177782220Y-100258880D01*
X157317440Y-100317300D02*
X157065980Y-100568760D01*
X159179260Y-100317300D02*
X157317440Y-100317300D01*
X159453580Y-100042980D02*
X159179260Y-100317300D01*
X177426486Y-104363386D02*
X177426486Y-103839067D01*
X177452020Y-104388920D02*
X177426486Y-104363386D01*
X179994560Y-104388920D02*
X179818286Y-104388920D01*
X179818286Y-104388920D02*
X177452020Y-104388920D01*
X179910740Y-104305100D02*
X179994560Y-104388920D01*
X156987240Y-104447340D02*
X156961706Y-104421806D01*
X156961706Y-104421806D02*
X156961706Y-103897487D01*
X159353506Y-104447340D02*
X156987240Y-104447340D01*
X159445960Y-104363520D02*
X159529780Y-104447340D01*
X159529780Y-104447340D02*
X159353506Y-104447340D01*
X177036470Y-105805230D02*
X177269140Y-105572560D01*
X177010060Y-106895900D02*
X177010060Y-105831640D01*
X177010060Y-105831640D02*
X177036470Y-105805230D01*
X156545280Y-106954320D02*
X156545280Y-105890060D01*
X156545280Y-105890060D02*
X156571690Y-105863650D01*
X156571690Y-105863650D02*
X156804360Y-105630980D01*
X177121820Y-110357920D02*
X175277780Y-110357920D01*
X178127660Y-111363760D02*
X177121820Y-110357920D01*
X157662880Y-111422180D02*
X156657040Y-110416340D01*
X156657040Y-110416340D02*
X154813000Y-110416340D01*
X177896520Y-101772720D02*
X176484280Y-103184960D01*
X180050440Y-101772720D02*
X177896520Y-101772720D01*
X159585660Y-101831140D02*
X157431740Y-101831140D01*
X157431740Y-101831140D02*
X156019500Y-103243380D01*
D15*
G36*
X151470360Y-95214440D02*
X149796040Y-95214440D01*
X149659876Y-95157900D01*
X149568959Y-95157820D01*
X149539856Y-95087387D01*
X149488838Y-95036280D01*
X149525380Y-94948276D01*
X149525580Y-94719607D01*
X149438256Y-94508267D01*
X149276703Y-94346432D01*
X149065516Y-94258740D01*
X148836847Y-94258540D01*
X148625507Y-94345864D01*
X148463672Y-94507417D01*
X148375980Y-94718604D01*
X148375946Y-94756928D01*
X147918434Y-95214440D01*
X144818053Y-95214440D01*
X144658983Y-95055092D01*
X144447796Y-94967400D01*
X144219127Y-94967200D01*
X144007787Y-95054524D01*
X143847592Y-95214440D01*
X136172933Y-95214440D01*
X136060670Y-95102177D01*
X135911273Y-95002353D01*
X135861118Y-94992377D01*
X135809623Y-94940792D01*
X135598436Y-94853100D01*
X135369767Y-94852900D01*
X135158427Y-94940224D01*
X134996592Y-95101777D01*
X134949811Y-95214440D01*
X130158232Y-95214440D01*
X130181347Y-95179846D01*
X130216400Y-95003620D01*
X130216400Y-94741425D01*
X130242908Y-94714963D01*
X130330600Y-94503776D01*
X130330800Y-94275107D01*
X130243476Y-94063767D01*
X130081923Y-93901932D01*
X129870736Y-93814240D01*
X129642067Y-93814040D01*
X129430727Y-93901364D01*
X129268892Y-94062917D01*
X129181200Y-94274104D01*
X129181000Y-94502773D01*
X129268324Y-94714113D01*
X129295400Y-94741236D01*
X129295400Y-94812874D01*
X128893834Y-95214440D01*
X125763458Y-95214440D01*
X127659349Y-93318549D01*
X127827999Y-93066147D01*
X127887220Y-92768420D01*
X127887220Y-91620340D01*
X127827998Y-91322612D01*
X127659349Y-91070211D01*
X127406948Y-90901562D01*
X127109220Y-90842340D01*
X126811492Y-90901562D01*
X126559091Y-91070211D01*
X126390442Y-91322612D01*
X126331220Y-91620340D01*
X126331220Y-92446162D01*
X124046302Y-94731080D01*
X121020518Y-94731080D01*
X119610768Y-93321330D01*
X119621353Y-93316956D01*
X119783188Y-93155403D01*
X119870880Y-92944216D01*
X119871080Y-92715547D01*
X119783756Y-92504207D01*
X119730617Y-92450975D01*
X119775568Y-92406103D01*
X119863260Y-92194916D01*
X119863355Y-92086367D01*
X119873977Y-92097008D01*
X120085164Y-92184700D01*
X120313833Y-92184900D01*
X120525173Y-92097576D01*
X120687008Y-91936023D01*
X120774700Y-91724836D01*
X120774900Y-91496167D01*
X120687576Y-91284827D01*
X120526023Y-91122992D01*
X120479977Y-91103872D01*
X119819923Y-90443817D01*
X119717587Y-90375438D01*
X119624743Y-90282432D01*
X119413556Y-90194740D01*
X119184887Y-90194540D01*
X118973547Y-90281864D01*
X118811712Y-90443417D01*
X118724020Y-90654604D01*
X118723820Y-90883273D01*
X118811144Y-91094613D01*
X118972697Y-91256448D01*
X119183884Y-91344140D01*
X119412553Y-91344340D01*
X119416375Y-91342761D01*
X119625251Y-91551636D01*
X119625205Y-91603713D01*
X119614583Y-91593072D01*
X119403396Y-91505380D01*
X119194756Y-91505198D01*
X118671548Y-90981989D01*
X118684700Y-90950316D01*
X118684900Y-90721647D01*
X118597576Y-90510307D01*
X118436023Y-90348472D01*
X118224836Y-90260780D01*
X117996167Y-90260580D01*
X117784827Y-90347904D01*
X117622992Y-90509457D01*
X117572204Y-90631770D01*
X117440596Y-90686149D01*
X117278761Y-90847702D01*
X117191069Y-91058889D01*
X117190869Y-91287558D01*
X117278193Y-91498898D01*
X117439746Y-91660733D01*
X117650933Y-91748425D01*
X117689257Y-91748459D01*
X118228399Y-92287600D01*
X117165120Y-92287600D01*
X117151355Y-92290338D01*
X117137500Y-92288090D01*
X115707480Y-92338890D01*
X115412042Y-92408645D01*
X115165787Y-92586148D01*
X115006205Y-92844377D01*
X114957590Y-93144020D01*
X115027345Y-93439458D01*
X115204848Y-93685713D01*
X115463077Y-93845295D01*
X115762720Y-93893910D01*
X117178947Y-93843600D01*
X117932522Y-93843600D01*
X119303362Y-95214440D01*
X118995376Y-95214440D01*
X118963507Y-95201207D01*
X118734838Y-95201007D01*
X118702327Y-95214440D01*
X118562354Y-95214440D01*
X118481337Y-95180799D01*
X118252668Y-95180599D01*
X118170767Y-95214440D01*
X118146330Y-95214440D01*
X118146330Y-95079045D01*
X118282048Y-94943563D01*
X118369740Y-94732376D01*
X118369940Y-94503707D01*
X118282616Y-94292367D01*
X118121063Y-94130532D01*
X117909876Y-94042840D01*
X117681207Y-94042640D01*
X117557039Y-94093945D01*
X117409496Y-94032680D01*
X117180827Y-94032480D01*
X116969487Y-94119804D01*
X116807652Y-94281357D01*
X116719960Y-94492544D01*
X116719760Y-94721213D01*
X116807084Y-94932553D01*
X116968637Y-95094388D01*
X116971320Y-95095502D01*
X116971320Y-95268555D01*
X116927187Y-95224422D01*
X116927220Y-95186967D01*
X116839896Y-94975627D01*
X116678343Y-94813792D01*
X116467156Y-94726100D01*
X116238487Y-94725900D01*
X116027147Y-94813224D01*
X115865312Y-94974777D01*
X115777620Y-95185964D01*
X115777420Y-95414633D01*
X115864744Y-95625973D01*
X116026297Y-95787808D01*
X116222020Y-95869079D01*
X116222020Y-98790760D01*
X116257073Y-98966986D01*
X116356897Y-99116383D01*
X116572753Y-99332239D01*
X116469107Y-99375064D01*
X116307272Y-99536617D01*
X116219580Y-99747804D01*
X116219380Y-99976473D01*
X116306704Y-100187813D01*
X116468257Y-100349648D01*
X116562491Y-100388777D01*
X117769640Y-101595925D01*
X117769640Y-105406700D01*
X115820885Y-105406700D01*
X115794423Y-105380192D01*
X115583236Y-105292500D01*
X115354567Y-105292300D01*
X115143227Y-105379624D01*
X114981392Y-105541177D01*
X114893700Y-105752364D01*
X114893500Y-105981033D01*
X114943227Y-106101381D01*
X114883540Y-106245124D01*
X114883340Y-106473793D01*
X114970664Y-106685133D01*
X115132217Y-106846968D01*
X115343404Y-106934660D01*
X115572073Y-106934860D01*
X115783413Y-106847536D01*
X115810536Y-106820460D01*
X117184650Y-106820460D01*
X117184580Y-106900513D01*
X117237678Y-107029020D01*
X117177160Y-107174764D01*
X117176960Y-107403433D01*
X117264284Y-107614773D01*
X117289489Y-107640022D01*
X117264852Y-107664617D01*
X117177160Y-107875804D01*
X117176960Y-108104473D01*
X117232184Y-108238125D01*
X117182240Y-108358404D01*
X117182040Y-108587073D01*
X117269364Y-108798413D01*
X117430917Y-108960248D01*
X117642104Y-109047940D01*
X117769640Y-109048052D01*
X117769640Y-109093000D01*
X117779646Y-109142410D01*
X117808087Y-109184035D01*
X117850481Y-109211315D01*
X117896640Y-109220000D01*
X122465995Y-109220000D01*
X122393954Y-109291915D01*
X122306262Y-109503102D01*
X122306062Y-109731771D01*
X122393386Y-109943111D01*
X122420462Y-109970234D01*
X122420462Y-110395036D01*
X122335901Y-110598683D01*
X122335701Y-110827352D01*
X122423025Y-111038692D01*
X122584578Y-111200527D01*
X122795765Y-111288219D01*
X123024434Y-111288419D01*
X123235774Y-111201095D01*
X123397609Y-111039542D01*
X123485301Y-110828355D01*
X123485501Y-110599686D01*
X123398177Y-110388346D01*
X123341462Y-110331532D01*
X123341462Y-109970423D01*
X123367970Y-109943961D01*
X123455662Y-109732774D01*
X123455862Y-109504105D01*
X123368538Y-109292765D01*
X123295900Y-109220000D01*
X124267185Y-109220000D01*
X124142992Y-109343977D01*
X124099670Y-109448309D01*
X123927205Y-109519570D01*
X123765370Y-109681123D01*
X123677678Y-109892310D01*
X123677478Y-110120979D01*
X123764802Y-110332319D01*
X123765820Y-110333339D01*
X123765820Y-111280515D01*
X123739312Y-111306977D01*
X123651620Y-111518164D01*
X123651420Y-111746833D01*
X123738744Y-111958173D01*
X123898549Y-112118257D01*
X123762172Y-112254397D01*
X123674480Y-112465584D01*
X123674385Y-112574067D01*
X123538740Y-112709712D01*
X123538740Y-112386823D01*
X123555088Y-112370503D01*
X123642780Y-112159316D01*
X123642980Y-111930647D01*
X123555656Y-111719307D01*
X123394103Y-111557472D01*
X123182916Y-111469780D01*
X122954247Y-111469580D01*
X122813762Y-111527627D01*
X122662216Y-111464700D01*
X122433547Y-111464500D01*
X122222207Y-111551824D01*
X122060372Y-111713377D01*
X121972680Y-111924564D01*
X121972480Y-112153233D01*
X122059804Y-112364573D01*
X122094500Y-112399330D01*
X122094500Y-112723244D01*
X122062912Y-112754777D01*
X121975220Y-112965964D01*
X121975035Y-113177880D01*
X121942860Y-113171480D01*
X121645133Y-113230702D01*
X121392731Y-113399351D01*
X121224082Y-113651753D01*
X121164860Y-113949480D01*
X121224082Y-114247207D01*
X121392731Y-114499609D01*
X123076751Y-116183629D01*
X123329152Y-116352278D01*
X123626880Y-116411500D01*
X125509020Y-116411500D01*
X125806748Y-116352278D01*
X126059149Y-116183629D01*
X126227798Y-115931228D01*
X126287020Y-115633500D01*
X126227798Y-115335772D01*
X126059149Y-115083371D01*
X125806748Y-114914722D01*
X125509020Y-114855500D01*
X123949138Y-114855500D01*
X122724314Y-113630676D01*
X122811643Y-113594593D01*
X122958324Y-113655500D01*
X123041513Y-113655573D01*
X123058024Y-113695533D01*
X123219577Y-113857368D01*
X123292910Y-113887818D01*
X123372984Y-114081613D01*
X123534537Y-114243448D01*
X123745724Y-114331140D01*
X123974393Y-114331340D01*
X124185733Y-114244016D01*
X124347568Y-114082463D01*
X124410169Y-113931700D01*
X140407900Y-113931700D01*
X140467122Y-114229428D01*
X140635771Y-114481829D01*
X140888172Y-114650478D01*
X141185900Y-114709700D01*
X146499580Y-114709700D01*
X146797308Y-114650478D01*
X146879319Y-114595680D01*
X146873632Y-114601357D01*
X146785940Y-114812544D01*
X146785740Y-115041213D01*
X146873064Y-115252553D01*
X147034617Y-115414388D01*
X147245804Y-115502080D01*
X147474473Y-115502280D01*
X147685813Y-115414956D01*
X147712936Y-115387880D01*
X148112234Y-115387880D01*
X149039077Y-116314723D01*
X149188474Y-116414547D01*
X149364700Y-116449601D01*
X149364705Y-116449600D01*
X149926615Y-116449600D01*
X149953077Y-116476108D01*
X150164264Y-116563800D01*
X150392933Y-116564000D01*
X150604273Y-116476676D01*
X150766108Y-116315123D01*
X150853800Y-116103936D01*
X150854000Y-115875267D01*
X150766676Y-115663927D01*
X150605123Y-115502092D01*
X150393936Y-115414400D01*
X150165267Y-115414200D01*
X149953927Y-115501524D01*
X149926804Y-115528600D01*
X149555446Y-115528600D01*
X148876246Y-114849400D01*
X149016720Y-114849400D01*
X149192946Y-114814347D01*
X149239265Y-114783397D01*
X149310893Y-114783460D01*
X149522233Y-114696136D01*
X149684068Y-114534583D01*
X149771760Y-114323396D01*
X149771960Y-114094727D01*
X149684636Y-113883387D01*
X149523083Y-113721552D01*
X149311896Y-113633860D01*
X149083227Y-113633660D01*
X148871887Y-113720984D01*
X148710052Y-113882537D01*
X148691008Y-113928400D01*
X147840125Y-113928400D01*
X147813663Y-113901892D01*
X147683637Y-113847901D01*
X147903149Y-113628389D01*
X148071798Y-113375988D01*
X148131020Y-113078260D01*
X148071798Y-112780533D01*
X147903149Y-112528131D01*
X147650747Y-112359482D01*
X147353020Y-112300260D01*
X147055292Y-112359482D01*
X146802891Y-112528131D01*
X146177322Y-113153700D01*
X141185900Y-113153700D01*
X140888172Y-113212922D01*
X140635771Y-113381571D01*
X140467122Y-113633972D01*
X140407900Y-113931700D01*
X124410169Y-113931700D01*
X124435260Y-113871276D01*
X124435279Y-113849229D01*
X124776163Y-113508346D01*
X124815133Y-113508380D01*
X125026473Y-113421056D01*
X125188308Y-113259503D01*
X125276000Y-113048316D01*
X125276200Y-112819647D01*
X125188876Y-112608307D01*
X125027323Y-112446472D01*
X124816136Y-112358780D01*
X124779522Y-112358748D01*
X124736756Y-112255247D01*
X124686368Y-112204771D01*
X124833833Y-112204900D01*
X125045173Y-112117576D01*
X125207008Y-111956023D01*
X125294700Y-111744836D01*
X125294900Y-111516167D01*
X125207576Y-111304827D01*
X125180500Y-111277704D01*
X125180500Y-109843116D01*
X125204700Y-109784836D01*
X125204900Y-109556167D01*
X125117576Y-109344827D01*
X124992967Y-109220000D01*
X127136296Y-109220000D01*
X127080620Y-109354084D01*
X127080420Y-109582753D01*
X127167744Y-109794093D01*
X127329297Y-109955928D01*
X127540484Y-110043620D01*
X127573723Y-110043649D01*
X129102293Y-111572218D01*
X129102260Y-111609673D01*
X129189584Y-111821013D01*
X129351137Y-111982848D01*
X129562324Y-112070540D01*
X129790993Y-112070740D01*
X130002333Y-111983416D01*
X130164168Y-111821863D01*
X130251860Y-111610676D01*
X130252060Y-111382007D01*
X130164736Y-111170667D01*
X130003183Y-111008832D01*
X129791996Y-110921140D01*
X129753672Y-110921106D01*
X129743739Y-110911173D01*
X133910480Y-110911173D01*
X133997804Y-111122513D01*
X134159357Y-111284348D01*
X134370544Y-111372040D01*
X134523141Y-111372173D01*
X136904409Y-112667457D01*
X136927827Y-112674748D01*
X136948224Y-112688377D01*
X137012951Y-112701252D01*
X137075964Y-112720871D01*
X137100394Y-112718645D01*
X137124450Y-112723430D01*
X145234438Y-112723430D01*
X145239248Y-112728240D01*
X145239250Y-112728243D01*
X145374545Y-112818644D01*
X145388647Y-112828067D01*
X145438802Y-112838043D01*
X145490297Y-112889628D01*
X145701484Y-112977320D01*
X145930153Y-112977520D01*
X146141493Y-112890196D01*
X146303328Y-112728643D01*
X146391020Y-112517456D01*
X146391220Y-112288787D01*
X146337640Y-112159113D01*
X146424040Y-111951036D01*
X146424240Y-111722367D01*
X146336916Y-111511027D01*
X146175363Y-111349192D01*
X145964176Y-111261500D01*
X145735507Y-111261300D01*
X145524167Y-111348624D01*
X145471948Y-111400752D01*
X145421667Y-111410753D01*
X145295443Y-111495093D01*
X137208163Y-111495093D01*
X135817156Y-110738459D01*
X135817178Y-110713053D01*
X137758580Y-110713053D01*
X137845904Y-110924393D01*
X138007457Y-111086228D01*
X138218644Y-111173920D01*
X138447313Y-111174120D01*
X138658653Y-111086796D01*
X138739209Y-111006380D01*
X145032177Y-111006380D01*
X145139777Y-111114168D01*
X145350964Y-111201860D01*
X145579633Y-111202060D01*
X145790973Y-111114736D01*
X145952808Y-110953183D01*
X146040500Y-110741996D01*
X146040700Y-110513327D01*
X145953376Y-110301987D01*
X145791823Y-110140152D01*
X145580636Y-110052460D01*
X145351967Y-110052260D01*
X145271811Y-110085380D01*
X138594884Y-110085380D01*
X138448316Y-110024520D01*
X138219647Y-110024320D01*
X138008307Y-110111644D01*
X137846472Y-110273197D01*
X137758780Y-110484384D01*
X137758580Y-110713053D01*
X135817178Y-110713053D01*
X135817200Y-110688587D01*
X135729876Y-110477247D01*
X135568323Y-110315412D01*
X135357136Y-110227720D01*
X135128467Y-110227520D01*
X134917127Y-110314844D01*
X134866429Y-110365454D01*
X134811403Y-110310332D01*
X134600216Y-110222640D01*
X134371547Y-110222440D01*
X134160207Y-110309764D01*
X133998372Y-110471317D01*
X133910680Y-110682504D01*
X133910480Y-110911173D01*
X129743739Y-110911173D01*
X128230183Y-109397617D01*
X128230220Y-109355087D01*
X128174403Y-109220000D01*
X133437894Y-109220000D01*
X133844473Y-109626579D01*
X133844440Y-109664033D01*
X133931764Y-109875373D01*
X134093317Y-110037208D01*
X134304504Y-110124900D01*
X134533173Y-110125100D01*
X134744513Y-110037776D01*
X134814272Y-109968138D01*
X134862937Y-110016888D01*
X135074124Y-110104580D01*
X135302793Y-110104780D01*
X135514133Y-110017456D01*
X135653877Y-109877955D01*
X135787497Y-110011808D01*
X135998684Y-110099500D01*
X136227353Y-110099700D01*
X136438693Y-110012376D01*
X136600528Y-109850823D01*
X136688220Y-109639636D01*
X136688420Y-109410967D01*
X136609514Y-109220000D01*
X137631034Y-109220000D01*
X137963104Y-109552070D01*
X137978448Y-109575034D01*
X137986103Y-109580149D01*
X138275627Y-109869673D01*
X138481636Y-110007324D01*
X138724640Y-110055661D01*
X138724645Y-110055660D01*
X142542260Y-110055660D01*
X142785264Y-110007324D01*
X142991273Y-109869673D01*
X143640946Y-109220000D01*
X151475440Y-109220000D01*
X151475440Y-119943880D01*
X110261400Y-119943880D01*
X110261400Y-117179893D01*
X118927020Y-117179893D01*
X119014344Y-117391233D01*
X119175897Y-117553068D01*
X119387084Y-117640760D01*
X119615753Y-117640960D01*
X119762077Y-117580500D01*
X126599254Y-117580500D01*
X126851765Y-117833010D01*
X126865484Y-117866213D01*
X127027037Y-118028048D01*
X127238224Y-118115740D01*
X127466893Y-118115940D01*
X127678233Y-118028616D01*
X127840068Y-117867063D01*
X127927760Y-117655876D01*
X127927960Y-117427207D01*
X127840636Y-117215867D01*
X127827545Y-117202753D01*
X139305440Y-117202753D01*
X139392764Y-117414093D01*
X139554317Y-117575928D01*
X139765504Y-117663620D01*
X139817815Y-117663666D01*
X139925095Y-117735348D01*
X140101321Y-117770401D01*
X147092343Y-117770401D01*
X147106744Y-117805253D01*
X147268297Y-117967088D01*
X147479484Y-118054780D01*
X147708153Y-118054980D01*
X147919493Y-117967656D01*
X148081328Y-117806103D01*
X148169020Y-117594916D01*
X148169220Y-117366247D01*
X148081896Y-117154907D01*
X147920343Y-116993072D01*
X147709156Y-116905380D01*
X147651930Y-116905330D01*
X147620687Y-116884454D01*
X147444461Y-116849401D01*
X140403308Y-116849401D01*
X140367916Y-116763747D01*
X140206363Y-116601912D01*
X139995176Y-116514220D01*
X139766507Y-116514020D01*
X139555167Y-116601344D01*
X139393332Y-116762897D01*
X139305640Y-116974084D01*
X139305440Y-117202753D01*
X127827545Y-117202753D01*
X127679083Y-117054032D01*
X127467896Y-116966340D01*
X127287428Y-116966182D01*
X127115623Y-116794377D01*
X126966226Y-116694553D01*
X126790000Y-116659500D01*
X119908251Y-116659500D01*
X119827943Y-116579052D01*
X119616756Y-116491360D01*
X119388087Y-116491160D01*
X119176747Y-116578484D01*
X119014912Y-116740037D01*
X118927220Y-116951224D01*
X118927020Y-117179893D01*
X110261400Y-117179893D01*
X110261400Y-110738920D01*
X116590320Y-110738920D01*
X116649542Y-111036647D01*
X116818191Y-111289049D01*
X116848671Y-111319529D01*
X117101072Y-111488178D01*
X117398800Y-111547400D01*
X118001102Y-111547400D01*
X118673120Y-112219418D01*
X118673120Y-113431112D01*
X118665500Y-113469420D01*
X118724722Y-113767147D01*
X118893371Y-114019549D01*
X119145773Y-114188198D01*
X119443500Y-114247420D01*
X119741227Y-114188198D01*
X119993629Y-114019549D01*
X120001249Y-114011929D01*
X120169898Y-113759528D01*
X120229120Y-113461800D01*
X120229120Y-111897160D01*
X120169898Y-111599432D01*
X120001249Y-111347031D01*
X118873489Y-110219271D01*
X118825717Y-110187351D01*
X118621088Y-110050622D01*
X118323360Y-109991400D01*
X117521552Y-109991400D01*
X117368320Y-109960920D01*
X117070593Y-110020142D01*
X116818191Y-110188791D01*
X116649542Y-110441193D01*
X116590320Y-110738920D01*
X110261400Y-110738920D01*
X110261400Y-87693033D01*
X110585660Y-87693033D01*
X110672984Y-87904373D01*
X110834537Y-88066208D01*
X111045724Y-88153900D01*
X111070900Y-88153922D01*
X111070900Y-89966800D01*
X111105953Y-90143026D01*
X111205777Y-90292423D01*
X111235933Y-90322579D01*
X111235900Y-90360033D01*
X111323224Y-90571373D01*
X111484777Y-90733208D01*
X111695964Y-90820900D01*
X111924633Y-90821100D01*
X112135973Y-90733776D01*
X112297808Y-90572223D01*
X112385500Y-90361036D01*
X112385700Y-90132367D01*
X112298376Y-89921027D01*
X112136823Y-89759192D01*
X111991900Y-89699015D01*
X111991900Y-87950040D01*
X111956847Y-87773814D01*
X111857023Y-87624417D01*
X111735427Y-87502821D01*
X111735460Y-87465367D01*
X111648136Y-87254027D01*
X111490518Y-87096133D01*
X113460940Y-87096133D01*
X113548264Y-87307473D01*
X113709817Y-87469308D01*
X113921004Y-87557000D01*
X114149673Y-87557200D01*
X114361013Y-87469876D01*
X114388136Y-87442800D01*
X121284754Y-87442800D01*
X121307033Y-87465079D01*
X121307000Y-87502533D01*
X121394324Y-87713873D01*
X121555877Y-87875708D01*
X121767064Y-87963400D01*
X121995733Y-87963600D01*
X122207073Y-87876276D01*
X122368908Y-87714723D01*
X122456600Y-87503536D01*
X122456800Y-87274867D01*
X122390296Y-87113913D01*
X133689500Y-87113913D01*
X133776824Y-87325253D01*
X133938377Y-87487088D01*
X134149564Y-87574780D01*
X134190508Y-87574816D01*
X134332014Y-87669367D01*
X134508240Y-87704421D01*
X134508245Y-87704420D01*
X137026547Y-87704420D01*
X136976460Y-87825044D01*
X136976260Y-88053713D01*
X136999220Y-88109280D01*
X136999220Y-89019955D01*
X136972712Y-89046417D01*
X136885020Y-89257604D01*
X136884820Y-89486273D01*
X136972144Y-89697613D01*
X137133697Y-89859448D01*
X137307677Y-89931690D01*
X137368384Y-90078613D01*
X137529937Y-90240448D01*
X137700584Y-90311306D01*
X137728966Y-90379997D01*
X137686247Y-90379960D01*
X137526093Y-90446134D01*
X137391676Y-90390320D01*
X137163007Y-90390120D01*
X136951667Y-90477444D01*
X136789832Y-90638997D01*
X136702140Y-90850184D01*
X136701940Y-91078853D01*
X136789264Y-91290193D01*
X136909500Y-91410639D01*
X136909500Y-92566470D01*
X136835300Y-92745164D01*
X136835100Y-92973833D01*
X136922424Y-93185173D01*
X137081214Y-93344240D01*
X137034498Y-93344240D01*
X135240129Y-91549871D01*
X134987727Y-91381222D01*
X134690000Y-91322000D01*
X134392273Y-91381222D01*
X134139871Y-91549871D01*
X133971222Y-91802273D01*
X133912000Y-92100000D01*
X133971222Y-92397727D01*
X134139871Y-92650129D01*
X136162111Y-94672369D01*
X136414512Y-94841018D01*
X136712240Y-94900240D01*
X145882360Y-94900240D01*
X146180088Y-94841018D01*
X146432489Y-94672369D01*
X147247829Y-93857029D01*
X147257129Y-93843110D01*
X147416478Y-93604628D01*
X147475700Y-93306900D01*
X147475700Y-91744800D01*
X147416478Y-91447072D01*
X147247829Y-91194671D01*
X146995428Y-91026022D01*
X146697700Y-90966800D01*
X146399972Y-91026022D01*
X146147571Y-91194671D01*
X145978922Y-91447072D01*
X145919700Y-91744800D01*
X145919700Y-92984642D01*
X145560102Y-93344240D01*
X137738515Y-93344240D01*
X137897008Y-93186023D01*
X137984700Y-92974836D01*
X137984900Y-92746167D01*
X137926228Y-92604171D01*
X137936773Y-92604180D01*
X138148113Y-92516856D01*
X138309948Y-92355303D01*
X138370415Y-92209681D01*
X138575164Y-92294700D01*
X138803833Y-92294900D01*
X139015173Y-92207576D01*
X139177008Y-92046023D01*
X139264700Y-91834836D01*
X139264900Y-91606167D01*
X139177576Y-91394827D01*
X139016023Y-91232992D01*
X138857705Y-91167253D01*
X138884687Y-91102272D01*
X139014253Y-91048736D01*
X139176088Y-90887183D01*
X139263780Y-90675996D01*
X139263980Y-90447327D01*
X139176656Y-90235987D01*
X139157200Y-90216497D01*
X139157200Y-89399805D01*
X139183708Y-89373343D01*
X139271400Y-89162156D01*
X139271600Y-88933487D01*
X139184276Y-88722147D01*
X139022723Y-88560312D01*
X138851149Y-88489069D01*
X138775336Y-88305587D01*
X138613783Y-88143752D01*
X138552760Y-88118413D01*
X138552780Y-88095287D01*
X138465456Y-87883947D01*
X138303903Y-87722112D01*
X138261296Y-87704420D01*
X141773215Y-87704420D01*
X141799677Y-87730928D01*
X142010864Y-87818620D01*
X142239533Y-87818820D01*
X142450873Y-87731496D01*
X142612708Y-87569943D01*
X142700400Y-87358756D01*
X142700600Y-87130087D01*
X142613276Y-86918747D01*
X142451723Y-86756912D01*
X142240536Y-86669220D01*
X142011867Y-86669020D01*
X141800527Y-86756344D01*
X141773404Y-86783420D01*
X134796813Y-86783420D01*
X134751976Y-86674907D01*
X134590423Y-86513072D01*
X134379236Y-86425380D01*
X134150567Y-86425180D01*
X133939227Y-86512504D01*
X133777392Y-86674057D01*
X133689700Y-86885244D01*
X133689500Y-87113913D01*
X122390296Y-87113913D01*
X122369476Y-87063527D01*
X122207923Y-86901692D01*
X121996736Y-86814000D01*
X121958412Y-86813966D01*
X121801123Y-86656677D01*
X121651726Y-86556853D01*
X121475500Y-86521800D01*
X114388325Y-86521800D01*
X114361863Y-86495292D01*
X114150676Y-86407600D01*
X113922007Y-86407400D01*
X113710667Y-86494724D01*
X113548832Y-86656277D01*
X113461140Y-86867464D01*
X113460940Y-87096133D01*
X111490518Y-87096133D01*
X111486583Y-87092192D01*
X111275396Y-87004500D01*
X111046727Y-87004300D01*
X110835387Y-87091624D01*
X110673552Y-87253177D01*
X110585860Y-87464364D01*
X110585660Y-87693033D01*
X110261400Y-87693033D01*
X110261400Y-84754720D01*
X151470360Y-84754720D01*
X151470360Y-95214440D01*
X151470360Y-95214440D01*
G37*
X151470360Y-95214440D02*
X149796040Y-95214440D01*
X149659876Y-95157900D01*
X149568959Y-95157820D01*
X149539856Y-95087387D01*
X149488838Y-95036280D01*
X149525380Y-94948276D01*
X149525580Y-94719607D01*
X149438256Y-94508267D01*
X149276703Y-94346432D01*
X149065516Y-94258740D01*
X148836847Y-94258540D01*
X148625507Y-94345864D01*
X148463672Y-94507417D01*
X148375980Y-94718604D01*
X148375946Y-94756928D01*
X147918434Y-95214440D01*
X144818053Y-95214440D01*
X144658983Y-95055092D01*
X144447796Y-94967400D01*
X144219127Y-94967200D01*
X144007787Y-95054524D01*
X143847592Y-95214440D01*
X136172933Y-95214440D01*
X136060670Y-95102177D01*
X135911273Y-95002353D01*
X135861118Y-94992377D01*
X135809623Y-94940792D01*
X135598436Y-94853100D01*
X135369767Y-94852900D01*
X135158427Y-94940224D01*
X134996592Y-95101777D01*
X134949811Y-95214440D01*
X130158232Y-95214440D01*
X130181347Y-95179846D01*
X130216400Y-95003620D01*
X130216400Y-94741425D01*
X130242908Y-94714963D01*
X130330600Y-94503776D01*
X130330800Y-94275107D01*
X130243476Y-94063767D01*
X130081923Y-93901932D01*
X129870736Y-93814240D01*
X129642067Y-93814040D01*
X129430727Y-93901364D01*
X129268892Y-94062917D01*
X129181200Y-94274104D01*
X129181000Y-94502773D01*
X129268324Y-94714113D01*
X129295400Y-94741236D01*
X129295400Y-94812874D01*
X128893834Y-95214440D01*
X125763458Y-95214440D01*
X127659349Y-93318549D01*
X127827999Y-93066147D01*
X127887220Y-92768420D01*
X127887220Y-91620340D01*
X127827998Y-91322612D01*
X127659349Y-91070211D01*
X127406948Y-90901562D01*
X127109220Y-90842340D01*
X126811492Y-90901562D01*
X126559091Y-91070211D01*
X126390442Y-91322612D01*
X126331220Y-91620340D01*
X126331220Y-92446162D01*
X124046302Y-94731080D01*
X121020518Y-94731080D01*
X119610768Y-93321330D01*
X119621353Y-93316956D01*
X119783188Y-93155403D01*
X119870880Y-92944216D01*
X119871080Y-92715547D01*
X119783756Y-92504207D01*
X119730617Y-92450975D01*
X119775568Y-92406103D01*
X119863260Y-92194916D01*
X119863355Y-92086367D01*
X119873977Y-92097008D01*
X120085164Y-92184700D01*
X120313833Y-92184900D01*
X120525173Y-92097576D01*
X120687008Y-91936023D01*
X120774700Y-91724836D01*
X120774900Y-91496167D01*
X120687576Y-91284827D01*
X120526023Y-91122992D01*
X120479977Y-91103872D01*
X119819923Y-90443817D01*
X119717587Y-90375438D01*
X119624743Y-90282432D01*
X119413556Y-90194740D01*
X119184887Y-90194540D01*
X118973547Y-90281864D01*
X118811712Y-90443417D01*
X118724020Y-90654604D01*
X118723820Y-90883273D01*
X118811144Y-91094613D01*
X118972697Y-91256448D01*
X119183884Y-91344140D01*
X119412553Y-91344340D01*
X119416375Y-91342761D01*
X119625251Y-91551636D01*
X119625205Y-91603713D01*
X119614583Y-91593072D01*
X119403396Y-91505380D01*
X119194756Y-91505198D01*
X118671548Y-90981989D01*
X118684700Y-90950316D01*
X118684900Y-90721647D01*
X118597576Y-90510307D01*
X118436023Y-90348472D01*
X118224836Y-90260780D01*
X117996167Y-90260580D01*
X117784827Y-90347904D01*
X117622992Y-90509457D01*
X117572204Y-90631770D01*
X117440596Y-90686149D01*
X117278761Y-90847702D01*
X117191069Y-91058889D01*
X117190869Y-91287558D01*
X117278193Y-91498898D01*
X117439746Y-91660733D01*
X117650933Y-91748425D01*
X117689257Y-91748459D01*
X118228399Y-92287600D01*
X117165120Y-92287600D01*
X117151355Y-92290338D01*
X117137500Y-92288090D01*
X115707480Y-92338890D01*
X115412042Y-92408645D01*
X115165787Y-92586148D01*
X115006205Y-92844377D01*
X114957590Y-93144020D01*
X115027345Y-93439458D01*
X115204848Y-93685713D01*
X115463077Y-93845295D01*
X115762720Y-93893910D01*
X117178947Y-93843600D01*
X117932522Y-93843600D01*
X119303362Y-95214440D01*
X118995376Y-95214440D01*
X118963507Y-95201207D01*
X118734838Y-95201007D01*
X118702327Y-95214440D01*
X118562354Y-95214440D01*
X118481337Y-95180799D01*
X118252668Y-95180599D01*
X118170767Y-95214440D01*
X118146330Y-95214440D01*
X118146330Y-95079045D01*
X118282048Y-94943563D01*
X118369740Y-94732376D01*
X118369940Y-94503707D01*
X118282616Y-94292367D01*
X118121063Y-94130532D01*
X117909876Y-94042840D01*
X117681207Y-94042640D01*
X117557039Y-94093945D01*
X117409496Y-94032680D01*
X117180827Y-94032480D01*
X116969487Y-94119804D01*
X116807652Y-94281357D01*
X116719960Y-94492544D01*
X116719760Y-94721213D01*
X116807084Y-94932553D01*
X116968637Y-95094388D01*
X116971320Y-95095502D01*
X116971320Y-95268555D01*
X116927187Y-95224422D01*
X116927220Y-95186967D01*
X116839896Y-94975627D01*
X116678343Y-94813792D01*
X116467156Y-94726100D01*
X116238487Y-94725900D01*
X116027147Y-94813224D01*
X115865312Y-94974777D01*
X115777620Y-95185964D01*
X115777420Y-95414633D01*
X115864744Y-95625973D01*
X116026297Y-95787808D01*
X116222020Y-95869079D01*
X116222020Y-98790760D01*
X116257073Y-98966986D01*
X116356897Y-99116383D01*
X116572753Y-99332239D01*
X116469107Y-99375064D01*
X116307272Y-99536617D01*
X116219580Y-99747804D01*
X116219380Y-99976473D01*
X116306704Y-100187813D01*
X116468257Y-100349648D01*
X116562491Y-100388777D01*
X117769640Y-101595925D01*
X117769640Y-105406700D01*
X115820885Y-105406700D01*
X115794423Y-105380192D01*
X115583236Y-105292500D01*
X115354567Y-105292300D01*
X115143227Y-105379624D01*
X114981392Y-105541177D01*
X114893700Y-105752364D01*
X114893500Y-105981033D01*
X114943227Y-106101381D01*
X114883540Y-106245124D01*
X114883340Y-106473793D01*
X114970664Y-106685133D01*
X115132217Y-106846968D01*
X115343404Y-106934660D01*
X115572073Y-106934860D01*
X115783413Y-106847536D01*
X115810536Y-106820460D01*
X117184650Y-106820460D01*
X117184580Y-106900513D01*
X117237678Y-107029020D01*
X117177160Y-107174764D01*
X117176960Y-107403433D01*
X117264284Y-107614773D01*
X117289489Y-107640022D01*
X117264852Y-107664617D01*
X117177160Y-107875804D01*
X117176960Y-108104473D01*
X117232184Y-108238125D01*
X117182240Y-108358404D01*
X117182040Y-108587073D01*
X117269364Y-108798413D01*
X117430917Y-108960248D01*
X117642104Y-109047940D01*
X117769640Y-109048052D01*
X117769640Y-109093000D01*
X117779646Y-109142410D01*
X117808087Y-109184035D01*
X117850481Y-109211315D01*
X117896640Y-109220000D01*
X122465995Y-109220000D01*
X122393954Y-109291915D01*
X122306262Y-109503102D01*
X122306062Y-109731771D01*
X122393386Y-109943111D01*
X122420462Y-109970234D01*
X122420462Y-110395036D01*
X122335901Y-110598683D01*
X122335701Y-110827352D01*
X122423025Y-111038692D01*
X122584578Y-111200527D01*
X122795765Y-111288219D01*
X123024434Y-111288419D01*
X123235774Y-111201095D01*
X123397609Y-111039542D01*
X123485301Y-110828355D01*
X123485501Y-110599686D01*
X123398177Y-110388346D01*
X123341462Y-110331532D01*
X123341462Y-109970423D01*
X123367970Y-109943961D01*
X123455662Y-109732774D01*
X123455862Y-109504105D01*
X123368538Y-109292765D01*
X123295900Y-109220000D01*
X124267185Y-109220000D01*
X124142992Y-109343977D01*
X124099670Y-109448309D01*
X123927205Y-109519570D01*
X123765370Y-109681123D01*
X123677678Y-109892310D01*
X123677478Y-110120979D01*
X123764802Y-110332319D01*
X123765820Y-110333339D01*
X123765820Y-111280515D01*
X123739312Y-111306977D01*
X123651620Y-111518164D01*
X123651420Y-111746833D01*
X123738744Y-111958173D01*
X123898549Y-112118257D01*
X123762172Y-112254397D01*
X123674480Y-112465584D01*
X123674385Y-112574067D01*
X123538740Y-112709712D01*
X123538740Y-112386823D01*
X123555088Y-112370503D01*
X123642780Y-112159316D01*
X123642980Y-111930647D01*
X123555656Y-111719307D01*
X123394103Y-111557472D01*
X123182916Y-111469780D01*
X122954247Y-111469580D01*
X122813762Y-111527627D01*
X122662216Y-111464700D01*
X122433547Y-111464500D01*
X122222207Y-111551824D01*
X122060372Y-111713377D01*
X121972680Y-111924564D01*
X121972480Y-112153233D01*
X122059804Y-112364573D01*
X122094500Y-112399330D01*
X122094500Y-112723244D01*
X122062912Y-112754777D01*
X121975220Y-112965964D01*
X121975035Y-113177880D01*
X121942860Y-113171480D01*
X121645133Y-113230702D01*
X121392731Y-113399351D01*
X121224082Y-113651753D01*
X121164860Y-113949480D01*
X121224082Y-114247207D01*
X121392731Y-114499609D01*
X123076751Y-116183629D01*
X123329152Y-116352278D01*
X123626880Y-116411500D01*
X125509020Y-116411500D01*
X125806748Y-116352278D01*
X126059149Y-116183629D01*
X126227798Y-115931228D01*
X126287020Y-115633500D01*
X126227798Y-115335772D01*
X126059149Y-115083371D01*
X125806748Y-114914722D01*
X125509020Y-114855500D01*
X123949138Y-114855500D01*
X122724314Y-113630676D01*
X122811643Y-113594593D01*
X122958324Y-113655500D01*
X123041513Y-113655573D01*
X123058024Y-113695533D01*
X123219577Y-113857368D01*
X123292910Y-113887818D01*
X123372984Y-114081613D01*
X123534537Y-114243448D01*
X123745724Y-114331140D01*
X123974393Y-114331340D01*
X124185733Y-114244016D01*
X124347568Y-114082463D01*
X124410169Y-113931700D01*
X140407900Y-113931700D01*
X140467122Y-114229428D01*
X140635771Y-114481829D01*
X140888172Y-114650478D01*
X141185900Y-114709700D01*
X146499580Y-114709700D01*
X146797308Y-114650478D01*
X146879319Y-114595680D01*
X146873632Y-114601357D01*
X146785940Y-114812544D01*
X146785740Y-115041213D01*
X146873064Y-115252553D01*
X147034617Y-115414388D01*
X147245804Y-115502080D01*
X147474473Y-115502280D01*
X147685813Y-115414956D01*
X147712936Y-115387880D01*
X148112234Y-115387880D01*
X149039077Y-116314723D01*
X149188474Y-116414547D01*
X149364700Y-116449601D01*
X149364705Y-116449600D01*
X149926615Y-116449600D01*
X149953077Y-116476108D01*
X150164264Y-116563800D01*
X150392933Y-116564000D01*
X150604273Y-116476676D01*
X150766108Y-116315123D01*
X150853800Y-116103936D01*
X150854000Y-115875267D01*
X150766676Y-115663927D01*
X150605123Y-115502092D01*
X150393936Y-115414400D01*
X150165267Y-115414200D01*
X149953927Y-115501524D01*
X149926804Y-115528600D01*
X149555446Y-115528600D01*
X148876246Y-114849400D01*
X149016720Y-114849400D01*
X149192946Y-114814347D01*
X149239265Y-114783397D01*
X149310893Y-114783460D01*
X149522233Y-114696136D01*
X149684068Y-114534583D01*
X149771760Y-114323396D01*
X149771960Y-114094727D01*
X149684636Y-113883387D01*
X149523083Y-113721552D01*
X149311896Y-113633860D01*
X149083227Y-113633660D01*
X148871887Y-113720984D01*
X148710052Y-113882537D01*
X148691008Y-113928400D01*
X147840125Y-113928400D01*
X147813663Y-113901892D01*
X147683637Y-113847901D01*
X147903149Y-113628389D01*
X148071798Y-113375988D01*
X148131020Y-113078260D01*
X148071798Y-112780533D01*
X147903149Y-112528131D01*
X147650747Y-112359482D01*
X147353020Y-112300260D01*
X147055292Y-112359482D01*
X146802891Y-112528131D01*
X146177322Y-113153700D01*
X141185900Y-113153700D01*
X140888172Y-113212922D01*
X140635771Y-113381571D01*
X140467122Y-113633972D01*
X140407900Y-113931700D01*
X124410169Y-113931700D01*
X124435260Y-113871276D01*
X124435279Y-113849229D01*
X124776163Y-113508346D01*
X124815133Y-113508380D01*
X125026473Y-113421056D01*
X125188308Y-113259503D01*
X125276000Y-113048316D01*
X125276200Y-112819647D01*
X125188876Y-112608307D01*
X125027323Y-112446472D01*
X124816136Y-112358780D01*
X124779522Y-112358748D01*
X124736756Y-112255247D01*
X124686368Y-112204771D01*
X124833833Y-112204900D01*
X125045173Y-112117576D01*
X125207008Y-111956023D01*
X125294700Y-111744836D01*
X125294900Y-111516167D01*
X125207576Y-111304827D01*
X125180500Y-111277704D01*
X125180500Y-109843116D01*
X125204700Y-109784836D01*
X125204900Y-109556167D01*
X125117576Y-109344827D01*
X124992967Y-109220000D01*
X127136296Y-109220000D01*
X127080620Y-109354084D01*
X127080420Y-109582753D01*
X127167744Y-109794093D01*
X127329297Y-109955928D01*
X127540484Y-110043620D01*
X127573723Y-110043649D01*
X129102293Y-111572218D01*
X129102260Y-111609673D01*
X129189584Y-111821013D01*
X129351137Y-111982848D01*
X129562324Y-112070540D01*
X129790993Y-112070740D01*
X130002333Y-111983416D01*
X130164168Y-111821863D01*
X130251860Y-111610676D01*
X130252060Y-111382007D01*
X130164736Y-111170667D01*
X130003183Y-111008832D01*
X129791996Y-110921140D01*
X129753672Y-110921106D01*
X129743739Y-110911173D01*
X133910480Y-110911173D01*
X133997804Y-111122513D01*
X134159357Y-111284348D01*
X134370544Y-111372040D01*
X134523141Y-111372173D01*
X136904409Y-112667457D01*
X136927827Y-112674748D01*
X136948224Y-112688377D01*
X137012951Y-112701252D01*
X137075964Y-112720871D01*
X137100394Y-112718645D01*
X137124450Y-112723430D01*
X145234438Y-112723430D01*
X145239248Y-112728240D01*
X145239250Y-112728243D01*
X145374545Y-112818644D01*
X145388647Y-112828067D01*
X145438802Y-112838043D01*
X145490297Y-112889628D01*
X145701484Y-112977320D01*
X145930153Y-112977520D01*
X146141493Y-112890196D01*
X146303328Y-112728643D01*
X146391020Y-112517456D01*
X146391220Y-112288787D01*
X146337640Y-112159113D01*
X146424040Y-111951036D01*
X146424240Y-111722367D01*
X146336916Y-111511027D01*
X146175363Y-111349192D01*
X145964176Y-111261500D01*
X145735507Y-111261300D01*
X145524167Y-111348624D01*
X145471948Y-111400752D01*
X145421667Y-111410753D01*
X145295443Y-111495093D01*
X137208163Y-111495093D01*
X135817156Y-110738459D01*
X135817178Y-110713053D01*
X137758580Y-110713053D01*
X137845904Y-110924393D01*
X138007457Y-111086228D01*
X138218644Y-111173920D01*
X138447313Y-111174120D01*
X138658653Y-111086796D01*
X138739209Y-111006380D01*
X145032177Y-111006380D01*
X145139777Y-111114168D01*
X145350964Y-111201860D01*
X145579633Y-111202060D01*
X145790973Y-111114736D01*
X145952808Y-110953183D01*
X146040500Y-110741996D01*
X146040700Y-110513327D01*
X145953376Y-110301987D01*
X145791823Y-110140152D01*
X145580636Y-110052460D01*
X145351967Y-110052260D01*
X145271811Y-110085380D01*
X138594884Y-110085380D01*
X138448316Y-110024520D01*
X138219647Y-110024320D01*
X138008307Y-110111644D01*
X137846472Y-110273197D01*
X137758780Y-110484384D01*
X137758580Y-110713053D01*
X135817178Y-110713053D01*
X135817200Y-110688587D01*
X135729876Y-110477247D01*
X135568323Y-110315412D01*
X135357136Y-110227720D01*
X135128467Y-110227520D01*
X134917127Y-110314844D01*
X134866429Y-110365454D01*
X134811403Y-110310332D01*
X134600216Y-110222640D01*
X134371547Y-110222440D01*
X134160207Y-110309764D01*
X133998372Y-110471317D01*
X133910680Y-110682504D01*
X133910480Y-110911173D01*
X129743739Y-110911173D01*
X128230183Y-109397617D01*
X128230220Y-109355087D01*
X128174403Y-109220000D01*
X133437894Y-109220000D01*
X133844473Y-109626579D01*
X133844440Y-109664033D01*
X133931764Y-109875373D01*
X134093317Y-110037208D01*
X134304504Y-110124900D01*
X134533173Y-110125100D01*
X134744513Y-110037776D01*
X134814272Y-109968138D01*
X134862937Y-110016888D01*
X135074124Y-110104580D01*
X135302793Y-110104780D01*
X135514133Y-110017456D01*
X135653877Y-109877955D01*
X135787497Y-110011808D01*
X135998684Y-110099500D01*
X136227353Y-110099700D01*
X136438693Y-110012376D01*
X136600528Y-109850823D01*
X136688220Y-109639636D01*
X136688420Y-109410967D01*
X136609514Y-109220000D01*
X137631034Y-109220000D01*
X137963104Y-109552070D01*
X137978448Y-109575034D01*
X137986103Y-109580149D01*
X138275627Y-109869673D01*
X138481636Y-110007324D01*
X138724640Y-110055661D01*
X138724645Y-110055660D01*
X142542260Y-110055660D01*
X142785264Y-110007324D01*
X142991273Y-109869673D01*
X143640946Y-109220000D01*
X151475440Y-109220000D01*
X151475440Y-119943880D01*
X110261400Y-119943880D01*
X110261400Y-117179893D01*
X118927020Y-117179893D01*
X119014344Y-117391233D01*
X119175897Y-117553068D01*
X119387084Y-117640760D01*
X119615753Y-117640960D01*
X119762077Y-117580500D01*
X126599254Y-117580500D01*
X126851765Y-117833010D01*
X126865484Y-117866213D01*
X127027037Y-118028048D01*
X127238224Y-118115740D01*
X127466893Y-118115940D01*
X127678233Y-118028616D01*
X127840068Y-117867063D01*
X127927760Y-117655876D01*
X127927960Y-117427207D01*
X127840636Y-117215867D01*
X127827545Y-117202753D01*
X139305440Y-117202753D01*
X139392764Y-117414093D01*
X139554317Y-117575928D01*
X139765504Y-117663620D01*
X139817815Y-117663666D01*
X139925095Y-117735348D01*
X140101321Y-117770401D01*
X147092343Y-117770401D01*
X147106744Y-117805253D01*
X147268297Y-117967088D01*
X147479484Y-118054780D01*
X147708153Y-118054980D01*
X147919493Y-117967656D01*
X148081328Y-117806103D01*
X148169020Y-117594916D01*
X148169220Y-117366247D01*
X148081896Y-117154907D01*
X147920343Y-116993072D01*
X147709156Y-116905380D01*
X147651930Y-116905330D01*
X147620687Y-116884454D01*
X147444461Y-116849401D01*
X140403308Y-116849401D01*
X140367916Y-116763747D01*
X140206363Y-116601912D01*
X139995176Y-116514220D01*
X139766507Y-116514020D01*
X139555167Y-116601344D01*
X139393332Y-116762897D01*
X139305640Y-116974084D01*
X139305440Y-117202753D01*
X127827545Y-117202753D01*
X127679083Y-117054032D01*
X127467896Y-116966340D01*
X127287428Y-116966182D01*
X127115623Y-116794377D01*
X126966226Y-116694553D01*
X126790000Y-116659500D01*
X119908251Y-116659500D01*
X119827943Y-116579052D01*
X119616756Y-116491360D01*
X119388087Y-116491160D01*
X119176747Y-116578484D01*
X119014912Y-116740037D01*
X118927220Y-116951224D01*
X118927020Y-117179893D01*
X110261400Y-117179893D01*
X110261400Y-110738920D01*
X116590320Y-110738920D01*
X116649542Y-111036647D01*
X116818191Y-111289049D01*
X116848671Y-111319529D01*
X117101072Y-111488178D01*
X117398800Y-111547400D01*
X118001102Y-111547400D01*
X118673120Y-112219418D01*
X118673120Y-113431112D01*
X118665500Y-113469420D01*
X118724722Y-113767147D01*
X118893371Y-114019549D01*
X119145773Y-114188198D01*
X119443500Y-114247420D01*
X119741227Y-114188198D01*
X119993629Y-114019549D01*
X120001249Y-114011929D01*
X120169898Y-113759528D01*
X120229120Y-113461800D01*
X120229120Y-111897160D01*
X120169898Y-111599432D01*
X120001249Y-111347031D01*
X118873489Y-110219271D01*
X118825717Y-110187351D01*
X118621088Y-110050622D01*
X118323360Y-109991400D01*
X117521552Y-109991400D01*
X117368320Y-109960920D01*
X117070593Y-110020142D01*
X116818191Y-110188791D01*
X116649542Y-110441193D01*
X116590320Y-110738920D01*
X110261400Y-110738920D01*
X110261400Y-87693033D01*
X110585660Y-87693033D01*
X110672984Y-87904373D01*
X110834537Y-88066208D01*
X111045724Y-88153900D01*
X111070900Y-88153922D01*
X111070900Y-89966800D01*
X111105953Y-90143026D01*
X111205777Y-90292423D01*
X111235933Y-90322579D01*
X111235900Y-90360033D01*
X111323224Y-90571373D01*
X111484777Y-90733208D01*
X111695964Y-90820900D01*
X111924633Y-90821100D01*
X112135973Y-90733776D01*
X112297808Y-90572223D01*
X112385500Y-90361036D01*
X112385700Y-90132367D01*
X112298376Y-89921027D01*
X112136823Y-89759192D01*
X111991900Y-89699015D01*
X111991900Y-87950040D01*
X111956847Y-87773814D01*
X111857023Y-87624417D01*
X111735427Y-87502821D01*
X111735460Y-87465367D01*
X111648136Y-87254027D01*
X111490518Y-87096133D01*
X113460940Y-87096133D01*
X113548264Y-87307473D01*
X113709817Y-87469308D01*
X113921004Y-87557000D01*
X114149673Y-87557200D01*
X114361013Y-87469876D01*
X114388136Y-87442800D01*
X121284754Y-87442800D01*
X121307033Y-87465079D01*
X121307000Y-87502533D01*
X121394324Y-87713873D01*
X121555877Y-87875708D01*
X121767064Y-87963400D01*
X121995733Y-87963600D01*
X122207073Y-87876276D01*
X122368908Y-87714723D01*
X122456600Y-87503536D01*
X122456800Y-87274867D01*
X122390296Y-87113913D01*
X133689500Y-87113913D01*
X133776824Y-87325253D01*
X133938377Y-87487088D01*
X134149564Y-87574780D01*
X134190508Y-87574816D01*
X134332014Y-87669367D01*
X134508240Y-87704421D01*
X134508245Y-87704420D01*
X137026547Y-87704420D01*
X136976460Y-87825044D01*
X136976260Y-88053713D01*
X136999220Y-88109280D01*
X136999220Y-89019955D01*
X136972712Y-89046417D01*
X136885020Y-89257604D01*
X136884820Y-89486273D01*
X136972144Y-89697613D01*
X137133697Y-89859448D01*
X137307677Y-89931690D01*
X137368384Y-90078613D01*
X137529937Y-90240448D01*
X137700584Y-90311306D01*
X137728966Y-90379997D01*
X137686247Y-90379960D01*
X137526093Y-90446134D01*
X137391676Y-90390320D01*
X137163007Y-90390120D01*
X136951667Y-90477444D01*
X136789832Y-90638997D01*
X136702140Y-90850184D01*
X136701940Y-91078853D01*
X136789264Y-91290193D01*
X136909500Y-91410639D01*
X136909500Y-92566470D01*
X136835300Y-92745164D01*
X136835100Y-92973833D01*
X136922424Y-93185173D01*
X137081214Y-93344240D01*
X137034498Y-93344240D01*
X135240129Y-91549871D01*
X134987727Y-91381222D01*
X134690000Y-91322000D01*
X134392273Y-91381222D01*
X134139871Y-91549871D01*
X133971222Y-91802273D01*
X133912000Y-92100000D01*
X133971222Y-92397727D01*
X134139871Y-92650129D01*
X136162111Y-94672369D01*
X136414512Y-94841018D01*
X136712240Y-94900240D01*
X145882360Y-94900240D01*
X146180088Y-94841018D01*
X146432489Y-94672369D01*
X147247829Y-93857029D01*
X147257129Y-93843110D01*
X147416478Y-93604628D01*
X147475700Y-93306900D01*
X147475700Y-91744800D01*
X147416478Y-91447072D01*
X147247829Y-91194671D01*
X146995428Y-91026022D01*
X146697700Y-90966800D01*
X146399972Y-91026022D01*
X146147571Y-91194671D01*
X145978922Y-91447072D01*
X145919700Y-91744800D01*
X145919700Y-92984642D01*
X145560102Y-93344240D01*
X137738515Y-93344240D01*
X137897008Y-93186023D01*
X137984700Y-92974836D01*
X137984900Y-92746167D01*
X137926228Y-92604171D01*
X137936773Y-92604180D01*
X138148113Y-92516856D01*
X138309948Y-92355303D01*
X138370415Y-92209681D01*
X138575164Y-92294700D01*
X138803833Y-92294900D01*
X139015173Y-92207576D01*
X139177008Y-92046023D01*
X139264700Y-91834836D01*
X139264900Y-91606167D01*
X139177576Y-91394827D01*
X139016023Y-91232992D01*
X138857705Y-91167253D01*
X138884687Y-91102272D01*
X139014253Y-91048736D01*
X139176088Y-90887183D01*
X139263780Y-90675996D01*
X139263980Y-90447327D01*
X139176656Y-90235987D01*
X139157200Y-90216497D01*
X139157200Y-89399805D01*
X139183708Y-89373343D01*
X139271400Y-89162156D01*
X139271600Y-88933487D01*
X139184276Y-88722147D01*
X139022723Y-88560312D01*
X138851149Y-88489069D01*
X138775336Y-88305587D01*
X138613783Y-88143752D01*
X138552760Y-88118413D01*
X138552780Y-88095287D01*
X138465456Y-87883947D01*
X138303903Y-87722112D01*
X138261296Y-87704420D01*
X141773215Y-87704420D01*
X141799677Y-87730928D01*
X142010864Y-87818620D01*
X142239533Y-87818820D01*
X142450873Y-87731496D01*
X142612708Y-87569943D01*
X142700400Y-87358756D01*
X142700600Y-87130087D01*
X142613276Y-86918747D01*
X142451723Y-86756912D01*
X142240536Y-86669220D01*
X142011867Y-86669020D01*
X141800527Y-86756344D01*
X141773404Y-86783420D01*
X134796813Y-86783420D01*
X134751976Y-86674907D01*
X134590423Y-86513072D01*
X134379236Y-86425380D01*
X134150567Y-86425180D01*
X133939227Y-86512504D01*
X133777392Y-86674057D01*
X133689700Y-86885244D01*
X133689500Y-87113913D01*
X122390296Y-87113913D01*
X122369476Y-87063527D01*
X122207923Y-86901692D01*
X121996736Y-86814000D01*
X121958412Y-86813966D01*
X121801123Y-86656677D01*
X121651726Y-86556853D01*
X121475500Y-86521800D01*
X114388325Y-86521800D01*
X114361863Y-86495292D01*
X114150676Y-86407600D01*
X113922007Y-86407400D01*
X113710667Y-86494724D01*
X113548832Y-86656277D01*
X113461140Y-86867464D01*
X113460940Y-87096133D01*
X111490518Y-87096133D01*
X111486583Y-87092192D01*
X111275396Y-87004500D01*
X111046727Y-87004300D01*
X110835387Y-87091624D01*
X110673552Y-87253177D01*
X110585860Y-87464364D01*
X110585660Y-87693033D01*
X110261400Y-87693033D01*
X110261400Y-84754720D01*
X151470360Y-84754720D01*
X151470360Y-95214440D01*
G36*
X120148131Y-96059209D02*
X120400533Y-96227859D01*
X120698260Y-96287080D01*
X124368560Y-96287080D01*
X124666288Y-96227858D01*
X124918689Y-96059209D01*
X125128458Y-95849440D01*
X128258834Y-95849440D01*
X127299541Y-96808733D01*
X127262087Y-96808700D01*
X127050747Y-96896024D01*
X126888912Y-97057577D01*
X126801220Y-97268764D01*
X126801020Y-97497433D01*
X126888344Y-97708773D01*
X127049897Y-97870608D01*
X127261084Y-97958300D01*
X127489753Y-97958500D01*
X127701093Y-97871176D01*
X127862928Y-97709623D01*
X127950620Y-97498436D01*
X127950654Y-97460112D01*
X129561326Y-95849440D01*
X134938296Y-95849440D01*
X134934300Y-95859064D01*
X134934100Y-96087733D01*
X135002282Y-96252746D01*
X134949540Y-96379764D01*
X134949340Y-96608433D01*
X135036664Y-96819773D01*
X135198217Y-96981608D01*
X135409404Y-97069300D01*
X135638073Y-97069500D01*
X135849413Y-96982176D01*
X135876536Y-96955100D01*
X143822754Y-96955100D01*
X143840304Y-96997573D01*
X144001857Y-97159408D01*
X144213044Y-97247100D01*
X144441713Y-97247300D01*
X144653053Y-97159976D01*
X144814888Y-96998423D01*
X144902580Y-96787236D01*
X144902655Y-96701090D01*
X149037050Y-96701090D01*
X149213276Y-96666037D01*
X149362673Y-96566213D01*
X149621418Y-96307467D01*
X149658873Y-96307500D01*
X149870213Y-96220176D01*
X150032048Y-96058623D01*
X150118908Y-95849440D01*
X151470360Y-95849440D01*
X151470360Y-105351631D01*
X151399722Y-105180674D01*
X150864305Y-104644321D01*
X150164390Y-104353692D01*
X149406535Y-104353030D01*
X148706114Y-104642438D01*
X148169761Y-105177855D01*
X147879132Y-105877770D01*
X147878470Y-106635625D01*
X148167878Y-107336046D01*
X148703295Y-107872399D01*
X149403210Y-108163028D01*
X150161065Y-108163690D01*
X150861486Y-107874282D01*
X151397839Y-107338865D01*
X151470360Y-107164214D01*
X151470360Y-108559600D01*
X144301346Y-108559600D01*
X145670665Y-107190280D01*
X145792807Y-107139812D01*
X145985894Y-106947062D01*
X146090521Y-106695093D01*
X146090759Y-106422264D01*
X145986572Y-106170113D01*
X145793822Y-105977026D01*
X145541853Y-105872399D01*
X145269024Y-105872161D01*
X145016873Y-105976348D01*
X144823786Y-106169098D01*
X144772651Y-106292244D01*
X142505294Y-108559600D01*
X138766686Y-108559600D01*
X137093960Y-106886874D01*
X137093960Y-106725706D01*
X137144641Y-106603653D01*
X137144879Y-106330824D01*
X137040692Y-106078673D01*
X136847942Y-105885586D01*
X136675143Y-105813833D01*
X143795100Y-105813833D01*
X143882424Y-106025173D01*
X144043977Y-106187008D01*
X144255164Y-106274700D01*
X144483833Y-106274900D01*
X144695173Y-106187576D01*
X144857008Y-106026023D01*
X144944700Y-105814836D01*
X144944900Y-105586167D01*
X144924000Y-105535585D01*
X144924000Y-102466936D01*
X144974700Y-102344836D01*
X144974900Y-102116167D01*
X144887576Y-101904827D01*
X144726023Y-101742992D01*
X144514836Y-101655300D01*
X144286167Y-101655100D01*
X144074827Y-101742424D01*
X143912992Y-101903977D01*
X143825300Y-102115164D01*
X143825100Y-102343833D01*
X143876000Y-102467020D01*
X143876000Y-105390816D01*
X143795300Y-105585164D01*
X143795100Y-105813833D01*
X136675143Y-105813833D01*
X136595973Y-105780959D01*
X136323144Y-105780721D01*
X136070993Y-105884908D01*
X135877906Y-106077658D01*
X135773279Y-106329627D01*
X135773041Y-106602456D01*
X135823960Y-106725689D01*
X135823960Y-107149900D01*
X135872296Y-107392904D01*
X136009947Y-107598913D01*
X136970634Y-108559600D01*
X135843964Y-108559600D01*
X134597900Y-107293990D01*
X134597900Y-107189965D01*
X134624408Y-107163503D01*
X134712100Y-106952316D01*
X134712300Y-106723647D01*
X134624976Y-106512307D01*
X134463423Y-106350472D01*
X134252236Y-106262780D01*
X134023567Y-106262580D01*
X133812227Y-106349904D01*
X133650392Y-106511457D01*
X133562700Y-106722644D01*
X133562500Y-106951313D01*
X133649824Y-107162653D01*
X133676900Y-107189776D01*
X133676900Y-107337712D01*
X133426333Y-107081005D01*
X133477660Y-106957396D01*
X133477860Y-106728727D01*
X133390536Y-106517387D01*
X133228983Y-106355552D01*
X133017796Y-106267860D01*
X132789127Y-106267660D01*
X132608136Y-106342444D01*
X132428516Y-106267860D01*
X132199847Y-106267660D01*
X131988507Y-106354984D01*
X131826672Y-106516537D01*
X131738980Y-106727724D01*
X131738780Y-106956393D01*
X131826104Y-107167733D01*
X131853180Y-107194856D01*
X131853180Y-107444540D01*
X131888233Y-107620766D01*
X131988057Y-107770163D01*
X132777494Y-108559600D01*
X119426405Y-108559600D01*
X119426580Y-108359407D01*
X119371356Y-108225755D01*
X119421300Y-108105476D01*
X119421500Y-107876807D01*
X119343451Y-107687913D01*
X126943260Y-107687913D01*
X127030584Y-107899253D01*
X127192137Y-108061088D01*
X127403324Y-108148780D01*
X127631993Y-108148980D01*
X127843333Y-108061656D01*
X128005168Y-107900103D01*
X128092860Y-107688916D01*
X128093060Y-107460247D01*
X128005736Y-107248907D01*
X127978660Y-107221784D01*
X127978660Y-106798796D01*
X128010248Y-106767263D01*
X128097940Y-106556076D01*
X128098140Y-106327407D01*
X128010816Y-106116067D01*
X127849263Y-105954232D01*
X127638076Y-105866540D01*
X127409407Y-105866340D01*
X127198067Y-105953664D01*
X127036232Y-106115217D01*
X126948540Y-106326404D01*
X126948340Y-106555073D01*
X127035664Y-106766413D01*
X127057660Y-106788447D01*
X127057660Y-107221595D01*
X127031152Y-107248057D01*
X126943460Y-107459244D01*
X126943260Y-107687913D01*
X119343451Y-107687913D01*
X119334176Y-107665467D01*
X119306448Y-107637691D01*
X119313288Y-107630863D01*
X119400980Y-107419676D01*
X119401180Y-107191007D01*
X119335102Y-107031086D01*
X119385740Y-106909136D01*
X119385936Y-106684602D01*
X119425376Y-106645231D01*
X119513068Y-106434044D01*
X119513268Y-106205375D01*
X119455370Y-106065251D01*
X119502580Y-105951556D01*
X119502780Y-105722887D01*
X119415456Y-105511547D01*
X119253903Y-105349712D01*
X119042716Y-105262020D01*
X118814047Y-105261820D01*
X118602707Y-105349144D01*
X118545051Y-105406700D01*
X118404640Y-105406700D01*
X118404640Y-104416393D01*
X125952660Y-104416393D01*
X126017353Y-104572961D01*
X125957940Y-104716044D01*
X125957740Y-104944713D01*
X126045064Y-105156053D01*
X126206617Y-105317888D01*
X126417804Y-105405580D01*
X126646473Y-105405780D01*
X126857813Y-105318456D01*
X126884936Y-105291380D01*
X127008195Y-105291380D01*
X127034657Y-105317888D01*
X127245844Y-105405580D01*
X127474513Y-105405780D01*
X127685853Y-105318456D01*
X127847688Y-105156903D01*
X127935380Y-104945716D01*
X127935580Y-104717047D01*
X127861611Y-104538029D01*
X127920140Y-104397076D01*
X127920340Y-104168407D01*
X127918905Y-104164933D01*
X129894740Y-104164933D01*
X129954387Y-104309290D01*
X129902560Y-104434104D01*
X129902360Y-104662773D01*
X129989684Y-104874113D01*
X130151237Y-105035948D01*
X130362424Y-105123640D01*
X130591093Y-105123840D01*
X130802433Y-105036516D01*
X130828494Y-105010500D01*
X131030042Y-105010500D01*
X131037697Y-105018168D01*
X131248884Y-105105860D01*
X131390161Y-105105984D01*
X131465424Y-105288133D01*
X131626977Y-105449968D01*
X131838164Y-105537660D01*
X132066833Y-105537860D01*
X132278173Y-105450536D01*
X132440008Y-105288983D01*
X132491122Y-105165886D01*
X132536884Y-105120124D01*
X132650473Y-104950126D01*
X132661133Y-104896536D01*
X132711557Y-104947048D01*
X132922744Y-105034740D01*
X133151413Y-105034940D01*
X133362753Y-104947616D01*
X133524588Y-104786063D01*
X133530242Y-104772448D01*
X133560120Y-104802378D01*
X133559960Y-104985353D01*
X133647284Y-105196693D01*
X133808837Y-105358528D01*
X134020024Y-105446220D01*
X134248693Y-105446420D01*
X134460033Y-105359096D01*
X134487156Y-105332020D01*
X134965440Y-105332020D01*
X135141666Y-105296967D01*
X135291063Y-105197143D01*
X135417739Y-105070467D01*
X135455193Y-105070500D01*
X135666533Y-104983176D01*
X135828368Y-104821623D01*
X135916060Y-104610436D01*
X135916260Y-104381767D01*
X135828936Y-104170427D01*
X135779779Y-104121184D01*
X135869733Y-104084016D01*
X136031568Y-103922463D01*
X136119260Y-103711276D01*
X136119460Y-103482607D01*
X136032136Y-103271267D01*
X135870583Y-103109432D01*
X135659396Y-103021740D01*
X135430727Y-103021540D01*
X135393034Y-103037115D01*
X135356496Y-102948687D01*
X135194943Y-102786852D01*
X134983756Y-102699160D01*
X134755087Y-102698960D01*
X134570427Y-102775260D01*
X133778689Y-102775260D01*
X133754763Y-102751292D01*
X133543576Y-102663600D01*
X133363469Y-102663442D01*
X133363469Y-102624323D01*
X133542573Y-102624480D01*
X133753913Y-102537156D01*
X133762647Y-102528437D01*
X133774314Y-102536233D01*
X133974840Y-102576120D01*
X134385604Y-102576120D01*
X134507704Y-102626820D01*
X134736373Y-102627020D01*
X134947713Y-102539696D01*
X135109548Y-102378143D01*
X135197240Y-102166956D01*
X135197440Y-101938287D01*
X135110116Y-101726947D01*
X134948563Y-101565112D01*
X134737376Y-101477420D01*
X134508707Y-101477220D01*
X134387080Y-101527475D01*
X134387080Y-101314861D01*
X134461848Y-101240223D01*
X134549540Y-101029036D01*
X134549740Y-100800367D01*
X134462416Y-100589027D01*
X134300863Y-100427192D01*
X134089676Y-100339500D01*
X134072139Y-100339485D01*
X134072220Y-100246647D01*
X133984896Y-100035307D01*
X133823343Y-99873472D01*
X133612156Y-99785780D01*
X133383487Y-99785580D01*
X133172147Y-99872904D01*
X133010312Y-100034457D01*
X132922620Y-100245644D01*
X132922420Y-100474313D01*
X132988560Y-100634384D01*
X132988560Y-101210628D01*
X132865327Y-101210520D01*
X132739653Y-101262448D01*
X132623133Y-101214064D01*
X132650473Y-101173147D01*
X132690360Y-100972620D01*
X132690360Y-99324160D01*
X132650473Y-99123634D01*
X132536884Y-98953636D01*
X132299881Y-98716633D01*
X135056020Y-98716633D01*
X135143344Y-98927973D01*
X135304897Y-99089808D01*
X135516084Y-99177500D01*
X135744753Y-99177700D01*
X135956093Y-99090376D01*
X135960316Y-99086160D01*
X141434183Y-99086160D01*
X141575164Y-99144700D01*
X141803833Y-99144900D01*
X142015173Y-99057576D01*
X142177008Y-98896023D01*
X142264700Y-98684836D01*
X142264900Y-98456167D01*
X142177576Y-98244827D01*
X142016023Y-98082992D01*
X141804836Y-97995300D01*
X141576167Y-97995100D01*
X141471954Y-98038160D01*
X135769983Y-98038160D01*
X135745756Y-98028100D01*
X135517087Y-98027900D01*
X135305747Y-98115224D01*
X135143912Y-98276777D01*
X135056220Y-98487964D01*
X135056020Y-98716633D01*
X132299881Y-98716633D01*
X132016083Y-98432835D01*
X131965596Y-98310647D01*
X131804043Y-98148812D01*
X131592856Y-98061120D01*
X131364187Y-98060920D01*
X131152847Y-98148244D01*
X130991012Y-98309797D01*
X130903320Y-98520984D01*
X130903120Y-98749653D01*
X130990444Y-98960993D01*
X131151997Y-99122828D01*
X131275094Y-99173942D01*
X131572075Y-99470923D01*
X131374827Y-99552424D01*
X131212992Y-99713977D01*
X131125300Y-99925164D01*
X131125266Y-99963488D01*
X130866225Y-100222529D01*
X130787607Y-100222460D01*
X130576267Y-100309784D01*
X130414432Y-100471337D01*
X130326740Y-100682524D01*
X130326540Y-100911193D01*
X130413864Y-101122533D01*
X130575417Y-101284368D01*
X130786604Y-101372060D01*
X131015273Y-101372260D01*
X131226613Y-101284936D01*
X131388448Y-101123383D01*
X131474074Y-100917172D01*
X131642360Y-100748886D01*
X131642360Y-100755572D01*
X131612956Y-100784976D01*
X131499367Y-100954974D01*
X131459480Y-101155500D01*
X131459480Y-103618250D01*
X131421894Y-103633780D01*
X130865230Y-103633780D01*
X130795663Y-103564092D01*
X130584476Y-103476400D01*
X130355807Y-103476200D01*
X130144467Y-103563524D01*
X129982632Y-103725077D01*
X129894940Y-103936264D01*
X129894740Y-104164933D01*
X127918905Y-104164933D01*
X127833016Y-103957067D01*
X127671463Y-103795232D01*
X127460276Y-103707540D01*
X127231607Y-103707340D01*
X127020267Y-103794664D01*
X126972788Y-103842060D01*
X126880045Y-103842060D01*
X126853583Y-103815552D01*
X126642396Y-103727860D01*
X126413727Y-103727660D01*
X126202387Y-103814984D01*
X126040552Y-103976537D01*
X125952860Y-104187724D01*
X125952660Y-104416393D01*
X118404640Y-104416393D01*
X118404640Y-102230925D01*
X118413951Y-102240236D01*
X118413940Y-102252313D01*
X118501264Y-102463653D01*
X118662817Y-102625488D01*
X118874004Y-102713180D01*
X119102673Y-102713380D01*
X119314013Y-102626056D01*
X119475848Y-102464503D01*
X119563540Y-102253316D01*
X119563740Y-102024647D01*
X119483073Y-101829418D01*
X119535286Y-101703673D01*
X120821860Y-101703673D01*
X120909184Y-101915013D01*
X120930619Y-101936486D01*
X120888100Y-102038884D01*
X120887900Y-102267553D01*
X120975224Y-102478893D01*
X121136777Y-102640728D01*
X121347964Y-102728420D01*
X121576633Y-102728620D01*
X121787973Y-102641296D01*
X121815096Y-102614220D01*
X122466666Y-102614220D01*
X122488057Y-102635648D01*
X122699244Y-102723340D01*
X122927913Y-102723540D01*
X123139253Y-102636216D01*
X123301088Y-102474663D01*
X123388780Y-102263476D01*
X123388823Y-102213833D01*
X125825100Y-102213833D01*
X125912424Y-102425173D01*
X126073977Y-102587008D01*
X126285164Y-102674700D01*
X126513833Y-102674900D01*
X126725173Y-102587576D01*
X126752296Y-102560500D01*
X128872360Y-102560500D01*
X128972753Y-102540531D01*
X129120433Y-102540660D01*
X129331773Y-102453336D01*
X129493608Y-102291783D01*
X129581300Y-102080596D01*
X129581500Y-101851927D01*
X129494176Y-101640587D01*
X129332623Y-101478752D01*
X129121436Y-101391060D01*
X129073432Y-101391018D01*
X129073500Y-101313447D01*
X128986176Y-101102107D01*
X128824623Y-100940272D01*
X128613436Y-100852580D01*
X128384767Y-100852380D01*
X128173427Y-100939704D01*
X128011592Y-101101257D01*
X127999931Y-101129340D01*
X127540445Y-101129340D01*
X127513983Y-101102832D01*
X127302796Y-101015140D01*
X127074127Y-101014940D01*
X126862787Y-101102264D01*
X126700952Y-101263817D01*
X126613260Y-101475004D01*
X126613180Y-101566136D01*
X126514836Y-101525300D01*
X126286167Y-101525100D01*
X126074827Y-101612424D01*
X125912992Y-101773977D01*
X125825300Y-101985164D01*
X125825100Y-102213833D01*
X123388823Y-102213833D01*
X123388980Y-102034807D01*
X123311233Y-101846644D01*
X123378620Y-101684356D01*
X123378820Y-101455687D01*
X123291496Y-101244347D01*
X123129943Y-101082512D01*
X122918756Y-100994820D01*
X122690087Y-100994620D01*
X122478747Y-101081944D01*
X122451624Y-101109020D01*
X121728960Y-101109020D01*
X121722783Y-101102832D01*
X121511596Y-101015140D01*
X121282927Y-101014940D01*
X121071587Y-101102264D01*
X120909752Y-101263817D01*
X120822060Y-101475004D01*
X120821860Y-101703673D01*
X119535286Y-101703673D01*
X119568620Y-101623396D01*
X119568820Y-101394727D01*
X119481496Y-101183387D01*
X119454420Y-101156264D01*
X119454420Y-101102160D01*
X119419367Y-100925934D01*
X119319543Y-100776537D01*
X118404640Y-99861634D01*
X118404640Y-98367353D01*
X118504895Y-98325928D01*
X118627616Y-98376886D01*
X118856285Y-98377086D01*
X119067625Y-98289762D01*
X119229460Y-98128209D01*
X119317152Y-97917022D01*
X119317352Y-97688353D01*
X119230028Y-97477013D01*
X119101360Y-97348120D01*
X119101360Y-96293433D01*
X119173844Y-96263483D01*
X119335679Y-96101930D01*
X119423371Y-95890743D01*
X119423407Y-95849440D01*
X119938362Y-95849440D01*
X120148131Y-96059209D01*
X120148131Y-96059209D01*
G37*
X120148131Y-96059209D02*
X120400533Y-96227859D01*
X120698260Y-96287080D01*
X124368560Y-96287080D01*
X124666288Y-96227858D01*
X124918689Y-96059209D01*
X125128458Y-95849440D01*
X128258834Y-95849440D01*
X127299541Y-96808733D01*
X127262087Y-96808700D01*
X127050747Y-96896024D01*
X126888912Y-97057577D01*
X126801220Y-97268764D01*
X126801020Y-97497433D01*
X126888344Y-97708773D01*
X127049897Y-97870608D01*
X127261084Y-97958300D01*
X127489753Y-97958500D01*
X127701093Y-97871176D01*
X127862928Y-97709623D01*
X127950620Y-97498436D01*
X127950654Y-97460112D01*
X129561326Y-95849440D01*
X134938296Y-95849440D01*
X134934300Y-95859064D01*
X134934100Y-96087733D01*
X135002282Y-96252746D01*
X134949540Y-96379764D01*
X134949340Y-96608433D01*
X135036664Y-96819773D01*
X135198217Y-96981608D01*
X135409404Y-97069300D01*
X135638073Y-97069500D01*
X135849413Y-96982176D01*
X135876536Y-96955100D01*
X143822754Y-96955100D01*
X143840304Y-96997573D01*
X144001857Y-97159408D01*
X144213044Y-97247100D01*
X144441713Y-97247300D01*
X144653053Y-97159976D01*
X144814888Y-96998423D01*
X144902580Y-96787236D01*
X144902655Y-96701090D01*
X149037050Y-96701090D01*
X149213276Y-96666037D01*
X149362673Y-96566213D01*
X149621418Y-96307467D01*
X149658873Y-96307500D01*
X149870213Y-96220176D01*
X150032048Y-96058623D01*
X150118908Y-95849440D01*
X151470360Y-95849440D01*
X151470360Y-105351631D01*
X151399722Y-105180674D01*
X150864305Y-104644321D01*
X150164390Y-104353692D01*
X149406535Y-104353030D01*
X148706114Y-104642438D01*
X148169761Y-105177855D01*
X147879132Y-105877770D01*
X147878470Y-106635625D01*
X148167878Y-107336046D01*
X148703295Y-107872399D01*
X149403210Y-108163028D01*
X150161065Y-108163690D01*
X150861486Y-107874282D01*
X151397839Y-107338865D01*
X151470360Y-107164214D01*
X151470360Y-108559600D01*
X144301346Y-108559600D01*
X145670665Y-107190280D01*
X145792807Y-107139812D01*
X145985894Y-106947062D01*
X146090521Y-106695093D01*
X146090759Y-106422264D01*
X145986572Y-106170113D01*
X145793822Y-105977026D01*
X145541853Y-105872399D01*
X145269024Y-105872161D01*
X145016873Y-105976348D01*
X144823786Y-106169098D01*
X144772651Y-106292244D01*
X142505294Y-108559600D01*
X138766686Y-108559600D01*
X137093960Y-106886874D01*
X137093960Y-106725706D01*
X137144641Y-106603653D01*
X137144879Y-106330824D01*
X137040692Y-106078673D01*
X136847942Y-105885586D01*
X136675143Y-105813833D01*
X143795100Y-105813833D01*
X143882424Y-106025173D01*
X144043977Y-106187008D01*
X144255164Y-106274700D01*
X144483833Y-106274900D01*
X144695173Y-106187576D01*
X144857008Y-106026023D01*
X144944700Y-105814836D01*
X144944900Y-105586167D01*
X144924000Y-105535585D01*
X144924000Y-102466936D01*
X144974700Y-102344836D01*
X144974900Y-102116167D01*
X144887576Y-101904827D01*
X144726023Y-101742992D01*
X144514836Y-101655300D01*
X144286167Y-101655100D01*
X144074827Y-101742424D01*
X143912992Y-101903977D01*
X143825300Y-102115164D01*
X143825100Y-102343833D01*
X143876000Y-102467020D01*
X143876000Y-105390816D01*
X143795300Y-105585164D01*
X143795100Y-105813833D01*
X136675143Y-105813833D01*
X136595973Y-105780959D01*
X136323144Y-105780721D01*
X136070993Y-105884908D01*
X135877906Y-106077658D01*
X135773279Y-106329627D01*
X135773041Y-106602456D01*
X135823960Y-106725689D01*
X135823960Y-107149900D01*
X135872296Y-107392904D01*
X136009947Y-107598913D01*
X136970634Y-108559600D01*
X135843964Y-108559600D01*
X134597900Y-107293990D01*
X134597900Y-107189965D01*
X134624408Y-107163503D01*
X134712100Y-106952316D01*
X134712300Y-106723647D01*
X134624976Y-106512307D01*
X134463423Y-106350472D01*
X134252236Y-106262780D01*
X134023567Y-106262580D01*
X133812227Y-106349904D01*
X133650392Y-106511457D01*
X133562700Y-106722644D01*
X133562500Y-106951313D01*
X133649824Y-107162653D01*
X133676900Y-107189776D01*
X133676900Y-107337712D01*
X133426333Y-107081005D01*
X133477660Y-106957396D01*
X133477860Y-106728727D01*
X133390536Y-106517387D01*
X133228983Y-106355552D01*
X133017796Y-106267860D01*
X132789127Y-106267660D01*
X132608136Y-106342444D01*
X132428516Y-106267860D01*
X132199847Y-106267660D01*
X131988507Y-106354984D01*
X131826672Y-106516537D01*
X131738980Y-106727724D01*
X131738780Y-106956393D01*
X131826104Y-107167733D01*
X131853180Y-107194856D01*
X131853180Y-107444540D01*
X131888233Y-107620766D01*
X131988057Y-107770163D01*
X132777494Y-108559600D01*
X119426405Y-108559600D01*
X119426580Y-108359407D01*
X119371356Y-108225755D01*
X119421300Y-108105476D01*
X119421500Y-107876807D01*
X119343451Y-107687913D01*
X126943260Y-107687913D01*
X127030584Y-107899253D01*
X127192137Y-108061088D01*
X127403324Y-108148780D01*
X127631993Y-108148980D01*
X127843333Y-108061656D01*
X128005168Y-107900103D01*
X128092860Y-107688916D01*
X128093060Y-107460247D01*
X128005736Y-107248907D01*
X127978660Y-107221784D01*
X127978660Y-106798796D01*
X128010248Y-106767263D01*
X128097940Y-106556076D01*
X128098140Y-106327407D01*
X128010816Y-106116067D01*
X127849263Y-105954232D01*
X127638076Y-105866540D01*
X127409407Y-105866340D01*
X127198067Y-105953664D01*
X127036232Y-106115217D01*
X126948540Y-106326404D01*
X126948340Y-106555073D01*
X127035664Y-106766413D01*
X127057660Y-106788447D01*
X127057660Y-107221595D01*
X127031152Y-107248057D01*
X126943460Y-107459244D01*
X126943260Y-107687913D01*
X119343451Y-107687913D01*
X119334176Y-107665467D01*
X119306448Y-107637691D01*
X119313288Y-107630863D01*
X119400980Y-107419676D01*
X119401180Y-107191007D01*
X119335102Y-107031086D01*
X119385740Y-106909136D01*
X119385936Y-106684602D01*
X119425376Y-106645231D01*
X119513068Y-106434044D01*
X119513268Y-106205375D01*
X119455370Y-106065251D01*
X119502580Y-105951556D01*
X119502780Y-105722887D01*
X119415456Y-105511547D01*
X119253903Y-105349712D01*
X119042716Y-105262020D01*
X118814047Y-105261820D01*
X118602707Y-105349144D01*
X118545051Y-105406700D01*
X118404640Y-105406700D01*
X118404640Y-104416393D01*
X125952660Y-104416393D01*
X126017353Y-104572961D01*
X125957940Y-104716044D01*
X125957740Y-104944713D01*
X126045064Y-105156053D01*
X126206617Y-105317888D01*
X126417804Y-105405580D01*
X126646473Y-105405780D01*
X126857813Y-105318456D01*
X126884936Y-105291380D01*
X127008195Y-105291380D01*
X127034657Y-105317888D01*
X127245844Y-105405580D01*
X127474513Y-105405780D01*
X127685853Y-105318456D01*
X127847688Y-105156903D01*
X127935380Y-104945716D01*
X127935580Y-104717047D01*
X127861611Y-104538029D01*
X127920140Y-104397076D01*
X127920340Y-104168407D01*
X127918905Y-104164933D01*
X129894740Y-104164933D01*
X129954387Y-104309290D01*
X129902560Y-104434104D01*
X129902360Y-104662773D01*
X129989684Y-104874113D01*
X130151237Y-105035948D01*
X130362424Y-105123640D01*
X130591093Y-105123840D01*
X130802433Y-105036516D01*
X130828494Y-105010500D01*
X131030042Y-105010500D01*
X131037697Y-105018168D01*
X131248884Y-105105860D01*
X131390161Y-105105984D01*
X131465424Y-105288133D01*
X131626977Y-105449968D01*
X131838164Y-105537660D01*
X132066833Y-105537860D01*
X132278173Y-105450536D01*
X132440008Y-105288983D01*
X132491122Y-105165886D01*
X132536884Y-105120124D01*
X132650473Y-104950126D01*
X132661133Y-104896536D01*
X132711557Y-104947048D01*
X132922744Y-105034740D01*
X133151413Y-105034940D01*
X133362753Y-104947616D01*
X133524588Y-104786063D01*
X133530242Y-104772448D01*
X133560120Y-104802378D01*
X133559960Y-104985353D01*
X133647284Y-105196693D01*
X133808837Y-105358528D01*
X134020024Y-105446220D01*
X134248693Y-105446420D01*
X134460033Y-105359096D01*
X134487156Y-105332020D01*
X134965440Y-105332020D01*
X135141666Y-105296967D01*
X135291063Y-105197143D01*
X135417739Y-105070467D01*
X135455193Y-105070500D01*
X135666533Y-104983176D01*
X135828368Y-104821623D01*
X135916060Y-104610436D01*
X135916260Y-104381767D01*
X135828936Y-104170427D01*
X135779779Y-104121184D01*
X135869733Y-104084016D01*
X136031568Y-103922463D01*
X136119260Y-103711276D01*
X136119460Y-103482607D01*
X136032136Y-103271267D01*
X135870583Y-103109432D01*
X135659396Y-103021740D01*
X135430727Y-103021540D01*
X135393034Y-103037115D01*
X135356496Y-102948687D01*
X135194943Y-102786852D01*
X134983756Y-102699160D01*
X134755087Y-102698960D01*
X134570427Y-102775260D01*
X133778689Y-102775260D01*
X133754763Y-102751292D01*
X133543576Y-102663600D01*
X133363469Y-102663442D01*
X133363469Y-102624323D01*
X133542573Y-102624480D01*
X133753913Y-102537156D01*
X133762647Y-102528437D01*
X133774314Y-102536233D01*
X133974840Y-102576120D01*
X134385604Y-102576120D01*
X134507704Y-102626820D01*
X134736373Y-102627020D01*
X134947713Y-102539696D01*
X135109548Y-102378143D01*
X135197240Y-102166956D01*
X135197440Y-101938287D01*
X135110116Y-101726947D01*
X134948563Y-101565112D01*
X134737376Y-101477420D01*
X134508707Y-101477220D01*
X134387080Y-101527475D01*
X134387080Y-101314861D01*
X134461848Y-101240223D01*
X134549540Y-101029036D01*
X134549740Y-100800367D01*
X134462416Y-100589027D01*
X134300863Y-100427192D01*
X134089676Y-100339500D01*
X134072139Y-100339485D01*
X134072220Y-100246647D01*
X133984896Y-100035307D01*
X133823343Y-99873472D01*
X133612156Y-99785780D01*
X133383487Y-99785580D01*
X133172147Y-99872904D01*
X133010312Y-100034457D01*
X132922620Y-100245644D01*
X132922420Y-100474313D01*
X132988560Y-100634384D01*
X132988560Y-101210628D01*
X132865327Y-101210520D01*
X132739653Y-101262448D01*
X132623133Y-101214064D01*
X132650473Y-101173147D01*
X132690360Y-100972620D01*
X132690360Y-99324160D01*
X132650473Y-99123634D01*
X132536884Y-98953636D01*
X132299881Y-98716633D01*
X135056020Y-98716633D01*
X135143344Y-98927973D01*
X135304897Y-99089808D01*
X135516084Y-99177500D01*
X135744753Y-99177700D01*
X135956093Y-99090376D01*
X135960316Y-99086160D01*
X141434183Y-99086160D01*
X141575164Y-99144700D01*
X141803833Y-99144900D01*
X142015173Y-99057576D01*
X142177008Y-98896023D01*
X142264700Y-98684836D01*
X142264900Y-98456167D01*
X142177576Y-98244827D01*
X142016023Y-98082992D01*
X141804836Y-97995300D01*
X141576167Y-97995100D01*
X141471954Y-98038160D01*
X135769983Y-98038160D01*
X135745756Y-98028100D01*
X135517087Y-98027900D01*
X135305747Y-98115224D01*
X135143912Y-98276777D01*
X135056220Y-98487964D01*
X135056020Y-98716633D01*
X132299881Y-98716633D01*
X132016083Y-98432835D01*
X131965596Y-98310647D01*
X131804043Y-98148812D01*
X131592856Y-98061120D01*
X131364187Y-98060920D01*
X131152847Y-98148244D01*
X130991012Y-98309797D01*
X130903320Y-98520984D01*
X130903120Y-98749653D01*
X130990444Y-98960993D01*
X131151997Y-99122828D01*
X131275094Y-99173942D01*
X131572075Y-99470923D01*
X131374827Y-99552424D01*
X131212992Y-99713977D01*
X131125300Y-99925164D01*
X131125266Y-99963488D01*
X130866225Y-100222529D01*
X130787607Y-100222460D01*
X130576267Y-100309784D01*
X130414432Y-100471337D01*
X130326740Y-100682524D01*
X130326540Y-100911193D01*
X130413864Y-101122533D01*
X130575417Y-101284368D01*
X130786604Y-101372060D01*
X131015273Y-101372260D01*
X131226613Y-101284936D01*
X131388448Y-101123383D01*
X131474074Y-100917172D01*
X131642360Y-100748886D01*
X131642360Y-100755572D01*
X131612956Y-100784976D01*
X131499367Y-100954974D01*
X131459480Y-101155500D01*
X131459480Y-103618250D01*
X131421894Y-103633780D01*
X130865230Y-103633780D01*
X130795663Y-103564092D01*
X130584476Y-103476400D01*
X130355807Y-103476200D01*
X130144467Y-103563524D01*
X129982632Y-103725077D01*
X129894940Y-103936264D01*
X129894740Y-104164933D01*
X127918905Y-104164933D01*
X127833016Y-103957067D01*
X127671463Y-103795232D01*
X127460276Y-103707540D01*
X127231607Y-103707340D01*
X127020267Y-103794664D01*
X126972788Y-103842060D01*
X126880045Y-103842060D01*
X126853583Y-103815552D01*
X126642396Y-103727860D01*
X126413727Y-103727660D01*
X126202387Y-103814984D01*
X126040552Y-103976537D01*
X125952860Y-104187724D01*
X125952660Y-104416393D01*
X118404640Y-104416393D01*
X118404640Y-102230925D01*
X118413951Y-102240236D01*
X118413940Y-102252313D01*
X118501264Y-102463653D01*
X118662817Y-102625488D01*
X118874004Y-102713180D01*
X119102673Y-102713380D01*
X119314013Y-102626056D01*
X119475848Y-102464503D01*
X119563540Y-102253316D01*
X119563740Y-102024647D01*
X119483073Y-101829418D01*
X119535286Y-101703673D01*
X120821860Y-101703673D01*
X120909184Y-101915013D01*
X120930619Y-101936486D01*
X120888100Y-102038884D01*
X120887900Y-102267553D01*
X120975224Y-102478893D01*
X121136777Y-102640728D01*
X121347964Y-102728420D01*
X121576633Y-102728620D01*
X121787973Y-102641296D01*
X121815096Y-102614220D01*
X122466666Y-102614220D01*
X122488057Y-102635648D01*
X122699244Y-102723340D01*
X122927913Y-102723540D01*
X123139253Y-102636216D01*
X123301088Y-102474663D01*
X123388780Y-102263476D01*
X123388823Y-102213833D01*
X125825100Y-102213833D01*
X125912424Y-102425173D01*
X126073977Y-102587008D01*
X126285164Y-102674700D01*
X126513833Y-102674900D01*
X126725173Y-102587576D01*
X126752296Y-102560500D01*
X128872360Y-102560500D01*
X128972753Y-102540531D01*
X129120433Y-102540660D01*
X129331773Y-102453336D01*
X129493608Y-102291783D01*
X129581300Y-102080596D01*
X129581500Y-101851927D01*
X129494176Y-101640587D01*
X129332623Y-101478752D01*
X129121436Y-101391060D01*
X129073432Y-101391018D01*
X129073500Y-101313447D01*
X128986176Y-101102107D01*
X128824623Y-100940272D01*
X128613436Y-100852580D01*
X128384767Y-100852380D01*
X128173427Y-100939704D01*
X128011592Y-101101257D01*
X127999931Y-101129340D01*
X127540445Y-101129340D01*
X127513983Y-101102832D01*
X127302796Y-101015140D01*
X127074127Y-101014940D01*
X126862787Y-101102264D01*
X126700952Y-101263817D01*
X126613260Y-101475004D01*
X126613180Y-101566136D01*
X126514836Y-101525300D01*
X126286167Y-101525100D01*
X126074827Y-101612424D01*
X125912992Y-101773977D01*
X125825300Y-101985164D01*
X125825100Y-102213833D01*
X123388823Y-102213833D01*
X123388980Y-102034807D01*
X123311233Y-101846644D01*
X123378620Y-101684356D01*
X123378820Y-101455687D01*
X123291496Y-101244347D01*
X123129943Y-101082512D01*
X122918756Y-100994820D01*
X122690087Y-100994620D01*
X122478747Y-101081944D01*
X122451624Y-101109020D01*
X121728960Y-101109020D01*
X121722783Y-101102832D01*
X121511596Y-101015140D01*
X121282927Y-101014940D01*
X121071587Y-101102264D01*
X120909752Y-101263817D01*
X120822060Y-101475004D01*
X120821860Y-101703673D01*
X119535286Y-101703673D01*
X119568620Y-101623396D01*
X119568820Y-101394727D01*
X119481496Y-101183387D01*
X119454420Y-101156264D01*
X119454420Y-101102160D01*
X119419367Y-100925934D01*
X119319543Y-100776537D01*
X118404640Y-99861634D01*
X118404640Y-98367353D01*
X118504895Y-98325928D01*
X118627616Y-98376886D01*
X118856285Y-98377086D01*
X119067625Y-98289762D01*
X119229460Y-98128209D01*
X119317152Y-97917022D01*
X119317352Y-97688353D01*
X119230028Y-97477013D01*
X119101360Y-97348120D01*
X119101360Y-96293433D01*
X119173844Y-96263483D01*
X119335679Y-96101930D01*
X119423371Y-95890743D01*
X119423407Y-95849440D01*
X119938362Y-95849440D01*
X120148131Y-96059209D01*
M02*
