%FSLAX45Y45*%
G04 Gerber Fmt 4.5, Leading zero omitted, Abs format (unit mm)*
G04 Created by KiCad (PCBNEW 4.0.5) date Fri Apr 14 16:53:30 2017*
%MOMM*%
%LPD*%
G01*
G04 APERTURE LIST*
%ADD10C,0.127000*%
%ADD11C,0.200000*%
%ADD12C,0.300000*%
G04 APERTURE END LIST*
D10*
D11*
X11060938Y-9376410D02*
X11086338Y-9401810D01*
X11086338Y-9376410D02*
X11060938Y-9401810D01*
X11063224Y-10536428D02*
X11088624Y-10561828D01*
X11088624Y-10536428D02*
X11063224Y-10561828D01*
X11082020Y-9039098D02*
X11107420Y-9064498D01*
X11107420Y-9039098D02*
X11082020Y-9064498D01*
X11090656Y-10812018D02*
X11116056Y-10837418D01*
X11116056Y-10812018D02*
X11090656Y-10837418D01*
X11103356Y-8745220D02*
X11128756Y-8770620D01*
X11128756Y-8745220D02*
X11103356Y-8770620D01*
X11137900Y-10147300D02*
X11163300Y-10172700D01*
X11163300Y-10147300D02*
X11137900Y-10172700D01*
X11137900Y-10198100D02*
X11163300Y-10223500D01*
X11163300Y-10198100D02*
X11137900Y-10223500D01*
X11137900Y-10248900D02*
X11163300Y-10274300D01*
X11163300Y-10248900D02*
X11137900Y-10274300D01*
X11168380Y-9011920D02*
X11193780Y-9037320D01*
X11193780Y-9011920D02*
X11168380Y-9037320D01*
X11205972Y-10876280D02*
X11231372Y-10901680D01*
X11231372Y-10876280D02*
X11205972Y-10901680D01*
X11212830Y-8952738D02*
X11238230Y-8978138D01*
X11238230Y-8952738D02*
X11212830Y-8978138D01*
X11214100Y-10147300D02*
X11239500Y-10172700D01*
X11239500Y-10147300D02*
X11214100Y-10172700D01*
X11214100Y-10198100D02*
X11239500Y-10223500D01*
X11239500Y-10198100D02*
X11214100Y-10223500D01*
X11214100Y-10248900D02*
X11239500Y-10274300D01*
X11239500Y-10248900D02*
X11214100Y-10274300D01*
X11290300Y-10147300D02*
X11315700Y-10172700D01*
X11315700Y-10147300D02*
X11290300Y-10172700D01*
X11290300Y-10198100D02*
X11315700Y-10223500D01*
X11315700Y-10198100D02*
X11290300Y-10223500D01*
X11290300Y-10248900D02*
X11315700Y-10274300D01*
X11315700Y-10248900D02*
X11290300Y-10274300D01*
X11322304Y-9381744D02*
X11347704Y-9407144D01*
X11347704Y-9381744D02*
X11322304Y-9407144D01*
X11331956Y-10872216D02*
X11357356Y-10897616D01*
X11357356Y-10872216D02*
X11331956Y-10897616D01*
X11352022Y-11487404D02*
X11377422Y-11512804D01*
X11377422Y-11487404D02*
X11352022Y-11512804D01*
X11366500Y-10147300D02*
X11391900Y-10172700D01*
X11391900Y-10147300D02*
X11366500Y-10172700D01*
X11366500Y-10198100D02*
X11391900Y-10223500D01*
X11391900Y-10198100D02*
X11366500Y-10223500D01*
X11366500Y-10248900D02*
X11391900Y-10274300D01*
X11391900Y-10248900D02*
X11366500Y-10274300D01*
X11390884Y-8685530D02*
X11416284Y-8710930D01*
X11416284Y-8685530D02*
X11390884Y-8710930D01*
X11442700Y-10147300D02*
X11468100Y-10172700D01*
X11468100Y-10147300D02*
X11442700Y-10172700D01*
X11442700Y-10198100D02*
X11468100Y-10223500D01*
X11468100Y-10198100D02*
X11442700Y-10223500D01*
X11442700Y-10248900D02*
X11468100Y-10274300D01*
X11468100Y-10248900D02*
X11442700Y-10274300D01*
X11501882Y-11488166D02*
X11527282Y-11513566D01*
X11527282Y-11488166D02*
X11501882Y-11513566D01*
X11518900Y-10147300D02*
X11544300Y-10172700D01*
X11544300Y-10147300D02*
X11518900Y-10172700D01*
X11518900Y-10198100D02*
X11544300Y-10223500D01*
X11544300Y-10198100D02*
X11518900Y-10223500D01*
X11518900Y-10248900D02*
X11544300Y-10274300D01*
X11544300Y-10248900D02*
X11518900Y-10274300D01*
X11531346Y-11229594D02*
X11556746Y-11254994D01*
X11556746Y-11229594D02*
X11531346Y-11254994D01*
X11533124Y-10623296D02*
X11558524Y-10648696D01*
X11558524Y-10623296D02*
X11533124Y-10648696D01*
X11534140Y-10574020D02*
X11559540Y-10599420D01*
X11559540Y-10574020D02*
X11534140Y-10599420D01*
X11595100Y-10147300D02*
X11620500Y-10172700D01*
X11620500Y-10147300D02*
X11595100Y-10172700D01*
X11595100Y-10198100D02*
X11620500Y-10223500D01*
X11620500Y-10198100D02*
X11595100Y-10223500D01*
X11595100Y-10248900D02*
X11620500Y-10274300D01*
X11620500Y-10248900D02*
X11595100Y-10274300D01*
X11622532Y-9517380D02*
X11647932Y-9542780D01*
X11647932Y-9517380D02*
X11622532Y-9542780D01*
X11666728Y-9973564D02*
X11692128Y-9998964D01*
X11692128Y-9973564D02*
X11666728Y-9998964D01*
X11716766Y-9448038D02*
X11742166Y-9473438D01*
X11742166Y-9448038D02*
X11716766Y-9473438D01*
X11717303Y-9653616D02*
X11742703Y-9679016D01*
X11742703Y-9653616D02*
X11717303Y-9679016D01*
X11722862Y-11487404D02*
X11748262Y-11512804D01*
X11748262Y-11487404D02*
X11722862Y-11512804D01*
X11762486Y-10716260D02*
X11787886Y-10741660D01*
X11787886Y-10716260D02*
X11762486Y-10741660D01*
X11762486Y-10786364D02*
X11787886Y-10811764D01*
X11787886Y-10786364D02*
X11762486Y-10811764D01*
X11762994Y-10834624D02*
X11788394Y-10860024D01*
X11788394Y-10834624D02*
X11762994Y-10860024D01*
X11763248Y-10665968D02*
X11788648Y-10691368D01*
X11788648Y-10665968D02*
X11763248Y-10691368D01*
X11763877Y-9104673D02*
X11789277Y-9130073D01*
X11789277Y-9104673D02*
X11763877Y-9130073D01*
X11765563Y-9653524D02*
X11790963Y-9678924D01*
X11790963Y-9653524D02*
X11765563Y-9678924D01*
X11766804Y-9449054D02*
X11792204Y-9474454D01*
X11792204Y-9449054D02*
X11766804Y-9474454D01*
X11798300Y-9070848D02*
X11823700Y-9096248D01*
X11823700Y-9070848D02*
X11798300Y-9096248D01*
X11813286Y-9767824D02*
X11838686Y-9793224D01*
X11838686Y-9767824D02*
X11813286Y-9793224D01*
X11823950Y-9562850D02*
X11849350Y-9588250D01*
X11849350Y-9562850D02*
X11823950Y-9588250D01*
X11847068Y-11486896D02*
X11872468Y-11512296D01*
X11872468Y-11486896D02*
X11847068Y-11512296D01*
X11861545Y-9767519D02*
X11886945Y-9792919D01*
X11886945Y-9767519D02*
X11861545Y-9792919D01*
X11868404Y-10666730D02*
X11893804Y-10692130D01*
X11893804Y-10666730D02*
X11868404Y-10692130D01*
X11869928Y-10717784D02*
X11895328Y-10743184D01*
X11895328Y-10717784D02*
X11869928Y-10743184D01*
X11871960Y-10786364D02*
X11897360Y-10811764D01*
X11897360Y-10786364D02*
X11871960Y-10811764D01*
X11872167Y-9564891D02*
X11897567Y-9590291D01*
X11897567Y-9564891D02*
X11872167Y-9590291D01*
X11872468Y-10834624D02*
X11897868Y-10860024D01*
X11897868Y-10834624D02*
X11872468Y-10860024D01*
X11874500Y-11803888D02*
X11899900Y-11829288D01*
X11899900Y-11803888D02*
X11874500Y-11829288D01*
X11874500Y-11881612D02*
X11899900Y-11907012D01*
X11899900Y-11881612D02*
X11874500Y-11907012D01*
X11880088Y-10570972D02*
X11905488Y-10596372D01*
X11905488Y-10570972D02*
X11880088Y-10596372D01*
X11881137Y-10619221D02*
X11906537Y-10644621D01*
X11906537Y-10619221D02*
X11881137Y-10644621D01*
X11886184Y-10201148D02*
X11911584Y-10226548D01*
X11911584Y-10201148D02*
X11886184Y-10226548D01*
X11886692Y-10138156D02*
X11912092Y-10163556D01*
X11912092Y-10138156D02*
X11886692Y-10163556D01*
X11916156Y-9195308D02*
X11941556Y-9220708D01*
X11941556Y-9195308D02*
X11916156Y-9220708D01*
X11916918Y-9270238D02*
X11942318Y-9295638D01*
X11942318Y-9270238D02*
X11916918Y-9295638D01*
X11917172Y-9064244D02*
X11942572Y-9089644D01*
X11942572Y-9064244D02*
X11917172Y-9089644D01*
X11932920Y-11846560D02*
X11958320Y-11871960D01*
X11958320Y-11846560D02*
X11932920Y-11871960D01*
X11937492Y-11693906D02*
X11962892Y-11719306D01*
X11962892Y-11693906D02*
X11937492Y-11719306D01*
X11978386Y-8950706D02*
X12003786Y-8976106D01*
X12003786Y-8950706D02*
X11978386Y-8976106D01*
X11990324Y-11804396D02*
X12015724Y-11829796D01*
X12015724Y-11804396D02*
X11990324Y-11829796D01*
X11990324Y-11881612D02*
X12015724Y-11907012D01*
X12015724Y-11881612D02*
X11990324Y-11907012D01*
X12007300Y-9148300D02*
X12032700Y-9173700D01*
X12032700Y-9148300D02*
X12007300Y-9173700D01*
X12007596Y-11486896D02*
X12032996Y-11512296D01*
X12032996Y-11486896D02*
X12007596Y-11512296D01*
X12100560Y-8950198D02*
X12125960Y-8975598D01*
X12125960Y-8950198D02*
X12100560Y-8975598D01*
X12123928Y-8637016D02*
X12149328Y-8662416D01*
X12149328Y-8637016D02*
X12123928Y-8662416D01*
X12124436Y-8553704D02*
X12149836Y-8579104D01*
X12149836Y-8553704D02*
X12124436Y-8579104D01*
X12126976Y-10146284D02*
X12152376Y-10171684D01*
X12152376Y-10146284D02*
X12126976Y-10171684D01*
X12133326Y-11487404D02*
X12158726Y-11512804D01*
X12158726Y-11487404D02*
X12133326Y-11512804D01*
X12133580Y-10202672D02*
X12158980Y-10228072D01*
X12158980Y-10202672D02*
X12133580Y-10228072D01*
X12175490Y-8726170D02*
X12200890Y-8751570D01*
X12200890Y-8726170D02*
X12175490Y-8751570D01*
X12179300Y-8595360D02*
X12204700Y-8620760D01*
X12204700Y-8595360D02*
X12179300Y-8620760D01*
X12237212Y-8553704D02*
X12262612Y-8579104D01*
X12262612Y-8553704D02*
X12237212Y-8579104D01*
X12237212Y-8636508D02*
X12262612Y-8661908D01*
X12262612Y-8636508D02*
X12237212Y-8661908D01*
X12242038Y-11191240D02*
X12267438Y-11216640D01*
X12267438Y-11191240D02*
X12242038Y-11216640D01*
X12242292Y-11295380D02*
X12267692Y-11320780D01*
X12267692Y-11295380D02*
X12242292Y-11320780D01*
X12267692Y-10144252D02*
X12293092Y-10169652D01*
X12293092Y-10144252D02*
X12267692Y-10169652D01*
X12268708Y-10202164D02*
X12294108Y-10227564D01*
X12294108Y-10202164D02*
X12268708Y-10227564D01*
X12269724Y-8949944D02*
X12295124Y-8975344D01*
X12295124Y-8949944D02*
X12269724Y-8975344D01*
X12275396Y-10949094D02*
X12300796Y-10974494D01*
X12300796Y-10949094D02*
X12275396Y-10974494D01*
X12278360Y-11058652D02*
X12303760Y-11084052D01*
X12303760Y-11058652D02*
X12278360Y-11084052D01*
X12294108Y-11191748D02*
X12319508Y-11217148D01*
X12319508Y-11191748D02*
X12294108Y-11217148D01*
X12294616Y-11295380D02*
X12320016Y-11320780D01*
X12320016Y-11295380D02*
X12294616Y-11320780D01*
X12341860Y-11324336D02*
X12367260Y-11349736D01*
X12367260Y-11324336D02*
X12341860Y-11349736D01*
X12373356Y-11362944D02*
X12398756Y-11388344D01*
X12398756Y-11362944D02*
X12373356Y-11388344D01*
X12394184Y-8949690D02*
X12419584Y-8975090D01*
X12419584Y-8949690D02*
X12394184Y-8975090D01*
X12409932Y-11150600D02*
X12435332Y-11176000D01*
X12435332Y-11150600D02*
X12409932Y-11176000D01*
X12412218Y-11245342D02*
X12437618Y-11270742D01*
X12437618Y-11245342D02*
X12412218Y-11270742D01*
X12412538Y-10988015D02*
X12437938Y-11013415D01*
X12437938Y-10988015D02*
X12412538Y-11013415D01*
X12450300Y-10954300D02*
X12475700Y-10979700D01*
X12475700Y-10954300D02*
X12450300Y-10979700D01*
X12457430Y-11280648D02*
X12482830Y-11306048D01*
X12482830Y-11280648D02*
X12457430Y-11306048D01*
X12459300Y-11150300D02*
X12484700Y-11175700D01*
X12484700Y-11150300D02*
X12459300Y-11175700D01*
X12540742Y-9235694D02*
X12566142Y-9261094D01*
X12566142Y-9235694D02*
X12540742Y-9261094D01*
X12627300Y-10197300D02*
X12652700Y-10222700D01*
X12652700Y-10197300D02*
X12627300Y-10222700D01*
X12631166Y-8948674D02*
X12656566Y-8974074D01*
X12656566Y-8948674D02*
X12631166Y-8974074D01*
X12640056Y-10417556D02*
X12665456Y-10442956D01*
X12665456Y-10417556D02*
X12640056Y-10442956D01*
X12640564Y-10470388D02*
X12665964Y-10495788D01*
X12665964Y-10470388D02*
X12640564Y-10495788D01*
X12706096Y-10146284D02*
X12731496Y-10171684D01*
X12731496Y-10146284D02*
X12706096Y-10171684D01*
X12721844Y-10415524D02*
X12747244Y-10440924D01*
X12747244Y-10415524D02*
X12721844Y-10440924D01*
X12722606Y-11741404D02*
X12748006Y-11766804D01*
X12748006Y-11741404D02*
X12722606Y-11766804D01*
X12723368Y-10470388D02*
X12748768Y-10495788D01*
X12748768Y-10470388D02*
X12723368Y-10495788D01*
X12724892Y-9725660D02*
X12750292Y-9751060D01*
X12750292Y-9725660D02*
X12724892Y-9751060D01*
X12739116Y-10744708D02*
X12764516Y-10770108D01*
X12764516Y-10744708D02*
X12739116Y-10770108D01*
X12739624Y-10631424D02*
X12765024Y-10656824D01*
X12765024Y-10631424D02*
X12739624Y-10656824D01*
X12752832Y-10934192D02*
X12778232Y-10959592D01*
X12778232Y-10934192D02*
X12752832Y-10959592D01*
X12767564Y-8949436D02*
X12792964Y-8974836D01*
X12792964Y-8949436D02*
X12767564Y-8974836D01*
X12789154Y-11200892D02*
X12814554Y-11226292D01*
X12814554Y-11200892D02*
X12789154Y-11226292D01*
X12818364Y-9437624D02*
X12843764Y-9463024D01*
X12843764Y-9437624D02*
X12818364Y-9463024D01*
X12837160Y-10130028D02*
X12862560Y-10155428D01*
X12862560Y-10130028D02*
X12837160Y-10155428D01*
X12887960Y-10183876D02*
X12913360Y-10209276D01*
X12913360Y-10183876D02*
X12887960Y-10209276D01*
X12917932Y-11489182D02*
X12943332Y-11514582D01*
X12943332Y-11489182D02*
X12917932Y-11514582D01*
X12955016Y-11136884D02*
X12980416Y-11162284D01*
X12980416Y-11136884D02*
X12955016Y-11162284D01*
X12962890Y-9426194D02*
X12988290Y-9451594D01*
X12988290Y-9426194D02*
X12962890Y-9451594D01*
X13034264Y-10392410D02*
X13059664Y-10417810D01*
X13059664Y-10392410D02*
X13034264Y-10417810D01*
X13035026Y-10442194D02*
X13060426Y-10467594D01*
X13060426Y-10442194D02*
X13035026Y-10467594D01*
X13061188Y-9235186D02*
X13086588Y-9260586D01*
X13086588Y-9235186D02*
X13061188Y-9260586D01*
X13077444Y-10067036D02*
X13102844Y-10092436D01*
X13102844Y-10067036D02*
X13077444Y-10092436D01*
X13123672Y-10440416D02*
X13149072Y-10465816D01*
X13149072Y-10440416D02*
X13123672Y-10465816D01*
X13125958Y-8946388D02*
X13151358Y-8971788D01*
X13151358Y-8946388D02*
X13125958Y-8971788D01*
X13135102Y-9850882D02*
X13160502Y-9876282D01*
X13160502Y-9850882D02*
X13135102Y-9876282D01*
X13157300Y-9991300D02*
X13182700Y-10016700D01*
X13182700Y-9991300D02*
X13157300Y-10016700D01*
X13158724Y-10400792D02*
X13184124Y-10426192D01*
X13184124Y-10400792D02*
X13158724Y-10426192D01*
X13182600Y-10483596D02*
X13208000Y-10508996D01*
X13208000Y-10483596D02*
X13182600Y-10508996D01*
X13218668Y-10671556D02*
X13244068Y-10696956D01*
X13244068Y-10671556D02*
X13218668Y-10696956D01*
X13233654Y-10164318D02*
X13259054Y-10189718D01*
X13259054Y-10164318D02*
X13233654Y-10189718D01*
X13235940Y-10957560D02*
X13261340Y-10982960D01*
X13261340Y-10957560D02*
X13235940Y-10982960D01*
X13252704Y-10392918D02*
X13278104Y-10418318D01*
X13278104Y-10392918D02*
X13252704Y-10418318D01*
X13277596Y-10671556D02*
X13302996Y-10696956D01*
X13302996Y-10671556D02*
X13277596Y-10696956D01*
X13285216Y-10165842D02*
X13310616Y-10191242D01*
X13310616Y-10165842D02*
X13285216Y-10191242D01*
X13291058Y-10433304D02*
X13316458Y-10458704D01*
X13316458Y-10433304D02*
X13291058Y-10458704D01*
X13330174Y-10192258D02*
X13355574Y-10217658D01*
X13355574Y-10192258D02*
X13330174Y-10217658D01*
X13330174Y-10311130D02*
X13355574Y-10336530D01*
X13355574Y-10311130D02*
X13330174Y-10336530D01*
X13333476Y-10369550D02*
X13358876Y-10394950D01*
X13358876Y-10369550D02*
X13333476Y-10394950D01*
X13337032Y-10023348D02*
X13362432Y-10048748D01*
X13362432Y-10023348D02*
X13337032Y-10048748D01*
X13344144Y-9324340D02*
X13369544Y-9349740D01*
X13369544Y-9324340D02*
X13344144Y-9349740D01*
X13357352Y-10959084D02*
X13382752Y-10984484D01*
X13382752Y-10959084D02*
X13357352Y-10984484D01*
X13381228Y-10424160D02*
X13406628Y-10449560D01*
X13406628Y-10424160D02*
X13381228Y-10449560D01*
X13384784Y-10078720D02*
X13410184Y-10104120D01*
X13410184Y-10078720D02*
X13384784Y-10104120D01*
X13384784Y-11488166D02*
X13410184Y-11513566D01*
X13410184Y-11488166D02*
X13384784Y-11513566D01*
X13400786Y-10474452D02*
X13426186Y-10499852D01*
X13426186Y-10474452D02*
X13400786Y-10499852D01*
X13401040Y-10671048D02*
X13426440Y-10696448D01*
X13426440Y-10671048D02*
X13401040Y-10696448D01*
X13413740Y-8687308D02*
X13439140Y-8712708D01*
X13439140Y-8687308D02*
X13413740Y-8712708D01*
X13429234Y-10942320D02*
X13454634Y-10967720D01*
X13454634Y-10942320D02*
X13429234Y-10967720D01*
X13435838Y-11067034D02*
X13461238Y-11092434D01*
X13461238Y-11067034D02*
X13435838Y-11092434D01*
X13449554Y-10192512D02*
X13474954Y-10217912D01*
X13474954Y-10192512D02*
X13449554Y-10217912D01*
X13474192Y-10314686D02*
X13499592Y-10340086D01*
X13499592Y-10314686D02*
X13474192Y-10340086D01*
X13486384Y-10397490D02*
X13511784Y-10422890D01*
X13511784Y-10397490D02*
X13486384Y-10422890D01*
X13506196Y-10940288D02*
X13531596Y-10965688D01*
X13531596Y-10940288D02*
X13506196Y-10965688D01*
X13511530Y-11067542D02*
X13536930Y-11092942D01*
X13536930Y-11067542D02*
X13511530Y-11092942D01*
X13515594Y-11488674D02*
X13540994Y-11514074D01*
X13540994Y-11488674D02*
X13515594Y-11514074D01*
X13521436Y-10436860D02*
X13546836Y-10462260D01*
X13546836Y-10436860D02*
X13521436Y-10462260D01*
X13535660Y-9530080D02*
X13561060Y-9555480D01*
X13561060Y-9530080D02*
X13535660Y-9555480D01*
X13538200Y-9584690D02*
X13563600Y-9610090D01*
X13563600Y-9584690D02*
X13538200Y-9610090D01*
X13539724Y-9636760D02*
X13565124Y-9662160D01*
X13565124Y-9636760D02*
X13539724Y-9662160D01*
X13541756Y-10346944D02*
X13567156Y-10372344D01*
X13567156Y-10346944D02*
X13541756Y-10372344D01*
X13547090Y-11229340D02*
X13572490Y-11254740D01*
X13572490Y-11229340D02*
X13547090Y-11254740D01*
X13550392Y-9847580D02*
X13575792Y-9872980D01*
X13575792Y-9847580D02*
X13550392Y-9872980D01*
X13598652Y-10939780D02*
X13624052Y-10965180D01*
X13624052Y-10939780D02*
X13598652Y-10965180D01*
X13633196Y-10633964D02*
X13658596Y-10659364D01*
X13658596Y-10633964D02*
X13633196Y-10659364D01*
X13714984Y-9083802D02*
X13740384Y-9109202D01*
X13740384Y-9083802D02*
X13714984Y-9109202D01*
X13728300Y-9273300D02*
X13753700Y-9298700D01*
X13753700Y-9273300D02*
X13728300Y-9298700D01*
X13733272Y-8924544D02*
X13758672Y-8949944D01*
X13758672Y-8924544D02*
X13733272Y-8949944D01*
X13742416Y-8781288D02*
X13767816Y-8806688D01*
X13767816Y-8781288D02*
X13742416Y-8806688D01*
X13751560Y-11488674D02*
X13776960Y-11514074D01*
X13776960Y-11488674D02*
X13751560Y-11514074D01*
X13767308Y-9082786D02*
X13792708Y-9108186D01*
X13792708Y-9082786D02*
X13767308Y-9108186D01*
X13769594Y-9190228D02*
X13794994Y-9215628D01*
X13794994Y-9190228D02*
X13769594Y-9215628D01*
X13772896Y-8962644D02*
X13798296Y-8988044D01*
X13798296Y-8962644D02*
X13772896Y-8988044D01*
X13785088Y-8808212D02*
X13810488Y-8833612D01*
X13810488Y-8808212D02*
X13785088Y-8833612D01*
X13813300Y-9003300D02*
X13838700Y-9028700D01*
X13838700Y-9003300D02*
X13813300Y-9028700D01*
X13816076Y-8850376D02*
X13841476Y-8875776D01*
X13841476Y-8850376D02*
X13816076Y-8875776D01*
X13819124Y-9084056D02*
X13844524Y-9109456D01*
X13844524Y-9084056D02*
X13819124Y-9109456D01*
X13820648Y-11047222D02*
X13846048Y-11072622D01*
X13846048Y-11047222D02*
X13820648Y-11072622D01*
X13856208Y-9043416D02*
X13881608Y-9068816D01*
X13881608Y-9043416D02*
X13856208Y-9068816D01*
X13856300Y-9159300D02*
X13881700Y-9184700D01*
X13881700Y-9159300D02*
X13856300Y-9184700D01*
X13856970Y-8892032D02*
X13882370Y-8917432D01*
X13882370Y-8892032D02*
X13856970Y-8917432D01*
X13876782Y-11488674D02*
X13902182Y-11514074D01*
X13902182Y-11488674D02*
X13876782Y-11514074D01*
X13899388Y-11887200D02*
X13924788Y-11912600D01*
X13924788Y-11887200D02*
X13899388Y-11912600D01*
X13900912Y-11805412D02*
X13926312Y-11830812D01*
X13926312Y-11805412D02*
X13900912Y-11830812D01*
X13957808Y-11848084D02*
X13983208Y-11873484D01*
X13983208Y-11848084D02*
X13957808Y-11873484D01*
X13975334Y-11696192D02*
X14000734Y-11721592D01*
X14000734Y-11696192D02*
X13975334Y-11721592D01*
X14001496Y-8951214D02*
X14026896Y-8976614D01*
X14026896Y-8951214D02*
X14001496Y-8976614D01*
X14013180Y-11804396D02*
X14038580Y-11829796D01*
X14038580Y-11804396D02*
X14013180Y-11829796D01*
X14014704Y-11887708D02*
X14040104Y-11913108D01*
X14040104Y-11887708D02*
X14014704Y-11913108D01*
X14039088Y-11488166D02*
X14064488Y-11513566D01*
X14064488Y-11488166D02*
X14039088Y-11513566D01*
X14124432Y-8951214D02*
X14149832Y-8976614D01*
X14149832Y-8951214D02*
X14124432Y-8976614D01*
X14145260Y-8553704D02*
X14170660Y-8579104D01*
X14170660Y-8553704D02*
X14145260Y-8579104D01*
X14146276Y-8637016D02*
X14171676Y-8662416D01*
X14171676Y-8637016D02*
X14146276Y-8662416D01*
X14156300Y-9844300D02*
X14181700Y-9869700D01*
X14181700Y-9844300D02*
X14156300Y-9869700D01*
X14165834Y-11488166D02*
X14191234Y-11513566D01*
X14191234Y-11488166D02*
X14165834Y-11513566D01*
X14199870Y-8711692D02*
X14225270Y-8737092D01*
X14225270Y-8711692D02*
X14199870Y-8737092D01*
X14202664Y-8595360D02*
X14228064Y-8620760D01*
X14228064Y-8595360D02*
X14202664Y-8620760D01*
X14259052Y-8553196D02*
X14284452Y-8578596D01*
X14284452Y-8553196D02*
X14259052Y-8578596D01*
X14259560Y-8635492D02*
X14284960Y-8660892D01*
X14284960Y-8635492D02*
X14259560Y-8660892D01*
X14298676Y-8951214D02*
X14324076Y-8976614D01*
X14324076Y-8951214D02*
X14298676Y-8976614D01*
X14420088Y-9654540D02*
X14445488Y-9679940D01*
X14445488Y-9654540D02*
X14420088Y-9679940D01*
X14420596Y-9541510D02*
X14445996Y-9566910D01*
X14445996Y-9541510D02*
X14420596Y-9566910D01*
X14422374Y-8951722D02*
X14447774Y-8977122D01*
X14447774Y-8951722D02*
X14422374Y-8977122D01*
X14424300Y-10557300D02*
X14449700Y-10582700D01*
X14449700Y-10557300D02*
X14424300Y-10582700D01*
X14427300Y-10210300D02*
X14452700Y-10235700D01*
X14452700Y-10210300D02*
X14427300Y-10235700D01*
X14527784Y-10643108D02*
X14553184Y-10668508D01*
X14553184Y-10643108D02*
X14527784Y-10668508D01*
X14533880Y-11050016D02*
X14559280Y-11075416D01*
X14559280Y-11050016D02*
X14533880Y-11075416D01*
X14560804Y-9241536D02*
X14586204Y-9266936D01*
X14586204Y-9241536D02*
X14560804Y-9266936D01*
X14568932Y-11227562D02*
X14594332Y-11252962D01*
X14594332Y-11227562D02*
X14568932Y-11252962D01*
X14572234Y-11170920D02*
X14597634Y-11196320D01*
X14597634Y-11170920D02*
X14572234Y-11196320D01*
X14617700Y-10147300D02*
X14643100Y-10172700D01*
X14643100Y-10147300D02*
X14617700Y-10172700D01*
X14617700Y-10198100D02*
X14643100Y-10223500D01*
X14643100Y-10198100D02*
X14617700Y-10223500D01*
X14617700Y-10248900D02*
X14643100Y-10274300D01*
X14643100Y-10248900D02*
X14617700Y-10274300D01*
X14621764Y-8951468D02*
X14647164Y-8976868D01*
X14647164Y-8951468D02*
X14621764Y-8976868D01*
X14693900Y-10147300D02*
X14719300Y-10172700D01*
X14719300Y-10147300D02*
X14693900Y-10172700D01*
X14693900Y-10198100D02*
X14719300Y-10223500D01*
X14719300Y-10198100D02*
X14693900Y-10223500D01*
X14693900Y-10248900D02*
X14719300Y-10274300D01*
X14719300Y-10248900D02*
X14693900Y-10274300D01*
X14723364Y-11480038D02*
X14748764Y-11505438D01*
X14748764Y-11480038D02*
X14723364Y-11505438D01*
X14725396Y-11425936D02*
X14750796Y-11451336D01*
X14750796Y-11425936D02*
X14725396Y-11451336D01*
X14746732Y-11735308D02*
X14772132Y-11760708D01*
X14772132Y-11735308D02*
X14746732Y-11760708D01*
X14754352Y-9491472D02*
X14779752Y-9516872D01*
X14779752Y-9491472D02*
X14754352Y-9516872D01*
X14754860Y-8951722D02*
X14780260Y-8977122D01*
X14780260Y-8951722D02*
X14754860Y-8977122D01*
X14770100Y-10147300D02*
X14795500Y-10172700D01*
X14795500Y-10147300D02*
X14770100Y-10172700D01*
X14770100Y-10198100D02*
X14795500Y-10223500D01*
X14795500Y-10198100D02*
X14770100Y-10223500D01*
X14770100Y-10248900D02*
X14795500Y-10274300D01*
X14795500Y-10248900D02*
X14770100Y-10274300D01*
X14814804Y-11107420D02*
X14840204Y-11132820D01*
X14840204Y-11107420D02*
X14814804Y-11132820D01*
X14846300Y-10147300D02*
X14871700Y-10172700D01*
X14871700Y-10147300D02*
X14846300Y-10172700D01*
X14846300Y-10198100D02*
X14871700Y-10223500D01*
X14871700Y-10198100D02*
X14846300Y-10223500D01*
X14846300Y-10248900D02*
X14871700Y-10274300D01*
X14871700Y-10248900D02*
X14846300Y-10274300D01*
X14882368Y-9470644D02*
X14907768Y-9496044D01*
X14907768Y-9470644D02*
X14882368Y-9496044D01*
X14892528Y-9528556D02*
X14917928Y-9553956D01*
X14917928Y-9528556D02*
X14892528Y-9553956D01*
X14907006Y-11408156D02*
X14932406Y-11433556D01*
X14932406Y-11408156D02*
X14907006Y-11433556D01*
X14922500Y-10147300D02*
X14947900Y-10172700D01*
X14947900Y-10147300D02*
X14922500Y-10172700D01*
X14922500Y-10198100D02*
X14947900Y-10223500D01*
X14947900Y-10198100D02*
X14922500Y-10223500D01*
X14922500Y-10248900D02*
X14947900Y-10274300D01*
X14947900Y-10248900D02*
X14922500Y-10274300D01*
X14941804Y-9560560D02*
X14967204Y-9585960D01*
X14967204Y-9560560D02*
X14941804Y-9585960D01*
X14954250Y-11516868D02*
X14979650Y-11542268D01*
X14979650Y-11516868D02*
X14954250Y-11542268D01*
X14998700Y-10147300D02*
X15024100Y-10172700D01*
X15024100Y-10147300D02*
X14998700Y-10172700D01*
X14998700Y-10198100D02*
X15024100Y-10223500D01*
X15024100Y-10198100D02*
X14998700Y-10223500D01*
X14998700Y-10248900D02*
X15024100Y-10274300D01*
X15024100Y-10248900D02*
X14998700Y-10274300D01*
X15015210Y-11586210D02*
X15040610Y-11611610D01*
X15040610Y-11586210D02*
X15015210Y-11611610D01*
X15027148Y-8988044D02*
X15052548Y-9013444D01*
X15052548Y-8988044D02*
X15027148Y-9013444D01*
X15043150Y-10943590D02*
X15068550Y-10968990D01*
X15068550Y-10943590D02*
X15043150Y-10968990D01*
X15048230Y-9236456D02*
X15073630Y-9261856D01*
X15073630Y-9236456D02*
X15048230Y-9261856D01*
X15074900Y-10147300D02*
X15100300Y-10172700D01*
X15100300Y-10147300D02*
X15074900Y-10172700D01*
X15074900Y-10198100D02*
X15100300Y-10223500D01*
X15100300Y-10198100D02*
X15074900Y-10223500D01*
X15074900Y-10248900D02*
X15100300Y-10274300D01*
X15100300Y-10248900D02*
X15074900Y-10274300D01*
X15083536Y-11420856D02*
X15108936Y-11446256D01*
X15108936Y-11420856D02*
X15083536Y-11446256D01*
X15085822Y-9495282D02*
X15111222Y-9520682D01*
X15111222Y-9495282D02*
X15085822Y-9520682D01*
X15108682Y-11148568D02*
X15134082Y-11173968D01*
X15134082Y-11148568D02*
X15108682Y-11173968D01*
X15468600Y-11028934D02*
X15494000Y-11054334D01*
X15494000Y-11028934D02*
X15468600Y-11054334D01*
X15587218Y-10681970D02*
X15612618Y-10707370D01*
X15612618Y-10681970D02*
X15587218Y-10707370D01*
X15589250Y-10311638D02*
X15614650Y-10337038D01*
X15614650Y-10311638D02*
X15589250Y-10337038D01*
X15601188Y-10539476D02*
X15626588Y-10564876D01*
X15626588Y-10539476D02*
X15601188Y-10564876D01*
X15635224Y-10375900D02*
X15660624Y-10401300D01*
X15660624Y-10375900D02*
X15635224Y-10401300D01*
X15636240Y-10047224D02*
X15661640Y-10072624D01*
X15661640Y-10047224D02*
X15636240Y-10072624D01*
X15641828Y-10682732D02*
X15667228Y-10708132D01*
X15667228Y-10682732D02*
X15641828Y-10708132D01*
X15667736Y-10550398D02*
X15693136Y-10575798D01*
X15693136Y-10550398D02*
X15667736Y-10575798D01*
X15683471Y-10377049D02*
X15708871Y-10402449D01*
X15708871Y-10377049D02*
X15683471Y-10402449D01*
X15690088Y-9910064D02*
X15715488Y-9935464D01*
X15715488Y-9910064D02*
X15690088Y-9935464D01*
X15690850Y-9702546D02*
X15716250Y-9727946D01*
X15716250Y-9702546D02*
X15690850Y-9727946D01*
X15693898Y-10044176D02*
X15719298Y-10069576D01*
X15719298Y-10044176D02*
X15693898Y-10069576D01*
X15741650Y-9701530D02*
X15767050Y-9726930D01*
X15767050Y-9701530D02*
X15741650Y-9726930D01*
X15744952Y-9911334D02*
X15770352Y-9936734D01*
X15770352Y-9911334D02*
X15744952Y-9936734D01*
X15753588Y-11129518D02*
X15778988Y-11154918D01*
X15778988Y-11129518D02*
X15753588Y-11154918D01*
X15905480Y-10469372D02*
X15930880Y-10494772D01*
X15930880Y-10469372D02*
X15905480Y-10494772D01*
X15910560Y-9946640D02*
X15935960Y-9972040D01*
X15935960Y-9946640D02*
X15910560Y-9972040D01*
X15931896Y-10423652D02*
X15957296Y-10449052D01*
X15957296Y-10423652D02*
X15931896Y-10449052D01*
X15932658Y-9991598D02*
X15958058Y-10016998D01*
X15958058Y-9991598D02*
X15932658Y-10016998D01*
X15945866Y-10170414D02*
X15971266Y-10195814D01*
X15971266Y-10170414D02*
X15945866Y-10195814D01*
X17515078Y-11023092D02*
X17540478Y-11048492D01*
X17540478Y-11023092D02*
X17515078Y-11048492D01*
X17633696Y-10676128D02*
X17659096Y-10701528D01*
X17659096Y-10676128D02*
X17633696Y-10701528D01*
X17635728Y-10305796D02*
X17661128Y-10331196D01*
X17661128Y-10305796D02*
X17635728Y-10331196D01*
X17647666Y-10533634D02*
X17673066Y-10559034D01*
X17673066Y-10533634D02*
X17647666Y-10559034D01*
X17681702Y-10370058D02*
X17707102Y-10395458D01*
X17707102Y-10370058D02*
X17681702Y-10395458D01*
X17682718Y-10041382D02*
X17708118Y-10066782D01*
X17708118Y-10041382D02*
X17682718Y-10066782D01*
X17688306Y-10676890D02*
X17713706Y-10702290D01*
X17713706Y-10676890D02*
X17688306Y-10702290D01*
X17714214Y-10544556D02*
X17739614Y-10569956D01*
X17739614Y-10544556D02*
X17714214Y-10569956D01*
X17729949Y-10371207D02*
X17755349Y-10396607D01*
X17755349Y-10371207D02*
X17729949Y-10396607D01*
X17736566Y-9904222D02*
X17761966Y-9929622D01*
X17761966Y-9904222D02*
X17736566Y-9929622D01*
X17737328Y-9696704D02*
X17762728Y-9722104D01*
X17762728Y-9696704D02*
X17737328Y-9722104D01*
X17740376Y-10038334D02*
X17765776Y-10063734D01*
X17765776Y-10038334D02*
X17740376Y-10063734D01*
X17788128Y-9695688D02*
X17813528Y-9721088D01*
X17813528Y-9695688D02*
X17788128Y-9721088D01*
X17791430Y-9905492D02*
X17816830Y-9930892D01*
X17816830Y-9905492D02*
X17791430Y-9930892D01*
X17800066Y-11123676D02*
X17825466Y-11149076D01*
X17825466Y-11123676D02*
X17800066Y-11149076D01*
X17951958Y-10463530D02*
X17977358Y-10488930D01*
X17977358Y-10463530D02*
X17951958Y-10488930D01*
X17957038Y-9940798D02*
X17982438Y-9966198D01*
X17982438Y-9940798D02*
X17957038Y-9966198D01*
X17978374Y-10417810D02*
X18003774Y-10443210D01*
X18003774Y-10417810D02*
X17978374Y-10443210D01*
X17979136Y-9985756D02*
X18004536Y-10011156D01*
X18004536Y-9985756D02*
X17979136Y-10011156D01*
X17992344Y-10164572D02*
X18017744Y-10189972D01*
X18017744Y-10164572D02*
X17992344Y-10189972D01*
X11593830Y-9311640D02*
G75*
G03X11593830Y-9311640I-20320J0D01*
G01*
X11757152Y-11073892D02*
G75*
G03X11757152Y-11073892I-20320J0D01*
G01*
X11964670Y-11346942D02*
G75*
G03X11964670Y-11346942I-20320J0D01*
G01*
X11965432Y-11189716D02*
G75*
G03X11965432Y-11189716I-20320J0D01*
G01*
X12103354Y-9430258D02*
G75*
G03X12103354Y-9430258I-20320J0D01*
G01*
X12152376Y-10841736D02*
G75*
G03X12152376Y-10841736I-20320J0D01*
G01*
X12154916Y-11181588D02*
G75*
G03X12154916Y-11181588I-20320J0D01*
G01*
X12214606Y-11394948D02*
G75*
G03X12214606Y-11394948I-20320J0D01*
G01*
X12265152Y-9781032D02*
G75*
G03X12265152Y-9781032I-20320J0D01*
G01*
X12457176Y-9550908D02*
G75*
G03X12457176Y-9550908I-20320J0D01*
G01*
X12571222Y-11563350D02*
G75*
G03X12571222Y-11563350I-20320J0D01*
G01*
X12731242Y-9162034D02*
G75*
G03X12731242Y-9162034I-20320J0D01*
G01*
X13489320Y-9210000D02*
G75*
G03X13489320Y-9210000I-20320J0D01*
G01*
X13669264Y-9728200D02*
G75*
G03X13669264Y-9728200I-20320J0D01*
G01*
X13833348Y-9328912D02*
G75*
G03X13833348Y-9328912I-20320J0D01*
G01*
X14130274Y-10822940D02*
G75*
G03X14130274Y-10822940I-20320J0D01*
G01*
X14138910Y-11393170D02*
G75*
G03X14138910Y-11393170I-20320J0D01*
G01*
X14181836Y-9314180D02*
G75*
G03X14181836Y-9314180I-20320J0D01*
G01*
X14202918Y-11122914D02*
G75*
G03X14202918Y-11122914I-20320J0D01*
G01*
X14339824Y-9750552D02*
G75*
G03X14339824Y-9750552I-20320J0D01*
G01*
X14420596Y-9412224D02*
G75*
G03X14420596Y-9412224I-20320J0D01*
G01*
X14690090Y-9174480D02*
G75*
G03X14690090Y-9174480I-20320J0D01*
G01*
X14755622Y-11307826D02*
G75*
G03X14755622Y-11307826I-20320J0D01*
G01*
X16000476Y-8618474D02*
X16000476Y-8745474D01*
X15936976Y-8681974D02*
X16063976Y-8681974D01*
X16004794Y-11278108D02*
X16004794Y-11405108D01*
X15941294Y-11341608D02*
X16068294Y-11341608D01*
X16177260Y-10451846D02*
X16177260Y-10578846D01*
X16113760Y-10515346D02*
X16240760Y-10515346D01*
X16183356Y-9498838D02*
X16183356Y-9625838D01*
X16119856Y-9562338D02*
X16246856Y-9562338D01*
X16203168Y-8618474D02*
X16203168Y-8745474D01*
X16139668Y-8681974D02*
X16266668Y-8681974D01*
X16208248Y-11278108D02*
X16208248Y-11405108D01*
X16144748Y-11341608D02*
X16271748Y-11341608D01*
X16386810Y-9498838D02*
X16386810Y-9625838D01*
X16323310Y-9562338D02*
X16450310Y-9562338D01*
X16386810Y-10451846D02*
X16386810Y-10578846D01*
X16323310Y-10515346D02*
X16450310Y-10515346D01*
X16457168Y-11278108D02*
X16457168Y-11405108D01*
X16393668Y-11341608D02*
X16520668Y-11341608D01*
X16457422Y-8618474D02*
X16457422Y-8745474D01*
X16393922Y-8681974D02*
X16520922Y-8681974D01*
X16660622Y-9498838D02*
X16660622Y-9625838D01*
X16597122Y-9562338D02*
X16724122Y-9562338D01*
X16660622Y-10451846D02*
X16660622Y-10578846D01*
X16597122Y-10515346D02*
X16724122Y-10515346D01*
X16660622Y-11278108D02*
X16660622Y-11405108D01*
X16597122Y-11341608D02*
X16724122Y-11341608D01*
X16660876Y-8618474D02*
X16660876Y-8745474D01*
X16597376Y-8681974D02*
X16724376Y-8681974D01*
X16913606Y-9498838D02*
X16913606Y-9625838D01*
X16850106Y-9562338D02*
X16977106Y-9562338D01*
X16913606Y-10451846D02*
X16913606Y-10578846D01*
X16850106Y-10515346D02*
X16977106Y-10515346D01*
X18079212Y-8618474D02*
X18079212Y-8745474D01*
X18015712Y-8681974D02*
X18142712Y-8681974D01*
X18083530Y-11278108D02*
X18083530Y-11405108D01*
X18020030Y-11341608D02*
X18147030Y-11341608D01*
X18255996Y-10451846D02*
X18255996Y-10578846D01*
X18192496Y-10515346D02*
X18319496Y-10515346D01*
X18262092Y-9498838D02*
X18262092Y-9625838D01*
X18198592Y-9562338D02*
X18325592Y-9562338D01*
X18281904Y-8618474D02*
X18281904Y-8745474D01*
X18218404Y-8681974D02*
X18345404Y-8681974D01*
X18286984Y-11278108D02*
X18286984Y-11405108D01*
X18223484Y-11341608D02*
X18350484Y-11341608D01*
X18465546Y-9498838D02*
X18465546Y-9625838D01*
X18402046Y-9562338D02*
X18529046Y-9562338D01*
X18465546Y-10451846D02*
X18465546Y-10578846D01*
X18402046Y-10515346D02*
X18529046Y-10515346D01*
X18535904Y-11278108D02*
X18535904Y-11405108D01*
X18472404Y-11341608D02*
X18599404Y-11341608D01*
X18536158Y-8618474D02*
X18536158Y-8745474D01*
X18472658Y-8681974D02*
X18599658Y-8681974D01*
X18739358Y-9498838D02*
X18739358Y-9625838D01*
X18675858Y-9562338D02*
X18802858Y-9562338D01*
X18739358Y-10451846D02*
X18739358Y-10578846D01*
X18675858Y-10515346D02*
X18802858Y-10515346D01*
X18739358Y-11278108D02*
X18739358Y-11405108D01*
X18675858Y-11341608D02*
X18802858Y-11341608D01*
X18739612Y-8618474D02*
X18739612Y-8745474D01*
X18676112Y-8681974D02*
X18803112Y-8681974D01*
X18992342Y-9498838D02*
X18992342Y-9625838D01*
X18928842Y-9562338D02*
X19055842Y-9562338D01*
X18992342Y-10451846D02*
X18992342Y-10578846D01*
X18928842Y-10515346D02*
X19055842Y-10515346D01*
X15041242Y-10688698D02*
X15041242Y-10562974D01*
X14915518Y-10562974D01*
X14915518Y-10688698D01*
X15041242Y-10688698D01*
D12*
X271429Y-465714D02*
X271429Y-165714D01*
X342857Y-165714D01*
X385714Y-180000D01*
X414286Y-208571D01*
X428571Y-237143D01*
X442857Y-294286D01*
X442857Y-337143D01*
X428571Y-394286D01*
X414286Y-422857D01*
X385714Y-451429D01*
X342857Y-465714D01*
X271429Y-465714D01*
X571429Y-465714D02*
X571429Y-265714D01*
X571429Y-322857D02*
X585714Y-294286D01*
X600000Y-280000D01*
X628571Y-265714D01*
X657143Y-265714D01*
X757143Y-465714D02*
X757143Y-265714D01*
X757143Y-165714D02*
X742857Y-180000D01*
X757143Y-194286D01*
X771429Y-180000D01*
X757143Y-165714D01*
X757143Y-194286D01*
X942857Y-465714D02*
X914286Y-451429D01*
X900000Y-422857D01*
X900000Y-165714D01*
X1100000Y-465714D02*
X1071429Y-451429D01*
X1057143Y-422857D01*
X1057143Y-165714D01*
X1442857Y-465714D02*
X1442857Y-165714D01*
X1542857Y-380000D01*
X1642857Y-165714D01*
X1642857Y-465714D01*
X1914286Y-465714D02*
X1914286Y-308571D01*
X1900000Y-280000D01*
X1871429Y-265714D01*
X1814286Y-265714D01*
X1785714Y-280000D01*
X1914286Y-451429D02*
X1885714Y-465714D01*
X1814286Y-465714D01*
X1785714Y-451429D01*
X1771429Y-422857D01*
X1771429Y-394286D01*
X1785714Y-365714D01*
X1814286Y-351429D01*
X1885714Y-351429D01*
X1914286Y-337143D01*
X2057143Y-265714D02*
X2057143Y-565714D01*
X2057143Y-280000D02*
X2085714Y-265714D01*
X2142857Y-265714D01*
X2171429Y-280000D01*
X2185714Y-294286D01*
X2200000Y-322857D01*
X2200000Y-408571D01*
X2185714Y-437143D01*
X2171429Y-451429D01*
X2142857Y-465714D01*
X2085714Y-465714D01*
X2057143Y-451429D01*
X2328572Y-437143D02*
X2342857Y-451429D01*
X2328572Y-465714D01*
X2314286Y-451429D01*
X2328572Y-437143D01*
X2328572Y-465714D01*
X2328572Y-280000D02*
X2342857Y-294286D01*
X2328572Y-308571D01*
X2314286Y-294286D01*
X2328572Y-280000D01*
X2328572Y-308571D01*
X-25400Y-947300D02*
X0Y-972700D01*
X0Y-947300D02*
X-25400Y-972700D01*
X328571Y-795714D02*
X357143Y-795714D01*
X385714Y-810000D01*
X400000Y-824286D01*
X414286Y-852857D01*
X428571Y-910000D01*
X428571Y-981429D01*
X414286Y-1038571D01*
X400000Y-1067143D01*
X385714Y-1081429D01*
X357143Y-1095714D01*
X328571Y-1095714D01*
X300000Y-1081429D01*
X285714Y-1067143D01*
X271429Y-1038571D01*
X257143Y-981429D01*
X257143Y-910000D01*
X271429Y-852857D01*
X285714Y-824286D01*
X300000Y-810000D01*
X328571Y-795714D01*
X557143Y-1067143D02*
X571429Y-1081429D01*
X557143Y-1095714D01*
X542857Y-1081429D01*
X557143Y-1067143D01*
X557143Y-1095714D01*
X685714Y-824286D02*
X700000Y-810000D01*
X728571Y-795714D01*
X800000Y-795714D01*
X828571Y-810000D01*
X842857Y-824286D01*
X857143Y-852857D01*
X857143Y-881429D01*
X842857Y-924286D01*
X671429Y-1095714D01*
X857143Y-1095714D01*
X1128571Y-795714D02*
X985714Y-795714D01*
X971429Y-938571D01*
X985714Y-924286D01*
X1014286Y-910000D01*
X1085714Y-910000D01*
X1114286Y-924286D01*
X1128571Y-938571D01*
X1142857Y-967143D01*
X1142857Y-1038571D01*
X1128571Y-1067143D01*
X1114286Y-1081429D01*
X1085714Y-1095714D01*
X1014286Y-1095714D01*
X985714Y-1081429D01*
X971429Y-1067143D01*
X1271429Y-1095714D02*
X1271429Y-895714D01*
X1271429Y-924286D02*
X1285714Y-910000D01*
X1314286Y-895714D01*
X1357143Y-895714D01*
X1385714Y-910000D01*
X1400000Y-938571D01*
X1400000Y-1095714D01*
X1400000Y-938571D02*
X1414286Y-910000D01*
X1442857Y-895714D01*
X1485714Y-895714D01*
X1514286Y-910000D01*
X1528571Y-938571D01*
X1528571Y-1095714D01*
X1671429Y-1095714D02*
X1671429Y-895714D01*
X1671429Y-924286D02*
X1685714Y-910000D01*
X1714286Y-895714D01*
X1757143Y-895714D01*
X1785714Y-910000D01*
X1800000Y-938571D01*
X1800000Y-1095714D01*
X1800000Y-938571D02*
X1814286Y-910000D01*
X1842857Y-895714D01*
X1885714Y-895714D01*
X1914286Y-910000D01*
X1928571Y-938571D01*
X1928571Y-1095714D01*
X2514286Y-781429D02*
X2257143Y-1167143D01*
X2900000Y-795714D02*
X2928571Y-795714D01*
X2957143Y-810000D01*
X2971428Y-824286D01*
X2985714Y-852857D01*
X3000000Y-910000D01*
X3000000Y-981429D01*
X2985714Y-1038571D01*
X2971428Y-1067143D01*
X2957143Y-1081429D01*
X2928571Y-1095714D01*
X2900000Y-1095714D01*
X2871428Y-1081429D01*
X2857143Y-1067143D01*
X2842857Y-1038571D01*
X2828571Y-981429D01*
X2828571Y-910000D01*
X2842857Y-852857D01*
X2857143Y-824286D01*
X2871428Y-810000D01*
X2900000Y-795714D01*
X3128571Y-1067143D02*
X3142857Y-1081429D01*
X3128571Y-1095714D01*
X3114286Y-1081429D01*
X3128571Y-1067143D01*
X3128571Y-1095714D01*
X3328571Y-795714D02*
X3357143Y-795714D01*
X3385714Y-810000D01*
X3400000Y-824286D01*
X3414286Y-852857D01*
X3428571Y-910000D01*
X3428571Y-981429D01*
X3414286Y-1038571D01*
X3400000Y-1067143D01*
X3385714Y-1081429D01*
X3357143Y-1095714D01*
X3328571Y-1095714D01*
X3300000Y-1081429D01*
X3285714Y-1067143D01*
X3271428Y-1038571D01*
X3257143Y-981429D01*
X3257143Y-910000D01*
X3271428Y-852857D01*
X3285714Y-824286D01*
X3300000Y-810000D01*
X3328571Y-795714D01*
X3714286Y-1095714D02*
X3542857Y-1095714D01*
X3628571Y-1095714D02*
X3628571Y-795714D01*
X3600000Y-838571D01*
X3571428Y-867143D01*
X3542857Y-881429D01*
X3900000Y-795714D02*
X3928571Y-795714D01*
X3957143Y-810000D01*
X3971428Y-824286D01*
X3985714Y-852857D01*
X4000000Y-910000D01*
X4000000Y-981429D01*
X3985714Y-1038571D01*
X3971428Y-1067143D01*
X3957143Y-1081429D01*
X3928571Y-1095714D01*
X3900000Y-1095714D01*
X3871428Y-1081429D01*
X3857143Y-1067143D01*
X3842857Y-1038571D01*
X3828571Y-981429D01*
X3828571Y-910000D01*
X3842857Y-852857D01*
X3857143Y-824286D01*
X3871428Y-810000D01*
X3900000Y-795714D01*
X4114286Y-795714D02*
X4114286Y-852857D01*
X4228571Y-795714D02*
X4228571Y-852857D01*
X4671429Y-1210000D02*
X4657143Y-1195714D01*
X4628571Y-1152857D01*
X4614286Y-1124286D01*
X4600000Y-1081429D01*
X4585714Y-1010000D01*
X4585714Y-952857D01*
X4600000Y-881429D01*
X4614286Y-838571D01*
X4628571Y-810000D01*
X4657143Y-767143D01*
X4671429Y-752857D01*
X4771429Y-824286D02*
X4785714Y-810000D01*
X4814286Y-795714D01*
X4885714Y-795714D01*
X4914286Y-810000D01*
X4928571Y-824286D01*
X4942857Y-852857D01*
X4942857Y-881429D01*
X4928571Y-924286D01*
X4757143Y-1095714D01*
X4942857Y-1095714D01*
X5085714Y-1095714D02*
X5142857Y-1095714D01*
X5171429Y-1081429D01*
X5185714Y-1067143D01*
X5214286Y-1024286D01*
X5228571Y-967143D01*
X5228571Y-852857D01*
X5214286Y-824286D01*
X5200000Y-810000D01*
X5171429Y-795714D01*
X5114286Y-795714D01*
X5085714Y-810000D01*
X5071429Y-824286D01*
X5057143Y-852857D01*
X5057143Y-924286D01*
X5071429Y-952857D01*
X5085714Y-967143D01*
X5114286Y-981429D01*
X5171429Y-981429D01*
X5200000Y-967143D01*
X5214286Y-952857D01*
X5228571Y-924286D01*
X5500000Y-795714D02*
X5357143Y-795714D01*
X5342857Y-938571D01*
X5357143Y-924286D01*
X5385714Y-910000D01*
X5457143Y-910000D01*
X5485714Y-924286D01*
X5500000Y-938571D01*
X5514286Y-967143D01*
X5514286Y-1038571D01*
X5500000Y-1067143D01*
X5485714Y-1081429D01*
X5457143Y-1095714D01*
X5385714Y-1095714D01*
X5357143Y-1081429D01*
X5342857Y-1067143D01*
X5871428Y-1095714D02*
X5871428Y-795714D01*
X6000000Y-1095714D02*
X6000000Y-938571D01*
X5985714Y-910000D01*
X5957143Y-895714D01*
X5914286Y-895714D01*
X5885714Y-910000D01*
X5871428Y-924286D01*
X6185714Y-1095714D02*
X6157143Y-1081429D01*
X6142857Y-1067143D01*
X6128571Y-1038571D01*
X6128571Y-952857D01*
X6142857Y-924286D01*
X6157143Y-910000D01*
X6185714Y-895714D01*
X6228571Y-895714D01*
X6257143Y-910000D01*
X6271428Y-924286D01*
X6285714Y-952857D01*
X6285714Y-1038571D01*
X6271428Y-1067143D01*
X6257143Y-1081429D01*
X6228571Y-1095714D01*
X6185714Y-1095714D01*
X6457143Y-1095714D02*
X6428571Y-1081429D01*
X6414286Y-1052857D01*
X6414286Y-795714D01*
X6685714Y-1081429D02*
X6657143Y-1095714D01*
X6600000Y-1095714D01*
X6571429Y-1081429D01*
X6557143Y-1052857D01*
X6557143Y-938571D01*
X6571429Y-910000D01*
X6600000Y-895714D01*
X6657143Y-895714D01*
X6685714Y-910000D01*
X6700000Y-938571D01*
X6700000Y-967143D01*
X6557143Y-995714D01*
X6814286Y-1081429D02*
X6842857Y-1095714D01*
X6900000Y-1095714D01*
X6928571Y-1081429D01*
X6942857Y-1052857D01*
X6942857Y-1038571D01*
X6928571Y-1010000D01*
X6900000Y-995714D01*
X6857143Y-995714D01*
X6828571Y-981429D01*
X6814286Y-952857D01*
X6814286Y-938571D01*
X6828571Y-910000D01*
X6857143Y-895714D01*
X6900000Y-895714D01*
X6928571Y-910000D01*
X7042857Y-1210000D02*
X7057143Y-1195714D01*
X7085714Y-1152857D01*
X7100000Y-1124286D01*
X7114286Y-1081429D01*
X7128571Y-1010000D01*
X7128571Y-952857D01*
X7114286Y-881429D01*
X7100000Y-838571D01*
X7085714Y-810000D01*
X7057143Y-767143D01*
X7042857Y-752857D01*
X0Y-1356000D02*
G75*
G03X0Y-1356000I-20320J0D01*
G01*
X328571Y-1191714D02*
X357143Y-1191714D01*
X385714Y-1206000D01*
X400000Y-1220286D01*
X414286Y-1248857D01*
X428571Y-1306000D01*
X428571Y-1377429D01*
X414286Y-1434571D01*
X400000Y-1463143D01*
X385714Y-1477429D01*
X357143Y-1491714D01*
X328571Y-1491714D01*
X300000Y-1477429D01*
X285714Y-1463143D01*
X271429Y-1434571D01*
X257143Y-1377429D01*
X257143Y-1306000D01*
X271429Y-1248857D01*
X285714Y-1220286D01*
X300000Y-1206000D01*
X328571Y-1191714D01*
X557143Y-1463143D02*
X571429Y-1477429D01*
X557143Y-1491714D01*
X542857Y-1477429D01*
X557143Y-1463143D01*
X557143Y-1491714D01*
X828571Y-1291714D02*
X828571Y-1491714D01*
X757143Y-1177429D02*
X685714Y-1391714D01*
X871428Y-1391714D01*
X1142857Y-1491714D02*
X971429Y-1491714D01*
X1057143Y-1491714D02*
X1057143Y-1191714D01*
X1028571Y-1234571D01*
X1000000Y-1263143D01*
X971429Y-1277429D01*
X1271429Y-1491714D02*
X1271429Y-1291714D01*
X1271429Y-1320286D02*
X1285714Y-1306000D01*
X1314286Y-1291714D01*
X1357143Y-1291714D01*
X1385714Y-1306000D01*
X1400000Y-1334571D01*
X1400000Y-1491714D01*
X1400000Y-1334571D02*
X1414286Y-1306000D01*
X1442857Y-1291714D01*
X1485714Y-1291714D01*
X1514286Y-1306000D01*
X1528571Y-1334571D01*
X1528571Y-1491714D01*
X1671429Y-1491714D02*
X1671429Y-1291714D01*
X1671429Y-1320286D02*
X1685714Y-1306000D01*
X1714286Y-1291714D01*
X1757143Y-1291714D01*
X1785714Y-1306000D01*
X1800000Y-1334571D01*
X1800000Y-1491714D01*
X1800000Y-1334571D02*
X1814286Y-1306000D01*
X1842857Y-1291714D01*
X1885714Y-1291714D01*
X1914286Y-1306000D01*
X1928571Y-1334571D01*
X1928571Y-1491714D01*
X2514286Y-1177429D02*
X2257143Y-1563143D01*
X2900000Y-1191714D02*
X2928571Y-1191714D01*
X2957143Y-1206000D01*
X2971428Y-1220286D01*
X2985714Y-1248857D01*
X3000000Y-1306000D01*
X3000000Y-1377429D01*
X2985714Y-1434571D01*
X2971428Y-1463143D01*
X2957143Y-1477429D01*
X2928571Y-1491714D01*
X2900000Y-1491714D01*
X2871428Y-1477429D01*
X2857143Y-1463143D01*
X2842857Y-1434571D01*
X2828571Y-1377429D01*
X2828571Y-1306000D01*
X2842857Y-1248857D01*
X2857143Y-1220286D01*
X2871428Y-1206000D01*
X2900000Y-1191714D01*
X3128571Y-1463143D02*
X3142857Y-1477429D01*
X3128571Y-1491714D01*
X3114286Y-1477429D01*
X3128571Y-1463143D01*
X3128571Y-1491714D01*
X3328571Y-1191714D02*
X3357143Y-1191714D01*
X3385714Y-1206000D01*
X3400000Y-1220286D01*
X3414286Y-1248857D01*
X3428571Y-1306000D01*
X3428571Y-1377429D01*
X3414286Y-1434571D01*
X3400000Y-1463143D01*
X3385714Y-1477429D01*
X3357143Y-1491714D01*
X3328571Y-1491714D01*
X3300000Y-1477429D01*
X3285714Y-1463143D01*
X3271428Y-1434571D01*
X3257143Y-1377429D01*
X3257143Y-1306000D01*
X3271428Y-1248857D01*
X3285714Y-1220286D01*
X3300000Y-1206000D01*
X3328571Y-1191714D01*
X3714286Y-1491714D02*
X3542857Y-1491714D01*
X3628571Y-1491714D02*
X3628571Y-1191714D01*
X3600000Y-1234571D01*
X3571428Y-1263143D01*
X3542857Y-1277429D01*
X3971428Y-1191714D02*
X3914286Y-1191714D01*
X3885714Y-1206000D01*
X3871428Y-1220286D01*
X3842857Y-1263143D01*
X3828571Y-1320286D01*
X3828571Y-1434571D01*
X3842857Y-1463143D01*
X3857143Y-1477429D01*
X3885714Y-1491714D01*
X3942857Y-1491714D01*
X3971428Y-1477429D01*
X3985714Y-1463143D01*
X4000000Y-1434571D01*
X4000000Y-1363143D01*
X3985714Y-1334571D01*
X3971428Y-1320286D01*
X3942857Y-1306000D01*
X3885714Y-1306000D01*
X3857143Y-1320286D01*
X3842857Y-1334571D01*
X3828571Y-1363143D01*
X4114286Y-1191714D02*
X4114286Y-1248857D01*
X4228571Y-1191714D02*
X4228571Y-1248857D01*
X4671429Y-1606000D02*
X4657143Y-1591714D01*
X4628571Y-1548857D01*
X4614286Y-1520286D01*
X4600000Y-1477429D01*
X4585714Y-1406000D01*
X4585714Y-1348857D01*
X4600000Y-1277429D01*
X4614286Y-1234571D01*
X4628571Y-1206000D01*
X4657143Y-1163143D01*
X4671429Y-1148857D01*
X4771429Y-1220286D02*
X4785714Y-1206000D01*
X4814286Y-1191714D01*
X4885714Y-1191714D01*
X4914286Y-1206000D01*
X4928571Y-1220286D01*
X4942857Y-1248857D01*
X4942857Y-1277429D01*
X4928571Y-1320286D01*
X4757143Y-1491714D01*
X4942857Y-1491714D01*
X5042857Y-1191714D02*
X5228571Y-1191714D01*
X5128571Y-1306000D01*
X5171429Y-1306000D01*
X5200000Y-1320286D01*
X5214286Y-1334571D01*
X5228571Y-1363143D01*
X5228571Y-1434571D01*
X5214286Y-1463143D01*
X5200000Y-1477429D01*
X5171429Y-1491714D01*
X5085714Y-1491714D01*
X5057143Y-1477429D01*
X5042857Y-1463143D01*
X5585714Y-1491714D02*
X5585714Y-1191714D01*
X5714286Y-1491714D02*
X5714286Y-1334571D01*
X5700000Y-1306000D01*
X5671428Y-1291714D01*
X5628571Y-1291714D01*
X5600000Y-1306000D01*
X5585714Y-1320286D01*
X5900000Y-1491714D02*
X5871428Y-1477429D01*
X5857143Y-1463143D01*
X5842857Y-1434571D01*
X5842857Y-1348857D01*
X5857143Y-1320286D01*
X5871428Y-1306000D01*
X5900000Y-1291714D01*
X5942857Y-1291714D01*
X5971428Y-1306000D01*
X5985714Y-1320286D01*
X6000000Y-1348857D01*
X6000000Y-1434571D01*
X5985714Y-1463143D01*
X5971428Y-1477429D01*
X5942857Y-1491714D01*
X5900000Y-1491714D01*
X6171428Y-1491714D02*
X6142857Y-1477429D01*
X6128571Y-1448857D01*
X6128571Y-1191714D01*
X6400000Y-1477429D02*
X6371429Y-1491714D01*
X6314286Y-1491714D01*
X6285714Y-1477429D01*
X6271429Y-1448857D01*
X6271429Y-1334571D01*
X6285714Y-1306000D01*
X6314286Y-1291714D01*
X6371429Y-1291714D01*
X6400000Y-1306000D01*
X6414286Y-1334571D01*
X6414286Y-1363143D01*
X6271429Y-1391714D01*
X6528571Y-1477429D02*
X6557143Y-1491714D01*
X6614286Y-1491714D01*
X6642857Y-1477429D01*
X6657143Y-1448857D01*
X6657143Y-1434571D01*
X6642857Y-1406000D01*
X6614286Y-1391714D01*
X6571429Y-1391714D01*
X6542857Y-1377429D01*
X6528571Y-1348857D01*
X6528571Y-1334571D01*
X6542857Y-1306000D01*
X6571429Y-1291714D01*
X6614286Y-1291714D01*
X6642857Y-1306000D01*
X6757143Y-1606000D02*
X6771429Y-1591714D01*
X6800000Y-1548857D01*
X6814286Y-1520286D01*
X6828571Y-1477429D01*
X6842857Y-1406000D01*
X6842857Y-1348857D01*
X6828571Y-1277429D01*
X6814286Y-1234571D01*
X6800000Y-1206000D01*
X6771429Y-1163143D01*
X6757143Y-1148857D01*
X-63500Y-1688500D02*
X-63500Y-1815500D01*
X-127000Y-1752000D02*
X0Y-1752000D01*
X428571Y-1887714D02*
X257143Y-1887714D01*
X342857Y-1887714D02*
X342857Y-1587714D01*
X314286Y-1630571D01*
X285714Y-1659143D01*
X257143Y-1673429D01*
X557143Y-1859143D02*
X571429Y-1873429D01*
X557143Y-1887714D01*
X542857Y-1873429D01*
X557143Y-1859143D01*
X557143Y-1887714D01*
X685714Y-1616286D02*
X700000Y-1602000D01*
X728571Y-1587714D01*
X800000Y-1587714D01*
X828571Y-1602000D01*
X842857Y-1616286D01*
X857143Y-1644857D01*
X857143Y-1673429D01*
X842857Y-1716286D01*
X671429Y-1887714D01*
X857143Y-1887714D01*
X957143Y-1587714D02*
X1157143Y-1587714D01*
X1028571Y-1887714D01*
X1271429Y-1887714D02*
X1271429Y-1687714D01*
X1271429Y-1716286D02*
X1285714Y-1702000D01*
X1314286Y-1687714D01*
X1357143Y-1687714D01*
X1385714Y-1702000D01*
X1400000Y-1730571D01*
X1400000Y-1887714D01*
X1400000Y-1730571D02*
X1414286Y-1702000D01*
X1442857Y-1687714D01*
X1485714Y-1687714D01*
X1514286Y-1702000D01*
X1528571Y-1730571D01*
X1528571Y-1887714D01*
X1671429Y-1887714D02*
X1671429Y-1687714D01*
X1671429Y-1716286D02*
X1685714Y-1702000D01*
X1714286Y-1687714D01*
X1757143Y-1687714D01*
X1785714Y-1702000D01*
X1800000Y-1730571D01*
X1800000Y-1887714D01*
X1800000Y-1730571D02*
X1814286Y-1702000D01*
X1842857Y-1687714D01*
X1885714Y-1687714D01*
X1914286Y-1702000D01*
X1928571Y-1730571D01*
X1928571Y-1887714D01*
X2514286Y-1573429D02*
X2257143Y-1959143D01*
X2900000Y-1587714D02*
X2928571Y-1587714D01*
X2957143Y-1602000D01*
X2971428Y-1616286D01*
X2985714Y-1644857D01*
X3000000Y-1702000D01*
X3000000Y-1773429D01*
X2985714Y-1830571D01*
X2971428Y-1859143D01*
X2957143Y-1873429D01*
X2928571Y-1887714D01*
X2900000Y-1887714D01*
X2871428Y-1873429D01*
X2857143Y-1859143D01*
X2842857Y-1830571D01*
X2828571Y-1773429D01*
X2828571Y-1702000D01*
X2842857Y-1644857D01*
X2857143Y-1616286D01*
X2871428Y-1602000D01*
X2900000Y-1587714D01*
X3128571Y-1859143D02*
X3142857Y-1873429D01*
X3128571Y-1887714D01*
X3114286Y-1873429D01*
X3128571Y-1859143D01*
X3128571Y-1887714D01*
X3328571Y-1587714D02*
X3357143Y-1587714D01*
X3385714Y-1602000D01*
X3400000Y-1616286D01*
X3414286Y-1644857D01*
X3428571Y-1702000D01*
X3428571Y-1773429D01*
X3414286Y-1830571D01*
X3400000Y-1859143D01*
X3385714Y-1873429D01*
X3357143Y-1887714D01*
X3328571Y-1887714D01*
X3300000Y-1873429D01*
X3285714Y-1859143D01*
X3271428Y-1830571D01*
X3257143Y-1773429D01*
X3257143Y-1702000D01*
X3271428Y-1644857D01*
X3285714Y-1616286D01*
X3300000Y-1602000D01*
X3328571Y-1587714D01*
X3700000Y-1587714D02*
X3557143Y-1587714D01*
X3542857Y-1730571D01*
X3557143Y-1716286D01*
X3585714Y-1702000D01*
X3657143Y-1702000D01*
X3685714Y-1716286D01*
X3700000Y-1730571D01*
X3714286Y-1759143D01*
X3714286Y-1830571D01*
X3700000Y-1859143D01*
X3685714Y-1873429D01*
X3657143Y-1887714D01*
X3585714Y-1887714D01*
X3557143Y-1873429D01*
X3542857Y-1859143D01*
X3900000Y-1587714D02*
X3928571Y-1587714D01*
X3957143Y-1602000D01*
X3971428Y-1616286D01*
X3985714Y-1644857D01*
X4000000Y-1702000D01*
X4000000Y-1773429D01*
X3985714Y-1830571D01*
X3971428Y-1859143D01*
X3957143Y-1873429D01*
X3928571Y-1887714D01*
X3900000Y-1887714D01*
X3871428Y-1873429D01*
X3857143Y-1859143D01*
X3842857Y-1830571D01*
X3828571Y-1773429D01*
X3828571Y-1702000D01*
X3842857Y-1644857D01*
X3857143Y-1616286D01*
X3871428Y-1602000D01*
X3900000Y-1587714D01*
X4114286Y-1587714D02*
X4114286Y-1644857D01*
X4228571Y-1587714D02*
X4228571Y-1644857D01*
X4671429Y-2002000D02*
X4657143Y-1987714D01*
X4628571Y-1944857D01*
X4614286Y-1916286D01*
X4600000Y-1873429D01*
X4585714Y-1802000D01*
X4585714Y-1744857D01*
X4600000Y-1673429D01*
X4614286Y-1630571D01*
X4628571Y-1602000D01*
X4657143Y-1559143D01*
X4671429Y-1544857D01*
X4757143Y-1587714D02*
X4942857Y-1587714D01*
X4842857Y-1702000D01*
X4885714Y-1702000D01*
X4914286Y-1716286D01*
X4928571Y-1730571D01*
X4942857Y-1759143D01*
X4942857Y-1830571D01*
X4928571Y-1859143D01*
X4914286Y-1873429D01*
X4885714Y-1887714D01*
X4800000Y-1887714D01*
X4771429Y-1873429D01*
X4757143Y-1859143D01*
X5057143Y-1616286D02*
X5071429Y-1602000D01*
X5100000Y-1587714D01*
X5171429Y-1587714D01*
X5200000Y-1602000D01*
X5214286Y-1616286D01*
X5228571Y-1644857D01*
X5228571Y-1673429D01*
X5214286Y-1716286D01*
X5042857Y-1887714D01*
X5228571Y-1887714D01*
X5585714Y-1887714D02*
X5585714Y-1587714D01*
X5714286Y-1887714D02*
X5714286Y-1730571D01*
X5700000Y-1702000D01*
X5671428Y-1687714D01*
X5628571Y-1687714D01*
X5600000Y-1702000D01*
X5585714Y-1716286D01*
X5900000Y-1887714D02*
X5871428Y-1873429D01*
X5857143Y-1859143D01*
X5842857Y-1830571D01*
X5842857Y-1744857D01*
X5857143Y-1716286D01*
X5871428Y-1702000D01*
X5900000Y-1687714D01*
X5942857Y-1687714D01*
X5971428Y-1702000D01*
X5985714Y-1716286D01*
X6000000Y-1744857D01*
X6000000Y-1830571D01*
X5985714Y-1859143D01*
X5971428Y-1873429D01*
X5942857Y-1887714D01*
X5900000Y-1887714D01*
X6171428Y-1887714D02*
X6142857Y-1873429D01*
X6128571Y-1844857D01*
X6128571Y-1587714D01*
X6400000Y-1873429D02*
X6371429Y-1887714D01*
X6314286Y-1887714D01*
X6285714Y-1873429D01*
X6271429Y-1844857D01*
X6271429Y-1730571D01*
X6285714Y-1702000D01*
X6314286Y-1687714D01*
X6371429Y-1687714D01*
X6400000Y-1702000D01*
X6414286Y-1730571D01*
X6414286Y-1759143D01*
X6271429Y-1787714D01*
X6528571Y-1873429D02*
X6557143Y-1887714D01*
X6614286Y-1887714D01*
X6642857Y-1873429D01*
X6657143Y-1844857D01*
X6657143Y-1830571D01*
X6642857Y-1802000D01*
X6614286Y-1787714D01*
X6571429Y-1787714D01*
X6542857Y-1773429D01*
X6528571Y-1744857D01*
X6528571Y-1730571D01*
X6542857Y-1702000D01*
X6571429Y-1687714D01*
X6614286Y-1687714D01*
X6642857Y-1702000D01*
X6757143Y-2002000D02*
X6771429Y-1987714D01*
X6800000Y-1944857D01*
X6814286Y-1916286D01*
X6828571Y-1873429D01*
X6842857Y-1802000D01*
X6842857Y-1744857D01*
X6828571Y-1673429D01*
X6814286Y-1630571D01*
X6800000Y-1602000D01*
X6771429Y-1559143D01*
X6757143Y-1544857D01*
X-26038Y-2210862D02*
X-26038Y-2085138D01*
X-151762Y-2085138D01*
X-151762Y-2210862D01*
X-26038Y-2210862D01*
X428571Y-2283714D02*
X257143Y-2283714D01*
X342857Y-2283714D02*
X342857Y-1983714D01*
X314286Y-2026571D01*
X285714Y-2055143D01*
X257143Y-2069429D01*
X557143Y-2255143D02*
X571429Y-2269429D01*
X557143Y-2283714D01*
X542857Y-2269429D01*
X557143Y-2255143D01*
X557143Y-2283714D01*
X671429Y-1983714D02*
X871428Y-1983714D01*
X742857Y-2283714D01*
X1028571Y-2112286D02*
X1000000Y-2098000D01*
X985714Y-2083714D01*
X971429Y-2055143D01*
X971429Y-2040857D01*
X985714Y-2012286D01*
X1000000Y-1998000D01*
X1028571Y-1983714D01*
X1085714Y-1983714D01*
X1114286Y-1998000D01*
X1128571Y-2012286D01*
X1142857Y-2040857D01*
X1142857Y-2055143D01*
X1128571Y-2083714D01*
X1114286Y-2098000D01*
X1085714Y-2112286D01*
X1028571Y-2112286D01*
X1000000Y-2126571D01*
X985714Y-2140857D01*
X971429Y-2169429D01*
X971429Y-2226571D01*
X985714Y-2255143D01*
X1000000Y-2269429D01*
X1028571Y-2283714D01*
X1085714Y-2283714D01*
X1114286Y-2269429D01*
X1128571Y-2255143D01*
X1142857Y-2226571D01*
X1142857Y-2169429D01*
X1128571Y-2140857D01*
X1114286Y-2126571D01*
X1085714Y-2112286D01*
X1271429Y-2283714D02*
X1271429Y-2083714D01*
X1271429Y-2112286D02*
X1285714Y-2098000D01*
X1314286Y-2083714D01*
X1357143Y-2083714D01*
X1385714Y-2098000D01*
X1400000Y-2126571D01*
X1400000Y-2283714D01*
X1400000Y-2126571D02*
X1414286Y-2098000D01*
X1442857Y-2083714D01*
X1485714Y-2083714D01*
X1514286Y-2098000D01*
X1528571Y-2126571D01*
X1528571Y-2283714D01*
X1671429Y-2283714D02*
X1671429Y-2083714D01*
X1671429Y-2112286D02*
X1685714Y-2098000D01*
X1714286Y-2083714D01*
X1757143Y-2083714D01*
X1785714Y-2098000D01*
X1800000Y-2126571D01*
X1800000Y-2283714D01*
X1800000Y-2126571D02*
X1814286Y-2098000D01*
X1842857Y-2083714D01*
X1885714Y-2083714D01*
X1914286Y-2098000D01*
X1928571Y-2126571D01*
X1928571Y-2283714D01*
X2514286Y-1969429D02*
X2257143Y-2355143D01*
X2900000Y-1983714D02*
X2928571Y-1983714D01*
X2957143Y-1998000D01*
X2971428Y-2012286D01*
X2985714Y-2040857D01*
X3000000Y-2098000D01*
X3000000Y-2169429D01*
X2985714Y-2226571D01*
X2971428Y-2255143D01*
X2957143Y-2269429D01*
X2928571Y-2283714D01*
X2900000Y-2283714D01*
X2871428Y-2269429D01*
X2857143Y-2255143D01*
X2842857Y-2226571D01*
X2828571Y-2169429D01*
X2828571Y-2098000D01*
X2842857Y-2040857D01*
X2857143Y-2012286D01*
X2871428Y-1998000D01*
X2900000Y-1983714D01*
X3128571Y-2255143D02*
X3142857Y-2269429D01*
X3128571Y-2283714D01*
X3114286Y-2269429D01*
X3128571Y-2255143D01*
X3128571Y-2283714D01*
X3328571Y-1983714D02*
X3357143Y-1983714D01*
X3385714Y-1998000D01*
X3400000Y-2012286D01*
X3414286Y-2040857D01*
X3428571Y-2098000D01*
X3428571Y-2169429D01*
X3414286Y-2226571D01*
X3400000Y-2255143D01*
X3385714Y-2269429D01*
X3357143Y-2283714D01*
X3328571Y-2283714D01*
X3300000Y-2269429D01*
X3285714Y-2255143D01*
X3271428Y-2226571D01*
X3257143Y-2169429D01*
X3257143Y-2098000D01*
X3271428Y-2040857D01*
X3285714Y-2012286D01*
X3300000Y-1998000D01*
X3328571Y-1983714D01*
X3528571Y-1983714D02*
X3728571Y-1983714D01*
X3600000Y-2283714D01*
X3900000Y-1983714D02*
X3928571Y-1983714D01*
X3957143Y-1998000D01*
X3971428Y-2012286D01*
X3985714Y-2040857D01*
X4000000Y-2098000D01*
X4000000Y-2169429D01*
X3985714Y-2226571D01*
X3971428Y-2255143D01*
X3957143Y-2269429D01*
X3928571Y-2283714D01*
X3900000Y-2283714D01*
X3871428Y-2269429D01*
X3857143Y-2255143D01*
X3842857Y-2226571D01*
X3828571Y-2169429D01*
X3828571Y-2098000D01*
X3842857Y-2040857D01*
X3857143Y-2012286D01*
X3871428Y-1998000D01*
X3900000Y-1983714D01*
X4114286Y-1983714D02*
X4114286Y-2040857D01*
X4228571Y-1983714D02*
X4228571Y-2040857D01*
X4671429Y-2398000D02*
X4657143Y-2383714D01*
X4628571Y-2340857D01*
X4614286Y-2312286D01*
X4600000Y-2269429D01*
X4585714Y-2198000D01*
X4585714Y-2140857D01*
X4600000Y-2069429D01*
X4614286Y-2026571D01*
X4628571Y-1998000D01*
X4657143Y-1955143D01*
X4671429Y-1940857D01*
X4942857Y-2283714D02*
X4771429Y-2283714D01*
X4857143Y-2283714D02*
X4857143Y-1983714D01*
X4828571Y-2026571D01*
X4800000Y-2055143D01*
X4771429Y-2069429D01*
X5300000Y-2283714D02*
X5300000Y-1983714D01*
X5428571Y-2283714D02*
X5428571Y-2126571D01*
X5414286Y-2098000D01*
X5385714Y-2083714D01*
X5342857Y-2083714D01*
X5314286Y-2098000D01*
X5300000Y-2112286D01*
X5614286Y-2283714D02*
X5585714Y-2269429D01*
X5571429Y-2255143D01*
X5557143Y-2226571D01*
X5557143Y-2140857D01*
X5571429Y-2112286D01*
X5585714Y-2098000D01*
X5614286Y-2083714D01*
X5657143Y-2083714D01*
X5685714Y-2098000D01*
X5700000Y-2112286D01*
X5714286Y-2140857D01*
X5714286Y-2226571D01*
X5700000Y-2255143D01*
X5685714Y-2269429D01*
X5657143Y-2283714D01*
X5614286Y-2283714D01*
X5885714Y-2283714D02*
X5857143Y-2269429D01*
X5842857Y-2240857D01*
X5842857Y-1983714D01*
X6114286Y-2269429D02*
X6085714Y-2283714D01*
X6028571Y-2283714D01*
X6000000Y-2269429D01*
X5985714Y-2240857D01*
X5985714Y-2126571D01*
X6000000Y-2098000D01*
X6028571Y-2083714D01*
X6085714Y-2083714D01*
X6114286Y-2098000D01*
X6128571Y-2126571D01*
X6128571Y-2155143D01*
X5985714Y-2183714D01*
X6228571Y-2398000D02*
X6242857Y-2383714D01*
X6271429Y-2340857D01*
X6285714Y-2312286D01*
X6300000Y-2269429D01*
X6314286Y-2198000D01*
X6314286Y-2140857D01*
X6300000Y-2069429D01*
X6285714Y-2026571D01*
X6271429Y-1998000D01*
X6242857Y-1955143D01*
X6228571Y-1940857D01*
M02*
