G04 #@! TF.FileFunction,Soldermask,Top*
%FSLAX46Y46*%
G04 Gerber Fmt 4.6, Leading zero omitted, Abs format (unit mm)*
G04 Created by KiCad (PCBNEW 4.0.5) date Fri Apr 14 16:53:27 2017*
%MOMM*%
%LPD*%
G01*
G04 APERTURE LIST*
%ADD10C,0.100000*%
%ADD11R,0.700000X0.600000*%
%ADD12R,1.100000X0.450000*%
%ADD13R,0.600000X0.400000*%
%ADD14R,0.770000X0.400000*%
%ADD15R,1.100000X3.600000*%
%ADD16C,1.625600*%
%ADD17R,0.600000X0.700000*%
%ADD18R,0.250000X1.100000*%
%ADD19R,0.481000X1.100000*%
%ADD20R,0.354000X1.100000*%
%ADD21R,19.500000X0.350000*%
%ADD22R,1.624000X1.300000*%
%ADD23R,6.100000X2.017700*%
%ADD24R,0.700000X0.500000*%
%ADD25R,0.850000X0.900000*%
%ADD26R,0.600000X1.000000*%
%ADD27R,0.500000X0.700000*%
%ADD28R,1.000000X0.600000*%
%ADD29R,1.700000X1.100000*%
%ADD30C,2.640000*%
%ADD31R,0.450000X1.100000*%
%ADD32R,0.400000X0.600000*%
%ADD33R,0.400000X0.770000*%
%ADD34C,0.254000*%
G04 APERTURE END LIST*
D10*
D11*
X143346080Y-104693720D03*
X144446080Y-104693720D03*
D12*
X176112520Y-97457340D03*
D13*
X178912520Y-99332340D03*
D14*
X175847520Y-99632340D03*
X175847520Y-98432340D03*
D13*
X178912520Y-98732340D03*
D14*
X175847520Y-99032340D03*
X175847520Y-100232340D03*
X175847520Y-100832340D03*
X175847520Y-101432340D03*
X175847520Y-102032340D03*
X175847520Y-102632340D03*
X175847520Y-103232340D03*
X175847520Y-103832340D03*
X175847520Y-104432340D03*
X175847520Y-105032340D03*
X175847520Y-105632340D03*
X175847520Y-106232340D03*
X175847520Y-106832340D03*
X175847520Y-107432340D03*
X175847520Y-108032340D03*
D13*
X178912520Y-99932340D03*
X178912520Y-100532340D03*
X178912520Y-101132340D03*
X178912520Y-101732340D03*
X178912520Y-102332340D03*
X178912520Y-102932340D03*
X178912520Y-103532340D03*
X178912520Y-104132340D03*
X178912520Y-104732340D03*
X178912520Y-105332340D03*
X178912520Y-105932340D03*
X178912520Y-106532340D03*
X178912520Y-107132340D03*
X178912520Y-107732340D03*
D12*
X176112520Y-109002340D03*
D15*
X189923420Y-98201480D03*
D16*
X189923420Y-95623380D03*
D15*
X187393580Y-98201480D03*
D16*
X187393580Y-95623380D03*
D15*
X182620920Y-98201480D03*
D16*
X182620920Y-95623380D03*
D15*
X187396120Y-89397840D03*
D16*
X187396120Y-86819740D03*
D15*
X185361580Y-89397840D03*
D16*
X185361580Y-86819740D03*
D15*
X182819040Y-89397840D03*
D16*
X182819040Y-86819740D03*
D15*
X180792120Y-89397840D03*
D16*
X180792120Y-86819740D03*
D15*
X184655460Y-98201480D03*
D16*
X184655460Y-95623380D03*
D15*
X187393580Y-107731560D03*
D16*
X187393580Y-105153460D03*
D15*
X180835300Y-115994180D03*
D16*
X180835300Y-113416080D03*
D15*
X189923420Y-107731560D03*
D16*
X189923420Y-105153460D03*
D15*
X185359040Y-115994180D03*
D16*
X185359040Y-113416080D03*
D15*
X184655460Y-107731560D03*
D16*
X184655460Y-105153460D03*
D15*
X187393580Y-115994180D03*
D16*
X187393580Y-113416080D03*
D15*
X182559960Y-107731560D03*
D16*
X182559960Y-105153460D03*
D15*
X182869840Y-115994180D03*
D16*
X182869840Y-113416080D03*
D17*
X115148360Y-116640700D03*
X115148360Y-115540700D03*
D18*
X150380160Y-86166440D03*
D19*
X149963600Y-86166440D03*
D20*
X149449160Y-86166440D03*
D18*
X149111200Y-86166440D03*
X148834200Y-86166440D03*
X148557200Y-86166440D03*
X148280200Y-86166440D03*
X147480160Y-86166440D03*
X147203160Y-86166440D03*
X145680160Y-86166440D03*
X145126160Y-86166440D03*
X139260160Y-86166440D03*
X138983160Y-86166440D03*
X138680160Y-86166440D03*
X138403160Y-86166440D03*
X138126160Y-86166440D03*
X137849160Y-86166440D03*
X137080160Y-86166440D03*
X136803160Y-86166440D03*
D20*
X134749000Y-86166440D03*
D18*
X134370000Y-86166440D03*
D19*
X133553160Y-86166440D03*
D18*
X131380160Y-86166440D03*
D21*
X140923740Y-84977720D03*
X140923740Y-84591640D03*
X140923740Y-85359520D03*
D22*
X142153100Y-86080080D03*
D23*
X148539200Y-100296980D03*
X148539200Y-97637600D03*
X113179860Y-100296980D03*
X113179860Y-97637600D03*
D17*
X150611840Y-90849360D03*
X150611840Y-91949360D03*
D24*
X130081020Y-113794960D03*
X130081020Y-112894960D03*
D17*
X133974840Y-116638160D03*
X133974840Y-115538160D03*
X111031020Y-109884300D03*
X111031020Y-108784300D03*
X120208040Y-116643240D03*
X120208040Y-115543240D03*
X113654840Y-116640700D03*
X113654840Y-115540700D03*
D11*
X138987440Y-105135680D03*
X140087440Y-105135680D03*
D17*
X140675360Y-100011320D03*
X140675360Y-98911320D03*
D11*
X138987440Y-103926640D03*
X140087440Y-103926640D03*
X124115920Y-104693720D03*
X123015920Y-104693720D03*
X124105760Y-103352600D03*
X123005760Y-103352600D03*
X120666600Y-105135680D03*
X119566600Y-105135680D03*
X120666600Y-103926640D03*
X119566600Y-103926640D03*
X143346080Y-103352600D03*
X144446080Y-103352600D03*
D17*
X139456160Y-100041800D03*
X139456160Y-98941800D03*
X137993120Y-99477920D03*
X137993120Y-98377920D03*
X136834880Y-99493160D03*
X136834880Y-98393160D03*
D25*
X136489440Y-96381000D03*
X136489440Y-94881000D03*
D17*
X110733840Y-92261600D03*
X110733840Y-93361600D03*
X110947200Y-88883400D03*
X110947200Y-89983400D03*
X128313180Y-92828020D03*
X128313180Y-93928020D03*
X113344960Y-92312400D03*
X113344960Y-93412400D03*
X127802640Y-87991860D03*
X127802640Y-89091860D03*
X125536960Y-90849360D03*
X125536960Y-91949360D03*
X126438660Y-87989320D03*
X126438660Y-89089320D03*
X124063760Y-87989320D03*
X124063760Y-89089320D03*
X122814080Y-87994400D03*
X122814080Y-89094400D03*
X121127520Y-87994400D03*
X121127520Y-89094400D03*
X119913400Y-87994400D03*
X119913400Y-89094400D03*
X130738880Y-90849360D03*
X130738880Y-91949360D03*
X112247680Y-88024880D03*
X112247680Y-89124880D03*
X150985220Y-93234420D03*
X150985220Y-94334420D03*
X133563360Y-91728200D03*
X133563360Y-92828200D03*
X147665440Y-93226800D03*
X147665440Y-94326800D03*
X147675600Y-88014720D03*
X147675600Y-89114720D03*
X145729960Y-90905240D03*
X145729960Y-92005240D03*
X146342100Y-88014720D03*
X146342100Y-89114720D03*
X144353280Y-88009640D03*
X144353280Y-89109640D03*
X143108680Y-88009640D03*
X143108680Y-89109640D03*
X141368780Y-88009640D03*
X141368780Y-89109640D03*
X140136880Y-88009640D03*
X140136880Y-89109640D03*
X150393400Y-88375400D03*
X150393400Y-89475400D03*
X131381500Y-87961380D03*
X131381500Y-89061380D03*
X110756700Y-107130940D03*
X110756700Y-106030940D03*
X113431320Y-110750440D03*
X113431320Y-109650440D03*
X128016000Y-113783200D03*
X128016000Y-112683200D03*
X115443000Y-114054980D03*
X115443000Y-112954980D03*
X117358160Y-116643240D03*
X117358160Y-115543240D03*
X118607840Y-116643240D03*
X118607840Y-115543240D03*
X121462800Y-116643240D03*
X121462800Y-115543240D03*
X112186720Y-110749080D03*
X112186720Y-109649080D03*
X129306320Y-116643240D03*
X129306320Y-115543240D03*
X151213820Y-113254880D03*
X151213820Y-112154880D03*
X150952200Y-116014500D03*
X150952200Y-114914500D03*
X133700520Y-111558160D03*
X133700520Y-110458160D03*
X148272500Y-113097400D03*
X148272500Y-111997400D03*
X135595360Y-114054980D03*
X135595360Y-112954980D03*
X135280400Y-116640700D03*
X135280400Y-115540700D03*
X137642600Y-116648320D03*
X137642600Y-115548320D03*
X138897360Y-116643240D03*
X138897360Y-115543240D03*
X140522960Y-116643240D03*
X140522960Y-115543240D03*
X141787880Y-116643240D03*
X141787880Y-115543240D03*
X132486400Y-111558160D03*
X132486400Y-110458160D03*
X149661880Y-116998840D03*
X149661880Y-115898840D03*
D25*
X120817640Y-96838200D03*
X120817640Y-95338200D03*
X141620240Y-96497840D03*
X141620240Y-94997840D03*
X121330720Y-109404720D03*
X121330720Y-110904720D03*
X141097000Y-109719680D03*
X141097000Y-111219680D03*
D26*
X128276920Y-99522280D03*
X129776920Y-99522280D03*
D24*
X149707600Y-112819600D03*
X149707600Y-111919600D03*
X149057360Y-93191760D03*
X149057360Y-94091760D03*
X129753360Y-92844200D03*
X129753360Y-93744200D03*
D27*
X140581800Y-101297740D03*
X139681800Y-101297740D03*
X137864000Y-100774500D03*
X136964000Y-100774500D03*
X142440240Y-114122200D03*
X143340240Y-114122200D03*
X143258120Y-112085120D03*
X144158120Y-112085120D03*
D28*
X122438160Y-95488060D03*
X122438160Y-96988060D03*
D24*
X128320800Y-90746160D03*
X128320800Y-91646160D03*
X114508280Y-90670800D03*
X114508280Y-89770800D03*
D28*
X143195040Y-95160400D03*
X143195040Y-96660400D03*
D24*
X147660000Y-90940000D03*
X147660000Y-91840000D03*
X134686040Y-90254240D03*
X134686040Y-89354240D03*
D28*
X119603520Y-110965680D03*
X119603520Y-109465680D03*
D24*
X113466880Y-114061660D03*
X113466880Y-113161660D03*
X126913640Y-115643240D03*
X126913640Y-116543240D03*
D28*
X139496800Y-111367000D03*
X139496800Y-109867000D03*
D24*
X133725920Y-114010860D03*
X133725920Y-113110860D03*
X147142200Y-115643240D03*
X147142200Y-116543240D03*
D29*
X146984720Y-109526200D03*
X146984720Y-106526200D03*
D27*
X149222040Y-109562900D03*
X150122040Y-109562900D03*
D26*
X146625000Y-104100000D03*
X148125000Y-104100000D03*
D28*
X135102600Y-100892040D03*
X135102600Y-99392040D03*
D30*
X149783800Y-106258360D03*
D31*
X125938360Y-105451560D03*
D32*
X127813360Y-102651560D03*
D33*
X128113360Y-105716560D03*
X126913360Y-105716560D03*
D32*
X127213360Y-102651560D03*
D33*
X127513360Y-105716560D03*
X128713360Y-105716560D03*
X129313360Y-105716560D03*
X129913360Y-105716560D03*
X130513360Y-105716560D03*
X131113360Y-105716560D03*
X131713360Y-105716560D03*
X132313360Y-105716560D03*
X132913360Y-105716560D03*
X133513360Y-105716560D03*
X134113360Y-105716560D03*
X134713360Y-105716560D03*
X135313360Y-105716560D03*
X135913360Y-105716560D03*
X136513360Y-105716560D03*
D32*
X128413360Y-102651560D03*
X129013360Y-102651560D03*
X129613360Y-102651560D03*
X130213360Y-102651560D03*
X130813360Y-102651560D03*
X131413360Y-102651560D03*
X132013360Y-102651560D03*
X132613360Y-102651560D03*
X133213360Y-102651560D03*
X133813360Y-102651560D03*
X134413360Y-102651560D03*
X135013360Y-102651560D03*
X135613360Y-102651560D03*
X136213360Y-102651560D03*
D31*
X137483360Y-105451560D03*
D12*
X155325160Y-97457340D03*
D13*
X158125160Y-99332340D03*
D14*
X155060160Y-99632340D03*
X155060160Y-98432340D03*
D13*
X158125160Y-98732340D03*
D14*
X155060160Y-99032340D03*
X155060160Y-100232340D03*
X155060160Y-100832340D03*
X155060160Y-101432340D03*
X155060160Y-102032340D03*
X155060160Y-102632340D03*
X155060160Y-103232340D03*
X155060160Y-103832340D03*
X155060160Y-104432340D03*
X155060160Y-105032340D03*
X155060160Y-105632340D03*
X155060160Y-106232340D03*
X155060160Y-106832340D03*
X155060160Y-107432340D03*
X155060160Y-108032340D03*
D13*
X158125160Y-99932340D03*
X158125160Y-100532340D03*
X158125160Y-101132340D03*
X158125160Y-101732340D03*
X158125160Y-102332340D03*
X158125160Y-102932340D03*
X158125160Y-103532340D03*
X158125160Y-104132340D03*
X158125160Y-104732340D03*
X158125160Y-105332340D03*
X158125160Y-105932340D03*
X158125160Y-106532340D03*
X158125160Y-107132340D03*
X158125160Y-107732340D03*
D12*
X155325160Y-109002340D03*
D18*
X130150160Y-86166440D03*
D19*
X129733600Y-86166440D03*
D20*
X129219160Y-86166440D03*
D18*
X128881200Y-86166440D03*
X128604200Y-86166440D03*
X128327200Y-86166440D03*
X128050200Y-86166440D03*
X127250160Y-86166440D03*
X126973160Y-86166440D03*
X125450160Y-86166440D03*
X124896160Y-86166440D03*
X119030160Y-86166440D03*
X118753160Y-86166440D03*
X118450160Y-86166440D03*
X118173160Y-86166440D03*
X117896160Y-86166440D03*
X117619160Y-86166440D03*
X116850160Y-86166440D03*
X116573160Y-86166440D03*
D20*
X114519000Y-86166440D03*
D18*
X114140000Y-86166440D03*
D19*
X113323160Y-86166440D03*
D18*
X111150160Y-86166440D03*
D21*
X120693740Y-84977720D03*
X120693740Y-84591640D03*
X120693740Y-85359520D03*
D22*
X121923100Y-86080080D03*
D18*
X131469840Y-118503560D03*
D19*
X131886400Y-118503560D03*
D20*
X132400840Y-118503560D03*
D18*
X132738800Y-118503560D03*
X133015800Y-118503560D03*
X133292800Y-118503560D03*
X133569800Y-118503560D03*
X134369840Y-118503560D03*
X134646840Y-118503560D03*
X136169840Y-118503560D03*
X136723840Y-118503560D03*
X142589840Y-118503560D03*
X142866840Y-118503560D03*
X143169840Y-118503560D03*
X143446840Y-118503560D03*
X143723840Y-118503560D03*
X144000840Y-118503560D03*
X144769840Y-118503560D03*
X145046840Y-118503560D03*
D20*
X147101000Y-118503560D03*
D18*
X147480000Y-118503560D03*
D19*
X148296840Y-118503560D03*
D18*
X150469840Y-118503560D03*
D21*
X140926260Y-119692280D03*
X140926260Y-120078360D03*
X140926260Y-119310480D03*
D22*
X139696900Y-118589920D03*
D18*
X111229840Y-118503560D03*
D19*
X111646400Y-118503560D03*
D20*
X112160840Y-118503560D03*
D18*
X112498800Y-118503560D03*
X112775800Y-118503560D03*
X113052800Y-118503560D03*
X113329800Y-118503560D03*
X114129840Y-118503560D03*
X114406840Y-118503560D03*
X115929840Y-118503560D03*
X116483840Y-118503560D03*
X122349840Y-118503560D03*
X122626840Y-118503560D03*
X122929840Y-118503560D03*
X123206840Y-118503560D03*
X123483840Y-118503560D03*
X123760840Y-118503560D03*
X124529840Y-118503560D03*
X124806840Y-118503560D03*
D20*
X126861000Y-118503560D03*
D18*
X127240000Y-118503560D03*
D19*
X128056840Y-118503560D03*
D18*
X130229840Y-118503560D03*
D21*
X120686260Y-119692280D03*
X120686260Y-120078360D03*
X120686260Y-119310480D03*
D22*
X119456900Y-118589920D03*
D15*
X160004760Y-89397840D03*
D16*
X160004760Y-86819740D03*
D15*
X162031680Y-89397840D03*
D16*
X162031680Y-86819740D03*
D15*
X164574220Y-89397840D03*
D16*
X164574220Y-86819740D03*
D15*
X166608760Y-89397840D03*
D16*
X166608760Y-86819740D03*
D15*
X161833560Y-98201480D03*
D16*
X161833560Y-95623380D03*
D15*
X163868100Y-98201480D03*
D16*
X163868100Y-95623380D03*
D15*
X166606220Y-98201480D03*
D16*
X166606220Y-95623380D03*
D15*
X169136060Y-98201480D03*
D16*
X169136060Y-95623380D03*
D15*
X161772600Y-107731560D03*
D16*
X161772600Y-105153460D03*
D15*
X166606220Y-115994180D03*
D16*
X166606220Y-113416080D03*
D15*
X162082480Y-115994180D03*
D16*
X162082480Y-113416080D03*
D15*
X163868100Y-107731560D03*
D16*
X163868100Y-105153460D03*
D15*
X164571680Y-115994180D03*
D16*
X164571680Y-113416080D03*
D15*
X160047940Y-115994180D03*
D16*
X160047940Y-113416080D03*
D15*
X169136060Y-107731560D03*
D16*
X169136060Y-105153460D03*
D15*
X166606220Y-107731560D03*
D16*
X166606220Y-105153460D03*
D34*
G36*
X136673000Y-106048000D02*
X126752000Y-106048000D01*
X126752000Y-105377000D01*
X136673000Y-105377000D01*
X136673000Y-106048000D01*
X136673000Y-106048000D01*
G37*
X136673000Y-106048000D02*
X126752000Y-106048000D01*
X126752000Y-105377000D01*
X136673000Y-105377000D01*
X136673000Y-106048000D01*
G36*
X136373000Y-102898000D02*
X127052000Y-102898000D01*
X127052000Y-102402000D01*
X136373000Y-102402000D01*
X136373000Y-102898000D01*
X136373000Y-102898000D01*
G37*
X136373000Y-102898000D02*
X127052000Y-102898000D01*
X127052000Y-102402000D01*
X136373000Y-102402000D01*
X136373000Y-102898000D01*
G36*
X155394660Y-108181140D02*
X154721560Y-108181140D01*
X154721560Y-98280220D01*
X155394660Y-98280220D01*
X155394660Y-108181140D01*
X155394660Y-108181140D01*
G37*
X155394660Y-108181140D02*
X154721560Y-108181140D01*
X154721560Y-98280220D01*
X155394660Y-98280220D01*
X155394660Y-108181140D01*
G36*
X158384240Y-107886500D02*
X157873700Y-107886500D01*
X157873700Y-98585020D01*
X158384240Y-98585020D01*
X158384240Y-107886500D01*
X158384240Y-107886500D01*
G37*
X158384240Y-107886500D02*
X157873700Y-107886500D01*
X157873700Y-98585020D01*
X158384240Y-98585020D01*
X158384240Y-107886500D01*
G36*
X151749760Y-86667340D02*
X109956600Y-86667340D01*
X109956600Y-84452460D01*
X151749760Y-84452460D01*
X151749760Y-86667340D01*
X151749760Y-86667340D01*
G37*
X151749760Y-86667340D02*
X109956600Y-86667340D01*
X109956600Y-84452460D01*
X151749760Y-84452460D01*
X151749760Y-86667340D01*
G36*
X151752300Y-120246140D02*
X109956600Y-120246140D01*
X109956600Y-118003320D01*
X111028480Y-118003320D01*
X111041023Y-118000780D01*
X151752300Y-118000780D01*
X151752300Y-120246140D01*
X151752300Y-120246140D01*
G37*
X151752300Y-120246140D02*
X109956600Y-120246140D01*
X109956600Y-118003320D01*
X111028480Y-118003320D01*
X111041023Y-118000780D01*
X151752300Y-118000780D01*
X151752300Y-120246140D01*
G36*
X176182020Y-108181140D02*
X175508920Y-108181140D01*
X175508920Y-98280220D01*
X176182020Y-98280220D01*
X176182020Y-108181140D01*
X176182020Y-108181140D01*
G37*
X176182020Y-108181140D02*
X175508920Y-108181140D01*
X175508920Y-98280220D01*
X176182020Y-98280220D01*
X176182020Y-108181140D01*
G36*
X179171600Y-107886500D02*
X178661060Y-107886500D01*
X178661060Y-98585020D01*
X179171600Y-98585020D01*
X179171600Y-107886500D01*
X179171600Y-107886500D01*
G37*
X179171600Y-107886500D02*
X178661060Y-107886500D01*
X178661060Y-98585020D01*
X179171600Y-98585020D01*
X179171600Y-107886500D01*
M02*
