G04 #@! TF.FileFunction,Legend,Top*
%FSLAX46Y46*%
G04 Gerber Fmt 4.6, Leading zero omitted, Abs format (unit mm)*
G04 Created by KiCad (PCBNEW 4.0.5) date Fri Apr 14 16:53:27 2017*
%MOMM*%
%LPD*%
G01*
G04 APERTURE LIST*
%ADD10C,0.100000*%
%ADD11C,0.149860*%
%ADD12C,0.127000*%
%ADD13C,0.114300*%
%ADD14C,0.050000*%
%ADD15C,0.120000*%
%ADD16C,0.150000*%
%ADD17C,0.101600*%
%ADD18C,0.129540*%
%ADD19R,0.700000X0.600000*%
%ADD20R,1.100000X0.450000*%
%ADD21R,0.600000X0.400000*%
%ADD22R,0.770000X0.400000*%
%ADD23R,1.100000X3.600000*%
%ADD24C,1.625600*%
%ADD25R,0.600000X0.700000*%
%ADD26R,0.250000X1.100000*%
%ADD27R,0.481000X1.100000*%
%ADD28R,0.354000X1.100000*%
%ADD29R,19.500000X0.350000*%
%ADD30R,1.624000X1.300000*%
%ADD31R,6.100000X2.017700*%
%ADD32R,0.700000X0.500000*%
%ADD33R,0.850000X0.900000*%
%ADD34R,0.600000X1.000000*%
%ADD35R,0.500000X0.700000*%
%ADD36R,1.000000X0.600000*%
%ADD37R,1.700000X1.100000*%
%ADD38C,2.640000*%
%ADD39R,0.450000X1.100000*%
%ADD40R,0.400000X0.600000*%
%ADD41R,0.400000X0.770000*%
%ADD42C,0.254000*%
G04 APERTURE END LIST*
D10*
D11*
X122824966Y-117094363D02*
X122494766Y-117094363D01*
X122494766Y-117613249D02*
X122494766Y-116622649D01*
X122966480Y-116622649D01*
X123343852Y-117094363D02*
X123674052Y-117094363D01*
X123815566Y-117613249D02*
X123343852Y-117613249D01*
X123343852Y-116622649D01*
X123815566Y-116622649D01*
X124570309Y-117094363D02*
X124711823Y-117141534D01*
X124758995Y-117188706D01*
X124806166Y-117283049D01*
X124806166Y-117424563D01*
X124758995Y-117518906D01*
X124711823Y-117566077D01*
X124617481Y-117613249D01*
X124240109Y-117613249D01*
X124240109Y-116622649D01*
X124570309Y-116622649D01*
X124664652Y-116669820D01*
X124711823Y-116716991D01*
X124758995Y-116811334D01*
X124758995Y-116905677D01*
X124711823Y-117000020D01*
X124664652Y-117047191D01*
X124570309Y-117094363D01*
X124240109Y-117094363D01*
D12*
X180944520Y-93263357D02*
X180944520Y-92900500D01*
X181162234Y-93335929D02*
X180400234Y-93081929D01*
X181162234Y-92827929D01*
X181234806Y-92755357D02*
X181234806Y-92174786D01*
X181162234Y-91993357D02*
X180400234Y-91993357D01*
X181162234Y-91557929D01*
X180400234Y-91557929D01*
X183091183Y-112091651D02*
X183127469Y-112127937D01*
X183163754Y-112236794D01*
X183163754Y-112309365D01*
X183127469Y-112418222D01*
X183054897Y-112490794D01*
X182982326Y-112527079D01*
X182837183Y-112563365D01*
X182728326Y-112563365D01*
X182583183Y-112527079D01*
X182510611Y-112490794D01*
X182438040Y-112418222D01*
X182401754Y-112309365D01*
X182401754Y-112236794D01*
X182438040Y-112127937D01*
X182474326Y-112091651D01*
X183163754Y-111656222D02*
X183127469Y-111728794D01*
X183054897Y-111765079D01*
X182401754Y-111765079D01*
X183163754Y-111365936D02*
X182401754Y-111365936D01*
X182873469Y-111293365D02*
X183163754Y-111075651D01*
X182655754Y-111075651D02*
X182946040Y-111365936D01*
X183236326Y-110930508D02*
X183236326Y-110349937D01*
X183163754Y-110168508D02*
X182401754Y-110168508D01*
X183163754Y-109733080D01*
X182401754Y-109733080D01*
X183212014Y-119859696D02*
X182450014Y-119859696D01*
X182450014Y-119678268D01*
X182486300Y-119569411D01*
X182558871Y-119496839D01*
X182631443Y-119460554D01*
X182776586Y-119424268D01*
X182885443Y-119424268D01*
X183030586Y-119460554D01*
X183103157Y-119496839D01*
X183175729Y-119569411D01*
X183212014Y-119678268D01*
X183212014Y-119859696D01*
X183284586Y-119279125D02*
X183284586Y-118698554D01*
X183212014Y-118517125D02*
X182450014Y-118517125D01*
X182450014Y-118226840D01*
X182486300Y-118154268D01*
X182522586Y-118117983D01*
X182595157Y-118081697D01*
X182704014Y-118081697D01*
X182776586Y-118117983D01*
X182812871Y-118154268D01*
X182849157Y-118226840D01*
X182849157Y-118517125D01*
X187637783Y-119439508D02*
X187674069Y-119475794D01*
X187710354Y-119584651D01*
X187710354Y-119657222D01*
X187674069Y-119766079D01*
X187601497Y-119838651D01*
X187528926Y-119874936D01*
X187383783Y-119911222D01*
X187274926Y-119911222D01*
X187129783Y-119874936D01*
X187057211Y-119838651D01*
X186984640Y-119766079D01*
X186948354Y-119657222D01*
X186948354Y-119584651D01*
X186984640Y-119475794D01*
X187020926Y-119439508D01*
X187782926Y-119294365D02*
X187782926Y-118713794D01*
X187710354Y-118532365D02*
X186948354Y-118532365D01*
X186948354Y-118242080D01*
X186984640Y-118169508D01*
X187020926Y-118133223D01*
X187093497Y-118096937D01*
X187202354Y-118096937D01*
X187274926Y-118133223D01*
X187311211Y-118169508D01*
X187347497Y-118242080D01*
X187347497Y-118532365D01*
X185646423Y-119457651D02*
X185682709Y-119493937D01*
X185718994Y-119602794D01*
X185718994Y-119675365D01*
X185682709Y-119784222D01*
X185610137Y-119856794D01*
X185537566Y-119893079D01*
X185392423Y-119929365D01*
X185283566Y-119929365D01*
X185138423Y-119893079D01*
X185065851Y-119856794D01*
X184993280Y-119784222D01*
X184956994Y-119675365D01*
X184956994Y-119602794D01*
X184993280Y-119493937D01*
X185029566Y-119457651D01*
X185791566Y-119312508D02*
X185791566Y-118731937D01*
X185718994Y-118550508D02*
X184956994Y-118550508D01*
X185718994Y-118115080D01*
X184956994Y-118115080D01*
X185001263Y-112012548D02*
X185037549Y-112048834D01*
X185073834Y-112157691D01*
X185073834Y-112230262D01*
X185037549Y-112339119D01*
X184964977Y-112411691D01*
X184892406Y-112447976D01*
X184747263Y-112484262D01*
X184638406Y-112484262D01*
X184493263Y-112447976D01*
X184420691Y-112411691D01*
X184348120Y-112339119D01*
X184311834Y-112230262D01*
X184311834Y-112157691D01*
X184348120Y-112048834D01*
X184384406Y-112012548D01*
X185073834Y-111577119D02*
X185037549Y-111649691D01*
X184964977Y-111685976D01*
X184311834Y-111685976D01*
X185073834Y-111286833D02*
X184311834Y-111286833D01*
X184783549Y-111214262D02*
X185073834Y-110996548D01*
X184565834Y-110996548D02*
X184856120Y-111286833D01*
X185146406Y-110851405D02*
X185146406Y-110270834D01*
X185073834Y-110089405D02*
X184311834Y-110089405D01*
X184311834Y-109799120D01*
X184348120Y-109726548D01*
X184384406Y-109690263D01*
X184456977Y-109653977D01*
X184565834Y-109653977D01*
X184638406Y-109690263D01*
X184674691Y-109726548D01*
X184710977Y-109799120D01*
X184710977Y-110089405D01*
X181162234Y-119872759D02*
X180400234Y-119872759D01*
X180400234Y-119691331D01*
X180436520Y-119582474D01*
X180509091Y-119509902D01*
X180581663Y-119473617D01*
X180726806Y-119437331D01*
X180835663Y-119437331D01*
X180980806Y-119473617D01*
X181053377Y-119509902D01*
X181125949Y-119582474D01*
X181162234Y-119691331D01*
X181162234Y-119872759D01*
X181234806Y-119292188D02*
X181234806Y-118711617D01*
X181162234Y-118530188D02*
X180400234Y-118530188D01*
X181162234Y-118094760D01*
X180400234Y-118094760D01*
X185077463Y-103258983D02*
X185113749Y-103295269D01*
X185150034Y-103404126D01*
X185150034Y-103476697D01*
X185113749Y-103585554D01*
X185041177Y-103658126D01*
X184968606Y-103694411D01*
X184823463Y-103730697D01*
X184714606Y-103730697D01*
X184569463Y-103694411D01*
X184496891Y-103658126D01*
X184424320Y-103585554D01*
X184388034Y-103476697D01*
X184388034Y-103404126D01*
X184424320Y-103295269D01*
X184460606Y-103258983D01*
X185150034Y-102932411D02*
X184642034Y-102932411D01*
X184714606Y-102932411D02*
X184678320Y-102896126D01*
X184642034Y-102823554D01*
X184642034Y-102714697D01*
X184678320Y-102642126D01*
X184750891Y-102605840D01*
X185150034Y-102605840D01*
X184750891Y-102605840D02*
X184678320Y-102569554D01*
X184642034Y-102496983D01*
X184642034Y-102388126D01*
X184678320Y-102315554D01*
X184750891Y-102279269D01*
X185150034Y-102279269D01*
X185150034Y-101589840D02*
X184388034Y-101589840D01*
X185113749Y-101589840D02*
X185150034Y-101662411D01*
X185150034Y-101807554D01*
X185113749Y-101880126D01*
X185077463Y-101916411D01*
X185004891Y-101952697D01*
X184787177Y-101952697D01*
X184714606Y-101916411D01*
X184678320Y-101880126D01*
X184642034Y-101807554D01*
X184642034Y-101662411D01*
X184678320Y-101589840D01*
X185222606Y-101408411D02*
X185222606Y-100827840D01*
X185150034Y-100646411D02*
X184388034Y-100646411D01*
X184388034Y-100356126D01*
X184424320Y-100283554D01*
X184460606Y-100247269D01*
X184533177Y-100210983D01*
X184642034Y-100210983D01*
X184714606Y-100247269D01*
X184750891Y-100283554D01*
X184787177Y-100356126D01*
X184787177Y-100646411D01*
X189127674Y-108352045D02*
X188365674Y-108352045D01*
X188728531Y-108352045D02*
X188728531Y-107916617D01*
X189127674Y-107916617D02*
X188365674Y-107916617D01*
X188365674Y-107662617D02*
X189127674Y-107408617D01*
X188365674Y-107154617D01*
X186597834Y-109521897D02*
X185835834Y-109521897D01*
X186198691Y-109521897D02*
X186198691Y-109086469D01*
X186597834Y-109086469D02*
X185835834Y-109086469D01*
X185835834Y-108832469D02*
X186597834Y-108578469D01*
X185835834Y-108324469D01*
X186670406Y-108251897D02*
X186670406Y-107671326D01*
X186597834Y-107054469D02*
X186234977Y-107308469D01*
X186597834Y-107489897D02*
X185835834Y-107489897D01*
X185835834Y-107199612D01*
X185872120Y-107127040D01*
X185908406Y-107090755D01*
X185980977Y-107054469D01*
X186089834Y-107054469D01*
X186162406Y-107090755D01*
X186198691Y-107127040D01*
X186234977Y-107199612D01*
X186234977Y-107489897D01*
X186561549Y-106437612D02*
X186597834Y-106510183D01*
X186597834Y-106655326D01*
X186561549Y-106727897D01*
X186488977Y-106764183D01*
X186198691Y-106764183D01*
X186126120Y-106727897D01*
X186089834Y-106655326D01*
X186089834Y-106510183D01*
X186126120Y-106437612D01*
X186198691Y-106401326D01*
X186271263Y-106401326D01*
X186343834Y-106764183D01*
X186089834Y-106183612D02*
X186089834Y-105893326D01*
X185835834Y-106074754D02*
X186488977Y-106074754D01*
X186561549Y-106038469D01*
X186597834Y-105965897D01*
X186597834Y-105893326D01*
X189155614Y-99141279D02*
X188393614Y-99141279D01*
X189155614Y-98705851D01*
X188393614Y-98705851D01*
X188393614Y-98451851D02*
X188393614Y-98016422D01*
X189155614Y-98234136D02*
X188393614Y-98234136D01*
X189083043Y-97326994D02*
X189119329Y-97363280D01*
X189155614Y-97472137D01*
X189155614Y-97544708D01*
X189119329Y-97653565D01*
X189046757Y-97726137D01*
X188974186Y-97762422D01*
X188829043Y-97798708D01*
X188720186Y-97798708D01*
X188575043Y-97762422D01*
X188502471Y-97726137D01*
X188429900Y-97653565D01*
X188393614Y-97544708D01*
X188393614Y-97472137D01*
X188429900Y-97363280D01*
X188466186Y-97326994D01*
X182989220Y-93196954D02*
X182989220Y-92834097D01*
X183206934Y-93269526D02*
X182444934Y-93015526D01*
X183206934Y-92761526D01*
X183279506Y-92688954D02*
X183279506Y-92108383D01*
X183206934Y-91926954D02*
X182444934Y-91926954D01*
X182444934Y-91636669D01*
X182481220Y-91564097D01*
X182517506Y-91527812D01*
X182590077Y-91491526D01*
X182698934Y-91491526D01*
X182771506Y-91527812D01*
X182807791Y-91564097D01*
X182844077Y-91636669D01*
X182844077Y-91926954D01*
X186641014Y-100217151D02*
X185879014Y-100217151D01*
X186641014Y-99781723D01*
X185879014Y-99781723D01*
X185879014Y-99527723D02*
X185879014Y-99092294D01*
X186641014Y-99310008D02*
X185879014Y-99310008D01*
X186568443Y-98402866D02*
X186604729Y-98439152D01*
X186641014Y-98548009D01*
X186641014Y-98620580D01*
X186604729Y-98729437D01*
X186532157Y-98802009D01*
X186459586Y-98838294D01*
X186314443Y-98874580D01*
X186205586Y-98874580D01*
X186060443Y-98838294D01*
X185987871Y-98802009D01*
X185915300Y-98729437D01*
X185879014Y-98620580D01*
X185879014Y-98548009D01*
X185915300Y-98439152D01*
X185951586Y-98402866D01*
X186713586Y-98257723D02*
X186713586Y-97677152D01*
X186641014Y-97060295D02*
X186278157Y-97314295D01*
X186641014Y-97495723D02*
X185879014Y-97495723D01*
X185879014Y-97205438D01*
X185915300Y-97132866D01*
X185951586Y-97096581D01*
X186024157Y-97060295D01*
X186133014Y-97060295D01*
X186205586Y-97096581D01*
X186241871Y-97132866D01*
X186278157Y-97205438D01*
X186278157Y-97495723D01*
X186604729Y-96443438D02*
X186641014Y-96516009D01*
X186641014Y-96661152D01*
X186604729Y-96733723D01*
X186532157Y-96770009D01*
X186241871Y-96770009D01*
X186169300Y-96733723D01*
X186133014Y-96661152D01*
X186133014Y-96516009D01*
X186169300Y-96443438D01*
X186241871Y-96407152D01*
X186314443Y-96407152D01*
X186387014Y-96770009D01*
X186133014Y-96189438D02*
X186133014Y-95899152D01*
X185879014Y-96080580D02*
X186532157Y-96080580D01*
X186604729Y-96044295D01*
X186641014Y-95971723D01*
X186641014Y-95899152D01*
X183009903Y-103312686D02*
X183046189Y-103348972D01*
X183082474Y-103457829D01*
X183082474Y-103530400D01*
X183046189Y-103639257D01*
X182973617Y-103711829D01*
X182901046Y-103748114D01*
X182755903Y-103784400D01*
X182647046Y-103784400D01*
X182501903Y-103748114D01*
X182429331Y-103711829D01*
X182356760Y-103639257D01*
X182320474Y-103530400D01*
X182320474Y-103457829D01*
X182356760Y-103348972D01*
X182393046Y-103312686D01*
X183082474Y-102986114D02*
X182574474Y-102986114D01*
X182647046Y-102986114D02*
X182610760Y-102949829D01*
X182574474Y-102877257D01*
X182574474Y-102768400D01*
X182610760Y-102695829D01*
X182683331Y-102659543D01*
X183082474Y-102659543D01*
X182683331Y-102659543D02*
X182610760Y-102623257D01*
X182574474Y-102550686D01*
X182574474Y-102441829D01*
X182610760Y-102369257D01*
X182683331Y-102332972D01*
X183082474Y-102332972D01*
X183082474Y-101643543D02*
X182320474Y-101643543D01*
X183046189Y-101643543D02*
X183082474Y-101716114D01*
X183082474Y-101861257D01*
X183046189Y-101933829D01*
X183009903Y-101970114D01*
X182937331Y-102006400D01*
X182719617Y-102006400D01*
X182647046Y-101970114D01*
X182610760Y-101933829D01*
X182574474Y-101861257D01*
X182574474Y-101716114D01*
X182610760Y-101643543D01*
X183155046Y-101462114D02*
X183155046Y-100881543D01*
X183082474Y-100700114D02*
X182320474Y-100700114D01*
X183082474Y-100264686D01*
X182320474Y-100264686D01*
X187265491Y-92986496D02*
X187301777Y-92877639D01*
X187338063Y-92841354D01*
X187410634Y-92805068D01*
X187519491Y-92805068D01*
X187592063Y-92841354D01*
X187628349Y-92877639D01*
X187664634Y-92950211D01*
X187664634Y-93240496D01*
X186902634Y-93240496D01*
X186902634Y-92986496D01*
X186938920Y-92913925D01*
X186975206Y-92877639D01*
X187047777Y-92841354D01*
X187120349Y-92841354D01*
X187192920Y-92877639D01*
X187229206Y-92913925D01*
X187265491Y-92986496D01*
X187265491Y-93240496D01*
X187737206Y-92659925D02*
X187737206Y-92079354D01*
X187664634Y-91897925D02*
X186902634Y-91897925D01*
X186902634Y-91607640D01*
X186938920Y-91535068D01*
X186975206Y-91498783D01*
X187047777Y-91462497D01*
X187156634Y-91462497D01*
X187229206Y-91498783D01*
X187265491Y-91535068D01*
X187301777Y-91607640D01*
X187301777Y-91897925D01*
X185238571Y-92989399D02*
X185274857Y-92880542D01*
X185311143Y-92844257D01*
X185383714Y-92807971D01*
X185492571Y-92807971D01*
X185565143Y-92844257D01*
X185601429Y-92880542D01*
X185637714Y-92953114D01*
X185637714Y-93243399D01*
X184875714Y-93243399D01*
X184875714Y-92989399D01*
X184912000Y-92916828D01*
X184948286Y-92880542D01*
X185020857Y-92844257D01*
X185093429Y-92844257D01*
X185166000Y-92880542D01*
X185202286Y-92916828D01*
X185238571Y-92989399D01*
X185238571Y-93243399D01*
X185710286Y-92662828D02*
X185710286Y-92082257D01*
X185637714Y-91900828D02*
X184875714Y-91900828D01*
X185637714Y-91465400D01*
X184875714Y-91465400D01*
D13*
X119749026Y-98723994D02*
X119579692Y-98723994D01*
X119579692Y-98990090D02*
X119579692Y-98482090D01*
X119821597Y-98482090D01*
X120015121Y-98723994D02*
X120184455Y-98723994D01*
X120257026Y-98990090D02*
X120015121Y-98990090D01*
X120015121Y-98482090D01*
X120257026Y-98482090D01*
X120474740Y-98796566D02*
X120861788Y-98796566D01*
X121103692Y-98990090D02*
X121103692Y-98482090D01*
X121563312Y-98651423D02*
X121563312Y-98990090D01*
X121442359Y-98457899D02*
X121321407Y-98820756D01*
X121635883Y-98820756D01*
X121998741Y-98723994D02*
X122071312Y-98748185D01*
X122095503Y-98772375D01*
X122119693Y-98820756D01*
X122119693Y-98893328D01*
X122095503Y-98941709D01*
X122071312Y-98965899D01*
X122022931Y-98990090D01*
X121829407Y-98990090D01*
X121829407Y-98482090D01*
X121998741Y-98482090D01*
X122047122Y-98506280D01*
X122071312Y-98530470D01*
X122095503Y-98578851D01*
X122095503Y-98627232D01*
X122071312Y-98675613D01*
X122047122Y-98699804D01*
X121998741Y-98723994D01*
X121829407Y-98723994D01*
X123063122Y-99038470D02*
X123014741Y-99014280D01*
X122966360Y-98965899D01*
X122893789Y-98893328D01*
X122845408Y-98869137D01*
X122797027Y-98869137D01*
X122821217Y-98990090D02*
X122772836Y-98965899D01*
X122724455Y-98917518D01*
X122700265Y-98820756D01*
X122700265Y-98651423D01*
X122724455Y-98554661D01*
X122772836Y-98506280D01*
X122821217Y-98482090D01*
X122917979Y-98482090D01*
X122966360Y-98506280D01*
X123014741Y-98554661D01*
X123038932Y-98651423D01*
X123038932Y-98820756D01*
X123014741Y-98917518D01*
X122966360Y-98965899D01*
X122917979Y-98990090D01*
X122821217Y-98990090D01*
X123474360Y-98651423D02*
X123474360Y-98990090D01*
X123256645Y-98651423D02*
X123256645Y-98917518D01*
X123280836Y-98965899D01*
X123329217Y-98990090D01*
X123401788Y-98990090D01*
X123450169Y-98965899D01*
X123474360Y-98941709D01*
X123933979Y-98990090D02*
X123933979Y-98723994D01*
X123909788Y-98675613D01*
X123861407Y-98651423D01*
X123764645Y-98651423D01*
X123716264Y-98675613D01*
X123933979Y-98965899D02*
X123885598Y-98990090D01*
X123764645Y-98990090D01*
X123716264Y-98965899D01*
X123692074Y-98917518D01*
X123692074Y-98869137D01*
X123716264Y-98820756D01*
X123764645Y-98796566D01*
X123885598Y-98796566D01*
X123933979Y-98772375D01*
X124393598Y-98990090D02*
X124393598Y-98482090D01*
X124393598Y-98965899D02*
X124345217Y-98990090D01*
X124248455Y-98990090D01*
X124200074Y-98965899D01*
X124175883Y-98941709D01*
X124151693Y-98893328D01*
X124151693Y-98748185D01*
X124175883Y-98699804D01*
X124200074Y-98675613D01*
X124248455Y-98651423D01*
X124345217Y-98651423D01*
X124393598Y-98675613D01*
X125264455Y-98990090D02*
X125022550Y-98990090D01*
X125022550Y-98482090D01*
X125603122Y-98723994D02*
X125675693Y-98748185D01*
X125699884Y-98772375D01*
X125724074Y-98820756D01*
X125724074Y-98893328D01*
X125699884Y-98941709D01*
X125675693Y-98965899D01*
X125627312Y-98990090D01*
X125433788Y-98990090D01*
X125433788Y-98482090D01*
X125603122Y-98482090D01*
X125651503Y-98506280D01*
X125675693Y-98530470D01*
X125699884Y-98578851D01*
X125699884Y-98627232D01*
X125675693Y-98675613D01*
X125651503Y-98699804D01*
X125603122Y-98723994D01*
X125433788Y-98723994D01*
X125941788Y-98990090D02*
X125941788Y-98482090D01*
X126232074Y-98990090D01*
X126232074Y-98482090D01*
X126715883Y-98990090D02*
X126473978Y-98990090D01*
X126473978Y-98482090D01*
X119579692Y-99866390D02*
X119579692Y-99358390D01*
X119869978Y-99866390D02*
X119652264Y-99576104D01*
X119869978Y-99358390D02*
X119579692Y-99648675D01*
X120087692Y-99818009D02*
X120111883Y-99842199D01*
X120087692Y-99866390D01*
X120063502Y-99842199D01*
X120087692Y-99818009D01*
X120087692Y-99866390D01*
X120716645Y-99866390D02*
X120716645Y-99358390D01*
X120837598Y-99358390D01*
X120910169Y-99382580D01*
X120958550Y-99430961D01*
X120982741Y-99479342D01*
X121006931Y-99576104D01*
X121006931Y-99648675D01*
X120982741Y-99745437D01*
X120958550Y-99793818D01*
X120910169Y-99842199D01*
X120837598Y-99866390D01*
X120716645Y-99866390D01*
X121442360Y-99527723D02*
X121442360Y-99866390D01*
X121224645Y-99527723D02*
X121224645Y-99793818D01*
X121248836Y-99842199D01*
X121297217Y-99866390D01*
X121369788Y-99866390D01*
X121418169Y-99842199D01*
X121442360Y-99818009D01*
X121684264Y-99527723D02*
X121684264Y-99866390D01*
X121684264Y-99576104D02*
X121708455Y-99551913D01*
X121756836Y-99527723D01*
X121829407Y-99527723D01*
X121877788Y-99551913D01*
X121901979Y-99600294D01*
X121901979Y-99866390D01*
X122143883Y-99527723D02*
X122143883Y-99866390D01*
X122143883Y-99576104D02*
X122168074Y-99551913D01*
X122216455Y-99527723D01*
X122289026Y-99527723D01*
X122337407Y-99551913D01*
X122361598Y-99600294D01*
X122361598Y-99866390D01*
X122797026Y-99842199D02*
X122748645Y-99866390D01*
X122651883Y-99866390D01*
X122603502Y-99842199D01*
X122579312Y-99793818D01*
X122579312Y-99600294D01*
X122603502Y-99551913D01*
X122651883Y-99527723D01*
X122748645Y-99527723D01*
X122797026Y-99551913D01*
X122821217Y-99600294D01*
X122821217Y-99648675D01*
X122579312Y-99697056D01*
X119555502Y-100597547D02*
X119797407Y-100597547D01*
X119507121Y-100742690D02*
X119676454Y-100234690D01*
X119845788Y-100742690D01*
X120015121Y-100404023D02*
X120015121Y-100912023D01*
X120015121Y-100428213D02*
X120063502Y-100404023D01*
X120160264Y-100404023D01*
X120208645Y-100428213D01*
X120232836Y-100452404D01*
X120257026Y-100500785D01*
X120257026Y-100645928D01*
X120232836Y-100694309D01*
X120208645Y-100718499D01*
X120160264Y-100742690D01*
X120063502Y-100742690D01*
X120015121Y-100718499D01*
X120474740Y-100742690D02*
X120474740Y-100404023D01*
X120474740Y-100500785D02*
X120498931Y-100452404D01*
X120523121Y-100428213D01*
X120571502Y-100404023D01*
X120619883Y-100404023D01*
X120789216Y-100742690D02*
X120789216Y-100404023D01*
X120789216Y-100234690D02*
X120765026Y-100258880D01*
X120789216Y-100283070D01*
X120813407Y-100258880D01*
X120789216Y-100234690D01*
X120789216Y-100283070D01*
X121103693Y-100742690D02*
X121055312Y-100718499D01*
X121031121Y-100670118D01*
X121031121Y-100234690D01*
X121660074Y-100283070D02*
X121684264Y-100258880D01*
X121732645Y-100234690D01*
X121853598Y-100234690D01*
X121901979Y-100258880D01*
X121926169Y-100283070D01*
X121950360Y-100331451D01*
X121950360Y-100379832D01*
X121926169Y-100452404D01*
X121635883Y-100742690D01*
X121950360Y-100742690D01*
X122264836Y-100234690D02*
X122313217Y-100234690D01*
X122361598Y-100258880D01*
X122385789Y-100283070D01*
X122409979Y-100331451D01*
X122434170Y-100428213D01*
X122434170Y-100549166D01*
X122409979Y-100645928D01*
X122385789Y-100694309D01*
X122361598Y-100718499D01*
X122313217Y-100742690D01*
X122264836Y-100742690D01*
X122216455Y-100718499D01*
X122192265Y-100694309D01*
X122168074Y-100645928D01*
X122143884Y-100549166D01*
X122143884Y-100428213D01*
X122168074Y-100331451D01*
X122192265Y-100283070D01*
X122216455Y-100258880D01*
X122264836Y-100234690D01*
X122917980Y-100742690D02*
X122627694Y-100742690D01*
X122772837Y-100742690D02*
X122772837Y-100234690D01*
X122724456Y-100307261D01*
X122676075Y-100355642D01*
X122627694Y-100379832D01*
X123087313Y-100234690D02*
X123425980Y-100234690D01*
X123208266Y-100742690D01*
D12*
X160157160Y-93263357D02*
X160157160Y-92900500D01*
X160374874Y-93335929D02*
X159612874Y-93081929D01*
X160374874Y-92827929D01*
X160447446Y-92755357D02*
X160447446Y-92174786D01*
X160374874Y-91993357D02*
X159612874Y-91993357D01*
X160374874Y-91557929D01*
X159612874Y-91557929D01*
X165853654Y-100217151D02*
X165091654Y-100217151D01*
X165853654Y-99781723D01*
X165091654Y-99781723D01*
X165091654Y-99527723D02*
X165091654Y-99092294D01*
X165853654Y-99310008D02*
X165091654Y-99310008D01*
X165781083Y-98402866D02*
X165817369Y-98439152D01*
X165853654Y-98548009D01*
X165853654Y-98620580D01*
X165817369Y-98729437D01*
X165744797Y-98802009D01*
X165672226Y-98838294D01*
X165527083Y-98874580D01*
X165418226Y-98874580D01*
X165273083Y-98838294D01*
X165200511Y-98802009D01*
X165127940Y-98729437D01*
X165091654Y-98620580D01*
X165091654Y-98548009D01*
X165127940Y-98439152D01*
X165164226Y-98402866D01*
X165926226Y-98257723D02*
X165926226Y-97677152D01*
X165853654Y-97060295D02*
X165490797Y-97314295D01*
X165853654Y-97495723D02*
X165091654Y-97495723D01*
X165091654Y-97205438D01*
X165127940Y-97132866D01*
X165164226Y-97096581D01*
X165236797Y-97060295D01*
X165345654Y-97060295D01*
X165418226Y-97096581D01*
X165454511Y-97132866D01*
X165490797Y-97205438D01*
X165490797Y-97495723D01*
X165817369Y-96443438D02*
X165853654Y-96516009D01*
X165853654Y-96661152D01*
X165817369Y-96733723D01*
X165744797Y-96770009D01*
X165454511Y-96770009D01*
X165381940Y-96733723D01*
X165345654Y-96661152D01*
X165345654Y-96516009D01*
X165381940Y-96443438D01*
X165454511Y-96407152D01*
X165527083Y-96407152D01*
X165599654Y-96770009D01*
X165345654Y-96189438D02*
X165345654Y-95899152D01*
X165091654Y-96080580D02*
X165744797Y-96080580D01*
X165817369Y-96044295D01*
X165853654Y-95971723D01*
X165853654Y-95899152D01*
X168368254Y-99141279D02*
X167606254Y-99141279D01*
X168368254Y-98705851D01*
X167606254Y-98705851D01*
X167606254Y-98451851D02*
X167606254Y-98016422D01*
X168368254Y-98234136D02*
X167606254Y-98234136D01*
X168295683Y-97326994D02*
X168331969Y-97363280D01*
X168368254Y-97472137D01*
X168368254Y-97544708D01*
X168331969Y-97653565D01*
X168259397Y-97726137D01*
X168186826Y-97762422D01*
X168041683Y-97798708D01*
X167932826Y-97798708D01*
X167787683Y-97762422D01*
X167715111Y-97726137D01*
X167642540Y-97653565D01*
X167606254Y-97544708D01*
X167606254Y-97472137D01*
X167642540Y-97363280D01*
X167678826Y-97326994D01*
X168340314Y-108352045D02*
X167578314Y-108352045D01*
X167941171Y-108352045D02*
X167941171Y-107916617D01*
X168340314Y-107916617D02*
X167578314Y-107916617D01*
X167578314Y-107662617D02*
X168340314Y-107408617D01*
X167578314Y-107154617D01*
X165810474Y-109521897D02*
X165048474Y-109521897D01*
X165411331Y-109521897D02*
X165411331Y-109086469D01*
X165810474Y-109086469D02*
X165048474Y-109086469D01*
X165048474Y-108832469D02*
X165810474Y-108578469D01*
X165048474Y-108324469D01*
X165883046Y-108251897D02*
X165883046Y-107671326D01*
X165810474Y-107054469D02*
X165447617Y-107308469D01*
X165810474Y-107489897D02*
X165048474Y-107489897D01*
X165048474Y-107199612D01*
X165084760Y-107127040D01*
X165121046Y-107090755D01*
X165193617Y-107054469D01*
X165302474Y-107054469D01*
X165375046Y-107090755D01*
X165411331Y-107127040D01*
X165447617Y-107199612D01*
X165447617Y-107489897D01*
X165774189Y-106437612D02*
X165810474Y-106510183D01*
X165810474Y-106655326D01*
X165774189Y-106727897D01*
X165701617Y-106764183D01*
X165411331Y-106764183D01*
X165338760Y-106727897D01*
X165302474Y-106655326D01*
X165302474Y-106510183D01*
X165338760Y-106437612D01*
X165411331Y-106401326D01*
X165483903Y-106401326D01*
X165556474Y-106764183D01*
X165302474Y-106183612D02*
X165302474Y-105893326D01*
X165048474Y-106074754D02*
X165701617Y-106074754D01*
X165774189Y-106038469D01*
X165810474Y-105965897D01*
X165810474Y-105893326D01*
X166850423Y-119439508D02*
X166886709Y-119475794D01*
X166922994Y-119584651D01*
X166922994Y-119657222D01*
X166886709Y-119766079D01*
X166814137Y-119838651D01*
X166741566Y-119874936D01*
X166596423Y-119911222D01*
X166487566Y-119911222D01*
X166342423Y-119874936D01*
X166269851Y-119838651D01*
X166197280Y-119766079D01*
X166160994Y-119657222D01*
X166160994Y-119584651D01*
X166197280Y-119475794D01*
X166233566Y-119439508D01*
X166995566Y-119294365D02*
X166995566Y-118713794D01*
X166922994Y-118532365D02*
X166160994Y-118532365D01*
X166160994Y-118242080D01*
X166197280Y-118169508D01*
X166233566Y-118133223D01*
X166306137Y-118096937D01*
X166414994Y-118096937D01*
X166487566Y-118133223D01*
X166523851Y-118169508D01*
X166560137Y-118242080D01*
X166560137Y-118532365D01*
X164859063Y-119457651D02*
X164895349Y-119493937D01*
X164931634Y-119602794D01*
X164931634Y-119675365D01*
X164895349Y-119784222D01*
X164822777Y-119856794D01*
X164750206Y-119893079D01*
X164605063Y-119929365D01*
X164496206Y-119929365D01*
X164351063Y-119893079D01*
X164278491Y-119856794D01*
X164205920Y-119784222D01*
X164169634Y-119675365D01*
X164169634Y-119602794D01*
X164205920Y-119493937D01*
X164242206Y-119457651D01*
X165004206Y-119312508D02*
X165004206Y-118731937D01*
X164931634Y-118550508D02*
X164169634Y-118550508D01*
X164931634Y-118115080D01*
X164169634Y-118115080D01*
X162424654Y-119859696D02*
X161662654Y-119859696D01*
X161662654Y-119678268D01*
X161698940Y-119569411D01*
X161771511Y-119496839D01*
X161844083Y-119460554D01*
X161989226Y-119424268D01*
X162098083Y-119424268D01*
X162243226Y-119460554D01*
X162315797Y-119496839D01*
X162388369Y-119569411D01*
X162424654Y-119678268D01*
X162424654Y-119859696D01*
X162497226Y-119279125D02*
X162497226Y-118698554D01*
X162424654Y-118517125D02*
X161662654Y-118517125D01*
X161662654Y-118226840D01*
X161698940Y-118154268D01*
X161735226Y-118117983D01*
X161807797Y-118081697D01*
X161916654Y-118081697D01*
X161989226Y-118117983D01*
X162025511Y-118154268D01*
X162061797Y-118226840D01*
X162061797Y-118517125D01*
X160374874Y-119872759D02*
X159612874Y-119872759D01*
X159612874Y-119691331D01*
X159649160Y-119582474D01*
X159721731Y-119509902D01*
X159794303Y-119473617D01*
X159939446Y-119437331D01*
X160048303Y-119437331D01*
X160193446Y-119473617D01*
X160266017Y-119509902D01*
X160338589Y-119582474D01*
X160374874Y-119691331D01*
X160374874Y-119872759D01*
X160447446Y-119292188D02*
X160447446Y-118711617D01*
X160374874Y-118530188D02*
X159612874Y-118530188D01*
X160374874Y-118094760D01*
X159612874Y-118094760D01*
X164213903Y-112012548D02*
X164250189Y-112048834D01*
X164286474Y-112157691D01*
X164286474Y-112230262D01*
X164250189Y-112339119D01*
X164177617Y-112411691D01*
X164105046Y-112447976D01*
X163959903Y-112484262D01*
X163851046Y-112484262D01*
X163705903Y-112447976D01*
X163633331Y-112411691D01*
X163560760Y-112339119D01*
X163524474Y-112230262D01*
X163524474Y-112157691D01*
X163560760Y-112048834D01*
X163597046Y-112012548D01*
X164286474Y-111577119D02*
X164250189Y-111649691D01*
X164177617Y-111685976D01*
X163524474Y-111685976D01*
X164286474Y-111286833D02*
X163524474Y-111286833D01*
X163996189Y-111214262D02*
X164286474Y-110996548D01*
X163778474Y-110996548D02*
X164068760Y-111286833D01*
X164359046Y-110851405D02*
X164359046Y-110270834D01*
X164286474Y-110089405D02*
X163524474Y-110089405D01*
X163524474Y-109799120D01*
X163560760Y-109726548D01*
X163597046Y-109690263D01*
X163669617Y-109653977D01*
X163778474Y-109653977D01*
X163851046Y-109690263D01*
X163887331Y-109726548D01*
X163923617Y-109799120D01*
X163923617Y-110089405D01*
X162303823Y-112091651D02*
X162340109Y-112127937D01*
X162376394Y-112236794D01*
X162376394Y-112309365D01*
X162340109Y-112418222D01*
X162267537Y-112490794D01*
X162194966Y-112527079D01*
X162049823Y-112563365D01*
X161940966Y-112563365D01*
X161795823Y-112527079D01*
X161723251Y-112490794D01*
X161650680Y-112418222D01*
X161614394Y-112309365D01*
X161614394Y-112236794D01*
X161650680Y-112127937D01*
X161686966Y-112091651D01*
X162376394Y-111656222D02*
X162340109Y-111728794D01*
X162267537Y-111765079D01*
X161614394Y-111765079D01*
X162376394Y-111365936D02*
X161614394Y-111365936D01*
X162086109Y-111293365D02*
X162376394Y-111075651D01*
X161868394Y-111075651D02*
X162158680Y-111365936D01*
X162448966Y-110930508D02*
X162448966Y-110349937D01*
X162376394Y-110168508D02*
X161614394Y-110168508D01*
X162376394Y-109733080D01*
X161614394Y-109733080D01*
X164290103Y-103258983D02*
X164326389Y-103295269D01*
X164362674Y-103404126D01*
X164362674Y-103476697D01*
X164326389Y-103585554D01*
X164253817Y-103658126D01*
X164181246Y-103694411D01*
X164036103Y-103730697D01*
X163927246Y-103730697D01*
X163782103Y-103694411D01*
X163709531Y-103658126D01*
X163636960Y-103585554D01*
X163600674Y-103476697D01*
X163600674Y-103404126D01*
X163636960Y-103295269D01*
X163673246Y-103258983D01*
X164362674Y-102932411D02*
X163854674Y-102932411D01*
X163927246Y-102932411D02*
X163890960Y-102896126D01*
X163854674Y-102823554D01*
X163854674Y-102714697D01*
X163890960Y-102642126D01*
X163963531Y-102605840D01*
X164362674Y-102605840D01*
X163963531Y-102605840D02*
X163890960Y-102569554D01*
X163854674Y-102496983D01*
X163854674Y-102388126D01*
X163890960Y-102315554D01*
X163963531Y-102279269D01*
X164362674Y-102279269D01*
X164362674Y-101589840D02*
X163600674Y-101589840D01*
X164326389Y-101589840D02*
X164362674Y-101662411D01*
X164362674Y-101807554D01*
X164326389Y-101880126D01*
X164290103Y-101916411D01*
X164217531Y-101952697D01*
X163999817Y-101952697D01*
X163927246Y-101916411D01*
X163890960Y-101880126D01*
X163854674Y-101807554D01*
X163854674Y-101662411D01*
X163890960Y-101589840D01*
X164435246Y-101408411D02*
X164435246Y-100827840D01*
X164362674Y-100646411D02*
X163600674Y-100646411D01*
X163600674Y-100356126D01*
X163636960Y-100283554D01*
X163673246Y-100247269D01*
X163745817Y-100210983D01*
X163854674Y-100210983D01*
X163927246Y-100247269D01*
X163963531Y-100283554D01*
X163999817Y-100356126D01*
X163999817Y-100646411D01*
X162222543Y-103312686D02*
X162258829Y-103348972D01*
X162295114Y-103457829D01*
X162295114Y-103530400D01*
X162258829Y-103639257D01*
X162186257Y-103711829D01*
X162113686Y-103748114D01*
X161968543Y-103784400D01*
X161859686Y-103784400D01*
X161714543Y-103748114D01*
X161641971Y-103711829D01*
X161569400Y-103639257D01*
X161533114Y-103530400D01*
X161533114Y-103457829D01*
X161569400Y-103348972D01*
X161605686Y-103312686D01*
X162295114Y-102986114D02*
X161787114Y-102986114D01*
X161859686Y-102986114D02*
X161823400Y-102949829D01*
X161787114Y-102877257D01*
X161787114Y-102768400D01*
X161823400Y-102695829D01*
X161895971Y-102659543D01*
X162295114Y-102659543D01*
X161895971Y-102659543D02*
X161823400Y-102623257D01*
X161787114Y-102550686D01*
X161787114Y-102441829D01*
X161823400Y-102369257D01*
X161895971Y-102332972D01*
X162295114Y-102332972D01*
X162295114Y-101643543D02*
X161533114Y-101643543D01*
X162258829Y-101643543D02*
X162295114Y-101716114D01*
X162295114Y-101861257D01*
X162258829Y-101933829D01*
X162222543Y-101970114D01*
X162149971Y-102006400D01*
X161932257Y-102006400D01*
X161859686Y-101970114D01*
X161823400Y-101933829D01*
X161787114Y-101861257D01*
X161787114Y-101716114D01*
X161823400Y-101643543D01*
X162367686Y-101462114D02*
X162367686Y-100881543D01*
X162295114Y-100700114D02*
X161533114Y-100700114D01*
X162295114Y-100264686D01*
X161533114Y-100264686D01*
X166478131Y-92986496D02*
X166514417Y-92877639D01*
X166550703Y-92841354D01*
X166623274Y-92805068D01*
X166732131Y-92805068D01*
X166804703Y-92841354D01*
X166840989Y-92877639D01*
X166877274Y-92950211D01*
X166877274Y-93240496D01*
X166115274Y-93240496D01*
X166115274Y-92986496D01*
X166151560Y-92913925D01*
X166187846Y-92877639D01*
X166260417Y-92841354D01*
X166332989Y-92841354D01*
X166405560Y-92877639D01*
X166441846Y-92913925D01*
X166478131Y-92986496D01*
X166478131Y-93240496D01*
X166949846Y-92659925D02*
X166949846Y-92079354D01*
X166877274Y-91897925D02*
X166115274Y-91897925D01*
X166115274Y-91607640D01*
X166151560Y-91535068D01*
X166187846Y-91498783D01*
X166260417Y-91462497D01*
X166369274Y-91462497D01*
X166441846Y-91498783D01*
X166478131Y-91535068D01*
X166514417Y-91607640D01*
X166514417Y-91897925D01*
X164451211Y-92989399D02*
X164487497Y-92880542D01*
X164523783Y-92844257D01*
X164596354Y-92807971D01*
X164705211Y-92807971D01*
X164777783Y-92844257D01*
X164814069Y-92880542D01*
X164850354Y-92953114D01*
X164850354Y-93243399D01*
X164088354Y-93243399D01*
X164088354Y-92989399D01*
X164124640Y-92916828D01*
X164160926Y-92880542D01*
X164233497Y-92844257D01*
X164306069Y-92844257D01*
X164378640Y-92880542D01*
X164414926Y-92916828D01*
X164451211Y-92989399D01*
X164451211Y-93243399D01*
X164922926Y-92662828D02*
X164922926Y-92082257D01*
X164850354Y-91900828D02*
X164088354Y-91900828D01*
X164850354Y-91465400D01*
X164088354Y-91465400D01*
X162201860Y-93196954D02*
X162201860Y-92834097D01*
X162419574Y-93269526D02*
X161657574Y-93015526D01*
X162419574Y-92761526D01*
X162492146Y-92688954D02*
X162492146Y-92108383D01*
X162419574Y-91926954D02*
X161657574Y-91926954D01*
X161657574Y-91636669D01*
X161693860Y-91564097D01*
X161730146Y-91527812D01*
X161802717Y-91491526D01*
X161911574Y-91491526D01*
X161984146Y-91527812D01*
X162020431Y-91564097D01*
X162056717Y-91636669D01*
X162056717Y-91926954D01*
D11*
X143056066Y-117094363D02*
X142725866Y-117094363D01*
X142725866Y-117613249D02*
X142725866Y-116622649D01*
X143197580Y-116622649D01*
X143574952Y-117094363D02*
X143905152Y-117094363D01*
X144046666Y-117613249D02*
X143574952Y-117613249D01*
X143574952Y-116622649D01*
X144046666Y-116622649D01*
X144471209Y-117613249D02*
X144471209Y-116622649D01*
X144707066Y-116622649D01*
X144848581Y-116669820D01*
X144942923Y-116764163D01*
X144990095Y-116858506D01*
X145037266Y-117047191D01*
X145037266Y-117188706D01*
X144990095Y-117377391D01*
X144942923Y-117471734D01*
X144848581Y-117566077D01*
X144707066Y-117613249D01*
X144471209Y-117613249D01*
X138655334Y-87487397D02*
X138985534Y-87487397D01*
X138985534Y-86968511D02*
X138985534Y-87959111D01*
X138513820Y-87959111D01*
X138136448Y-87487397D02*
X137806248Y-87487397D01*
X137664734Y-86968511D02*
X138136448Y-86968511D01*
X138136448Y-87959111D01*
X137664734Y-87959111D01*
X136674134Y-87062854D02*
X136721305Y-87015683D01*
X136862819Y-86968511D01*
X136957162Y-86968511D01*
X137098677Y-87015683D01*
X137193019Y-87110026D01*
X137240191Y-87204369D01*
X137287362Y-87393054D01*
X137287362Y-87534569D01*
X137240191Y-87723254D01*
X137193019Y-87817597D01*
X137098677Y-87911940D01*
X136957162Y-87959111D01*
X136862819Y-87959111D01*
X136721305Y-87911940D01*
X136674134Y-87864769D01*
X118414437Y-87487397D02*
X118744637Y-87487397D01*
X118744637Y-86968511D02*
X118744637Y-87959111D01*
X118272923Y-87959111D01*
X117895551Y-87487397D02*
X117565351Y-87487397D01*
X117423837Y-86968511D02*
X117895551Y-86968511D01*
X117895551Y-87959111D01*
X117423837Y-87959111D01*
X117046465Y-87251540D02*
X116574751Y-87251540D01*
X117140808Y-86968511D02*
X116810608Y-87959111D01*
X116480408Y-86968511D01*
D14*
X172908040Y-84355080D02*
X172908040Y-120355080D01*
X193898520Y-84358480D02*
X193898520Y-120358480D01*
X193897160Y-120357040D02*
X151897160Y-120357040D01*
X193892080Y-84350000D02*
X151892080Y-84350000D01*
X151876840Y-84355080D02*
X151876840Y-120355080D01*
X109850000Y-120350000D02*
X151850000Y-120350000D01*
X151850000Y-84350000D02*
X109850000Y-84350000D01*
X109855080Y-84344920D02*
X109855080Y-120344920D01*
D15*
X144146080Y-104218720D02*
X143646080Y-104218720D01*
X143646080Y-105168720D02*
X144146080Y-105168720D01*
X114673360Y-115840700D02*
X114673360Y-116340700D01*
X115623360Y-116340700D02*
X115623360Y-115840700D01*
X151086840Y-91649360D02*
X151086840Y-91149360D01*
X150136840Y-91149360D02*
X150136840Y-91649360D01*
D16*
X129556020Y-113094960D02*
X129556020Y-113594960D01*
X130606020Y-113594960D02*
X130606020Y-113094960D01*
D15*
X133499840Y-115838160D02*
X133499840Y-116338160D01*
X134449840Y-116338160D02*
X134449840Y-115838160D01*
X110556020Y-109084300D02*
X110556020Y-109584300D01*
X111506020Y-109584300D02*
X111506020Y-109084300D01*
X119733040Y-115843240D02*
X119733040Y-116343240D01*
X120683040Y-116343240D02*
X120683040Y-115843240D01*
X113179840Y-115840700D02*
X113179840Y-116340700D01*
X114129840Y-116340700D02*
X114129840Y-115840700D01*
X139787440Y-104660680D02*
X139287440Y-104660680D01*
X139287440Y-105610680D02*
X139787440Y-105610680D01*
X140200360Y-99211320D02*
X140200360Y-99711320D01*
X141150360Y-99711320D02*
X141150360Y-99211320D01*
X139787440Y-103451640D02*
X139287440Y-103451640D01*
X139287440Y-104401640D02*
X139787440Y-104401640D01*
X123315920Y-105168720D02*
X123815920Y-105168720D01*
X123815920Y-104218720D02*
X123315920Y-104218720D01*
X123305760Y-103827600D02*
X123805760Y-103827600D01*
X123805760Y-102877600D02*
X123305760Y-102877600D01*
X119866600Y-105610680D02*
X120366600Y-105610680D01*
X120366600Y-104660680D02*
X119866600Y-104660680D01*
X119866600Y-104401640D02*
X120366600Y-104401640D01*
X120366600Y-103451640D02*
X119866600Y-103451640D01*
X144146080Y-102877600D02*
X143646080Y-102877600D01*
X143646080Y-103827600D02*
X144146080Y-103827600D01*
X138981160Y-99241800D02*
X138981160Y-99741800D01*
X139931160Y-99741800D02*
X139931160Y-99241800D01*
X137518120Y-98677920D02*
X137518120Y-99177920D01*
X138468120Y-99177920D02*
X138468120Y-98677920D01*
X136359880Y-98693160D02*
X136359880Y-99193160D01*
X137309880Y-99193160D02*
X137309880Y-98693160D01*
X135889440Y-95981000D02*
X135889440Y-95281000D01*
X137089440Y-95281000D02*
X137089440Y-95981000D01*
X111208840Y-93061600D02*
X111208840Y-92561600D01*
X110258840Y-92561600D02*
X110258840Y-93061600D01*
X111422200Y-89683400D02*
X111422200Y-89183400D01*
X110472200Y-89183400D02*
X110472200Y-89683400D01*
X128788180Y-93628020D02*
X128788180Y-93128020D01*
X127838180Y-93128020D02*
X127838180Y-93628020D01*
X113819960Y-93112400D02*
X113819960Y-92612400D01*
X112869960Y-92612400D02*
X112869960Y-93112400D01*
X128277640Y-88791860D02*
X128277640Y-88291860D01*
X127327640Y-88291860D02*
X127327640Y-88791860D01*
X126011960Y-91649360D02*
X126011960Y-91149360D01*
X125061960Y-91149360D02*
X125061960Y-91649360D01*
X126913660Y-88789320D02*
X126913660Y-88289320D01*
X125963660Y-88289320D02*
X125963660Y-88789320D01*
X124538760Y-88789320D02*
X124538760Y-88289320D01*
X123588760Y-88289320D02*
X123588760Y-88789320D01*
X123289080Y-88794400D02*
X123289080Y-88294400D01*
X122339080Y-88294400D02*
X122339080Y-88794400D01*
X121602520Y-88794400D02*
X121602520Y-88294400D01*
X120652520Y-88294400D02*
X120652520Y-88794400D01*
X120388400Y-88794400D02*
X120388400Y-88294400D01*
X119438400Y-88294400D02*
X119438400Y-88794400D01*
X131213880Y-91649360D02*
X131213880Y-91149360D01*
X130263880Y-91149360D02*
X130263880Y-91649360D01*
X112722680Y-88824880D02*
X112722680Y-88324880D01*
X111772680Y-88324880D02*
X111772680Y-88824880D01*
X151460220Y-94034420D02*
X151460220Y-93534420D01*
X150510220Y-93534420D02*
X150510220Y-94034420D01*
X134038360Y-92528200D02*
X134038360Y-92028200D01*
X133088360Y-92028200D02*
X133088360Y-92528200D01*
X148140440Y-94026800D02*
X148140440Y-93526800D01*
X147190440Y-93526800D02*
X147190440Y-94026800D01*
X148150600Y-88814720D02*
X148150600Y-88314720D01*
X147200600Y-88314720D02*
X147200600Y-88814720D01*
X146204960Y-91705240D02*
X146204960Y-91205240D01*
X145254960Y-91205240D02*
X145254960Y-91705240D01*
X146817100Y-88814720D02*
X146817100Y-88314720D01*
X145867100Y-88314720D02*
X145867100Y-88814720D01*
X144828280Y-88809640D02*
X144828280Y-88309640D01*
X143878280Y-88309640D02*
X143878280Y-88809640D01*
X143583680Y-88809640D02*
X143583680Y-88309640D01*
X142633680Y-88309640D02*
X142633680Y-88809640D01*
X141843780Y-88809640D02*
X141843780Y-88309640D01*
X140893780Y-88309640D02*
X140893780Y-88809640D01*
X140611880Y-88809640D02*
X140611880Y-88309640D01*
X139661880Y-88309640D02*
X139661880Y-88809640D01*
X150868400Y-89175400D02*
X150868400Y-88675400D01*
X149918400Y-88675400D02*
X149918400Y-89175400D01*
X131856500Y-88761380D02*
X131856500Y-88261380D01*
X130906500Y-88261380D02*
X130906500Y-88761380D01*
X110281700Y-106330940D02*
X110281700Y-106830940D01*
X111231700Y-106830940D02*
X111231700Y-106330940D01*
X112956320Y-109950440D02*
X112956320Y-110450440D01*
X113906320Y-110450440D02*
X113906320Y-109950440D01*
X127541000Y-112983200D02*
X127541000Y-113483200D01*
X128491000Y-113483200D02*
X128491000Y-112983200D01*
X114968000Y-113254980D02*
X114968000Y-113754980D01*
X115918000Y-113754980D02*
X115918000Y-113254980D01*
X116883160Y-115843240D02*
X116883160Y-116343240D01*
X117833160Y-116343240D02*
X117833160Y-115843240D01*
X118132840Y-115843240D02*
X118132840Y-116343240D01*
X119082840Y-116343240D02*
X119082840Y-115843240D01*
X120987800Y-115843240D02*
X120987800Y-116343240D01*
X121937800Y-116343240D02*
X121937800Y-115843240D01*
X111711720Y-109949080D02*
X111711720Y-110449080D01*
X112661720Y-110449080D02*
X112661720Y-109949080D01*
X128831320Y-115843240D02*
X128831320Y-116343240D01*
X129781320Y-116343240D02*
X129781320Y-115843240D01*
X150738820Y-112454880D02*
X150738820Y-112954880D01*
X151688820Y-112954880D02*
X151688820Y-112454880D01*
X150477200Y-115214500D02*
X150477200Y-115714500D01*
X151427200Y-115714500D02*
X151427200Y-115214500D01*
X133225520Y-110758160D02*
X133225520Y-111258160D01*
X134175520Y-111258160D02*
X134175520Y-110758160D01*
X147797500Y-112297400D02*
X147797500Y-112797400D01*
X148747500Y-112797400D02*
X148747500Y-112297400D01*
X135120360Y-113254980D02*
X135120360Y-113754980D01*
X136070360Y-113754980D02*
X136070360Y-113254980D01*
X134805400Y-115840700D02*
X134805400Y-116340700D01*
X135755400Y-116340700D02*
X135755400Y-115840700D01*
X137167600Y-115848320D02*
X137167600Y-116348320D01*
X138117600Y-116348320D02*
X138117600Y-115848320D01*
X138422360Y-115843240D02*
X138422360Y-116343240D01*
X139372360Y-116343240D02*
X139372360Y-115843240D01*
X140047960Y-115843240D02*
X140047960Y-116343240D01*
X140997960Y-116343240D02*
X140997960Y-115843240D01*
X141312880Y-115843240D02*
X141312880Y-116343240D01*
X142262880Y-116343240D02*
X142262880Y-115843240D01*
X132011400Y-110758160D02*
X132011400Y-111258160D01*
X132961400Y-111258160D02*
X132961400Y-110758160D01*
X149186880Y-116198840D02*
X149186880Y-116698840D01*
X150136880Y-116698840D02*
X150136880Y-116198840D01*
X120217640Y-96438200D02*
X120217640Y-95738200D01*
X121417640Y-95738200D02*
X121417640Y-96438200D01*
X141020240Y-96097840D02*
X141020240Y-95397840D01*
X142220240Y-95397840D02*
X142220240Y-96097840D01*
X121930720Y-109804720D02*
X121930720Y-110504720D01*
X120730720Y-110504720D02*
X120730720Y-109804720D01*
X141697000Y-110119680D02*
X141697000Y-110819680D01*
X140497000Y-110819680D02*
X140497000Y-110119680D01*
D16*
X129526920Y-100197280D02*
X128526920Y-100197280D01*
X128526920Y-98847280D02*
X129526920Y-98847280D01*
X149182600Y-112119600D02*
X149182600Y-112619600D01*
X150232600Y-112619600D02*
X150232600Y-112119600D01*
X149582360Y-93891760D02*
X149582360Y-93391760D01*
X148532360Y-93391760D02*
X148532360Y-93891760D01*
X130278360Y-93544200D02*
X130278360Y-93044200D01*
X129228360Y-93044200D02*
X129228360Y-93544200D01*
X139881800Y-101822740D02*
X140381800Y-101822740D01*
X140381800Y-100772740D02*
X139881800Y-100772740D01*
X137164000Y-101299500D02*
X137664000Y-101299500D01*
X137664000Y-100249500D02*
X137164000Y-100249500D01*
X143140240Y-113597200D02*
X142640240Y-113597200D01*
X142640240Y-114647200D02*
X143140240Y-114647200D01*
X143958120Y-111560120D02*
X143458120Y-111560120D01*
X143458120Y-112610120D02*
X143958120Y-112610120D01*
X121763160Y-96738060D02*
X121763160Y-95738060D01*
X123113160Y-95738060D02*
X123113160Y-96738060D01*
X128845800Y-91446160D02*
X128845800Y-90946160D01*
X127795800Y-90946160D02*
X127795800Y-91446160D01*
X113983280Y-89970800D02*
X113983280Y-90470800D01*
X115033280Y-90470800D02*
X115033280Y-89970800D01*
X142520040Y-96410400D02*
X142520040Y-95410400D01*
X143870040Y-95410400D02*
X143870040Y-96410400D01*
X148185000Y-91640000D02*
X148185000Y-91140000D01*
X147135000Y-91140000D02*
X147135000Y-91640000D01*
X134161040Y-89554240D02*
X134161040Y-90054240D01*
X135211040Y-90054240D02*
X135211040Y-89554240D01*
X120278520Y-109715680D02*
X120278520Y-110715680D01*
X118928520Y-110715680D02*
X118928520Y-109715680D01*
X112941880Y-113361660D02*
X112941880Y-113861660D01*
X113991880Y-113861660D02*
X113991880Y-113361660D01*
X127438640Y-116343240D02*
X127438640Y-115843240D01*
X126388640Y-115843240D02*
X126388640Y-116343240D01*
X140171800Y-110117000D02*
X140171800Y-111117000D01*
X138821800Y-111117000D02*
X138821800Y-110117000D01*
X133200920Y-113310860D02*
X133200920Y-113810860D01*
X134250920Y-113810860D02*
X134250920Y-113310860D01*
X147667200Y-116343240D02*
X147667200Y-115843240D01*
X146617200Y-115843240D02*
X146617200Y-116343240D01*
D15*
X145959720Y-107026200D02*
X145959720Y-109026200D01*
X148009720Y-109026200D02*
X148009720Y-107026200D01*
D16*
X149922040Y-109037900D02*
X149422040Y-109037900D01*
X149422040Y-110087900D02*
X149922040Y-110087900D01*
X147875000Y-104775000D02*
X146875000Y-104775000D01*
X146875000Y-103425000D02*
X147875000Y-103425000D01*
X135777600Y-99642040D02*
X135777600Y-100642040D01*
X134427600Y-100642040D02*
X134427600Y-99642040D01*
D12*
X145506440Y-105021743D02*
X145470154Y-105058029D01*
X145361297Y-105094314D01*
X145288726Y-105094314D01*
X145179869Y-105058029D01*
X145107297Y-104985457D01*
X145071012Y-104912886D01*
X145034726Y-104767743D01*
X145034726Y-104658886D01*
X145071012Y-104513743D01*
X145107297Y-104441171D01*
X145179869Y-104368600D01*
X145288726Y-104332314D01*
X145361297Y-104332314D01*
X145470154Y-104368600D01*
X145506440Y-104404886D01*
X145760440Y-104332314D02*
X146268440Y-104332314D01*
X145941869Y-105094314D01*
X116502543Y-116608497D02*
X116538829Y-116644783D01*
X116575114Y-116753640D01*
X116575114Y-116826211D01*
X116538829Y-116935068D01*
X116466257Y-117007640D01*
X116393686Y-117043925D01*
X116248543Y-117080211D01*
X116139686Y-117080211D01*
X115994543Y-117043925D01*
X115921971Y-117007640D01*
X115849400Y-116935068D01*
X115813114Y-116826211D01*
X115813114Y-116753640D01*
X115849400Y-116644783D01*
X115885686Y-116608497D01*
X116067114Y-115955354D02*
X116575114Y-115955354D01*
X115776829Y-116136783D02*
X116321114Y-116318211D01*
X116321114Y-115846497D01*
X115813114Y-115628783D02*
X115813114Y-115120783D01*
X116575114Y-115447354D01*
X151686623Y-91998437D02*
X151722909Y-92034723D01*
X151759194Y-92143580D01*
X151759194Y-92216151D01*
X151722909Y-92325008D01*
X151650337Y-92397580D01*
X151577766Y-92433865D01*
X151432623Y-92470151D01*
X151323766Y-92470151D01*
X151178623Y-92433865D01*
X151106051Y-92397580D01*
X151033480Y-92325008D01*
X150997194Y-92216151D01*
X150997194Y-92143580D01*
X151033480Y-92034723D01*
X151069766Y-91998437D01*
X151069766Y-91708151D02*
X151033480Y-91671865D01*
X150997194Y-91599294D01*
X150997194Y-91417865D01*
X151033480Y-91345294D01*
X151069766Y-91309008D01*
X151142337Y-91272723D01*
X151214909Y-91272723D01*
X151323766Y-91309008D01*
X151759194Y-91744437D01*
X151759194Y-91272723D01*
X151759194Y-90909866D02*
X151759194Y-90764723D01*
X151722909Y-90692151D01*
X151686623Y-90655866D01*
X151577766Y-90583294D01*
X151432623Y-90547009D01*
X151142337Y-90547009D01*
X151069766Y-90583294D01*
X151033480Y-90619580D01*
X150997194Y-90692151D01*
X150997194Y-90837294D01*
X151033480Y-90909866D01*
X151069766Y-90946151D01*
X151142337Y-90982437D01*
X151323766Y-90982437D01*
X151396337Y-90946151D01*
X151432623Y-90909866D01*
X151468909Y-90837294D01*
X151468909Y-90692151D01*
X151432623Y-90619580D01*
X151396337Y-90583294D01*
X151323766Y-90547009D01*
X130392714Y-111917060D02*
X130029857Y-112171060D01*
X130392714Y-112352488D02*
X129630714Y-112352488D01*
X129630714Y-112062203D01*
X129667000Y-111989631D01*
X129703286Y-111953346D01*
X129775857Y-111917060D01*
X129884714Y-111917060D01*
X129957286Y-111953346D01*
X129993571Y-111989631D01*
X130029857Y-112062203D01*
X130029857Y-112352488D01*
X129630714Y-111663060D02*
X129630714Y-111155060D01*
X130392714Y-111481631D01*
X133256383Y-116633897D02*
X133292669Y-116670183D01*
X133328954Y-116779040D01*
X133328954Y-116851611D01*
X133292669Y-116960468D01*
X133220097Y-117033040D01*
X133147526Y-117069325D01*
X133002383Y-117105611D01*
X132893526Y-117105611D01*
X132748383Y-117069325D01*
X132675811Y-117033040D01*
X132603240Y-116960468D01*
X132566954Y-116851611D01*
X132566954Y-116779040D01*
X132603240Y-116670183D01*
X132639526Y-116633897D01*
X132566954Y-115944468D02*
X132566954Y-116307325D01*
X132929811Y-116343611D01*
X132893526Y-116307325D01*
X132857240Y-116234754D01*
X132857240Y-116053325D01*
X132893526Y-115980754D01*
X132929811Y-115944468D01*
X133002383Y-115908183D01*
X133183811Y-115908183D01*
X133256383Y-115944468D01*
X133292669Y-115980754D01*
X133328954Y-116053325D01*
X133328954Y-116234754D01*
X133292669Y-116307325D01*
X133256383Y-116343611D01*
X132893526Y-115472754D02*
X132857240Y-115545326D01*
X132820954Y-115581611D01*
X132748383Y-115617897D01*
X132712097Y-115617897D01*
X132639526Y-115581611D01*
X132603240Y-115545326D01*
X132566954Y-115472754D01*
X132566954Y-115327611D01*
X132603240Y-115255040D01*
X132639526Y-115218754D01*
X132712097Y-115182469D01*
X132748383Y-115182469D01*
X132820954Y-115218754D01*
X132857240Y-115255040D01*
X132893526Y-115327611D01*
X132893526Y-115472754D01*
X132929811Y-115545326D01*
X132966097Y-115581611D01*
X133038669Y-115617897D01*
X133183811Y-115617897D01*
X133256383Y-115581611D01*
X133292669Y-115545326D01*
X133328954Y-115472754D01*
X133328954Y-115327611D01*
X133292669Y-115255040D01*
X133256383Y-115218754D01*
X133183811Y-115182469D01*
X133038669Y-115182469D01*
X132966097Y-115218754D01*
X132929811Y-115255040D01*
X132893526Y-115327611D01*
X112499503Y-108450017D02*
X112535789Y-108486303D01*
X112572074Y-108595160D01*
X112572074Y-108667731D01*
X112535789Y-108776588D01*
X112463217Y-108849160D01*
X112390646Y-108885445D01*
X112245503Y-108921731D01*
X112136646Y-108921731D01*
X111991503Y-108885445D01*
X111918931Y-108849160D01*
X111846360Y-108776588D01*
X111810074Y-108667731D01*
X111810074Y-108595160D01*
X111846360Y-108486303D01*
X111882646Y-108450017D01*
X112064074Y-107796874D02*
X112572074Y-107796874D01*
X111773789Y-107978303D02*
X112318074Y-108159731D01*
X112318074Y-107688017D01*
X111882646Y-107434017D02*
X111846360Y-107397731D01*
X111810074Y-107325160D01*
X111810074Y-107143731D01*
X111846360Y-107071160D01*
X111882646Y-107034874D01*
X111955217Y-106998589D01*
X112027789Y-106998589D01*
X112136646Y-107034874D01*
X112572074Y-107470303D01*
X112572074Y-106998589D01*
X120525903Y-114457117D02*
X120562189Y-114493403D01*
X120598474Y-114602260D01*
X120598474Y-114674831D01*
X120562189Y-114783688D01*
X120489617Y-114856260D01*
X120417046Y-114892545D01*
X120271903Y-114928831D01*
X120163046Y-114928831D01*
X120017903Y-114892545D01*
X119945331Y-114856260D01*
X119872760Y-114783688D01*
X119836474Y-114674831D01*
X119836474Y-114602260D01*
X119872760Y-114493403D01*
X119909046Y-114457117D01*
X119836474Y-113767688D02*
X119836474Y-114130545D01*
X120199331Y-114166831D01*
X120163046Y-114130545D01*
X120126760Y-114057974D01*
X120126760Y-113876545D01*
X120163046Y-113803974D01*
X120199331Y-113767688D01*
X120271903Y-113731403D01*
X120453331Y-113731403D01*
X120525903Y-113767688D01*
X120562189Y-113803974D01*
X120598474Y-113876545D01*
X120598474Y-114057974D01*
X120562189Y-114130545D01*
X120525903Y-114166831D01*
X119836474Y-113259689D02*
X119836474Y-113187117D01*
X119872760Y-113114546D01*
X119909046Y-113078260D01*
X119981617Y-113041974D01*
X120126760Y-113005689D01*
X120308189Y-113005689D01*
X120453331Y-113041974D01*
X120525903Y-113078260D01*
X120562189Y-113114546D01*
X120598474Y-113187117D01*
X120598474Y-113259689D01*
X120562189Y-113332260D01*
X120525903Y-113368546D01*
X120453331Y-113404831D01*
X120308189Y-113441117D01*
X120126760Y-113441117D01*
X119981617Y-113404831D01*
X119909046Y-113368546D01*
X119872760Y-113332260D01*
X119836474Y-113259689D01*
X112842403Y-116720257D02*
X112878689Y-116756543D01*
X112914974Y-116865400D01*
X112914974Y-116937971D01*
X112878689Y-117046828D01*
X112806117Y-117119400D01*
X112733546Y-117155685D01*
X112588403Y-117191971D01*
X112479546Y-117191971D01*
X112334403Y-117155685D01*
X112261831Y-117119400D01*
X112189260Y-117046828D01*
X112152974Y-116937971D01*
X112152974Y-116865400D01*
X112189260Y-116756543D01*
X112225546Y-116720257D01*
X112406974Y-116067114D02*
X112914974Y-116067114D01*
X112116689Y-116248543D02*
X112660974Y-116429971D01*
X112660974Y-115958257D01*
X112152974Y-115305114D02*
X112152974Y-115667971D01*
X112515831Y-115704257D01*
X112479546Y-115667971D01*
X112443260Y-115595400D01*
X112443260Y-115413971D01*
X112479546Y-115341400D01*
X112515831Y-115305114D01*
X112588403Y-115268829D01*
X112769831Y-115268829D01*
X112842403Y-115305114D01*
X112878689Y-115341400D01*
X112914974Y-115413971D01*
X112914974Y-115595400D01*
X112878689Y-115667971D01*
X112842403Y-115704257D01*
X141076680Y-105550063D02*
X141040394Y-105586349D01*
X140931537Y-105622634D01*
X140858966Y-105622634D01*
X140750109Y-105586349D01*
X140677537Y-105513777D01*
X140641252Y-105441206D01*
X140604966Y-105296063D01*
X140604966Y-105187206D01*
X140641252Y-105042063D01*
X140677537Y-104969491D01*
X140750109Y-104896920D01*
X140858966Y-104860634D01*
X140931537Y-104860634D01*
X141040394Y-104896920D01*
X141076680Y-104933206D01*
X141439537Y-105622634D02*
X141584680Y-105622634D01*
X141657252Y-105586349D01*
X141693537Y-105550063D01*
X141766109Y-105441206D01*
X141802394Y-105296063D01*
X141802394Y-105005777D01*
X141766109Y-104933206D01*
X141729823Y-104896920D01*
X141657252Y-104860634D01*
X141512109Y-104860634D01*
X141439537Y-104896920D01*
X141403252Y-104933206D01*
X141366966Y-105005777D01*
X141366966Y-105187206D01*
X141403252Y-105259777D01*
X141439537Y-105296063D01*
X141512109Y-105332349D01*
X141657252Y-105332349D01*
X141729823Y-105296063D01*
X141766109Y-105259777D01*
X141802394Y-105187206D01*
X140927183Y-97842977D02*
X140963469Y-97879263D01*
X140999754Y-97988120D01*
X140999754Y-98060691D01*
X140963469Y-98169548D01*
X140890897Y-98242120D01*
X140818326Y-98278405D01*
X140673183Y-98314691D01*
X140564326Y-98314691D01*
X140419183Y-98278405D01*
X140346611Y-98242120D01*
X140274040Y-98169548D01*
X140237754Y-98060691D01*
X140237754Y-97988120D01*
X140274040Y-97879263D01*
X140310326Y-97842977D01*
X140999754Y-97117263D02*
X140999754Y-97552691D01*
X140999754Y-97334977D02*
X140237754Y-97334977D01*
X140346611Y-97407548D01*
X140419183Y-97480120D01*
X140455469Y-97552691D01*
X140237754Y-96645549D02*
X140237754Y-96572977D01*
X140274040Y-96500406D01*
X140310326Y-96464120D01*
X140382897Y-96427834D01*
X140528040Y-96391549D01*
X140709469Y-96391549D01*
X140854611Y-96427834D01*
X140927183Y-96464120D01*
X140963469Y-96500406D01*
X140999754Y-96572977D01*
X140999754Y-96645549D01*
X140963469Y-96718120D01*
X140927183Y-96754406D01*
X140854611Y-96790691D01*
X140709469Y-96826977D01*
X140528040Y-96826977D01*
X140382897Y-96790691D01*
X140310326Y-96754406D01*
X140274040Y-96718120D01*
X140237754Y-96645549D01*
X141137640Y-104208943D02*
X141101354Y-104245229D01*
X140992497Y-104281514D01*
X140919926Y-104281514D01*
X140811069Y-104245229D01*
X140738497Y-104172657D01*
X140702212Y-104100086D01*
X140665926Y-103954943D01*
X140665926Y-103846086D01*
X140702212Y-103700943D01*
X140738497Y-103628371D01*
X140811069Y-103555800D01*
X140919926Y-103519514D01*
X140992497Y-103519514D01*
X141101354Y-103555800D01*
X141137640Y-103592086D01*
X141573069Y-103846086D02*
X141500497Y-103809800D01*
X141464212Y-103773514D01*
X141427926Y-103700943D01*
X141427926Y-103664657D01*
X141464212Y-103592086D01*
X141500497Y-103555800D01*
X141573069Y-103519514D01*
X141718212Y-103519514D01*
X141790783Y-103555800D01*
X141827069Y-103592086D01*
X141863354Y-103664657D01*
X141863354Y-103700943D01*
X141827069Y-103773514D01*
X141790783Y-103809800D01*
X141718212Y-103846086D01*
X141573069Y-103846086D01*
X141500497Y-103882371D01*
X141464212Y-103918657D01*
X141427926Y-103991229D01*
X141427926Y-104136371D01*
X141464212Y-104208943D01*
X141500497Y-104245229D01*
X141573069Y-104281514D01*
X141718212Y-104281514D01*
X141790783Y-104245229D01*
X141827069Y-104208943D01*
X141863354Y-104136371D01*
X141863354Y-103991229D01*
X141827069Y-103918657D01*
X141790783Y-103882371D01*
X141718212Y-103846086D01*
X121716800Y-104846483D02*
X121680514Y-104882769D01*
X121571657Y-104919054D01*
X121499086Y-104919054D01*
X121390229Y-104882769D01*
X121317657Y-104810197D01*
X121281372Y-104737626D01*
X121245086Y-104592483D01*
X121245086Y-104483626D01*
X121281372Y-104338483D01*
X121317657Y-104265911D01*
X121390229Y-104193340D01*
X121499086Y-104157054D01*
X121571657Y-104157054D01*
X121680514Y-104193340D01*
X121716800Y-104229626D01*
X122007086Y-104229626D02*
X122043372Y-104193340D01*
X122115943Y-104157054D01*
X122297372Y-104157054D01*
X122369943Y-104193340D01*
X122406229Y-104229626D01*
X122442514Y-104302197D01*
X122442514Y-104374769D01*
X122406229Y-104483626D01*
X121970800Y-104919054D01*
X122442514Y-104919054D01*
X121671080Y-103690783D02*
X121634794Y-103727069D01*
X121525937Y-103763354D01*
X121453366Y-103763354D01*
X121344509Y-103727069D01*
X121271937Y-103654497D01*
X121235652Y-103581926D01*
X121199366Y-103436783D01*
X121199366Y-103327926D01*
X121235652Y-103182783D01*
X121271937Y-103110211D01*
X121344509Y-103037640D01*
X121453366Y-103001354D01*
X121525937Y-103001354D01*
X121634794Y-103037640D01*
X121671080Y-103073926D01*
X121925080Y-103001354D02*
X122396794Y-103001354D01*
X122142794Y-103291640D01*
X122251652Y-103291640D01*
X122324223Y-103327926D01*
X122360509Y-103364211D01*
X122396794Y-103436783D01*
X122396794Y-103618211D01*
X122360509Y-103690783D01*
X122324223Y-103727069D01*
X122251652Y-103763354D01*
X122033937Y-103763354D01*
X121961366Y-103727069D01*
X121925080Y-103690783D01*
X118209060Y-105382423D02*
X118172774Y-105418709D01*
X118063917Y-105454994D01*
X117991346Y-105454994D01*
X117882489Y-105418709D01*
X117809917Y-105346137D01*
X117773632Y-105273566D01*
X117737346Y-105128423D01*
X117737346Y-105019566D01*
X117773632Y-104874423D01*
X117809917Y-104801851D01*
X117882489Y-104729280D01*
X117991346Y-104692994D01*
X118063917Y-104692994D01*
X118172774Y-104729280D01*
X118209060Y-104765566D01*
X118862203Y-104946994D02*
X118862203Y-105454994D01*
X118680774Y-104656709D02*
X118499346Y-105200994D01*
X118971060Y-105200994D01*
X118219220Y-104216563D02*
X118182934Y-104252849D01*
X118074077Y-104289134D01*
X118001506Y-104289134D01*
X117892649Y-104252849D01*
X117820077Y-104180277D01*
X117783792Y-104107706D01*
X117747506Y-103962563D01*
X117747506Y-103853706D01*
X117783792Y-103708563D01*
X117820077Y-103635991D01*
X117892649Y-103563420D01*
X118001506Y-103527134D01*
X118074077Y-103527134D01*
X118182934Y-103563420D01*
X118219220Y-103599706D01*
X118908649Y-103527134D02*
X118545792Y-103527134D01*
X118509506Y-103889991D01*
X118545792Y-103853706D01*
X118618363Y-103817420D01*
X118799792Y-103817420D01*
X118872363Y-103853706D01*
X118908649Y-103889991D01*
X118944934Y-103962563D01*
X118944934Y-104143991D01*
X118908649Y-104216563D01*
X118872363Y-104252849D01*
X118799792Y-104289134D01*
X118618363Y-104289134D01*
X118545792Y-104252849D01*
X118509506Y-104216563D01*
X145486120Y-103680623D02*
X145449834Y-103716909D01*
X145340977Y-103753194D01*
X145268406Y-103753194D01*
X145159549Y-103716909D01*
X145086977Y-103644337D01*
X145050692Y-103571766D01*
X145014406Y-103426623D01*
X145014406Y-103317766D01*
X145050692Y-103172623D01*
X145086977Y-103100051D01*
X145159549Y-103027480D01*
X145268406Y-102991194D01*
X145340977Y-102991194D01*
X145449834Y-103027480D01*
X145486120Y-103063766D01*
X146139263Y-102991194D02*
X145994120Y-102991194D01*
X145921549Y-103027480D01*
X145885263Y-103063766D01*
X145812692Y-103172623D01*
X145776406Y-103317766D01*
X145776406Y-103608051D01*
X145812692Y-103680623D01*
X145848977Y-103716909D01*
X145921549Y-103753194D01*
X146066692Y-103753194D01*
X146139263Y-103716909D01*
X146175549Y-103680623D01*
X146211834Y-103608051D01*
X146211834Y-103426623D01*
X146175549Y-103354051D01*
X146139263Y-103317766D01*
X146066692Y-103281480D01*
X145921549Y-103281480D01*
X145848977Y-103317766D01*
X145812692Y-103354051D01*
X145776406Y-103426623D01*
X139728303Y-97822657D02*
X139764589Y-97858943D01*
X139800874Y-97967800D01*
X139800874Y-98040371D01*
X139764589Y-98149228D01*
X139692017Y-98221800D01*
X139619446Y-98258085D01*
X139474303Y-98294371D01*
X139365446Y-98294371D01*
X139220303Y-98258085D01*
X139147731Y-98221800D01*
X139075160Y-98149228D01*
X139038874Y-98040371D01*
X139038874Y-97967800D01*
X139075160Y-97858943D01*
X139111446Y-97822657D01*
X139800874Y-97096943D02*
X139800874Y-97532371D01*
X139800874Y-97314657D02*
X139038874Y-97314657D01*
X139147731Y-97387228D01*
X139220303Y-97459800D01*
X139256589Y-97532371D01*
X139800874Y-96371229D02*
X139800874Y-96806657D01*
X139800874Y-96588943D02*
X139038874Y-96588943D01*
X139147731Y-96661514D01*
X139220303Y-96734086D01*
X139256589Y-96806657D01*
X138326223Y-97355297D02*
X138362509Y-97391583D01*
X138398794Y-97500440D01*
X138398794Y-97573011D01*
X138362509Y-97681868D01*
X138289937Y-97754440D01*
X138217366Y-97790725D01*
X138072223Y-97827011D01*
X137963366Y-97827011D01*
X137818223Y-97790725D01*
X137745651Y-97754440D01*
X137673080Y-97681868D01*
X137636794Y-97573011D01*
X137636794Y-97500440D01*
X137673080Y-97391583D01*
X137709366Y-97355297D01*
X138398794Y-96629583D02*
X138398794Y-97065011D01*
X138398794Y-96847297D02*
X137636794Y-96847297D01*
X137745651Y-96919868D01*
X137818223Y-96992440D01*
X137854509Y-97065011D01*
X137709366Y-96339297D02*
X137673080Y-96303011D01*
X137636794Y-96230440D01*
X137636794Y-96049011D01*
X137673080Y-95976440D01*
X137709366Y-95940154D01*
X137781937Y-95903869D01*
X137854509Y-95903869D01*
X137963366Y-95940154D01*
X138398794Y-96375583D01*
X138398794Y-95903869D01*
X136151983Y-98432257D02*
X136188269Y-98468543D01*
X136224554Y-98577400D01*
X136224554Y-98649971D01*
X136188269Y-98758828D01*
X136115697Y-98831400D01*
X136043126Y-98867685D01*
X135897983Y-98903971D01*
X135789126Y-98903971D01*
X135643983Y-98867685D01*
X135571411Y-98831400D01*
X135498840Y-98758828D01*
X135462554Y-98649971D01*
X135462554Y-98577400D01*
X135498840Y-98468543D01*
X135535126Y-98432257D01*
X136224554Y-97706543D02*
X136224554Y-98141971D01*
X136224554Y-97924257D02*
X135462554Y-97924257D01*
X135571411Y-97996828D01*
X135643983Y-98069400D01*
X135680269Y-98141971D01*
X135462554Y-97452543D02*
X135462554Y-96980829D01*
X135752840Y-97234829D01*
X135752840Y-97125971D01*
X135789126Y-97053400D01*
X135825411Y-97017114D01*
X135897983Y-96980829D01*
X136079411Y-96980829D01*
X136151983Y-97017114D01*
X136188269Y-97053400D01*
X136224554Y-97125971D01*
X136224554Y-97343686D01*
X136188269Y-97416257D01*
X136151983Y-97452543D01*
X136835243Y-93776437D02*
X136871529Y-93812723D01*
X136907814Y-93921580D01*
X136907814Y-93994151D01*
X136871529Y-94103008D01*
X136798957Y-94175580D01*
X136726386Y-94211865D01*
X136581243Y-94248151D01*
X136472386Y-94248151D01*
X136327243Y-94211865D01*
X136254671Y-94175580D01*
X136182100Y-94103008D01*
X136145814Y-93994151D01*
X136145814Y-93921580D01*
X136182100Y-93812723D01*
X136218386Y-93776437D01*
X136907814Y-93050723D02*
X136907814Y-93486151D01*
X136907814Y-93268437D02*
X136145814Y-93268437D01*
X136254671Y-93341008D01*
X136327243Y-93413580D01*
X136363529Y-93486151D01*
X136399814Y-92397580D02*
X136907814Y-92397580D01*
X136109529Y-92579009D02*
X136653814Y-92760437D01*
X136653814Y-92288723D01*
X110957723Y-95394417D02*
X110994009Y-95430703D01*
X111030294Y-95539560D01*
X111030294Y-95612131D01*
X110994009Y-95720988D01*
X110921437Y-95793560D01*
X110848866Y-95829845D01*
X110703723Y-95866131D01*
X110594866Y-95866131D01*
X110449723Y-95829845D01*
X110377151Y-95793560D01*
X110304580Y-95720988D01*
X110268294Y-95612131D01*
X110268294Y-95539560D01*
X110304580Y-95430703D01*
X110340866Y-95394417D01*
X111030294Y-94668703D02*
X111030294Y-95104131D01*
X111030294Y-94886417D02*
X110268294Y-94886417D01*
X110377151Y-94958988D01*
X110449723Y-95031560D01*
X110486009Y-95104131D01*
X110268294Y-93979274D02*
X110268294Y-94342131D01*
X110631151Y-94378417D01*
X110594866Y-94342131D01*
X110558580Y-94269560D01*
X110558580Y-94088131D01*
X110594866Y-94015560D01*
X110631151Y-93979274D01*
X110703723Y-93942989D01*
X110885151Y-93942989D01*
X110957723Y-93979274D01*
X110994009Y-94015560D01*
X111030294Y-94088131D01*
X111030294Y-94269560D01*
X110994009Y-94342131D01*
X110957723Y-94378417D01*
D17*
X111136249Y-88045472D02*
X111160439Y-88069662D01*
X111184630Y-88142234D01*
X111184630Y-88190615D01*
X111160439Y-88263186D01*
X111112058Y-88311567D01*
X111063677Y-88335758D01*
X110966915Y-88359948D01*
X110894344Y-88359948D01*
X110797582Y-88335758D01*
X110749201Y-88311567D01*
X110700820Y-88263186D01*
X110676630Y-88190615D01*
X110676630Y-88142234D01*
X110700820Y-88069662D01*
X110725010Y-88045472D01*
X111184630Y-87561662D02*
X111184630Y-87851948D01*
X111184630Y-87706805D02*
X110676630Y-87706805D01*
X110749201Y-87755186D01*
X110797582Y-87803567D01*
X110821772Y-87851948D01*
X110676630Y-87126233D02*
X110676630Y-87222995D01*
X110700820Y-87271376D01*
X110725010Y-87295567D01*
X110797582Y-87343948D01*
X110894344Y-87368138D01*
X111087868Y-87368138D01*
X111136249Y-87343948D01*
X111160439Y-87319757D01*
X111184630Y-87271376D01*
X111184630Y-87174614D01*
X111160439Y-87126233D01*
X111136249Y-87102043D01*
X111087868Y-87077852D01*
X110966915Y-87077852D01*
X110918534Y-87102043D01*
X110894344Y-87126233D01*
X110870153Y-87174614D01*
X110870153Y-87271376D01*
X110894344Y-87319757D01*
X110918534Y-87343948D01*
X110966915Y-87368138D01*
D12*
X127564243Y-93898357D02*
X127600529Y-93934643D01*
X127636814Y-94043500D01*
X127636814Y-94116071D01*
X127600529Y-94224928D01*
X127527957Y-94297500D01*
X127455386Y-94333785D01*
X127310243Y-94370071D01*
X127201386Y-94370071D01*
X127056243Y-94333785D01*
X126983671Y-94297500D01*
X126911100Y-94224928D01*
X126874814Y-94116071D01*
X126874814Y-94043500D01*
X126911100Y-93934643D01*
X126947386Y-93898357D01*
X127636814Y-93172643D02*
X127636814Y-93608071D01*
X127636814Y-93390357D02*
X126874814Y-93390357D01*
X126983671Y-93462928D01*
X127056243Y-93535500D01*
X127092529Y-93608071D01*
X126874814Y-92918643D02*
X126874814Y-92410643D01*
X127636814Y-92737214D01*
X113596783Y-95457917D02*
X113633069Y-95494203D01*
X113669354Y-95603060D01*
X113669354Y-95675631D01*
X113633069Y-95784488D01*
X113560497Y-95857060D01*
X113487926Y-95893345D01*
X113342783Y-95929631D01*
X113233926Y-95929631D01*
X113088783Y-95893345D01*
X113016211Y-95857060D01*
X112943640Y-95784488D01*
X112907354Y-95675631D01*
X112907354Y-95603060D01*
X112943640Y-95494203D01*
X112979926Y-95457917D01*
X113669354Y-94732203D02*
X113669354Y-95167631D01*
X113669354Y-94949917D02*
X112907354Y-94949917D01*
X113016211Y-95022488D01*
X113088783Y-95095060D01*
X113125069Y-95167631D01*
X113233926Y-94296774D02*
X113197640Y-94369346D01*
X113161354Y-94405631D01*
X113088783Y-94441917D01*
X113052497Y-94441917D01*
X112979926Y-94405631D01*
X112943640Y-94369346D01*
X112907354Y-94296774D01*
X112907354Y-94151631D01*
X112943640Y-94079060D01*
X112979926Y-94042774D01*
X113052497Y-94006489D01*
X113088783Y-94006489D01*
X113161354Y-94042774D01*
X113197640Y-94079060D01*
X113233926Y-94151631D01*
X113233926Y-94296774D01*
X113270211Y-94369346D01*
X113306497Y-94405631D01*
X113379069Y-94441917D01*
X113524211Y-94441917D01*
X113596783Y-94405631D01*
X113633069Y-94369346D01*
X113669354Y-94296774D01*
X113669354Y-94151631D01*
X113633069Y-94079060D01*
X113596783Y-94042774D01*
X113524211Y-94006489D01*
X113379069Y-94006489D01*
X113306497Y-94042774D01*
X113270211Y-94079060D01*
X113233926Y-94151631D01*
X129192383Y-89107917D02*
X129228669Y-89144203D01*
X129264954Y-89253060D01*
X129264954Y-89325631D01*
X129228669Y-89434488D01*
X129156097Y-89507060D01*
X129083526Y-89543345D01*
X128938383Y-89579631D01*
X128829526Y-89579631D01*
X128684383Y-89543345D01*
X128611811Y-89507060D01*
X128539240Y-89434488D01*
X128502954Y-89325631D01*
X128502954Y-89253060D01*
X128539240Y-89144203D01*
X128575526Y-89107917D01*
X129264954Y-88382203D02*
X129264954Y-88817631D01*
X129264954Y-88599917D02*
X128502954Y-88599917D01*
X128611811Y-88672488D01*
X128684383Y-88745060D01*
X128720669Y-88817631D01*
X129264954Y-88019346D02*
X129264954Y-87874203D01*
X129228669Y-87801631D01*
X129192383Y-87765346D01*
X129083526Y-87692774D01*
X128938383Y-87656489D01*
X128648097Y-87656489D01*
X128575526Y-87692774D01*
X128539240Y-87729060D01*
X128502954Y-87801631D01*
X128502954Y-87946774D01*
X128539240Y-88019346D01*
X128575526Y-88055631D01*
X128648097Y-88091917D01*
X128829526Y-88091917D01*
X128902097Y-88055631D01*
X128938383Y-88019346D01*
X128974669Y-87946774D01*
X128974669Y-87801631D01*
X128938383Y-87729060D01*
X128902097Y-87692774D01*
X128829526Y-87656489D01*
X125809103Y-94063457D02*
X125845389Y-94099743D01*
X125881674Y-94208600D01*
X125881674Y-94281171D01*
X125845389Y-94390028D01*
X125772817Y-94462600D01*
X125700246Y-94498885D01*
X125555103Y-94535171D01*
X125446246Y-94535171D01*
X125301103Y-94498885D01*
X125228531Y-94462600D01*
X125155960Y-94390028D01*
X125119674Y-94281171D01*
X125119674Y-94208600D01*
X125155960Y-94099743D01*
X125192246Y-94063457D01*
X125192246Y-93773171D02*
X125155960Y-93736885D01*
X125119674Y-93664314D01*
X125119674Y-93482885D01*
X125155960Y-93410314D01*
X125192246Y-93374028D01*
X125264817Y-93337743D01*
X125337389Y-93337743D01*
X125446246Y-93374028D01*
X125881674Y-93809457D01*
X125881674Y-93337743D01*
X125119674Y-92866029D02*
X125119674Y-92793457D01*
X125155960Y-92720886D01*
X125192246Y-92684600D01*
X125264817Y-92648314D01*
X125409960Y-92612029D01*
X125591389Y-92612029D01*
X125736531Y-92648314D01*
X125809103Y-92684600D01*
X125845389Y-92720886D01*
X125881674Y-92793457D01*
X125881674Y-92866029D01*
X125845389Y-92938600D01*
X125809103Y-92974886D01*
X125736531Y-93011171D01*
X125591389Y-93047457D01*
X125409960Y-93047457D01*
X125264817Y-93011171D01*
X125192246Y-92974886D01*
X125155960Y-92938600D01*
X125119674Y-92866029D01*
X126710803Y-91030697D02*
X126747089Y-91066983D01*
X126783374Y-91175840D01*
X126783374Y-91248411D01*
X126747089Y-91357268D01*
X126674517Y-91429840D01*
X126601946Y-91466125D01*
X126456803Y-91502411D01*
X126347946Y-91502411D01*
X126202803Y-91466125D01*
X126130231Y-91429840D01*
X126057660Y-91357268D01*
X126021374Y-91248411D01*
X126021374Y-91175840D01*
X126057660Y-91066983D01*
X126093946Y-91030697D01*
X126093946Y-90740411D02*
X126057660Y-90704125D01*
X126021374Y-90631554D01*
X126021374Y-90450125D01*
X126057660Y-90377554D01*
X126093946Y-90341268D01*
X126166517Y-90304983D01*
X126239089Y-90304983D01*
X126347946Y-90341268D01*
X126783374Y-90776697D01*
X126783374Y-90304983D01*
X126783374Y-89579269D02*
X126783374Y-90014697D01*
X126783374Y-89796983D02*
X126021374Y-89796983D01*
X126130231Y-89869554D01*
X126202803Y-89942126D01*
X126239089Y-90014697D01*
X124325743Y-91183097D02*
X124362029Y-91219383D01*
X124398314Y-91328240D01*
X124398314Y-91400811D01*
X124362029Y-91509668D01*
X124289457Y-91582240D01*
X124216886Y-91618525D01*
X124071743Y-91654811D01*
X123962886Y-91654811D01*
X123817743Y-91618525D01*
X123745171Y-91582240D01*
X123672600Y-91509668D01*
X123636314Y-91400811D01*
X123636314Y-91328240D01*
X123672600Y-91219383D01*
X123708886Y-91183097D01*
X123708886Y-90892811D02*
X123672600Y-90856525D01*
X123636314Y-90783954D01*
X123636314Y-90602525D01*
X123672600Y-90529954D01*
X123708886Y-90493668D01*
X123781457Y-90457383D01*
X123854029Y-90457383D01*
X123962886Y-90493668D01*
X124398314Y-90929097D01*
X124398314Y-90457383D01*
X123708886Y-90167097D02*
X123672600Y-90130811D01*
X123636314Y-90058240D01*
X123636314Y-89876811D01*
X123672600Y-89804240D01*
X123708886Y-89767954D01*
X123781457Y-89731669D01*
X123854029Y-89731669D01*
X123962886Y-89767954D01*
X124398314Y-90203383D01*
X124398314Y-89731669D01*
X123068443Y-91155157D02*
X123104729Y-91191443D01*
X123141014Y-91300300D01*
X123141014Y-91372871D01*
X123104729Y-91481728D01*
X123032157Y-91554300D01*
X122959586Y-91590585D01*
X122814443Y-91626871D01*
X122705586Y-91626871D01*
X122560443Y-91590585D01*
X122487871Y-91554300D01*
X122415300Y-91481728D01*
X122379014Y-91372871D01*
X122379014Y-91300300D01*
X122415300Y-91191443D01*
X122451586Y-91155157D01*
X122451586Y-90864871D02*
X122415300Y-90828585D01*
X122379014Y-90756014D01*
X122379014Y-90574585D01*
X122415300Y-90502014D01*
X122451586Y-90465728D01*
X122524157Y-90429443D01*
X122596729Y-90429443D01*
X122705586Y-90465728D01*
X123141014Y-90901157D01*
X123141014Y-90429443D01*
X122379014Y-90175443D02*
X122379014Y-89703729D01*
X122669300Y-89957729D01*
X122669300Y-89848871D01*
X122705586Y-89776300D01*
X122741871Y-89740014D01*
X122814443Y-89703729D01*
X122995871Y-89703729D01*
X123068443Y-89740014D01*
X123104729Y-89776300D01*
X123141014Y-89848871D01*
X123141014Y-90066586D01*
X123104729Y-90139157D01*
X123068443Y-90175443D01*
X121447923Y-91189175D02*
X121484209Y-91229997D01*
X121520494Y-91343389D01*
X121520494Y-91415960D01*
X121484209Y-91520282D01*
X121411637Y-91583782D01*
X121339066Y-91610996D01*
X121193923Y-91629139D01*
X121085066Y-91615532D01*
X120939923Y-91561103D01*
X120867351Y-91515746D01*
X120794780Y-91434103D01*
X120758494Y-91320710D01*
X120758494Y-91248139D01*
X120794780Y-91143818D01*
X120831066Y-91112068D01*
X120831066Y-90821782D02*
X120794780Y-90780960D01*
X120758494Y-90703853D01*
X120758494Y-90522424D01*
X120794780Y-90454389D01*
X120831066Y-90422639D01*
X120903637Y-90395425D01*
X120976209Y-90404497D01*
X121085066Y-90454389D01*
X121520494Y-90944246D01*
X121520494Y-90472532D01*
X121012494Y-89755889D02*
X121520494Y-89819389D01*
X120722209Y-89901033D02*
X121266494Y-90150496D01*
X121266494Y-89678782D01*
X120190623Y-91127217D02*
X120226909Y-91163503D01*
X120263194Y-91272360D01*
X120263194Y-91344931D01*
X120226909Y-91453788D01*
X120154337Y-91526360D01*
X120081766Y-91562645D01*
X119936623Y-91598931D01*
X119827766Y-91598931D01*
X119682623Y-91562645D01*
X119610051Y-91526360D01*
X119537480Y-91453788D01*
X119501194Y-91344931D01*
X119501194Y-91272360D01*
X119537480Y-91163503D01*
X119573766Y-91127217D01*
X119573766Y-90836931D02*
X119537480Y-90800645D01*
X119501194Y-90728074D01*
X119501194Y-90546645D01*
X119537480Y-90474074D01*
X119573766Y-90437788D01*
X119646337Y-90401503D01*
X119718909Y-90401503D01*
X119827766Y-90437788D01*
X120263194Y-90873217D01*
X120263194Y-90401503D01*
X119501194Y-89712074D02*
X119501194Y-90074931D01*
X119864051Y-90111217D01*
X119827766Y-90074931D01*
X119791480Y-90002360D01*
X119791480Y-89820931D01*
X119827766Y-89748360D01*
X119864051Y-89712074D01*
X119936623Y-89675789D01*
X120118051Y-89675789D01*
X120190623Y-89712074D01*
X120226909Y-89748360D01*
X120263194Y-89820931D01*
X120263194Y-90002360D01*
X120226909Y-90074931D01*
X120190623Y-90111217D01*
X132146403Y-92044157D02*
X132182689Y-92080443D01*
X132218974Y-92189300D01*
X132218974Y-92261871D01*
X132182689Y-92370728D01*
X132110117Y-92443300D01*
X132037546Y-92479585D01*
X131892403Y-92515871D01*
X131783546Y-92515871D01*
X131638403Y-92479585D01*
X131565831Y-92443300D01*
X131493260Y-92370728D01*
X131456974Y-92261871D01*
X131456974Y-92189300D01*
X131493260Y-92080443D01*
X131529546Y-92044157D01*
X131529546Y-91753871D02*
X131493260Y-91717585D01*
X131456974Y-91645014D01*
X131456974Y-91463585D01*
X131493260Y-91391014D01*
X131529546Y-91354728D01*
X131602117Y-91318443D01*
X131674689Y-91318443D01*
X131783546Y-91354728D01*
X132218974Y-91790157D01*
X132218974Y-91318443D01*
X131456974Y-90665300D02*
X131456974Y-90810443D01*
X131493260Y-90883014D01*
X131529546Y-90919300D01*
X131638403Y-90991871D01*
X131783546Y-91028157D01*
X132073831Y-91028157D01*
X132146403Y-90991871D01*
X132182689Y-90955586D01*
X132218974Y-90883014D01*
X132218974Y-90737871D01*
X132182689Y-90665300D01*
X132146403Y-90629014D01*
X132073831Y-90592729D01*
X131892403Y-90592729D01*
X131819831Y-90629014D01*
X131783546Y-90665300D01*
X131747260Y-90737871D01*
X131747260Y-90883014D01*
X131783546Y-90955586D01*
X131819831Y-90991871D01*
X131892403Y-91028157D01*
X112618883Y-91099277D02*
X112655169Y-91135563D01*
X112691454Y-91244420D01*
X112691454Y-91316991D01*
X112655169Y-91425848D01*
X112582597Y-91498420D01*
X112510026Y-91534705D01*
X112364883Y-91570991D01*
X112256026Y-91570991D01*
X112110883Y-91534705D01*
X112038311Y-91498420D01*
X111965740Y-91425848D01*
X111929454Y-91316991D01*
X111929454Y-91244420D01*
X111965740Y-91135563D01*
X112002026Y-91099277D01*
X112002026Y-90808991D02*
X111965740Y-90772705D01*
X111929454Y-90700134D01*
X111929454Y-90518705D01*
X111965740Y-90446134D01*
X112002026Y-90409848D01*
X112074597Y-90373563D01*
X112147169Y-90373563D01*
X112256026Y-90409848D01*
X112691454Y-90845277D01*
X112691454Y-90373563D01*
X111929454Y-90119563D02*
X111929454Y-89611563D01*
X112691454Y-89938134D01*
X150436943Y-94347937D02*
X150473229Y-94384223D01*
X150509514Y-94493080D01*
X150509514Y-94565651D01*
X150473229Y-94674508D01*
X150400657Y-94747080D01*
X150328086Y-94783365D01*
X150182943Y-94819651D01*
X150074086Y-94819651D01*
X149928943Y-94783365D01*
X149856371Y-94747080D01*
X149783800Y-94674508D01*
X149747514Y-94565651D01*
X149747514Y-94493080D01*
X149783800Y-94384223D01*
X149820086Y-94347937D01*
X149820086Y-94057651D02*
X149783800Y-94021365D01*
X149747514Y-93948794D01*
X149747514Y-93767365D01*
X149783800Y-93694794D01*
X149820086Y-93658508D01*
X149892657Y-93622223D01*
X149965229Y-93622223D01*
X150074086Y-93658508D01*
X150509514Y-94093937D01*
X150509514Y-93622223D01*
X150074086Y-93186794D02*
X150037800Y-93259366D01*
X150001514Y-93295651D01*
X149928943Y-93331937D01*
X149892657Y-93331937D01*
X149820086Y-93295651D01*
X149783800Y-93259366D01*
X149747514Y-93186794D01*
X149747514Y-93041651D01*
X149783800Y-92969080D01*
X149820086Y-92932794D01*
X149892657Y-92896509D01*
X149928943Y-92896509D01*
X150001514Y-92932794D01*
X150037800Y-92969080D01*
X150074086Y-93041651D01*
X150074086Y-93186794D01*
X150110371Y-93259366D01*
X150146657Y-93295651D01*
X150219229Y-93331937D01*
X150364371Y-93331937D01*
X150436943Y-93295651D01*
X150473229Y-93259366D01*
X150509514Y-93186794D01*
X150509514Y-93041651D01*
X150473229Y-92969080D01*
X150436943Y-92932794D01*
X150364371Y-92896509D01*
X150219229Y-92896509D01*
X150146657Y-92932794D01*
X150110371Y-92969080D01*
X150074086Y-93041651D01*
X133850743Y-94835617D02*
X133887029Y-94871903D01*
X133923314Y-94980760D01*
X133923314Y-95053331D01*
X133887029Y-95162188D01*
X133814457Y-95234760D01*
X133741886Y-95271045D01*
X133596743Y-95307331D01*
X133487886Y-95307331D01*
X133342743Y-95271045D01*
X133270171Y-95234760D01*
X133197600Y-95162188D01*
X133161314Y-95053331D01*
X133161314Y-94980760D01*
X133197600Y-94871903D01*
X133233886Y-94835617D01*
X133161314Y-94581617D02*
X133161314Y-94109903D01*
X133451600Y-94363903D01*
X133451600Y-94255045D01*
X133487886Y-94182474D01*
X133524171Y-94146188D01*
X133596743Y-94109903D01*
X133778171Y-94109903D01*
X133850743Y-94146188D01*
X133887029Y-94182474D01*
X133923314Y-94255045D01*
X133923314Y-94472760D01*
X133887029Y-94545331D01*
X133850743Y-94581617D01*
X133161314Y-93638189D02*
X133161314Y-93565617D01*
X133197600Y-93493046D01*
X133233886Y-93456760D01*
X133306457Y-93420474D01*
X133451600Y-93384189D01*
X133633029Y-93384189D01*
X133778171Y-93420474D01*
X133850743Y-93456760D01*
X133887029Y-93493046D01*
X133923314Y-93565617D01*
X133923314Y-93638189D01*
X133887029Y-93710760D01*
X133850743Y-93747046D01*
X133778171Y-93783331D01*
X133633029Y-93819617D01*
X133451600Y-93819617D01*
X133306457Y-93783331D01*
X133233886Y-93747046D01*
X133197600Y-93710760D01*
X133161314Y-93638189D01*
X146962223Y-94104097D02*
X146998509Y-94140383D01*
X147034794Y-94249240D01*
X147034794Y-94321811D01*
X146998509Y-94430668D01*
X146925937Y-94503240D01*
X146853366Y-94539525D01*
X146708223Y-94575811D01*
X146599366Y-94575811D01*
X146454223Y-94539525D01*
X146381651Y-94503240D01*
X146309080Y-94430668D01*
X146272794Y-94321811D01*
X146272794Y-94249240D01*
X146309080Y-94140383D01*
X146345366Y-94104097D01*
X146272794Y-93850097D02*
X146272794Y-93378383D01*
X146563080Y-93632383D01*
X146563080Y-93523525D01*
X146599366Y-93450954D01*
X146635651Y-93414668D01*
X146708223Y-93378383D01*
X146889651Y-93378383D01*
X146962223Y-93414668D01*
X146998509Y-93450954D01*
X147034794Y-93523525D01*
X147034794Y-93741240D01*
X146998509Y-93813811D01*
X146962223Y-93850097D01*
X147034794Y-92652669D02*
X147034794Y-93088097D01*
X147034794Y-92870383D02*
X146272794Y-92870383D01*
X146381651Y-92942954D01*
X146454223Y-93015526D01*
X146490509Y-93088097D01*
X148991683Y-89052037D02*
X149027969Y-89088323D01*
X149064254Y-89197180D01*
X149064254Y-89269751D01*
X149027969Y-89378608D01*
X148955397Y-89451180D01*
X148882826Y-89487465D01*
X148737683Y-89523751D01*
X148628826Y-89523751D01*
X148483683Y-89487465D01*
X148411111Y-89451180D01*
X148338540Y-89378608D01*
X148302254Y-89269751D01*
X148302254Y-89197180D01*
X148338540Y-89088323D01*
X148374826Y-89052037D01*
X148302254Y-88798037D02*
X148302254Y-88326323D01*
X148592540Y-88580323D01*
X148592540Y-88471465D01*
X148628826Y-88398894D01*
X148665111Y-88362608D01*
X148737683Y-88326323D01*
X148919111Y-88326323D01*
X148991683Y-88362608D01*
X149027969Y-88398894D01*
X149064254Y-88471465D01*
X149064254Y-88689180D01*
X149027969Y-88761751D01*
X148991683Y-88798037D01*
X148374826Y-88036037D02*
X148338540Y-87999751D01*
X148302254Y-87927180D01*
X148302254Y-87745751D01*
X148338540Y-87673180D01*
X148374826Y-87636894D01*
X148447397Y-87600609D01*
X148519969Y-87600609D01*
X148628826Y-87636894D01*
X149064254Y-88072323D01*
X149064254Y-87600609D01*
X145981783Y-94002497D02*
X146018069Y-94038783D01*
X146054354Y-94147640D01*
X146054354Y-94220211D01*
X146018069Y-94329068D01*
X145945497Y-94401640D01*
X145872926Y-94437925D01*
X145727783Y-94474211D01*
X145618926Y-94474211D01*
X145473783Y-94437925D01*
X145401211Y-94401640D01*
X145328640Y-94329068D01*
X145292354Y-94220211D01*
X145292354Y-94147640D01*
X145328640Y-94038783D01*
X145364926Y-94002497D01*
X145292354Y-93748497D02*
X145292354Y-93276783D01*
X145582640Y-93530783D01*
X145582640Y-93421925D01*
X145618926Y-93349354D01*
X145655211Y-93313068D01*
X145727783Y-93276783D01*
X145909211Y-93276783D01*
X145981783Y-93313068D01*
X146018069Y-93349354D01*
X146054354Y-93421925D01*
X146054354Y-93639640D01*
X146018069Y-93712211D01*
X145981783Y-93748497D01*
X145292354Y-93022783D02*
X145292354Y-92551069D01*
X145582640Y-92805069D01*
X145582640Y-92696211D01*
X145618926Y-92623640D01*
X145655211Y-92587354D01*
X145727783Y-92551069D01*
X145909211Y-92551069D01*
X145981783Y-92587354D01*
X146018069Y-92623640D01*
X146054354Y-92696211D01*
X146054354Y-92913926D01*
X146018069Y-92986497D01*
X145981783Y-93022783D01*
D18*
X146974923Y-90962117D02*
X147011209Y-90998403D01*
X147047494Y-91107260D01*
X147047494Y-91179831D01*
X147011209Y-91288688D01*
X146938637Y-91361260D01*
X146866066Y-91397545D01*
X146720923Y-91433831D01*
X146612066Y-91433831D01*
X146466923Y-91397545D01*
X146394351Y-91361260D01*
X146321780Y-91288688D01*
X146285494Y-91179831D01*
X146285494Y-91107260D01*
X146321780Y-90998403D01*
X146358066Y-90962117D01*
X146285494Y-90708117D02*
X146285494Y-90236403D01*
X146575780Y-90490403D01*
X146575780Y-90381545D01*
X146612066Y-90308974D01*
X146648351Y-90272688D01*
X146720923Y-90236403D01*
X146902351Y-90236403D01*
X146974923Y-90272688D01*
X147011209Y-90308974D01*
X147047494Y-90381545D01*
X147047494Y-90599260D01*
X147011209Y-90671831D01*
X146974923Y-90708117D01*
X146539494Y-89583260D02*
X147047494Y-89583260D01*
X146249209Y-89764689D02*
X146793494Y-89946117D01*
X146793494Y-89474403D01*
D12*
X144767663Y-91198337D02*
X144803949Y-91234623D01*
X144840234Y-91343480D01*
X144840234Y-91416051D01*
X144803949Y-91524908D01*
X144731377Y-91597480D01*
X144658806Y-91633765D01*
X144513663Y-91670051D01*
X144404806Y-91670051D01*
X144259663Y-91633765D01*
X144187091Y-91597480D01*
X144114520Y-91524908D01*
X144078234Y-91416051D01*
X144078234Y-91343480D01*
X144114520Y-91234623D01*
X144150806Y-91198337D01*
X144078234Y-90944337D02*
X144078234Y-90472623D01*
X144368520Y-90726623D01*
X144368520Y-90617765D01*
X144404806Y-90545194D01*
X144441091Y-90508908D01*
X144513663Y-90472623D01*
X144695091Y-90472623D01*
X144767663Y-90508908D01*
X144803949Y-90545194D01*
X144840234Y-90617765D01*
X144840234Y-90835480D01*
X144803949Y-90908051D01*
X144767663Y-90944337D01*
X144078234Y-89783194D02*
X144078234Y-90146051D01*
X144441091Y-90182337D01*
X144404806Y-90146051D01*
X144368520Y-90073480D01*
X144368520Y-89892051D01*
X144404806Y-89819480D01*
X144441091Y-89783194D01*
X144513663Y-89746909D01*
X144695091Y-89746909D01*
X144767663Y-89783194D01*
X144803949Y-89819480D01*
X144840234Y-89892051D01*
X144840234Y-90073480D01*
X144803949Y-90146051D01*
X144767663Y-90182337D01*
X143406223Y-91198337D02*
X143442509Y-91234623D01*
X143478794Y-91343480D01*
X143478794Y-91416051D01*
X143442509Y-91524908D01*
X143369937Y-91597480D01*
X143297366Y-91633765D01*
X143152223Y-91670051D01*
X143043366Y-91670051D01*
X142898223Y-91633765D01*
X142825651Y-91597480D01*
X142753080Y-91524908D01*
X142716794Y-91416051D01*
X142716794Y-91343480D01*
X142753080Y-91234623D01*
X142789366Y-91198337D01*
X142716794Y-90944337D02*
X142716794Y-90472623D01*
X143007080Y-90726623D01*
X143007080Y-90617765D01*
X143043366Y-90545194D01*
X143079651Y-90508908D01*
X143152223Y-90472623D01*
X143333651Y-90472623D01*
X143406223Y-90508908D01*
X143442509Y-90545194D01*
X143478794Y-90617765D01*
X143478794Y-90835480D01*
X143442509Y-90908051D01*
X143406223Y-90944337D01*
X142716794Y-89819480D02*
X142716794Y-89964623D01*
X142753080Y-90037194D01*
X142789366Y-90073480D01*
X142898223Y-90146051D01*
X143043366Y-90182337D01*
X143333651Y-90182337D01*
X143406223Y-90146051D01*
X143442509Y-90109766D01*
X143478794Y-90037194D01*
X143478794Y-89892051D01*
X143442509Y-89819480D01*
X143406223Y-89783194D01*
X143333651Y-89746909D01*
X143152223Y-89746909D01*
X143079651Y-89783194D01*
X143043366Y-89819480D01*
X143007080Y-89892051D01*
X143007080Y-90037194D01*
X143043366Y-90109766D01*
X143079651Y-90146051D01*
X143152223Y-90182337D01*
X141739983Y-91178017D02*
X141776269Y-91214303D01*
X141812554Y-91323160D01*
X141812554Y-91395731D01*
X141776269Y-91504588D01*
X141703697Y-91577160D01*
X141631126Y-91613445D01*
X141485983Y-91649731D01*
X141377126Y-91649731D01*
X141231983Y-91613445D01*
X141159411Y-91577160D01*
X141086840Y-91504588D01*
X141050554Y-91395731D01*
X141050554Y-91323160D01*
X141086840Y-91214303D01*
X141123126Y-91178017D01*
X141050554Y-90924017D02*
X141050554Y-90452303D01*
X141340840Y-90706303D01*
X141340840Y-90597445D01*
X141377126Y-90524874D01*
X141413411Y-90488588D01*
X141485983Y-90452303D01*
X141667411Y-90452303D01*
X141739983Y-90488588D01*
X141776269Y-90524874D01*
X141812554Y-90597445D01*
X141812554Y-90815160D01*
X141776269Y-90887731D01*
X141739983Y-90924017D01*
X141050554Y-90198303D02*
X141050554Y-89690303D01*
X141812554Y-90016874D01*
X140500463Y-91157697D02*
X140536749Y-91193983D01*
X140573034Y-91302840D01*
X140573034Y-91375411D01*
X140536749Y-91484268D01*
X140464177Y-91556840D01*
X140391606Y-91593125D01*
X140246463Y-91629411D01*
X140137606Y-91629411D01*
X139992463Y-91593125D01*
X139919891Y-91556840D01*
X139847320Y-91484268D01*
X139811034Y-91375411D01*
X139811034Y-91302840D01*
X139847320Y-91193983D01*
X139883606Y-91157697D01*
X139811034Y-90903697D02*
X139811034Y-90431983D01*
X140101320Y-90685983D01*
X140101320Y-90577125D01*
X140137606Y-90504554D01*
X140173891Y-90468268D01*
X140246463Y-90431983D01*
X140427891Y-90431983D01*
X140500463Y-90468268D01*
X140536749Y-90504554D01*
X140573034Y-90577125D01*
X140573034Y-90794840D01*
X140536749Y-90867411D01*
X140500463Y-90903697D01*
X140137606Y-89996554D02*
X140101320Y-90069126D01*
X140065034Y-90105411D01*
X139992463Y-90141697D01*
X139956177Y-90141697D01*
X139883606Y-90105411D01*
X139847320Y-90069126D01*
X139811034Y-89996554D01*
X139811034Y-89851411D01*
X139847320Y-89778840D01*
X139883606Y-89742554D01*
X139956177Y-89706269D01*
X139992463Y-89706269D01*
X140065034Y-89742554D01*
X140101320Y-89778840D01*
X140137606Y-89851411D01*
X140137606Y-89996554D01*
X140173891Y-90069126D01*
X140210177Y-90105411D01*
X140282749Y-90141697D01*
X140427891Y-90141697D01*
X140500463Y-90105411D01*
X140536749Y-90069126D01*
X140573034Y-89996554D01*
X140573034Y-89851411D01*
X140536749Y-89778840D01*
X140500463Y-89742554D01*
X140427891Y-89706269D01*
X140282749Y-89706269D01*
X140210177Y-89742554D01*
X140173891Y-89778840D01*
X140137606Y-89851411D01*
X151706943Y-89323817D02*
X151743229Y-89360103D01*
X151779514Y-89468960D01*
X151779514Y-89541531D01*
X151743229Y-89650388D01*
X151670657Y-89722960D01*
X151598086Y-89759245D01*
X151452943Y-89795531D01*
X151344086Y-89795531D01*
X151198943Y-89759245D01*
X151126371Y-89722960D01*
X151053800Y-89650388D01*
X151017514Y-89541531D01*
X151017514Y-89468960D01*
X151053800Y-89360103D01*
X151090086Y-89323817D01*
X151017514Y-89069817D02*
X151017514Y-88598103D01*
X151307800Y-88852103D01*
X151307800Y-88743245D01*
X151344086Y-88670674D01*
X151380371Y-88634388D01*
X151452943Y-88598103D01*
X151634371Y-88598103D01*
X151706943Y-88634388D01*
X151743229Y-88670674D01*
X151779514Y-88743245D01*
X151779514Y-88960960D01*
X151743229Y-89033531D01*
X151706943Y-89069817D01*
X151779514Y-88235246D02*
X151779514Y-88090103D01*
X151743229Y-88017531D01*
X151706943Y-87981246D01*
X151598086Y-87908674D01*
X151452943Y-87872389D01*
X151162657Y-87872389D01*
X151090086Y-87908674D01*
X151053800Y-87944960D01*
X151017514Y-88017531D01*
X151017514Y-88162674D01*
X151053800Y-88235246D01*
X151090086Y-88271531D01*
X151162657Y-88307817D01*
X151344086Y-88307817D01*
X151416657Y-88271531D01*
X151452943Y-88235246D01*
X151489229Y-88162674D01*
X151489229Y-88017531D01*
X151452943Y-87944960D01*
X151416657Y-87908674D01*
X151344086Y-87872389D01*
X132730603Y-89068637D02*
X132766889Y-89104923D01*
X132803174Y-89213780D01*
X132803174Y-89286351D01*
X132766889Y-89395208D01*
X132694317Y-89467780D01*
X132621746Y-89504065D01*
X132476603Y-89540351D01*
X132367746Y-89540351D01*
X132222603Y-89504065D01*
X132150031Y-89467780D01*
X132077460Y-89395208D01*
X132041174Y-89286351D01*
X132041174Y-89213780D01*
X132077460Y-89104923D01*
X132113746Y-89068637D01*
X132295174Y-88415494D02*
X132803174Y-88415494D01*
X132004889Y-88596923D02*
X132549174Y-88778351D01*
X132549174Y-88306637D01*
X132041174Y-87871209D02*
X132041174Y-87798637D01*
X132077460Y-87726066D01*
X132113746Y-87689780D01*
X132186317Y-87653494D01*
X132331460Y-87617209D01*
X132512889Y-87617209D01*
X132658031Y-87653494D01*
X132730603Y-87689780D01*
X132766889Y-87726066D01*
X132803174Y-87798637D01*
X132803174Y-87871209D01*
X132766889Y-87943780D01*
X132730603Y-87980066D01*
X132658031Y-88016351D01*
X132512889Y-88052637D01*
X132331460Y-88052637D01*
X132186317Y-88016351D01*
X132113746Y-87980066D01*
X132077460Y-87943780D01*
X132041174Y-87871209D01*
X111097423Y-104914337D02*
X111133709Y-104950623D01*
X111169994Y-105059480D01*
X111169994Y-105132051D01*
X111133709Y-105240908D01*
X111061137Y-105313480D01*
X110988566Y-105349765D01*
X110843423Y-105386051D01*
X110734566Y-105386051D01*
X110589423Y-105349765D01*
X110516851Y-105313480D01*
X110444280Y-105240908D01*
X110407994Y-105132051D01*
X110407994Y-105059480D01*
X110444280Y-104950623D01*
X110480566Y-104914337D01*
X110661994Y-104261194D02*
X111169994Y-104261194D01*
X110371709Y-104442623D02*
X110915994Y-104624051D01*
X110915994Y-104152337D01*
X111169994Y-103462909D02*
X111169994Y-103898337D01*
X111169994Y-103680623D02*
X110407994Y-103680623D01*
X110516851Y-103753194D01*
X110589423Y-103825766D01*
X110625709Y-103898337D01*
X113736483Y-108477957D02*
X113772769Y-108514243D01*
X113809054Y-108623100D01*
X113809054Y-108695671D01*
X113772769Y-108804528D01*
X113700197Y-108877100D01*
X113627626Y-108913385D01*
X113482483Y-108949671D01*
X113373626Y-108949671D01*
X113228483Y-108913385D01*
X113155911Y-108877100D01*
X113083340Y-108804528D01*
X113047054Y-108695671D01*
X113047054Y-108623100D01*
X113083340Y-108514243D01*
X113119626Y-108477957D01*
X113301054Y-107824814D02*
X113809054Y-107824814D01*
X113010769Y-108006243D02*
X113555054Y-108187671D01*
X113555054Y-107715957D01*
X113047054Y-107498243D02*
X113047054Y-107026529D01*
X113337340Y-107280529D01*
X113337340Y-107171671D01*
X113373626Y-107099100D01*
X113409911Y-107062814D01*
X113482483Y-107026529D01*
X113663911Y-107026529D01*
X113736483Y-107062814D01*
X113772769Y-107099100D01*
X113809054Y-107171671D01*
X113809054Y-107389386D01*
X113772769Y-107461957D01*
X113736483Y-107498243D01*
X127221343Y-113814497D02*
X127257629Y-113850783D01*
X127293914Y-113959640D01*
X127293914Y-114032211D01*
X127257629Y-114141068D01*
X127185057Y-114213640D01*
X127112486Y-114249925D01*
X126967343Y-114286211D01*
X126858486Y-114286211D01*
X126713343Y-114249925D01*
X126640771Y-114213640D01*
X126568200Y-114141068D01*
X126531914Y-114032211D01*
X126531914Y-113959640D01*
X126568200Y-113850783D01*
X126604486Y-113814497D01*
X126785914Y-113161354D02*
X127293914Y-113161354D01*
X126495629Y-113342783D02*
X127039914Y-113524211D01*
X127039914Y-113052497D01*
X126785914Y-112435640D02*
X127293914Y-112435640D01*
X126495629Y-112617069D02*
X127039914Y-112798497D01*
X127039914Y-112326783D01*
X115692283Y-111858697D02*
X115728569Y-111894983D01*
X115764854Y-112003840D01*
X115764854Y-112076411D01*
X115728569Y-112185268D01*
X115655997Y-112257840D01*
X115583426Y-112294125D01*
X115438283Y-112330411D01*
X115329426Y-112330411D01*
X115184283Y-112294125D01*
X115111711Y-112257840D01*
X115039140Y-112185268D01*
X115002854Y-112076411D01*
X115002854Y-112003840D01*
X115039140Y-111894983D01*
X115075426Y-111858697D01*
X115256854Y-111205554D02*
X115764854Y-111205554D01*
X114966569Y-111386983D02*
X115510854Y-111568411D01*
X115510854Y-111096697D01*
X115002854Y-110479840D02*
X115002854Y-110624983D01*
X115039140Y-110697554D01*
X115075426Y-110733840D01*
X115184283Y-110806411D01*
X115329426Y-110842697D01*
X115619711Y-110842697D01*
X115692283Y-110806411D01*
X115728569Y-110770126D01*
X115764854Y-110697554D01*
X115764854Y-110552411D01*
X115728569Y-110479840D01*
X115692283Y-110443554D01*
X115619711Y-110407269D01*
X115438283Y-110407269D01*
X115365711Y-110443554D01*
X115329426Y-110479840D01*
X115293140Y-110552411D01*
X115293140Y-110697554D01*
X115329426Y-110770126D01*
X115365711Y-110806411D01*
X115438283Y-110842697D01*
X117681103Y-114444417D02*
X117717389Y-114480703D01*
X117753674Y-114589560D01*
X117753674Y-114662131D01*
X117717389Y-114770988D01*
X117644817Y-114843560D01*
X117572246Y-114879845D01*
X117427103Y-114916131D01*
X117318246Y-114916131D01*
X117173103Y-114879845D01*
X117100531Y-114843560D01*
X117027960Y-114770988D01*
X116991674Y-114662131D01*
X116991674Y-114589560D01*
X117027960Y-114480703D01*
X117064246Y-114444417D01*
X117245674Y-113791274D02*
X117753674Y-113791274D01*
X116955389Y-113972703D02*
X117499674Y-114154131D01*
X117499674Y-113682417D01*
X117318246Y-113283274D02*
X117281960Y-113355846D01*
X117245674Y-113392131D01*
X117173103Y-113428417D01*
X117136817Y-113428417D01*
X117064246Y-113392131D01*
X117027960Y-113355846D01*
X116991674Y-113283274D01*
X116991674Y-113138131D01*
X117027960Y-113065560D01*
X117064246Y-113029274D01*
X117136817Y-112992989D01*
X117173103Y-112992989D01*
X117245674Y-113029274D01*
X117281960Y-113065560D01*
X117318246Y-113138131D01*
X117318246Y-113283274D01*
X117354531Y-113355846D01*
X117390817Y-113392131D01*
X117463389Y-113428417D01*
X117608531Y-113428417D01*
X117681103Y-113392131D01*
X117717389Y-113355846D01*
X117753674Y-113283274D01*
X117753674Y-113138131D01*
X117717389Y-113065560D01*
X117681103Y-113029274D01*
X117608531Y-112992989D01*
X117463389Y-112992989D01*
X117390817Y-113029274D01*
X117354531Y-113065560D01*
X117318246Y-113138131D01*
X118933323Y-114457117D02*
X118969609Y-114493403D01*
X119005894Y-114602260D01*
X119005894Y-114674831D01*
X118969609Y-114783688D01*
X118897037Y-114856260D01*
X118824466Y-114892545D01*
X118679323Y-114928831D01*
X118570466Y-114928831D01*
X118425323Y-114892545D01*
X118352751Y-114856260D01*
X118280180Y-114783688D01*
X118243894Y-114674831D01*
X118243894Y-114602260D01*
X118280180Y-114493403D01*
X118316466Y-114457117D01*
X118497894Y-113803974D02*
X119005894Y-113803974D01*
X118207609Y-113985403D02*
X118751894Y-114166831D01*
X118751894Y-113695117D01*
X119005894Y-113368546D02*
X119005894Y-113223403D01*
X118969609Y-113150831D01*
X118933323Y-113114546D01*
X118824466Y-113041974D01*
X118679323Y-113005689D01*
X118389037Y-113005689D01*
X118316466Y-113041974D01*
X118280180Y-113078260D01*
X118243894Y-113150831D01*
X118243894Y-113295974D01*
X118280180Y-113368546D01*
X118316466Y-113404831D01*
X118389037Y-113441117D01*
X118570466Y-113441117D01*
X118643037Y-113404831D01*
X118679323Y-113368546D01*
X118715609Y-113295974D01*
X118715609Y-113150831D01*
X118679323Y-113078260D01*
X118643037Y-113041974D01*
X118570466Y-113005689D01*
X121755263Y-114401237D02*
X121791549Y-114437523D01*
X121827834Y-114546380D01*
X121827834Y-114618951D01*
X121791549Y-114727808D01*
X121718977Y-114800380D01*
X121646406Y-114836665D01*
X121501263Y-114872951D01*
X121392406Y-114872951D01*
X121247263Y-114836665D01*
X121174691Y-114800380D01*
X121102120Y-114727808D01*
X121065834Y-114618951D01*
X121065834Y-114546380D01*
X121102120Y-114437523D01*
X121138406Y-114401237D01*
X121065834Y-113711808D02*
X121065834Y-114074665D01*
X121428691Y-114110951D01*
X121392406Y-114074665D01*
X121356120Y-114002094D01*
X121356120Y-113820665D01*
X121392406Y-113748094D01*
X121428691Y-113711808D01*
X121501263Y-113675523D01*
X121682691Y-113675523D01*
X121755263Y-113711808D01*
X121791549Y-113748094D01*
X121827834Y-113820665D01*
X121827834Y-114002094D01*
X121791549Y-114074665D01*
X121755263Y-114110951D01*
X121827834Y-112949809D02*
X121827834Y-113385237D01*
X121827834Y-113167523D02*
X121065834Y-113167523D01*
X121174691Y-113240094D01*
X121247263Y-113312666D01*
X121283549Y-113385237D01*
X111117743Y-111945057D02*
X111154029Y-111981343D01*
X111190314Y-112090200D01*
X111190314Y-112162771D01*
X111154029Y-112271628D01*
X111081457Y-112344200D01*
X111008886Y-112380485D01*
X110863743Y-112416771D01*
X110754886Y-112416771D01*
X110609743Y-112380485D01*
X110537171Y-112344200D01*
X110464600Y-112271628D01*
X110428314Y-112162771D01*
X110428314Y-112090200D01*
X110464600Y-111981343D01*
X110500886Y-111945057D01*
X110428314Y-111255628D02*
X110428314Y-111618485D01*
X110791171Y-111654771D01*
X110754886Y-111618485D01*
X110718600Y-111545914D01*
X110718600Y-111364485D01*
X110754886Y-111291914D01*
X110791171Y-111255628D01*
X110863743Y-111219343D01*
X111045171Y-111219343D01*
X111117743Y-111255628D01*
X111154029Y-111291914D01*
X111190314Y-111364485D01*
X111190314Y-111545914D01*
X111154029Y-111618485D01*
X111117743Y-111654771D01*
X110500886Y-110929057D02*
X110464600Y-110892771D01*
X110428314Y-110820200D01*
X110428314Y-110638771D01*
X110464600Y-110566200D01*
X110500886Y-110529914D01*
X110573457Y-110493629D01*
X110646029Y-110493629D01*
X110754886Y-110529914D01*
X111190314Y-110965343D01*
X111190314Y-110493629D01*
X126113903Y-116580557D02*
X126150189Y-116616843D01*
X126186474Y-116725700D01*
X126186474Y-116798271D01*
X126150189Y-116907128D01*
X126077617Y-116979700D01*
X126005046Y-117015985D01*
X125859903Y-117052271D01*
X125751046Y-117052271D01*
X125605903Y-117015985D01*
X125533331Y-116979700D01*
X125460760Y-116907128D01*
X125424474Y-116798271D01*
X125424474Y-116725700D01*
X125460760Y-116616843D01*
X125497046Y-116580557D01*
X125424474Y-115891128D02*
X125424474Y-116253985D01*
X125787331Y-116290271D01*
X125751046Y-116253985D01*
X125714760Y-116181414D01*
X125714760Y-115999985D01*
X125751046Y-115927414D01*
X125787331Y-115891128D01*
X125859903Y-115854843D01*
X126041331Y-115854843D01*
X126113903Y-115891128D01*
X126150189Y-115927414D01*
X126186474Y-115999985D01*
X126186474Y-116181414D01*
X126150189Y-116253985D01*
X126113903Y-116290271D01*
X125424474Y-115600843D02*
X125424474Y-115129129D01*
X125714760Y-115383129D01*
X125714760Y-115274271D01*
X125751046Y-115201700D01*
X125787331Y-115165414D01*
X125859903Y-115129129D01*
X126041331Y-115129129D01*
X126113903Y-115165414D01*
X126150189Y-115201700D01*
X126186474Y-115274271D01*
X126186474Y-115491986D01*
X126150189Y-115564557D01*
X126113903Y-115600843D01*
X151508823Y-111160197D02*
X151545109Y-111196483D01*
X151581394Y-111305340D01*
X151581394Y-111377911D01*
X151545109Y-111486768D01*
X151472537Y-111559340D01*
X151399966Y-111595625D01*
X151254823Y-111631911D01*
X151145966Y-111631911D01*
X151000823Y-111595625D01*
X150928251Y-111559340D01*
X150855680Y-111486768D01*
X150819394Y-111377911D01*
X150819394Y-111305340D01*
X150855680Y-111196483D01*
X150891966Y-111160197D01*
X150819394Y-110470768D02*
X150819394Y-110833625D01*
X151182251Y-110869911D01*
X151145966Y-110833625D01*
X151109680Y-110761054D01*
X151109680Y-110579625D01*
X151145966Y-110507054D01*
X151182251Y-110470768D01*
X151254823Y-110434483D01*
X151436251Y-110434483D01*
X151508823Y-110470768D01*
X151545109Y-110507054D01*
X151581394Y-110579625D01*
X151581394Y-110761054D01*
X151545109Y-110833625D01*
X151508823Y-110869911D01*
X151073394Y-109781340D02*
X151581394Y-109781340D01*
X150783109Y-109962769D02*
X151327394Y-110144197D01*
X151327394Y-109672483D01*
D17*
X151733069Y-117420572D02*
X151757259Y-117444762D01*
X151781450Y-117517334D01*
X151781450Y-117565715D01*
X151757259Y-117638286D01*
X151708878Y-117686667D01*
X151660497Y-117710858D01*
X151563735Y-117735048D01*
X151491164Y-117735048D01*
X151394402Y-117710858D01*
X151346021Y-117686667D01*
X151297640Y-117638286D01*
X151273450Y-117565715D01*
X151273450Y-117517334D01*
X151297640Y-117444762D01*
X151321830Y-117420572D01*
X151273450Y-116960953D02*
X151273450Y-117202858D01*
X151515354Y-117227048D01*
X151491164Y-117202858D01*
X151466973Y-117154477D01*
X151466973Y-117033524D01*
X151491164Y-116985143D01*
X151515354Y-116960953D01*
X151563735Y-116936762D01*
X151684688Y-116936762D01*
X151733069Y-116960953D01*
X151757259Y-116985143D01*
X151781450Y-117033524D01*
X151781450Y-117154477D01*
X151757259Y-117202858D01*
X151733069Y-117227048D01*
X151273450Y-116477143D02*
X151273450Y-116719048D01*
X151515354Y-116743238D01*
X151491164Y-116719048D01*
X151466973Y-116670667D01*
X151466973Y-116549714D01*
X151491164Y-116501333D01*
X151515354Y-116477143D01*
X151563735Y-116452952D01*
X151684688Y-116452952D01*
X151733069Y-116477143D01*
X151757259Y-116501333D01*
X151781450Y-116549714D01*
X151781450Y-116670667D01*
X151757259Y-116719048D01*
X151733069Y-116743238D01*
D12*
X133998063Y-109364417D02*
X134034349Y-109400703D01*
X134070634Y-109509560D01*
X134070634Y-109582131D01*
X134034349Y-109690988D01*
X133961777Y-109763560D01*
X133889206Y-109799845D01*
X133744063Y-109836131D01*
X133635206Y-109836131D01*
X133490063Y-109799845D01*
X133417491Y-109763560D01*
X133344920Y-109690988D01*
X133308634Y-109582131D01*
X133308634Y-109509560D01*
X133344920Y-109400703D01*
X133381206Y-109364417D01*
X133308634Y-108674988D02*
X133308634Y-109037845D01*
X133671491Y-109074131D01*
X133635206Y-109037845D01*
X133598920Y-108965274D01*
X133598920Y-108783845D01*
X133635206Y-108711274D01*
X133671491Y-108674988D01*
X133744063Y-108638703D01*
X133925491Y-108638703D01*
X133998063Y-108674988D01*
X134034349Y-108711274D01*
X134070634Y-108783845D01*
X134070634Y-108965274D01*
X134034349Y-109037845D01*
X133998063Y-109074131D01*
X133308634Y-107985560D02*
X133308634Y-108130703D01*
X133344920Y-108203274D01*
X133381206Y-108239560D01*
X133490063Y-108312131D01*
X133635206Y-108348417D01*
X133925491Y-108348417D01*
X133998063Y-108312131D01*
X134034349Y-108275846D01*
X134070634Y-108203274D01*
X134070634Y-108058131D01*
X134034349Y-107985560D01*
X133998063Y-107949274D01*
X133925491Y-107912989D01*
X133744063Y-107912989D01*
X133671491Y-107949274D01*
X133635206Y-107985560D01*
X133598920Y-108058131D01*
X133598920Y-108203274D01*
X133635206Y-108275846D01*
X133671491Y-108312131D01*
X133744063Y-108348417D01*
X147505783Y-113052497D02*
X147542069Y-113088783D01*
X147578354Y-113197640D01*
X147578354Y-113270211D01*
X147542069Y-113379068D01*
X147469497Y-113451640D01*
X147396926Y-113487925D01*
X147251783Y-113524211D01*
X147142926Y-113524211D01*
X146997783Y-113487925D01*
X146925211Y-113451640D01*
X146852640Y-113379068D01*
X146816354Y-113270211D01*
X146816354Y-113197640D01*
X146852640Y-113088783D01*
X146888926Y-113052497D01*
X146816354Y-112363068D02*
X146816354Y-112725925D01*
X147179211Y-112762211D01*
X147142926Y-112725925D01*
X147106640Y-112653354D01*
X147106640Y-112471925D01*
X147142926Y-112399354D01*
X147179211Y-112363068D01*
X147251783Y-112326783D01*
X147433211Y-112326783D01*
X147505783Y-112363068D01*
X147542069Y-112399354D01*
X147578354Y-112471925D01*
X147578354Y-112653354D01*
X147542069Y-112725925D01*
X147505783Y-112762211D01*
X146816354Y-112072783D02*
X146816354Y-111564783D01*
X147578354Y-111891354D01*
X135908143Y-111901877D02*
X135944429Y-111938163D01*
X135980714Y-112047020D01*
X135980714Y-112119591D01*
X135944429Y-112228448D01*
X135871857Y-112301020D01*
X135799286Y-112337305D01*
X135654143Y-112373591D01*
X135545286Y-112373591D01*
X135400143Y-112337305D01*
X135327571Y-112301020D01*
X135255000Y-112228448D01*
X135218714Y-112119591D01*
X135218714Y-112047020D01*
X135255000Y-111938163D01*
X135291286Y-111901877D01*
X135218714Y-111212448D02*
X135218714Y-111575305D01*
X135581571Y-111611591D01*
X135545286Y-111575305D01*
X135509000Y-111502734D01*
X135509000Y-111321305D01*
X135545286Y-111248734D01*
X135581571Y-111212448D01*
X135654143Y-111176163D01*
X135835571Y-111176163D01*
X135908143Y-111212448D01*
X135944429Y-111248734D01*
X135980714Y-111321305D01*
X135980714Y-111502734D01*
X135944429Y-111575305D01*
X135908143Y-111611591D01*
X135980714Y-110813306D02*
X135980714Y-110668163D01*
X135944429Y-110595591D01*
X135908143Y-110559306D01*
X135799286Y-110486734D01*
X135654143Y-110450449D01*
X135363857Y-110450449D01*
X135291286Y-110486734D01*
X135255000Y-110523020D01*
X135218714Y-110595591D01*
X135218714Y-110740734D01*
X135255000Y-110813306D01*
X135291286Y-110849591D01*
X135363857Y-110885877D01*
X135545286Y-110885877D01*
X135617857Y-110849591D01*
X135654143Y-110813306D01*
X135690429Y-110740734D01*
X135690429Y-110595591D01*
X135654143Y-110523020D01*
X135617857Y-110486734D01*
X135545286Y-110450449D01*
X136599023Y-116618657D02*
X136635309Y-116654943D01*
X136671594Y-116763800D01*
X136671594Y-116836371D01*
X136635309Y-116945228D01*
X136562737Y-117017800D01*
X136490166Y-117054085D01*
X136345023Y-117090371D01*
X136236166Y-117090371D01*
X136091023Y-117054085D01*
X136018451Y-117017800D01*
X135945880Y-116945228D01*
X135909594Y-116836371D01*
X135909594Y-116763800D01*
X135945880Y-116654943D01*
X135982166Y-116618657D01*
X135909594Y-115965514D02*
X135909594Y-116110657D01*
X135945880Y-116183228D01*
X135982166Y-116219514D01*
X136091023Y-116292085D01*
X136236166Y-116328371D01*
X136526451Y-116328371D01*
X136599023Y-116292085D01*
X136635309Y-116255800D01*
X136671594Y-116183228D01*
X136671594Y-116038085D01*
X136635309Y-115965514D01*
X136599023Y-115929228D01*
X136526451Y-115892943D01*
X136345023Y-115892943D01*
X136272451Y-115929228D01*
X136236166Y-115965514D01*
X136199880Y-116038085D01*
X136199880Y-116183228D01*
X136236166Y-116255800D01*
X136272451Y-116292085D01*
X136345023Y-116328371D01*
X135909594Y-115421229D02*
X135909594Y-115348657D01*
X135945880Y-115276086D01*
X135982166Y-115239800D01*
X136054737Y-115203514D01*
X136199880Y-115167229D01*
X136381309Y-115167229D01*
X136526451Y-115203514D01*
X136599023Y-115239800D01*
X136635309Y-115276086D01*
X136671594Y-115348657D01*
X136671594Y-115421229D01*
X136635309Y-115493800D01*
X136599023Y-115530086D01*
X136526451Y-115566371D01*
X136381309Y-115602657D01*
X136199880Y-115602657D01*
X136054737Y-115566371D01*
X135982166Y-115530086D01*
X135945880Y-115493800D01*
X135909594Y-115421229D01*
X137919823Y-114444417D02*
X137956109Y-114480703D01*
X137992394Y-114589560D01*
X137992394Y-114662131D01*
X137956109Y-114770988D01*
X137883537Y-114843560D01*
X137810966Y-114879845D01*
X137665823Y-114916131D01*
X137556966Y-114916131D01*
X137411823Y-114879845D01*
X137339251Y-114843560D01*
X137266680Y-114770988D01*
X137230394Y-114662131D01*
X137230394Y-114589560D01*
X137266680Y-114480703D01*
X137302966Y-114444417D01*
X137230394Y-113791274D02*
X137230394Y-113936417D01*
X137266680Y-114008988D01*
X137302966Y-114045274D01*
X137411823Y-114117845D01*
X137556966Y-114154131D01*
X137847251Y-114154131D01*
X137919823Y-114117845D01*
X137956109Y-114081560D01*
X137992394Y-114008988D01*
X137992394Y-113863845D01*
X137956109Y-113791274D01*
X137919823Y-113754988D01*
X137847251Y-113718703D01*
X137665823Y-113718703D01*
X137593251Y-113754988D01*
X137556966Y-113791274D01*
X137520680Y-113863845D01*
X137520680Y-114008988D01*
X137556966Y-114081560D01*
X137593251Y-114117845D01*
X137665823Y-114154131D01*
X137992394Y-112992989D02*
X137992394Y-113428417D01*
X137992394Y-113210703D02*
X137230394Y-113210703D01*
X137339251Y-113283274D01*
X137411823Y-113355846D01*
X137448109Y-113428417D01*
X139220303Y-114444417D02*
X139256589Y-114480703D01*
X139292874Y-114589560D01*
X139292874Y-114662131D01*
X139256589Y-114770988D01*
X139184017Y-114843560D01*
X139111446Y-114879845D01*
X138966303Y-114916131D01*
X138857446Y-114916131D01*
X138712303Y-114879845D01*
X138639731Y-114843560D01*
X138567160Y-114770988D01*
X138530874Y-114662131D01*
X138530874Y-114589560D01*
X138567160Y-114480703D01*
X138603446Y-114444417D01*
X138530874Y-113791274D02*
X138530874Y-113936417D01*
X138567160Y-114008988D01*
X138603446Y-114045274D01*
X138712303Y-114117845D01*
X138857446Y-114154131D01*
X139147731Y-114154131D01*
X139220303Y-114117845D01*
X139256589Y-114081560D01*
X139292874Y-114008988D01*
X139292874Y-113863845D01*
X139256589Y-113791274D01*
X139220303Y-113754988D01*
X139147731Y-113718703D01*
X138966303Y-113718703D01*
X138893731Y-113754988D01*
X138857446Y-113791274D01*
X138821160Y-113863845D01*
X138821160Y-114008988D01*
X138857446Y-114081560D01*
X138893731Y-114117845D01*
X138966303Y-114154131D01*
X138603446Y-113428417D02*
X138567160Y-113392131D01*
X138530874Y-113319560D01*
X138530874Y-113138131D01*
X138567160Y-113065560D01*
X138603446Y-113029274D01*
X138676017Y-112992989D01*
X138748589Y-112992989D01*
X138857446Y-113029274D01*
X139292874Y-113464703D01*
X139292874Y-112992989D01*
X140825583Y-114464737D02*
X140861869Y-114501023D01*
X140898154Y-114609880D01*
X140898154Y-114682451D01*
X140861869Y-114791308D01*
X140789297Y-114863880D01*
X140716726Y-114900165D01*
X140571583Y-114936451D01*
X140462726Y-114936451D01*
X140317583Y-114900165D01*
X140245011Y-114863880D01*
X140172440Y-114791308D01*
X140136154Y-114682451D01*
X140136154Y-114609880D01*
X140172440Y-114501023D01*
X140208726Y-114464737D01*
X140136154Y-113811594D02*
X140136154Y-113956737D01*
X140172440Y-114029308D01*
X140208726Y-114065594D01*
X140317583Y-114138165D01*
X140462726Y-114174451D01*
X140753011Y-114174451D01*
X140825583Y-114138165D01*
X140861869Y-114101880D01*
X140898154Y-114029308D01*
X140898154Y-113884165D01*
X140861869Y-113811594D01*
X140825583Y-113775308D01*
X140753011Y-113739023D01*
X140571583Y-113739023D01*
X140499011Y-113775308D01*
X140462726Y-113811594D01*
X140426440Y-113884165D01*
X140426440Y-114029308D01*
X140462726Y-114101880D01*
X140499011Y-114138165D01*
X140571583Y-114174451D01*
X140136154Y-113485023D02*
X140136154Y-113013309D01*
X140426440Y-113267309D01*
X140426440Y-113158451D01*
X140462726Y-113085880D01*
X140499011Y-113049594D01*
X140571583Y-113013309D01*
X140753011Y-113013309D01*
X140825583Y-113049594D01*
X140861869Y-113085880D01*
X140898154Y-113158451D01*
X140898154Y-113376166D01*
X140861869Y-113448737D01*
X140825583Y-113485023D01*
X142065103Y-114444417D02*
X142101389Y-114480703D01*
X142137674Y-114589560D01*
X142137674Y-114662131D01*
X142101389Y-114770988D01*
X142028817Y-114843560D01*
X141956246Y-114879845D01*
X141811103Y-114916131D01*
X141702246Y-114916131D01*
X141557103Y-114879845D01*
X141484531Y-114843560D01*
X141411960Y-114770988D01*
X141375674Y-114662131D01*
X141375674Y-114589560D01*
X141411960Y-114480703D01*
X141448246Y-114444417D01*
X141375674Y-113791274D02*
X141375674Y-113936417D01*
X141411960Y-114008988D01*
X141448246Y-114045274D01*
X141557103Y-114117845D01*
X141702246Y-114154131D01*
X141992531Y-114154131D01*
X142065103Y-114117845D01*
X142101389Y-114081560D01*
X142137674Y-114008988D01*
X142137674Y-113863845D01*
X142101389Y-113791274D01*
X142065103Y-113754988D01*
X141992531Y-113718703D01*
X141811103Y-113718703D01*
X141738531Y-113754988D01*
X141702246Y-113791274D01*
X141665960Y-113863845D01*
X141665960Y-114008988D01*
X141702246Y-114081560D01*
X141738531Y-114117845D01*
X141811103Y-114154131D01*
X141629674Y-113065560D02*
X142137674Y-113065560D01*
X141339389Y-113246989D02*
X141883674Y-113428417D01*
X141883674Y-112956703D01*
X132799183Y-109384737D02*
X132835469Y-109421023D01*
X132871754Y-109529880D01*
X132871754Y-109602451D01*
X132835469Y-109711308D01*
X132762897Y-109783880D01*
X132690326Y-109820165D01*
X132545183Y-109856451D01*
X132436326Y-109856451D01*
X132291183Y-109820165D01*
X132218611Y-109783880D01*
X132146040Y-109711308D01*
X132109754Y-109602451D01*
X132109754Y-109529880D01*
X132146040Y-109421023D01*
X132182326Y-109384737D01*
X132109754Y-108731594D02*
X132109754Y-108876737D01*
X132146040Y-108949308D01*
X132182326Y-108985594D01*
X132291183Y-109058165D01*
X132436326Y-109094451D01*
X132726611Y-109094451D01*
X132799183Y-109058165D01*
X132835469Y-109021880D01*
X132871754Y-108949308D01*
X132871754Y-108804165D01*
X132835469Y-108731594D01*
X132799183Y-108695308D01*
X132726611Y-108659023D01*
X132545183Y-108659023D01*
X132472611Y-108695308D01*
X132436326Y-108731594D01*
X132400040Y-108804165D01*
X132400040Y-108949308D01*
X132436326Y-109021880D01*
X132472611Y-109058165D01*
X132545183Y-109094451D01*
X132109754Y-107969594D02*
X132109754Y-108332451D01*
X132472611Y-108368737D01*
X132436326Y-108332451D01*
X132400040Y-108259880D01*
X132400040Y-108078451D01*
X132436326Y-108005880D01*
X132472611Y-107969594D01*
X132545183Y-107933309D01*
X132726611Y-107933309D01*
X132799183Y-107969594D01*
X132835469Y-108005880D01*
X132871754Y-108078451D01*
X132871754Y-108259880D01*
X132835469Y-108332451D01*
X132799183Y-108368737D01*
X148892623Y-116903137D02*
X148928909Y-116939423D01*
X148965194Y-117048280D01*
X148965194Y-117120851D01*
X148928909Y-117229708D01*
X148856337Y-117302280D01*
X148783766Y-117338565D01*
X148638623Y-117374851D01*
X148529766Y-117374851D01*
X148384623Y-117338565D01*
X148312051Y-117302280D01*
X148239480Y-117229708D01*
X148203194Y-117120851D01*
X148203194Y-117048280D01*
X148239480Y-116939423D01*
X148275766Y-116903137D01*
X148203194Y-116249994D02*
X148203194Y-116395137D01*
X148239480Y-116467708D01*
X148275766Y-116503994D01*
X148384623Y-116576565D01*
X148529766Y-116612851D01*
X148820051Y-116612851D01*
X148892623Y-116576565D01*
X148928909Y-116540280D01*
X148965194Y-116467708D01*
X148965194Y-116322565D01*
X148928909Y-116249994D01*
X148892623Y-116213708D01*
X148820051Y-116177423D01*
X148638623Y-116177423D01*
X148566051Y-116213708D01*
X148529766Y-116249994D01*
X148493480Y-116322565D01*
X148493480Y-116467708D01*
X148529766Y-116540280D01*
X148566051Y-116576565D01*
X148638623Y-116612851D01*
X148203194Y-115524280D02*
X148203194Y-115669423D01*
X148239480Y-115741994D01*
X148275766Y-115778280D01*
X148384623Y-115850851D01*
X148529766Y-115887137D01*
X148820051Y-115887137D01*
X148892623Y-115850851D01*
X148928909Y-115814566D01*
X148965194Y-115741994D01*
X148965194Y-115596851D01*
X148928909Y-115524280D01*
X148892623Y-115487994D01*
X148820051Y-115451709D01*
X148638623Y-115451709D01*
X148566051Y-115487994D01*
X148529766Y-115524280D01*
X148493480Y-115596851D01*
X148493480Y-115741994D01*
X148529766Y-115814566D01*
X148566051Y-115850851D01*
X148638623Y-115887137D01*
X121168523Y-94144737D02*
X121204809Y-94181023D01*
X121241094Y-94289880D01*
X121241094Y-94362451D01*
X121204809Y-94471308D01*
X121132237Y-94543880D01*
X121059666Y-94580165D01*
X120914523Y-94616451D01*
X120805666Y-94616451D01*
X120660523Y-94580165D01*
X120587951Y-94543880D01*
X120515380Y-94471308D01*
X120479094Y-94362451D01*
X120479094Y-94289880D01*
X120515380Y-94181023D01*
X120551666Y-94144737D01*
X120479094Y-93491594D02*
X120479094Y-93636737D01*
X120515380Y-93709308D01*
X120551666Y-93745594D01*
X120660523Y-93818165D01*
X120805666Y-93854451D01*
X121095951Y-93854451D01*
X121168523Y-93818165D01*
X121204809Y-93781880D01*
X121241094Y-93709308D01*
X121241094Y-93564165D01*
X121204809Y-93491594D01*
X121168523Y-93455308D01*
X121095951Y-93419023D01*
X120914523Y-93419023D01*
X120841951Y-93455308D01*
X120805666Y-93491594D01*
X120769380Y-93564165D01*
X120769380Y-93709308D01*
X120805666Y-93781880D01*
X120841951Y-93818165D01*
X120914523Y-93854451D01*
X120479094Y-93165023D02*
X120479094Y-92657023D01*
X121241094Y-92983594D01*
X141841583Y-93718017D02*
X141877869Y-93754303D01*
X141914154Y-93863160D01*
X141914154Y-93935731D01*
X141877869Y-94044588D01*
X141805297Y-94117160D01*
X141732726Y-94153445D01*
X141587583Y-94189731D01*
X141478726Y-94189731D01*
X141333583Y-94153445D01*
X141261011Y-94117160D01*
X141188440Y-94044588D01*
X141152154Y-93935731D01*
X141152154Y-93863160D01*
X141188440Y-93754303D01*
X141224726Y-93718017D01*
X141152154Y-93064874D02*
X141152154Y-93210017D01*
X141188440Y-93282588D01*
X141224726Y-93318874D01*
X141333583Y-93391445D01*
X141478726Y-93427731D01*
X141769011Y-93427731D01*
X141841583Y-93391445D01*
X141877869Y-93355160D01*
X141914154Y-93282588D01*
X141914154Y-93137445D01*
X141877869Y-93064874D01*
X141841583Y-93028588D01*
X141769011Y-92992303D01*
X141587583Y-92992303D01*
X141515011Y-93028588D01*
X141478726Y-93064874D01*
X141442440Y-93137445D01*
X141442440Y-93282588D01*
X141478726Y-93355160D01*
X141515011Y-93391445D01*
X141587583Y-93427731D01*
X141478726Y-92556874D02*
X141442440Y-92629446D01*
X141406154Y-92665731D01*
X141333583Y-92702017D01*
X141297297Y-92702017D01*
X141224726Y-92665731D01*
X141188440Y-92629446D01*
X141152154Y-92556874D01*
X141152154Y-92411731D01*
X141188440Y-92339160D01*
X141224726Y-92302874D01*
X141297297Y-92266589D01*
X141333583Y-92266589D01*
X141406154Y-92302874D01*
X141442440Y-92339160D01*
X141478726Y-92411731D01*
X141478726Y-92556874D01*
X141515011Y-92629446D01*
X141551297Y-92665731D01*
X141623869Y-92702017D01*
X141769011Y-92702017D01*
X141841583Y-92665731D01*
X141877869Y-92629446D01*
X141914154Y-92556874D01*
X141914154Y-92411731D01*
X141877869Y-92339160D01*
X141841583Y-92302874D01*
X141769011Y-92266589D01*
X141623869Y-92266589D01*
X141551297Y-92302874D01*
X141515011Y-92339160D01*
X141478726Y-92411731D01*
X121559683Y-108254437D02*
X121595969Y-108290723D01*
X121632254Y-108399580D01*
X121632254Y-108472151D01*
X121595969Y-108581008D01*
X121523397Y-108653580D01*
X121450826Y-108689865D01*
X121305683Y-108726151D01*
X121196826Y-108726151D01*
X121051683Y-108689865D01*
X120979111Y-108653580D01*
X120906540Y-108581008D01*
X120870254Y-108472151D01*
X120870254Y-108399580D01*
X120906540Y-108290723D01*
X120942826Y-108254437D01*
X120870254Y-107601294D02*
X120870254Y-107746437D01*
X120906540Y-107819008D01*
X120942826Y-107855294D01*
X121051683Y-107927865D01*
X121196826Y-107964151D01*
X121487111Y-107964151D01*
X121559683Y-107927865D01*
X121595969Y-107891580D01*
X121632254Y-107819008D01*
X121632254Y-107673865D01*
X121595969Y-107601294D01*
X121559683Y-107565008D01*
X121487111Y-107528723D01*
X121305683Y-107528723D01*
X121233111Y-107565008D01*
X121196826Y-107601294D01*
X121160540Y-107673865D01*
X121160540Y-107819008D01*
X121196826Y-107891580D01*
X121233111Y-107927865D01*
X121305683Y-107964151D01*
X121632254Y-107165866D02*
X121632254Y-107020723D01*
X121595969Y-106948151D01*
X121559683Y-106911866D01*
X121450826Y-106839294D01*
X121305683Y-106803009D01*
X121015397Y-106803009D01*
X120942826Y-106839294D01*
X120906540Y-106875580D01*
X120870254Y-106948151D01*
X120870254Y-107093294D01*
X120906540Y-107165866D01*
X120942826Y-107202151D01*
X121015397Y-107238437D01*
X121196826Y-107238437D01*
X121269397Y-107202151D01*
X121305683Y-107165866D01*
X121341969Y-107093294D01*
X121341969Y-106948151D01*
X121305683Y-106875580D01*
X121269397Y-106839294D01*
X121196826Y-106803009D01*
X141414863Y-108571937D02*
X141451149Y-108608223D01*
X141487434Y-108717080D01*
X141487434Y-108789651D01*
X141451149Y-108898508D01*
X141378577Y-108971080D01*
X141306006Y-109007365D01*
X141160863Y-109043651D01*
X141052006Y-109043651D01*
X140906863Y-109007365D01*
X140834291Y-108971080D01*
X140761720Y-108898508D01*
X140725434Y-108789651D01*
X140725434Y-108717080D01*
X140761720Y-108608223D01*
X140798006Y-108571937D01*
X140725434Y-108317937D02*
X140725434Y-107809937D01*
X141487434Y-108136508D01*
X140725434Y-107374509D02*
X140725434Y-107301937D01*
X140761720Y-107229366D01*
X140798006Y-107193080D01*
X140870577Y-107156794D01*
X141015720Y-107120509D01*
X141197149Y-107120509D01*
X141342291Y-107156794D01*
X141414863Y-107193080D01*
X141451149Y-107229366D01*
X141487434Y-107301937D01*
X141487434Y-107374509D01*
X141451149Y-107447080D01*
X141414863Y-107483366D01*
X141342291Y-107519651D01*
X141197149Y-107555937D01*
X141015720Y-107555937D01*
X140870577Y-107519651D01*
X140798006Y-107483366D01*
X140761720Y-107447080D01*
X140725434Y-107374509D01*
X128864360Y-98469994D02*
X128610360Y-98107137D01*
X128428932Y-98469994D02*
X128428932Y-97707994D01*
X128719217Y-97707994D01*
X128791789Y-97744280D01*
X128828074Y-97780566D01*
X128864360Y-97853137D01*
X128864360Y-97961994D01*
X128828074Y-98034566D01*
X128791789Y-98070851D01*
X128719217Y-98107137D01*
X128428932Y-98107137D01*
X129517503Y-97961994D02*
X129517503Y-98469994D01*
X129336074Y-97671709D02*
X129154646Y-98215994D01*
X129626360Y-98215994D01*
X150090414Y-114015520D02*
X149727557Y-114269520D01*
X150090414Y-114450948D02*
X149328414Y-114450948D01*
X149328414Y-114160663D01*
X149364700Y-114088091D01*
X149400986Y-114051806D01*
X149473557Y-114015520D01*
X149582414Y-114015520D01*
X149654986Y-114051806D01*
X149691271Y-114088091D01*
X149727557Y-114160663D01*
X149727557Y-114450948D01*
X149328414Y-113326091D02*
X149328414Y-113688948D01*
X149691271Y-113725234D01*
X149654986Y-113688948D01*
X149618700Y-113616377D01*
X149618700Y-113434948D01*
X149654986Y-113362377D01*
X149691271Y-113326091D01*
X149763843Y-113289806D01*
X149945271Y-113289806D01*
X150017843Y-113326091D01*
X150054129Y-113362377D01*
X150090414Y-113434948D01*
X150090414Y-113616377D01*
X150054129Y-113688948D01*
X150017843Y-113725234D01*
X149452874Y-95285560D02*
X149090017Y-95539560D01*
X149452874Y-95720988D02*
X148690874Y-95720988D01*
X148690874Y-95430703D01*
X148727160Y-95358131D01*
X148763446Y-95321846D01*
X148836017Y-95285560D01*
X148944874Y-95285560D01*
X149017446Y-95321846D01*
X149053731Y-95358131D01*
X149090017Y-95430703D01*
X149090017Y-95720988D01*
X148690874Y-94632417D02*
X148690874Y-94777560D01*
X148727160Y-94850131D01*
X148763446Y-94886417D01*
X148872303Y-94958988D01*
X149017446Y-94995274D01*
X149307731Y-94995274D01*
X149380303Y-94958988D01*
X149416589Y-94922703D01*
X149452874Y-94850131D01*
X149452874Y-94704988D01*
X149416589Y-94632417D01*
X149380303Y-94596131D01*
X149307731Y-94559846D01*
X149126303Y-94559846D01*
X149053731Y-94596131D01*
X149017446Y-94632417D01*
X148981160Y-94704988D01*
X148981160Y-94850131D01*
X149017446Y-94922703D01*
X149053731Y-94958988D01*
X149126303Y-94995274D01*
X130098074Y-94896940D02*
X129735217Y-95150940D01*
X130098074Y-95332368D02*
X129336074Y-95332368D01*
X129336074Y-95042083D01*
X129372360Y-94969511D01*
X129408646Y-94933226D01*
X129481217Y-94896940D01*
X129590074Y-94896940D01*
X129662646Y-94933226D01*
X129698931Y-94969511D01*
X129735217Y-95042083D01*
X129735217Y-95332368D01*
X129662646Y-94461511D02*
X129626360Y-94534083D01*
X129590074Y-94570368D01*
X129517503Y-94606654D01*
X129481217Y-94606654D01*
X129408646Y-94570368D01*
X129372360Y-94534083D01*
X129336074Y-94461511D01*
X129336074Y-94316368D01*
X129372360Y-94243797D01*
X129408646Y-94207511D01*
X129481217Y-94171226D01*
X129517503Y-94171226D01*
X129590074Y-94207511D01*
X129626360Y-94243797D01*
X129662646Y-94316368D01*
X129662646Y-94461511D01*
X129698931Y-94534083D01*
X129735217Y-94570368D01*
X129807789Y-94606654D01*
X129952931Y-94606654D01*
X130025503Y-94570368D01*
X130061789Y-94534083D01*
X130098074Y-94461511D01*
X130098074Y-94316368D01*
X130061789Y-94243797D01*
X130025503Y-94207511D01*
X129952931Y-94171226D01*
X129807789Y-94171226D01*
X129735217Y-94207511D01*
X129698931Y-94243797D01*
X129662646Y-94316368D01*
X139994640Y-102747354D02*
X139740640Y-102384497D01*
X139559212Y-102747354D02*
X139559212Y-101985354D01*
X139849497Y-101985354D01*
X139922069Y-102021640D01*
X139958354Y-102057926D01*
X139994640Y-102130497D01*
X139994640Y-102239354D01*
X139958354Y-102311926D01*
X139922069Y-102348211D01*
X139849497Y-102384497D01*
X139559212Y-102384497D01*
X140357497Y-102747354D02*
X140502640Y-102747354D01*
X140575212Y-102711069D01*
X140611497Y-102674783D01*
X140684069Y-102565926D01*
X140720354Y-102420783D01*
X140720354Y-102130497D01*
X140684069Y-102057926D01*
X140647783Y-102021640D01*
X140575212Y-101985354D01*
X140430069Y-101985354D01*
X140357497Y-102021640D01*
X140321212Y-102057926D01*
X140284926Y-102130497D01*
X140284926Y-102311926D01*
X140321212Y-102384497D01*
X140357497Y-102420783D01*
X140430069Y-102457069D01*
X140575212Y-102457069D01*
X140647783Y-102420783D01*
X140684069Y-102384497D01*
X140720354Y-102311926D01*
X136954623Y-102236814D02*
X136700623Y-101873957D01*
X136519195Y-102236814D02*
X136519195Y-101474814D01*
X136809480Y-101474814D01*
X136882052Y-101511100D01*
X136918337Y-101547386D01*
X136954623Y-101619957D01*
X136954623Y-101728814D01*
X136918337Y-101801386D01*
X136882052Y-101837671D01*
X136809480Y-101873957D01*
X136519195Y-101873957D01*
X137680337Y-102236814D02*
X137244909Y-102236814D01*
X137462623Y-102236814D02*
X137462623Y-101474814D01*
X137390052Y-101583671D01*
X137317480Y-101656243D01*
X137244909Y-101692529D01*
X138152051Y-101474814D02*
X138224623Y-101474814D01*
X138297194Y-101511100D01*
X138333480Y-101547386D01*
X138369766Y-101619957D01*
X138406051Y-101765100D01*
X138406051Y-101946529D01*
X138369766Y-102091671D01*
X138333480Y-102164243D01*
X138297194Y-102200529D01*
X138224623Y-102236814D01*
X138152051Y-102236814D01*
X138079480Y-102200529D01*
X138043194Y-102164243D01*
X138006909Y-102091671D01*
X137970623Y-101946529D01*
X137970623Y-101765100D01*
X138006909Y-101619957D01*
X138043194Y-101547386D01*
X138079480Y-101511100D01*
X138152051Y-101474814D01*
X143121743Y-115597214D02*
X142867743Y-115234357D01*
X142686315Y-115597214D02*
X142686315Y-114835214D01*
X142976600Y-114835214D01*
X143049172Y-114871500D01*
X143085457Y-114907786D01*
X143121743Y-114980357D01*
X143121743Y-115089214D01*
X143085457Y-115161786D01*
X143049172Y-115198071D01*
X142976600Y-115234357D01*
X142686315Y-115234357D01*
X143847457Y-115597214D02*
X143412029Y-115597214D01*
X143629743Y-115597214D02*
X143629743Y-114835214D01*
X143557172Y-114944071D01*
X143484600Y-115016643D01*
X143412029Y-115052929D01*
X144573171Y-115597214D02*
X144137743Y-115597214D01*
X144355457Y-115597214D02*
X144355457Y-114835214D01*
X144282886Y-114944071D01*
X144210314Y-115016643D01*
X144137743Y-115052929D01*
X143947243Y-113544894D02*
X143693243Y-113182037D01*
X143511815Y-113544894D02*
X143511815Y-112782894D01*
X143802100Y-112782894D01*
X143874672Y-112819180D01*
X143910957Y-112855466D01*
X143947243Y-112928037D01*
X143947243Y-113036894D01*
X143910957Y-113109466D01*
X143874672Y-113145751D01*
X143802100Y-113182037D01*
X143511815Y-113182037D01*
X144672957Y-113544894D02*
X144237529Y-113544894D01*
X144455243Y-113544894D02*
X144455243Y-112782894D01*
X144382672Y-112891751D01*
X144310100Y-112964323D01*
X144237529Y-113000609D01*
X144963243Y-112855466D02*
X144999529Y-112819180D01*
X145072100Y-112782894D01*
X145253529Y-112782894D01*
X145326100Y-112819180D01*
X145362386Y-112855466D01*
X145398671Y-112928037D01*
X145398671Y-113000609D01*
X145362386Y-113109466D01*
X144926957Y-113544894D01*
X145398671Y-113544894D01*
X122833674Y-94340317D02*
X122470817Y-94594317D01*
X122833674Y-94775745D02*
X122071674Y-94775745D01*
X122071674Y-94485460D01*
X122107960Y-94412888D01*
X122144246Y-94376603D01*
X122216817Y-94340317D01*
X122325674Y-94340317D01*
X122398246Y-94376603D01*
X122434531Y-94412888D01*
X122470817Y-94485460D01*
X122470817Y-94775745D01*
X122833674Y-93614603D02*
X122833674Y-94050031D01*
X122833674Y-93832317D02*
X122071674Y-93832317D01*
X122180531Y-93904888D01*
X122253103Y-93977460D01*
X122289389Y-94050031D01*
X122071674Y-93360603D02*
X122071674Y-92888889D01*
X122361960Y-93142889D01*
X122361960Y-93034031D01*
X122398246Y-92961460D01*
X122434531Y-92925174D01*
X122507103Y-92888889D01*
X122688531Y-92888889D01*
X122761103Y-92925174D01*
X122797389Y-92961460D01*
X122833674Y-93034031D01*
X122833674Y-93251746D01*
X122797389Y-93324317D01*
X122761103Y-93360603D01*
X129790734Y-91655537D02*
X129427877Y-91909537D01*
X129790734Y-92090965D02*
X129028734Y-92090965D01*
X129028734Y-91800680D01*
X129065020Y-91728108D01*
X129101306Y-91691823D01*
X129173877Y-91655537D01*
X129282734Y-91655537D01*
X129355306Y-91691823D01*
X129391591Y-91728108D01*
X129427877Y-91800680D01*
X129427877Y-92090965D01*
X129790734Y-90929823D02*
X129790734Y-91365251D01*
X129790734Y-91147537D02*
X129028734Y-91147537D01*
X129137591Y-91220108D01*
X129210163Y-91292680D01*
X129246449Y-91365251D01*
X129282734Y-90276680D02*
X129790734Y-90276680D01*
X128992449Y-90458109D02*
X129536734Y-90639537D01*
X129536734Y-90167823D01*
X114875854Y-88820897D02*
X114512997Y-89074897D01*
X114875854Y-89256325D02*
X114113854Y-89256325D01*
X114113854Y-88966040D01*
X114150140Y-88893468D01*
X114186426Y-88857183D01*
X114258997Y-88820897D01*
X114367854Y-88820897D01*
X114440426Y-88857183D01*
X114476711Y-88893468D01*
X114512997Y-88966040D01*
X114512997Y-89256325D01*
X114875854Y-88095183D02*
X114875854Y-88530611D01*
X114875854Y-88312897D02*
X114113854Y-88312897D01*
X114222711Y-88385468D01*
X114295283Y-88458040D01*
X114331569Y-88530611D01*
X114113854Y-87405754D02*
X114113854Y-87768611D01*
X114476711Y-87804897D01*
X114440426Y-87768611D01*
X114404140Y-87696040D01*
X114404140Y-87514611D01*
X114440426Y-87442040D01*
X114476711Y-87405754D01*
X114549283Y-87369469D01*
X114730711Y-87369469D01*
X114803283Y-87405754D01*
X114839569Y-87442040D01*
X114875854Y-87514611D01*
X114875854Y-87696040D01*
X114839569Y-87768611D01*
X114803283Y-87804897D01*
X143519434Y-94144737D02*
X143156577Y-94398737D01*
X143519434Y-94580165D02*
X142757434Y-94580165D01*
X142757434Y-94289880D01*
X142793720Y-94217308D01*
X142830006Y-94181023D01*
X142902577Y-94144737D01*
X143011434Y-94144737D01*
X143084006Y-94181023D01*
X143120291Y-94217308D01*
X143156577Y-94289880D01*
X143156577Y-94580165D01*
X143519434Y-93419023D02*
X143519434Y-93854451D01*
X143519434Y-93636737D02*
X142757434Y-93636737D01*
X142866291Y-93709308D01*
X142938863Y-93781880D01*
X142975149Y-93854451D01*
X142757434Y-92765880D02*
X142757434Y-92911023D01*
X142793720Y-92983594D01*
X142830006Y-93019880D01*
X142938863Y-93092451D01*
X143084006Y-93128737D01*
X143374291Y-93128737D01*
X143446863Y-93092451D01*
X143483149Y-93056166D01*
X143519434Y-92983594D01*
X143519434Y-92838451D01*
X143483149Y-92765880D01*
X143446863Y-92729594D01*
X143374291Y-92693309D01*
X143192863Y-92693309D01*
X143120291Y-92729594D01*
X143084006Y-92765880D01*
X143047720Y-92838451D01*
X143047720Y-92983594D01*
X143084006Y-93056166D01*
X143120291Y-93092451D01*
X143192863Y-93128737D01*
X149181094Y-91904457D02*
X148818237Y-92158457D01*
X149181094Y-92339885D02*
X148419094Y-92339885D01*
X148419094Y-92049600D01*
X148455380Y-91977028D01*
X148491666Y-91940743D01*
X148564237Y-91904457D01*
X148673094Y-91904457D01*
X148745666Y-91940743D01*
X148781951Y-91977028D01*
X148818237Y-92049600D01*
X148818237Y-92339885D01*
X149181094Y-91178743D02*
X149181094Y-91614171D01*
X149181094Y-91396457D02*
X148419094Y-91396457D01*
X148527951Y-91469028D01*
X148600523Y-91541600D01*
X148636809Y-91614171D01*
X148419094Y-90924743D02*
X148419094Y-90416743D01*
X149181094Y-90743314D01*
X135012974Y-88477997D02*
X134650117Y-88731997D01*
X135012974Y-88913425D02*
X134250974Y-88913425D01*
X134250974Y-88623140D01*
X134287260Y-88550568D01*
X134323546Y-88514283D01*
X134396117Y-88477997D01*
X134504974Y-88477997D01*
X134577546Y-88514283D01*
X134613831Y-88550568D01*
X134650117Y-88623140D01*
X134650117Y-88913425D01*
X135012974Y-87752283D02*
X135012974Y-88187711D01*
X135012974Y-87969997D02*
X134250974Y-87969997D01*
X134359831Y-88042568D01*
X134432403Y-88115140D01*
X134468689Y-88187711D01*
X134577546Y-87316854D02*
X134541260Y-87389426D01*
X134504974Y-87425711D01*
X134432403Y-87461997D01*
X134396117Y-87461997D01*
X134323546Y-87425711D01*
X134287260Y-87389426D01*
X134250974Y-87316854D01*
X134250974Y-87171711D01*
X134287260Y-87099140D01*
X134323546Y-87062854D01*
X134396117Y-87026569D01*
X134432403Y-87026569D01*
X134504974Y-87062854D01*
X134541260Y-87099140D01*
X134577546Y-87171711D01*
X134577546Y-87316854D01*
X134613831Y-87389426D01*
X134650117Y-87425711D01*
X134722689Y-87461997D01*
X134867831Y-87461997D01*
X134940403Y-87425711D01*
X134976689Y-87389426D01*
X135012974Y-87316854D01*
X135012974Y-87171711D01*
X134976689Y-87099140D01*
X134940403Y-87062854D01*
X134867831Y-87026569D01*
X134722689Y-87026569D01*
X134650117Y-87062854D01*
X134613831Y-87099140D01*
X134577546Y-87171711D01*
X119983794Y-108422077D02*
X119620937Y-108676077D01*
X119983794Y-108857505D02*
X119221794Y-108857505D01*
X119221794Y-108567220D01*
X119258080Y-108494648D01*
X119294366Y-108458363D01*
X119366937Y-108422077D01*
X119475794Y-108422077D01*
X119548366Y-108458363D01*
X119584651Y-108494648D01*
X119620937Y-108567220D01*
X119620937Y-108857505D01*
X119983794Y-107696363D02*
X119983794Y-108131791D01*
X119983794Y-107914077D02*
X119221794Y-107914077D01*
X119330651Y-107986648D01*
X119403223Y-108059220D01*
X119439509Y-108131791D01*
X119983794Y-107333506D02*
X119983794Y-107188363D01*
X119947509Y-107115791D01*
X119911223Y-107079506D01*
X119802366Y-107006934D01*
X119657223Y-106970649D01*
X119366937Y-106970649D01*
X119294366Y-107006934D01*
X119258080Y-107043220D01*
X119221794Y-107115791D01*
X119221794Y-107260934D01*
X119258080Y-107333506D01*
X119294366Y-107369791D01*
X119366937Y-107406077D01*
X119548366Y-107406077D01*
X119620937Y-107369791D01*
X119657223Y-107333506D01*
X119693509Y-107260934D01*
X119693509Y-107115791D01*
X119657223Y-107043220D01*
X119620937Y-107006934D01*
X119548366Y-106970649D01*
X112691454Y-114093897D02*
X112328597Y-114347897D01*
X112691454Y-114529325D02*
X111929454Y-114529325D01*
X111929454Y-114239040D01*
X111965740Y-114166468D01*
X112002026Y-114130183D01*
X112074597Y-114093897D01*
X112183454Y-114093897D01*
X112256026Y-114130183D01*
X112292311Y-114166468D01*
X112328597Y-114239040D01*
X112328597Y-114529325D01*
X112002026Y-113803611D02*
X111965740Y-113767325D01*
X111929454Y-113694754D01*
X111929454Y-113513325D01*
X111965740Y-113440754D01*
X112002026Y-113404468D01*
X112074597Y-113368183D01*
X112147169Y-113368183D01*
X112256026Y-113404468D01*
X112691454Y-113839897D01*
X112691454Y-113368183D01*
X111929454Y-112896469D02*
X111929454Y-112823897D01*
X111965740Y-112751326D01*
X112002026Y-112715040D01*
X112074597Y-112678754D01*
X112219740Y-112642469D01*
X112401169Y-112642469D01*
X112546311Y-112678754D01*
X112618883Y-112715040D01*
X112655169Y-112751326D01*
X112691454Y-112823897D01*
X112691454Y-112896469D01*
X112655169Y-112969040D01*
X112618883Y-113005326D01*
X112546311Y-113041611D01*
X112401169Y-113077897D01*
X112219740Y-113077897D01*
X112074597Y-113041611D01*
X112002026Y-113005326D01*
X111965740Y-112969040D01*
X111929454Y-112896469D01*
X128548674Y-116593257D02*
X128185817Y-116847257D01*
X128548674Y-117028685D02*
X127786674Y-117028685D01*
X127786674Y-116738400D01*
X127822960Y-116665828D01*
X127859246Y-116629543D01*
X127931817Y-116593257D01*
X128040674Y-116593257D01*
X128113246Y-116629543D01*
X128149531Y-116665828D01*
X128185817Y-116738400D01*
X128185817Y-117028685D01*
X127859246Y-116302971D02*
X127822960Y-116266685D01*
X127786674Y-116194114D01*
X127786674Y-116012685D01*
X127822960Y-115940114D01*
X127859246Y-115903828D01*
X127931817Y-115867543D01*
X128004389Y-115867543D01*
X128113246Y-115903828D01*
X128548674Y-116339257D01*
X128548674Y-115867543D01*
X128548674Y-115141829D02*
X128548674Y-115577257D01*
X128548674Y-115359543D02*
X127786674Y-115359543D01*
X127895531Y-115432114D01*
X127968103Y-115504686D01*
X128004389Y-115577257D01*
X139871994Y-108841177D02*
X139509137Y-109095177D01*
X139871994Y-109276605D02*
X139109994Y-109276605D01*
X139109994Y-108986320D01*
X139146280Y-108913748D01*
X139182566Y-108877463D01*
X139255137Y-108841177D01*
X139363994Y-108841177D01*
X139436566Y-108877463D01*
X139472851Y-108913748D01*
X139509137Y-108986320D01*
X139509137Y-109276605D01*
X139182566Y-108550891D02*
X139146280Y-108514605D01*
X139109994Y-108442034D01*
X139109994Y-108260605D01*
X139146280Y-108188034D01*
X139182566Y-108151748D01*
X139255137Y-108115463D01*
X139327709Y-108115463D01*
X139436566Y-108151748D01*
X139871994Y-108587177D01*
X139871994Y-108115463D01*
X139182566Y-107825177D02*
X139146280Y-107788891D01*
X139109994Y-107716320D01*
X139109994Y-107534891D01*
X139146280Y-107462320D01*
X139182566Y-107426034D01*
X139255137Y-107389749D01*
X139327709Y-107389749D01*
X139436566Y-107426034D01*
X139871994Y-107861463D01*
X139871994Y-107389749D01*
X133008914Y-114065957D02*
X132646057Y-114319957D01*
X133008914Y-114501385D02*
X132246914Y-114501385D01*
X132246914Y-114211100D01*
X132283200Y-114138528D01*
X132319486Y-114102243D01*
X132392057Y-114065957D01*
X132500914Y-114065957D01*
X132573486Y-114102243D01*
X132609771Y-114138528D01*
X132646057Y-114211100D01*
X132646057Y-114501385D01*
X132319486Y-113775671D02*
X132283200Y-113739385D01*
X132246914Y-113666814D01*
X132246914Y-113485385D01*
X132283200Y-113412814D01*
X132319486Y-113376528D01*
X132392057Y-113340243D01*
X132464629Y-113340243D01*
X132573486Y-113376528D01*
X133008914Y-113811957D01*
X133008914Y-113340243D01*
X132246914Y-113086243D02*
X132246914Y-112614529D01*
X132537200Y-112868529D01*
X132537200Y-112759671D01*
X132573486Y-112687100D01*
X132609771Y-112650814D01*
X132682343Y-112614529D01*
X132863771Y-112614529D01*
X132936343Y-112650814D01*
X132972629Y-112687100D01*
X133008914Y-112759671D01*
X133008914Y-112977386D01*
X132972629Y-113049957D01*
X132936343Y-113086243D01*
X146445514Y-116598337D02*
X146082657Y-116852337D01*
X146445514Y-117033765D02*
X145683514Y-117033765D01*
X145683514Y-116743480D01*
X145719800Y-116670908D01*
X145756086Y-116634623D01*
X145828657Y-116598337D01*
X145937514Y-116598337D01*
X146010086Y-116634623D01*
X146046371Y-116670908D01*
X146082657Y-116743480D01*
X146082657Y-117033765D01*
X145756086Y-116308051D02*
X145719800Y-116271765D01*
X145683514Y-116199194D01*
X145683514Y-116017765D01*
X145719800Y-115945194D01*
X145756086Y-115908908D01*
X145828657Y-115872623D01*
X145901229Y-115872623D01*
X146010086Y-115908908D01*
X146445514Y-116344337D01*
X146445514Y-115872623D01*
X145937514Y-115219480D02*
X146445514Y-115219480D01*
X145647229Y-115400909D02*
X146191514Y-115582337D01*
X146191514Y-115110623D01*
X145509343Y-108214160D02*
X145545629Y-108250446D01*
X145581914Y-108359303D01*
X145581914Y-108431874D01*
X145545629Y-108540731D01*
X145473057Y-108613303D01*
X145400486Y-108649588D01*
X145255343Y-108685874D01*
X145146486Y-108685874D01*
X145001343Y-108649588D01*
X144928771Y-108613303D01*
X144856200Y-108540731D01*
X144819914Y-108431874D01*
X144819914Y-108359303D01*
X144856200Y-108250446D01*
X144892486Y-108214160D01*
X145581914Y-107488446D02*
X145581914Y-107923874D01*
X145581914Y-107706160D02*
X144819914Y-107706160D01*
X144928771Y-107778731D01*
X145001343Y-107851303D01*
X145037629Y-107923874D01*
X149565360Y-111142054D02*
X149311360Y-110779197D01*
X149129932Y-111142054D02*
X149129932Y-110380054D01*
X149420217Y-110380054D01*
X149492789Y-110416340D01*
X149529074Y-110452626D01*
X149565360Y-110525197D01*
X149565360Y-110634054D01*
X149529074Y-110706626D01*
X149492789Y-110742911D01*
X149420217Y-110779197D01*
X149129932Y-110779197D01*
X150291074Y-111142054D02*
X149855646Y-111142054D01*
X150073360Y-111142054D02*
X150073360Y-110380054D01*
X150000789Y-110488911D01*
X149928217Y-110561483D01*
X149855646Y-110597769D01*
X149087840Y-104365334D02*
X148833840Y-104002477D01*
X148652412Y-104365334D02*
X148652412Y-103603334D01*
X148942697Y-103603334D01*
X149015269Y-103639620D01*
X149051554Y-103675906D01*
X149087840Y-103748477D01*
X149087840Y-103857334D01*
X149051554Y-103929906D01*
X149015269Y-103966191D01*
X148942697Y-104002477D01*
X148652412Y-104002477D01*
X149378126Y-103675906D02*
X149414412Y-103639620D01*
X149486983Y-103603334D01*
X149668412Y-103603334D01*
X149740983Y-103639620D01*
X149777269Y-103675906D01*
X149813554Y-103748477D01*
X149813554Y-103821049D01*
X149777269Y-103929906D01*
X149341840Y-104365334D01*
X149813554Y-104365334D01*
X134192554Y-100182680D02*
X133829697Y-100436680D01*
X134192554Y-100618108D02*
X133430554Y-100618108D01*
X133430554Y-100327823D01*
X133466840Y-100255251D01*
X133503126Y-100218966D01*
X133575697Y-100182680D01*
X133684554Y-100182680D01*
X133757126Y-100218966D01*
X133793411Y-100255251D01*
X133829697Y-100327823D01*
X133829697Y-100618108D01*
X133430554Y-99928680D02*
X133430554Y-99456966D01*
X133720840Y-99710966D01*
X133720840Y-99602108D01*
X133757126Y-99529537D01*
X133793411Y-99493251D01*
X133865983Y-99456966D01*
X134047411Y-99456966D01*
X134119983Y-99493251D01*
X134156269Y-99529537D01*
X134192554Y-99602108D01*
X134192554Y-99819823D01*
X134156269Y-99892394D01*
X134119983Y-99928680D01*
%LPC*%
D19*
X143346080Y-104693720D03*
X144446080Y-104693720D03*
D20*
X176112520Y-97457340D03*
D21*
X178912520Y-99332340D03*
D22*
X175847520Y-99632340D03*
X175847520Y-98432340D03*
D21*
X178912520Y-98732340D03*
D22*
X175847520Y-99032340D03*
X175847520Y-100232340D03*
X175847520Y-100832340D03*
X175847520Y-101432340D03*
X175847520Y-102032340D03*
X175847520Y-102632340D03*
X175847520Y-103232340D03*
X175847520Y-103832340D03*
X175847520Y-104432340D03*
X175847520Y-105032340D03*
X175847520Y-105632340D03*
X175847520Y-106232340D03*
X175847520Y-106832340D03*
X175847520Y-107432340D03*
X175847520Y-108032340D03*
D21*
X178912520Y-99932340D03*
X178912520Y-100532340D03*
X178912520Y-101132340D03*
X178912520Y-101732340D03*
X178912520Y-102332340D03*
X178912520Y-102932340D03*
X178912520Y-103532340D03*
X178912520Y-104132340D03*
X178912520Y-104732340D03*
X178912520Y-105332340D03*
X178912520Y-105932340D03*
X178912520Y-106532340D03*
X178912520Y-107132340D03*
X178912520Y-107732340D03*
D20*
X176112520Y-109002340D03*
D23*
X189923420Y-98201480D03*
D24*
X189923420Y-95623380D03*
D23*
X187393580Y-98201480D03*
D24*
X187393580Y-95623380D03*
D23*
X182620920Y-98201480D03*
D24*
X182620920Y-95623380D03*
D23*
X187396120Y-89397840D03*
D24*
X187396120Y-86819740D03*
D23*
X185361580Y-89397840D03*
D24*
X185361580Y-86819740D03*
D23*
X182819040Y-89397840D03*
D24*
X182819040Y-86819740D03*
D23*
X180792120Y-89397840D03*
D24*
X180792120Y-86819740D03*
D23*
X184655460Y-98201480D03*
D24*
X184655460Y-95623380D03*
D23*
X187393580Y-107731560D03*
D24*
X187393580Y-105153460D03*
D23*
X180835300Y-115994180D03*
D24*
X180835300Y-113416080D03*
D23*
X189923420Y-107731560D03*
D24*
X189923420Y-105153460D03*
D23*
X185359040Y-115994180D03*
D24*
X185359040Y-113416080D03*
D23*
X184655460Y-107731560D03*
D24*
X184655460Y-105153460D03*
D23*
X187393580Y-115994180D03*
D24*
X187393580Y-113416080D03*
D23*
X182559960Y-107731560D03*
D24*
X182559960Y-105153460D03*
D23*
X182869840Y-115994180D03*
D24*
X182869840Y-113416080D03*
D25*
X115148360Y-116640700D03*
X115148360Y-115540700D03*
D26*
X150380160Y-86166440D03*
D27*
X149963600Y-86166440D03*
D28*
X149449160Y-86166440D03*
D26*
X149111200Y-86166440D03*
X148834200Y-86166440D03*
X148557200Y-86166440D03*
X148280200Y-86166440D03*
X147480160Y-86166440D03*
X147203160Y-86166440D03*
X145680160Y-86166440D03*
X145126160Y-86166440D03*
X139260160Y-86166440D03*
X138983160Y-86166440D03*
X138680160Y-86166440D03*
X138403160Y-86166440D03*
X138126160Y-86166440D03*
X137849160Y-86166440D03*
X137080160Y-86166440D03*
X136803160Y-86166440D03*
D28*
X134749000Y-86166440D03*
D26*
X134370000Y-86166440D03*
D27*
X133553160Y-86166440D03*
D26*
X131380160Y-86166440D03*
D29*
X140923740Y-84977720D03*
X140923740Y-84591640D03*
X140923740Y-85359520D03*
D30*
X142153100Y-86080080D03*
D31*
X148539200Y-100296980D03*
X148539200Y-97637600D03*
X113179860Y-100296980D03*
X113179860Y-97637600D03*
D25*
X150611840Y-90849360D03*
X150611840Y-91949360D03*
D32*
X130081020Y-113794960D03*
X130081020Y-112894960D03*
D25*
X133974840Y-116638160D03*
X133974840Y-115538160D03*
X111031020Y-109884300D03*
X111031020Y-108784300D03*
X120208040Y-116643240D03*
X120208040Y-115543240D03*
X113654840Y-116640700D03*
X113654840Y-115540700D03*
D19*
X138987440Y-105135680D03*
X140087440Y-105135680D03*
D25*
X140675360Y-100011320D03*
X140675360Y-98911320D03*
D19*
X138987440Y-103926640D03*
X140087440Y-103926640D03*
X124115920Y-104693720D03*
X123015920Y-104693720D03*
X124105760Y-103352600D03*
X123005760Y-103352600D03*
X120666600Y-105135680D03*
X119566600Y-105135680D03*
X120666600Y-103926640D03*
X119566600Y-103926640D03*
X143346080Y-103352600D03*
X144446080Y-103352600D03*
D25*
X139456160Y-100041800D03*
X139456160Y-98941800D03*
X137993120Y-99477920D03*
X137993120Y-98377920D03*
X136834880Y-99493160D03*
X136834880Y-98393160D03*
D33*
X136489440Y-96381000D03*
X136489440Y-94881000D03*
D25*
X110733840Y-92261600D03*
X110733840Y-93361600D03*
X110947200Y-88883400D03*
X110947200Y-89983400D03*
X128313180Y-92828020D03*
X128313180Y-93928020D03*
X113344960Y-92312400D03*
X113344960Y-93412400D03*
X127802640Y-87991860D03*
X127802640Y-89091860D03*
X125536960Y-90849360D03*
X125536960Y-91949360D03*
X126438660Y-87989320D03*
X126438660Y-89089320D03*
X124063760Y-87989320D03*
X124063760Y-89089320D03*
X122814080Y-87994400D03*
X122814080Y-89094400D03*
X121127520Y-87994400D03*
X121127520Y-89094400D03*
X119913400Y-87994400D03*
X119913400Y-89094400D03*
X130738880Y-90849360D03*
X130738880Y-91949360D03*
X112247680Y-88024880D03*
X112247680Y-89124880D03*
X150985220Y-93234420D03*
X150985220Y-94334420D03*
X133563360Y-91728200D03*
X133563360Y-92828200D03*
X147665440Y-93226800D03*
X147665440Y-94326800D03*
X147675600Y-88014720D03*
X147675600Y-89114720D03*
X145729960Y-90905240D03*
X145729960Y-92005240D03*
X146342100Y-88014720D03*
X146342100Y-89114720D03*
X144353280Y-88009640D03*
X144353280Y-89109640D03*
X143108680Y-88009640D03*
X143108680Y-89109640D03*
X141368780Y-88009640D03*
X141368780Y-89109640D03*
X140136880Y-88009640D03*
X140136880Y-89109640D03*
X150393400Y-88375400D03*
X150393400Y-89475400D03*
X131381500Y-87961380D03*
X131381500Y-89061380D03*
X110756700Y-107130940D03*
X110756700Y-106030940D03*
X113431320Y-110750440D03*
X113431320Y-109650440D03*
X128016000Y-113783200D03*
X128016000Y-112683200D03*
X115443000Y-114054980D03*
X115443000Y-112954980D03*
X117358160Y-116643240D03*
X117358160Y-115543240D03*
X118607840Y-116643240D03*
X118607840Y-115543240D03*
X121462800Y-116643240D03*
X121462800Y-115543240D03*
X112186720Y-110749080D03*
X112186720Y-109649080D03*
X129306320Y-116643240D03*
X129306320Y-115543240D03*
X151213820Y-113254880D03*
X151213820Y-112154880D03*
X150952200Y-116014500D03*
X150952200Y-114914500D03*
X133700520Y-111558160D03*
X133700520Y-110458160D03*
X148272500Y-113097400D03*
X148272500Y-111997400D03*
X135595360Y-114054980D03*
X135595360Y-112954980D03*
X135280400Y-116640700D03*
X135280400Y-115540700D03*
X137642600Y-116648320D03*
X137642600Y-115548320D03*
X138897360Y-116643240D03*
X138897360Y-115543240D03*
X140522960Y-116643240D03*
X140522960Y-115543240D03*
X141787880Y-116643240D03*
X141787880Y-115543240D03*
X132486400Y-111558160D03*
X132486400Y-110458160D03*
X149661880Y-116998840D03*
X149661880Y-115898840D03*
D33*
X120817640Y-96838200D03*
X120817640Y-95338200D03*
X141620240Y-96497840D03*
X141620240Y-94997840D03*
X121330720Y-109404720D03*
X121330720Y-110904720D03*
X141097000Y-109719680D03*
X141097000Y-111219680D03*
D34*
X128276920Y-99522280D03*
X129776920Y-99522280D03*
D32*
X149707600Y-112819600D03*
X149707600Y-111919600D03*
X149057360Y-93191760D03*
X149057360Y-94091760D03*
X129753360Y-92844200D03*
X129753360Y-93744200D03*
D35*
X140581800Y-101297740D03*
X139681800Y-101297740D03*
X137864000Y-100774500D03*
X136964000Y-100774500D03*
X142440240Y-114122200D03*
X143340240Y-114122200D03*
X143258120Y-112085120D03*
X144158120Y-112085120D03*
D36*
X122438160Y-95488060D03*
X122438160Y-96988060D03*
D32*
X128320800Y-90746160D03*
X128320800Y-91646160D03*
X114508280Y-90670800D03*
X114508280Y-89770800D03*
D36*
X143195040Y-95160400D03*
X143195040Y-96660400D03*
D32*
X147660000Y-90940000D03*
X147660000Y-91840000D03*
X134686040Y-90254240D03*
X134686040Y-89354240D03*
D36*
X119603520Y-110965680D03*
X119603520Y-109465680D03*
D32*
X113466880Y-114061660D03*
X113466880Y-113161660D03*
X126913640Y-115643240D03*
X126913640Y-116543240D03*
D36*
X139496800Y-111367000D03*
X139496800Y-109867000D03*
D32*
X133725920Y-114010860D03*
X133725920Y-113110860D03*
X147142200Y-115643240D03*
X147142200Y-116543240D03*
D37*
X146984720Y-109526200D03*
X146984720Y-106526200D03*
D35*
X149222040Y-109562900D03*
X150122040Y-109562900D03*
D34*
X146625000Y-104100000D03*
X148125000Y-104100000D03*
D36*
X135102600Y-100892040D03*
X135102600Y-99392040D03*
D38*
X149783800Y-106258360D03*
D39*
X125938360Y-105451560D03*
D40*
X127813360Y-102651560D03*
D41*
X128113360Y-105716560D03*
X126913360Y-105716560D03*
D40*
X127213360Y-102651560D03*
D41*
X127513360Y-105716560D03*
X128713360Y-105716560D03*
X129313360Y-105716560D03*
X129913360Y-105716560D03*
X130513360Y-105716560D03*
X131113360Y-105716560D03*
X131713360Y-105716560D03*
X132313360Y-105716560D03*
X132913360Y-105716560D03*
X133513360Y-105716560D03*
X134113360Y-105716560D03*
X134713360Y-105716560D03*
X135313360Y-105716560D03*
X135913360Y-105716560D03*
X136513360Y-105716560D03*
D40*
X128413360Y-102651560D03*
X129013360Y-102651560D03*
X129613360Y-102651560D03*
X130213360Y-102651560D03*
X130813360Y-102651560D03*
X131413360Y-102651560D03*
X132013360Y-102651560D03*
X132613360Y-102651560D03*
X133213360Y-102651560D03*
X133813360Y-102651560D03*
X134413360Y-102651560D03*
X135013360Y-102651560D03*
X135613360Y-102651560D03*
X136213360Y-102651560D03*
D39*
X137483360Y-105451560D03*
D20*
X155325160Y-97457340D03*
D21*
X158125160Y-99332340D03*
D22*
X155060160Y-99632340D03*
X155060160Y-98432340D03*
D21*
X158125160Y-98732340D03*
D22*
X155060160Y-99032340D03*
X155060160Y-100232340D03*
X155060160Y-100832340D03*
X155060160Y-101432340D03*
X155060160Y-102032340D03*
X155060160Y-102632340D03*
X155060160Y-103232340D03*
X155060160Y-103832340D03*
X155060160Y-104432340D03*
X155060160Y-105032340D03*
X155060160Y-105632340D03*
X155060160Y-106232340D03*
X155060160Y-106832340D03*
X155060160Y-107432340D03*
X155060160Y-108032340D03*
D21*
X158125160Y-99932340D03*
X158125160Y-100532340D03*
X158125160Y-101132340D03*
X158125160Y-101732340D03*
X158125160Y-102332340D03*
X158125160Y-102932340D03*
X158125160Y-103532340D03*
X158125160Y-104132340D03*
X158125160Y-104732340D03*
X158125160Y-105332340D03*
X158125160Y-105932340D03*
X158125160Y-106532340D03*
X158125160Y-107132340D03*
X158125160Y-107732340D03*
D20*
X155325160Y-109002340D03*
D26*
X130150160Y-86166440D03*
D27*
X129733600Y-86166440D03*
D28*
X129219160Y-86166440D03*
D26*
X128881200Y-86166440D03*
X128604200Y-86166440D03*
X128327200Y-86166440D03*
X128050200Y-86166440D03*
X127250160Y-86166440D03*
X126973160Y-86166440D03*
X125450160Y-86166440D03*
X124896160Y-86166440D03*
X119030160Y-86166440D03*
X118753160Y-86166440D03*
X118450160Y-86166440D03*
X118173160Y-86166440D03*
X117896160Y-86166440D03*
X117619160Y-86166440D03*
X116850160Y-86166440D03*
X116573160Y-86166440D03*
D28*
X114519000Y-86166440D03*
D26*
X114140000Y-86166440D03*
D27*
X113323160Y-86166440D03*
D26*
X111150160Y-86166440D03*
D29*
X120693740Y-84977720D03*
X120693740Y-84591640D03*
X120693740Y-85359520D03*
D30*
X121923100Y-86080080D03*
D26*
X131469840Y-118503560D03*
D27*
X131886400Y-118503560D03*
D28*
X132400840Y-118503560D03*
D26*
X132738800Y-118503560D03*
X133015800Y-118503560D03*
X133292800Y-118503560D03*
X133569800Y-118503560D03*
X134369840Y-118503560D03*
X134646840Y-118503560D03*
X136169840Y-118503560D03*
X136723840Y-118503560D03*
X142589840Y-118503560D03*
X142866840Y-118503560D03*
X143169840Y-118503560D03*
X143446840Y-118503560D03*
X143723840Y-118503560D03*
X144000840Y-118503560D03*
X144769840Y-118503560D03*
X145046840Y-118503560D03*
D28*
X147101000Y-118503560D03*
D26*
X147480000Y-118503560D03*
D27*
X148296840Y-118503560D03*
D26*
X150469840Y-118503560D03*
D29*
X140926260Y-119692280D03*
X140926260Y-120078360D03*
X140926260Y-119310480D03*
D30*
X139696900Y-118589920D03*
D26*
X111229840Y-118503560D03*
D27*
X111646400Y-118503560D03*
D28*
X112160840Y-118503560D03*
D26*
X112498800Y-118503560D03*
X112775800Y-118503560D03*
X113052800Y-118503560D03*
X113329800Y-118503560D03*
X114129840Y-118503560D03*
X114406840Y-118503560D03*
X115929840Y-118503560D03*
X116483840Y-118503560D03*
X122349840Y-118503560D03*
X122626840Y-118503560D03*
X122929840Y-118503560D03*
X123206840Y-118503560D03*
X123483840Y-118503560D03*
X123760840Y-118503560D03*
X124529840Y-118503560D03*
X124806840Y-118503560D03*
D28*
X126861000Y-118503560D03*
D26*
X127240000Y-118503560D03*
D27*
X128056840Y-118503560D03*
D26*
X130229840Y-118503560D03*
D29*
X120686260Y-119692280D03*
X120686260Y-120078360D03*
X120686260Y-119310480D03*
D30*
X119456900Y-118589920D03*
D23*
X160004760Y-89397840D03*
D24*
X160004760Y-86819740D03*
D23*
X162031680Y-89397840D03*
D24*
X162031680Y-86819740D03*
D23*
X164574220Y-89397840D03*
D24*
X164574220Y-86819740D03*
D23*
X166608760Y-89397840D03*
D24*
X166608760Y-86819740D03*
D23*
X161833560Y-98201480D03*
D24*
X161833560Y-95623380D03*
D23*
X163868100Y-98201480D03*
D24*
X163868100Y-95623380D03*
D23*
X166606220Y-98201480D03*
D24*
X166606220Y-95623380D03*
D23*
X169136060Y-98201480D03*
D24*
X169136060Y-95623380D03*
D23*
X161772600Y-107731560D03*
D24*
X161772600Y-105153460D03*
D23*
X166606220Y-115994180D03*
D24*
X166606220Y-113416080D03*
D23*
X162082480Y-115994180D03*
D24*
X162082480Y-113416080D03*
D23*
X163868100Y-107731560D03*
D24*
X163868100Y-105153460D03*
D23*
X164571680Y-115994180D03*
D24*
X164571680Y-113416080D03*
D23*
X160047940Y-115994180D03*
D24*
X160047940Y-113416080D03*
D23*
X169136060Y-107731560D03*
D24*
X169136060Y-105153460D03*
D23*
X166606220Y-107731560D03*
D24*
X166606220Y-105153460D03*
D42*
G36*
X136673000Y-106048000D02*
X126752000Y-106048000D01*
X126752000Y-105377000D01*
X136673000Y-105377000D01*
X136673000Y-106048000D01*
X136673000Y-106048000D01*
G37*
X136673000Y-106048000D02*
X126752000Y-106048000D01*
X126752000Y-105377000D01*
X136673000Y-105377000D01*
X136673000Y-106048000D01*
G36*
X136373000Y-102898000D02*
X127052000Y-102898000D01*
X127052000Y-102402000D01*
X136373000Y-102402000D01*
X136373000Y-102898000D01*
X136373000Y-102898000D01*
G37*
X136373000Y-102898000D02*
X127052000Y-102898000D01*
X127052000Y-102402000D01*
X136373000Y-102402000D01*
X136373000Y-102898000D01*
G36*
X155394660Y-108181140D02*
X154721560Y-108181140D01*
X154721560Y-98280220D01*
X155394660Y-98280220D01*
X155394660Y-108181140D01*
X155394660Y-108181140D01*
G37*
X155394660Y-108181140D02*
X154721560Y-108181140D01*
X154721560Y-98280220D01*
X155394660Y-98280220D01*
X155394660Y-108181140D01*
G36*
X158384240Y-107886500D02*
X157873700Y-107886500D01*
X157873700Y-98585020D01*
X158384240Y-98585020D01*
X158384240Y-107886500D01*
X158384240Y-107886500D01*
G37*
X158384240Y-107886500D02*
X157873700Y-107886500D01*
X157873700Y-98585020D01*
X158384240Y-98585020D01*
X158384240Y-107886500D01*
G36*
X151749760Y-86667340D02*
X109956600Y-86667340D01*
X109956600Y-84452460D01*
X151749760Y-84452460D01*
X151749760Y-86667340D01*
X151749760Y-86667340D01*
G37*
X151749760Y-86667340D02*
X109956600Y-86667340D01*
X109956600Y-84452460D01*
X151749760Y-84452460D01*
X151749760Y-86667340D01*
G36*
X151752300Y-120246140D02*
X109956600Y-120246140D01*
X109956600Y-118003320D01*
X111028480Y-118003320D01*
X111041023Y-118000780D01*
X151752300Y-118000780D01*
X151752300Y-120246140D01*
X151752300Y-120246140D01*
G37*
X151752300Y-120246140D02*
X109956600Y-120246140D01*
X109956600Y-118003320D01*
X111028480Y-118003320D01*
X111041023Y-118000780D01*
X151752300Y-118000780D01*
X151752300Y-120246140D01*
G36*
X176182020Y-108181140D02*
X175508920Y-108181140D01*
X175508920Y-98280220D01*
X176182020Y-98280220D01*
X176182020Y-108181140D01*
X176182020Y-108181140D01*
G37*
X176182020Y-108181140D02*
X175508920Y-108181140D01*
X175508920Y-98280220D01*
X176182020Y-98280220D01*
X176182020Y-108181140D01*
G36*
X179171600Y-107886500D02*
X178661060Y-107886500D01*
X178661060Y-98585020D01*
X179171600Y-98585020D01*
X179171600Y-107886500D01*
X179171600Y-107886500D01*
G37*
X179171600Y-107886500D02*
X178661060Y-107886500D01*
X178661060Y-98585020D01*
X179171600Y-98585020D01*
X179171600Y-107886500D01*
M02*
